<svg xmlns="http://www.w3.org/2000/svg" width="272" height="34" viewBox="0 0 272 34" fill="none"><g clip-path="url(#clip0_1_3)"><path d="M8.31 3.74112e-06V32.9H0V3.74112e-06H8.31ZM37.47 3.74112e-06V22.64L23.38 3.74112e-06H12.64V32.9H20.94V10.85L35.42 32.9H45.77V3.74112e-06H37.47ZM89.1 3.74112e-06L73.54 32.9H73.53L89.09 3.74112e-06H89.1ZM65.05 32.9H65.04L49.79 3.74112e-06H49.8L65.05 32.9ZM79.37 3.74112e-06L69.44 23.55L59.51 3.74112e-06H49.8L65.05 32.9H73.53L89.09 3.74112e-06H79.37ZM118.33 13.28H97.6V13.04C97.52 11.34 98.27 9.68 99.63 8.59C100.955 7.35465 102.709 6.68391 104.52 6.72H118.16V3.74112e-06H103.41C102.2 -0.0199963 100.99 0.0700038 99.76 0.280004C97.77 0.780004 95.86 1.58 94.12 2.63C92.09 3.75 90.48 5.86 89.33 8.9C88.3524 11.3672 87.847 13.9962 87.84 16.65C87.84 21.34 89.09 25.21 91.56 28.16C94.19 31.31 97.86 32.9 102.47 32.9H118.33V26.17H103.96C102.25 26.23 100.6 25.48 99.45 24.18C98.3576 23.0187 97.7066 21.5114 97.61 19.92H118.33V13.28ZM146.91 3.74112e-06V22.64L132.82 3.74112e-06H122.07V32.9H130.39V10.86L144.85 32.9H155.22V3.74112e-06H146.91ZM158.65 3.74112e-06V6.72H169.99V32.9H178.3V6.72H189.66V3.74112e-06H158.65ZM217.81 3.74112e-06V20.41C217.81 22.91 217.11 24.63 215.66 25.67C214.45 26.51 212.47 26.94 209.76 26.94C207.82 27.04 205.86 26.49 204.27 25.41C203.514 24.822 202.914 24.058 202.522 23.1847C202.13 22.3114 201.958 21.3553 202.02 20.4V3.74112e-06H193.7V21.67C193.51 25.53 195.48 29.11 198.82 31.01C201.52 32.65 205.09 33.47 209.44 33.47C214.27 33.47 218.04 32.81 220.63 31.52C224.28 29.69 226.13 26.49 226.13 22V3.74112e-06H217.81ZM259.62 3.74112e-06L251.12 24.51L242.24 3.74112e-06H230.47V32.9H238.44V10.49L246.78 32.9H255.58L263.62 11.07V32.9H271.58V3.74112e-06H259.62Z" fill="#AB1B40"></path></g><defs><clipPath id="clip0_1_3"><rect width="271.58" height="33.47" fill="white"></rect></clipPath></defs></svg>