<svg width="10" height="10" viewBox="0 0 10 10" fill="none" xmlns="http://www.w3.org/2000/svg">
<path fill-rule="evenodd" clip-rule="evenodd" d="M9.41603 0.376004C9.58152 0.486342 9.69639 0.657896 9.7354 0.85293C9.77441 1.04796 9.73435 1.25051 9.62403 1.416L4.62403 8.916C4.56245 9.00825 4.48117 9.08569 4.38606 9.14274C4.29095 9.19979 4.18437 9.23504 4.07399 9.24594C3.96362 9.25685 3.8522 9.24313 3.74776 9.20579C3.64333 9.16845 3.54847 9.10842 3.47003 9.03L0.47003 6.03C0.33755 5.88783 0.265426 5.69978 0.268855 5.50548C0.272283 5.31118 0.350995 5.1258 0.488408 4.98838C0.625821 4.85097 0.811206 4.77226 1.00551 4.76883C1.19981 4.7654 1.38785 4.83752 1.53003 4.97L3.88303 7.323L8.37603 0.583004C8.48652 0.417681 8.65815 0.303005 8.85317 0.264188C9.0482 0.225371 9.25065 0.26559 9.41603 0.376004Z" fill="#FF0000" stroke="#FF0000" stroke-width="0.5"/>
</svg>
