<?xml version="1.0" encoding="UTF-8"?><svg xmlns="http://www.w3.org/2000/svg" id="Layer_1" viewBox="0 0 550 133.66"><defs><style>.cls-1{fill:#de5142;}</style></defs><path class="cls-1" d="M190.51,81.36c-9.05,0-14.01-5.72-12.77-14.01,1.33-8.39,8.29-14.1,17.15-14.1,4.76,0,8.86,2.19,11.43,5.53l8.77-7.15c-4.76-5.24-11.43-8-18.68-8-14.77,0-27.44,9.81-29.63,23.73-2.19,14.01,7.24,23.82,22.11,23.82,7.53,0,14.96-3.05,21.53-8.29l-6.29-7.24c-4.57,4-9.24,5.72-13.63,5.72"/><path class="cls-1" d="M249.37,44.1s-1.85-.31-1.98-.32c-2.07-.26-4.2-.16-6.27.02-1.9.17-3.79.48-5.61,1.02-1.63.48-3.21,1.15-4.66,2.05l.38-2.19h-10.67l-7.15,45.36h10.67l4.19-26.4c.23-1.51.79-2.96,1.63-4.24.81-1.23,1.87-2.3,3.07-3.16,1.21-.88,2.57-1.56,3.98-2.05,1.41-.49,2.89-.79,4.38-.9,2.08-.15,4.21.01,6.26.39.07.01.14.03.21.04,0,0,1.56-9.62,1.56-9.62"/><path class="cls-1" d="M286.46,47.51c-2.93-2.55-7.49-3.88-12.77-3.88-13.26,0-25.34,9.56-27.61,23.56-2.18,14.01,6.96,23.66,19.86,23.66,5.73,0,10.67-.85,14.63-3.6l-.38,2.46h9.67l7.11-45.05h-10.03l-.48,2.84ZM284.29,67.24v-.05c-1.35,8.57-7.78,14.66-16.16,14.66s-13.22-6.18-11.87-14.66c1.35-8.48,8.07-14.39,16.45-14.39s12.93,5.86,11.58,14.44"/><path class="cls-1" d="M346.13,44.68l2-12.86-12.2,8.69-.66,4.18h-13.7l1.38-8.63c.76-4.1,5.14-3.84,5.14-3.84h5.16l1.52-9.44h-7.33c-14.57,0-15.01,11.27-15.01,11.27l-.88,5.31-.86,5.33h-.97l-11.81,9.44h11.26l-7.26,45.98h10.87l7.26-45.98h13.7l-5.64,35.92h10.86l5.64-35.92h13.51l1.52-9.44h-13.51Z"/><path class="cls-1" d="M374.95,67.36c2.19-13.91,14.87-23.73,29.63-23.73,7.24,0,13.91,2.76,18.68,8l-8.77,7.15c-2.57-3.33-6.67-5.53-11.44-5.53-8.86,0-15.82,5.72-17.15,14.1-1.24,8.29,3.72,14.01,12.77,14.01,4.38,0,9.05-1.72,13.63-5.72l6.29,7.24c-6.57,5.24-14.01,8.29-21.53,8.29-14.87,0-24.3-9.81-22.11-23.82"/><path class="cls-1" d="M501.67,62.5l-4.29,27.54h-10.67l4.19-26.77c1.05-6.29-2.38-10.01-8.38-10.01-6.38,0-12.77,3.91-13.72,10.39l-4.19,26.4h-10.58l4.19-26.77c.96-6.1-2.67-9.81-8.38-10.01-6,.38-12.86,4-13.82,10.39l-4.19,26.4h-10.67l7.15-45.36h10.67l-.38,2.19c3.62-2.19,7.72-3.05,12.77-3.24h.95c6.57,0,11.91,2.67,14.77,7.24,4.38-4.48,11.05-7.24,17.82-7.24,11.62,0,18.58,7.62,16.77,18.87"/><path class="cls-1" d="M501.12,84.51l6.57-8.2c3.52,2.76,10.48,5.05,16.2,5.05,5.24,0,10.67-1.14,11.24-4.76.48-2.86-4.67-3.72-10.48-4.76-12.01-2.1-18.2-4.57-16.87-13.53,1.81-11.34,13.63-14.67,23.35-14.67,6.95,0,14.01,2.29,18.87,5.62l-6.57,8.1c-3.72-2.38-8.67-4.1-14.01-4.1-6.48,0-10.19,1.81-10.67,4.86-.38,2.1,1.43,2.76,8.96,4.1,10.96,1.91,20.01,3.62,18.29,14.1-1.43,9.53-11.05,14.87-23.73,14.87-7.05,0-16.1-2.48-21.15-6.67"/><path class="cls-1" d="M119.6,0H14.07C6.33,0,0,6.33,0,14.07v105.53c0,7.74,6.33,14.07,14.07,14.07h105.53c7.74,0,14.07-6.33,14.07-14.07V14.07c0-7.74-6.33-14.07-14.07-14.07M66.56,81.36c4.38,0,9.05-1.72,13.63-5.72l6.29,7.24c-6.57,5.24-14.01,8.29-21.53,8.29-14.87,0-24.3-9.81-22.11-23.82,2.19-13.91,14.87-23.73,29.63-23.73,7.24,0,13.91,2.76,18.68,8l-8.77,7.15c-2.57-3.33-6.67-5.53-11.43-5.53-8.86,0-15.82,5.72-17.15,14.1-1.24,8.29,3.72,14.01,12.77,14.01"/></svg>