<svg width="46" height="44" viewBox="0 0 46 44" fill="none" xmlns="http://www.w3.org/2000/svg">
<path d="M16.7217 13.0201L16.7217 7.50318C16.7217 6.47324 17.556 5.63892 18.5859 5.63892L42.6817 5.63892C43.7116 5.63892 44.5459 6.47324 44.5459 7.50318L44.5459 21.6149C44.5459 22.6449 43.7116 23.4792 42.6817 23.4792L20.8374 23.4792" stroke="#FF2D20" stroke-width="2" stroke-linejoin="round"/>
<path d="M20.8375 23.4832C21.3405 23.4832 22.582 24.2975 22.4822 25.6029C22.3425 27.4911 21.0451 28.4372 20.0112 29.2676C19.9792 30.4213 19.6519 31.5111 19.1848 32.5729C18.3505 34.4652 16.9932 35.9781 15.2048 37.2556C14.2028 37.9741 12.9892 38.3614 11.7437 38.3614C10.4982 38.3614 9.28866 37.9741 8.28267 37.2556C6.49425 35.9781 5.13697 34.4652 4.30264 32.5729C3.83558 31.5111 3.50823 30.4213 3.4763 29.2676C2.43838 28.4372 1.14497 27.4911 1.00525 25.6029C0.90944 24.2935 2.15095 23.4832 2.64995 23.4832" stroke="#FF2D20" stroke-width="2" stroke-miterlimit="10"/>
<path d="M19.4282 21.4872C17.5719 20.609 15.8753 18.5251 15.8753 18.5251C10.9172 21.8305 3.85937 21.2677 3.85937 21.2677" stroke="#FF2D20" stroke-width="2" stroke-miterlimit="10"/>
<path d="M1.19268 21.4872C0.466134 18.3056 1.84737 14.6889 4.61383 12.8925C7.68368 10.9005 12.1308 11.3595 14.7216 13.9344C14.7216 13.9344 16.3543 12.7008 18.0908 12.9444C21.9072 13.4713 22.2385 18.4254 21.7834 21.3316" stroke="#FF2D20" stroke-width="2" stroke-miterlimit="10"/>
<path d="M32.9413 10.1179L29.4443 19.2396" stroke="#FF2D20" stroke-width="2" stroke-linejoin="round"/>
<path d="M34.75 11.1719L38.6941 14.6888L34.75 18.114" stroke="#FF2D20" stroke-width="2" stroke-linejoin="round"/>
<path d="M28.0154 18.114L24.0713 14.597L28.0154 11.1719" stroke="#FF2D20" stroke-width="2" stroke-linejoin="round"/>
</svg>
