<svg width="44" height="44" viewBox="0 0 44 44" fill="none" xmlns="http://www.w3.org/2000/svg">
<rect width="44" height="44" fill="#FFEBE8"/>
<path d="M27.1177 36.4652V34.4793C31.5674 34.6729 32.1295 34.2513 32.348 34.0889C32.6135 33.8922 33.2192 33.4363 33.5908 28.3902H35.2677C35.7735 28.3902 36.0858 28.2809 36.2825 28.0436C36.523 27.7531 36.5636 27.2629 36.4168 26.5041C36.2607 25.7141 35.3333 23.2222 33.6564 19.0973L33.5815 18.9099C33.1474 15.2721 31.2145 11.9933 28.2668 9.89803C25.2847 7.78402 21.5032 7.04083 17.8903 7.86208C13.7279 8.80511 10.2399 11.8871 8.77853 15.8997C6.78942 21.3736 8.70671 27.5096 13.4468 30.8383V36.4621" stroke="#FF2D20" stroke-width="1.5" stroke-linecap="round" stroke-linejoin="round"/>
<path d="M21.8467 13L18.5527 21.5909" stroke="#FF2D20" stroke-width="1.5" stroke-linejoin="round"/>
<path d="M24.2866 13.9946L27.9998 17.3052L24.2866 20.5293" stroke="#FF2D20" stroke-width="1.5" stroke-linejoin="round"/>
<path d="M16.7165 20.5293L13 17.2187L16.7165 13.9946" stroke="#FF2D20" stroke-width="1.5" stroke-linejoin="round"/>
</svg>
