<svg width="44" height="44" viewBox="0 0 44 44" fill="none" xmlns="http://www.w3.org/2000/svg">
<rect width="44" height="44" fill="#FFEBE8"/>
<path d="M22.1009 22.6208C24.4815 22.6208 26.4113 20.6909 26.4113 18.3104C26.4113 15.9298 24.4815 14 22.1009 14C19.7203 14 17.7905 15.9298 17.7905 18.3104C17.7905 20.6909 19.7203 22.6208 22.1009 22.6208Z" stroke="#FF2D20" stroke-width="1.5" stroke-linejoin="round"/>
<path d="M30.0159 30.0002C25.7953 25.7796 22.1007 26.1131 22.1007 26.1131C22.1007 26.1131 18.4061 25.7796 14.1855 30.0002" stroke="#FF2D20" stroke-width="1.5" stroke-linejoin="round"/>
<path d="M33.3259 23.9774C35.1414 23.9774 36.6132 22.5057 36.6132 20.6901C36.6132 18.8746 35.1414 17.4028 33.3259 17.4028C31.5104 17.4028 30.0386 18.8746 30.0386 20.6901C30.0386 22.5057 31.5104 23.9774 33.3259 23.9774Z" stroke="#FF2D20" stroke-width="1.5" stroke-linejoin="round"/>
<path d="M39.3618 29.606C36.1419 26.3861 33.326 26.6394 33.326 26.6394C33.326 26.6394 31.1676 26.447 28.4736 28.5541" stroke="#FF2D20" stroke-width="1.5" stroke-linejoin="round"/>
<path d="M10.6706 23.9774C12.4861 23.9774 13.9579 22.5057 13.9579 20.6901C13.9579 18.8746 12.4861 17.4028 10.6706 17.4028C8.85508 17.4028 7.3833 18.8746 7.3833 20.6901C7.3833 22.5057 8.85508 23.9774 10.6706 23.9774Z" stroke="#FF2D20" stroke-width="1.5" stroke-linejoin="round"/>
<path d="M15.5777 28.5957C12.858 26.4437 10.674 26.6425 10.674 26.6425C10.674 26.6425 7.85493 26.3892 4.63818 29.6091" stroke="#FF2D20" stroke-width="1.5" stroke-linejoin="round"/>
</svg>
