<svg width="44" height="44" viewBox="0 0 44 44" fill="none" xmlns="http://www.w3.org/2000/svg">
<rect width="44" height="44" fill="#FFEBE8"/>
<path d="M24.9634 9.12305C29.5977 10.2133 33.2947 13.7437 34.62 18.2824" stroke="#FF2D20" stroke-width="1.5" stroke-linejoin="round"/>
<path d="M34.9397 24.3647C34.0052 29.5483 30.0513 33.6798 24.9634 34.8766" stroke="#FF2D20" stroke-width="1.5" stroke-linejoin="round"/>
<path d="M18.8778 9.12305C14.2435 10.2133 10.5464 13.7437 9.22119 18.2824" stroke="#FF2D20" stroke-width="1.5" stroke-linejoin="round"/>
<path d="M8.90186 24.3647C9.83637 29.5483 13.7903 33.6798 18.8782 34.8766" stroke="#FF2D20" stroke-width="1.5" stroke-linejoin="round"/>
<path d="M34.6198 24.7035C36.4866 24.7035 37.9999 23.1902 37.9999 21.3235C37.9999 19.4567 36.4866 17.9434 34.6198 17.9434C32.7531 17.9434 31.2397 19.4567 31.2397 21.3235C31.2397 23.1902 32.7531 24.7035 34.6198 24.7035Z" stroke="#FF2D20" stroke-width="1.5" stroke-linejoin="round"/>
<path d="M21.9192 12.5033C23.7859 12.5033 25.2992 10.99 25.2992 9.12326C25.2992 7.25648 23.7859 5.74316 21.9192 5.74316C20.0524 5.74316 18.5391 7.25648 18.5391 9.12326C18.5391 10.99 20.0524 12.5033 21.9192 12.5033Z" stroke="#FF2D20" stroke-width="1.5" stroke-linejoin="round"/>
<path d="M21.9192 38.2568C23.7859 38.2568 25.2992 36.7434 25.2992 34.8767C25.2992 33.0099 23.7859 31.4966 21.9192 31.4966C20.0524 31.4966 18.5391 33.0099 18.5391 34.8767C18.5391 36.7434 20.0524 38.2568 21.9192 38.2568Z" stroke="#FF2D20" stroke-width="1.5" stroke-linejoin="round"/>
<path d="M9.38009 24.7035C11.2469 24.7035 12.7602 23.1902 12.7602 21.3235C12.7602 19.4567 11.2469 17.9434 9.38009 17.9434C7.51332 17.9434 6 19.4567 6 21.3235C6 23.1902 7.51332 24.7035 9.38009 24.7035Z" stroke="#FF2D20" stroke-width="1.5" stroke-linejoin="round"/>
</svg>
