<svg width="44" height="44" viewBox="0 0 44 44" fill="none" xmlns="http://www.w3.org/2000/svg">
<path d="M14.5325 15.7848C17.1056 11.9412 21.4816 9.41235 26.4545 9.41235C34.3716 9.41235 40.7884 15.8291 40.7884 23.7462C40.7884 31.6633 34.3716 38.0801 26.4545 38.0801C21.2719 38.0801 16.7306 35.3295 14.2139 31.2076" stroke="#FF2D20" stroke-width="2" stroke-linejoin="round"/>
<path d="M6.94629 19.217H18.4368" stroke="#FF2D20" stroke-width="2" stroke-linejoin="round"/>
<path d="M6.94629 28.5376H18.4368" stroke="#FF2D20" stroke-width="2" stroke-linejoin="round"/>
<path d="M3.21143 23.8752H15.6941" stroke="#FF2D20" stroke-width="2" stroke-linejoin="round"/>
<path d="M27.197 26.2024C28.3753 26.2024 29.3306 25.2472 29.3306 24.0688C29.3306 22.8905 28.3753 21.9353 27.197 21.9353C26.0187 21.9353 25.0635 22.8905 25.0635 24.0688C25.0635 25.2472 26.0187 26.2024 27.197 26.2024Z" stroke="#FF2D20" stroke-width="2" stroke-linejoin="round"/>
<path d="M28.5762 22.4435L32.7344 18.2812" stroke="#FF2D20" stroke-width="2" stroke-linejoin="round"/>
<path d="M21.6387 5.91968H32.7299" stroke="#FF2D20" stroke-width="2" stroke-linejoin="round"/>
<path d="M24.1719 9.41644V5.91968H30.1934V9.41644" stroke="#FF2D20" stroke-width="2" stroke-linejoin="round"/>
</svg>
