<svg width="44" height="44" viewBox="0 0 44 44" fill="none" xmlns="http://www.w3.org/2000/svg">
<path d="M5.229 18.1828L5.229 6.87016C5.229 5.57834 6.27731 4.53003 7.56913 4.53003L39.6252 4.53003C40.917 4.53003 41.9653 5.57834 41.9653 6.87016L41.9653 30.8822C41.9653 32.2318 40.8716 33.3297 39.5178 33.3297L25.7041 33.3297" stroke="#FF2D20" stroke-width="2" stroke-linejoin="round"/>
<path d="M5.20215 9.12402L41.3854 9.12402" stroke="#FF2D20" stroke-width="2" stroke-linejoin="round"/>
<path d="M25.6996 19.8657L13.8669 13.6377L2.03418 19.8657" stroke="#FF2D20" stroke-width="2" stroke-linejoin="round"/>
<path d="M2.03418 19.8657L13.8669 26.0937L25.6996 19.8657" stroke="#FF2D20" stroke-width="2" stroke-linejoin="round"/>
<path d="M25.6994 33.242L13.8667 39.47L13.8667 26.0937L25.6994 19.8657L25.6994 33.242Z" stroke="#FF2D20" stroke-width="2" stroke-linejoin="round"/>
<path d="M2.03418 33.242L13.8669 39.47L13.8669 26.0937L2.03418 19.8657L2.03418 33.242Z" stroke="#FF2D20" stroke-width="2" stroke-linejoin="round"/>
</svg>
