<svg width="44" height="44" viewBox="0 0 44 44" fill="none" xmlns="http://www.w3.org/2000/svg">
<path d="M29.3533 11.6527C29.305 8.84962 27.5948 6.34392 25.2081 5.07248C24.7657 4.81596 24.2452 5.17658 24.3419 5.61154L24.4497 11.7382L19.5461 11.8275L19.4383 5.70077C19.4272 5.17658 18.9848 4.92006 18.5535 5.19145C16.1259 6.45917 14.505 9.02806 14.6463 11.9167C14.702 15.0692 16.8545 17.8315 19.6725 18.8315L19.0033 35.3936C18.9513 37.4086 20.5573 39.1299 22.5723 39.0072C24.6728 38.97 26.1301 37.2785 26.0074 35.2672L24.7508 18.7386C27.5316 17.6381 29.4983 14.8871 29.3533 11.649L29.3533 11.6527Z" stroke="#FF2D20" stroke-width="2" stroke-linejoin="round"/>
<path d="M31.1602 18.8948L40.023 26.7985L31.1602 34.4903" stroke="#FF2D20" stroke-width="2" stroke-linejoin="round"/>
<path d="M12.8394 34.4903L3.97656 26.5866L12.8394 18.8948" stroke="#FF2D20" stroke-width="2" stroke-linejoin="round"/>
</svg>
