<svg width="44" height="44" viewBox="0 0 44 44" fill="none" xmlns="http://www.w3.org/2000/svg">
<rect width="44" height="44" fill="#FFEBE8"/>
<path d="M13.5802 39.8846C13.5802 39.8846 17.5685 38.33 19.9646 34.8077C22.3607 31.2824 21.8539 21.5447 21.8539 21.5447L13.5802 18.207L5.30641 21.5478C5.30641 21.5478 4.79966 31.2824 7.1989 34.8109C9.59188 38.3331 13.5833 39.8877 13.5833 39.8877L13.5802 39.8846Z" stroke="#FF2D20" stroke-width="1.5" stroke-linejoin="round"/>
<path d="M37.4448 13.3804C37.8389 13.3804 38.8118 14.0185 38.7336 15.0414C38.6241 16.521 37.6075 17.2623 36.7973 17.913C36.7723 18.817 36.5158 19.6709 36.1498 20.503C35.496 21.9857 34.4325 23.1713 33.0311 24.1722C32.2459 24.7353 31.295 25.0387 30.319 25.0387C29.3431 25.0387 28.3953 24.7353 27.607 24.1722C26.2056 23.1713 25.1421 21.9857 24.4883 20.503C24.1223 19.6709 23.8658 18.817 23.8408 17.913C23.0275 17.2623 22.014 16.521 21.9045 15.0414C21.8294 14.0154 22.8023 13.3804 23.1933 13.3804" stroke="#FF2D20" stroke-width="1.5" stroke-miterlimit="10"/>
<path d="M36.3401 11.8162C34.8856 11.128 33.5561 9.49512 33.5561 9.49512C29.6711 12.0852 24.1406 11.6441 24.1406 11.6441" stroke="#FF2D20" stroke-width="1.5" stroke-miterlimit="10"/>
<path d="M26.421 23.1934L26.0268 26.3339C25.8829 27.4882 24.9977 28.3985 23.8497 28.5737H21.9009" stroke="#FF2D20" stroke-width="1.5" stroke-miterlimit="10"/>
<path d="M34.2197 23.1934L34.6139 26.3339C34.7578 27.4882 35.643 28.3985 36.791 28.5737" stroke="#FF2D20" stroke-width="1.5" stroke-miterlimit="10"/>
<path d="M22.0516 11.8164C21.4823 9.32332 22.5646 6.48928 24.7323 5.08164C27.1378 3.52073 30.6225 3.88046 32.6526 5.89807C32.6526 5.89807 33.932 4.9315 35.2927 5.12231C38.2832 5.53522 38.5428 9.41716 38.1862 11.6944" stroke="#FF2D20" stroke-width="1.5" stroke-miterlimit="10"/>
<path d="M9.56689 28.6704L12.6856 31.5482L18.8729 25.5986" stroke="#FF2D20" stroke-width="1.5" stroke-linejoin="round"/>
</svg>
