<svg width="22" height="22" viewBox="0 0 22 22" fill="none" xmlns="http://www.w3.org/2000/svg">
<path d="M12.2692 16.5C12.2692 16.751 12.1948 16.9964 12.0553 17.2051C11.9159 17.4139 11.7176 17.5765 11.4857 17.6726C11.2538 17.7687 10.9986 17.7938 10.7524 17.7448C10.5062 17.6959 10.28 17.575 10.1025 17.3975C9.92502 17.22 9.80413 16.9938 9.75516 16.7476C9.70619 16.5014 9.73132 16.2462 9.82739 16.0143C9.92345 15.7824 10.0861 15.5841 10.2949 15.4447C10.5036 15.3052 10.749 15.2308 11 15.2308C11.3366 15.2308 11.6595 15.3645 11.8975 15.6025C12.1355 15.8405 12.2692 16.1634 12.2692 16.5ZM11 5.07692C8.66673 5.07692 6.76923 6.7851 6.76923 8.88461V9.30769C6.76923 9.5321 6.85838 9.74733 7.01707 9.90601C7.17575 10.0647 7.39097 10.1538 7.61539 10.1538C7.8398 10.1538 8.05502 10.0647 8.21371 9.90601C8.37239 9.74733 8.46154 9.5321 8.46154 9.30769V8.88461C8.46154 7.72115 9.60068 6.76923 11 6.76923C12.3993 6.76923 13.5385 7.72115 13.5385 8.88461C13.5385 10.0481 12.3993 11 11 11C10.7756 11 10.5604 11.0891 10.4017 11.2478C10.243 11.4065 10.1538 11.6217 10.1538 11.8462V12.6923C10.1538 12.9167 10.243 13.1319 10.4017 13.2906C10.5604 13.4493 10.7756 13.5385 11 13.5385C11.2244 13.5385 11.4396 13.4493 11.5983 13.2906C11.757 13.1319 11.8462 12.9167 11.8462 12.6923V12.6162C13.7754 12.2618 15.2308 10.7229 15.2308 8.88461C15.2308 6.7851 13.3333 5.07692 11 5.07692ZM22 11C22 13.1756 21.3549 15.3023 20.1462 17.1113C18.9375 18.9202 17.2195 20.3301 15.2095 21.1627C13.1995 21.9952 10.9878 22.2131 8.85401 21.7886C6.72022 21.3642 4.76021 20.3165 3.22183 18.7782C1.68345 17.2398 0.635804 15.2798 0.211367 13.146C-0.213071 11.0122 0.00476611 8.80047 0.83733 6.79048C1.66989 4.78049 3.07979 3.06253 4.88873 1.85383C6.69767 0.645139 8.82441 0 11 0C13.9164 0.00307981 16.7125 1.16299 18.7748 3.22523C20.837 5.28746 21.9969 8.08356 22 11ZM20.3077 11C20.3077 9.15911 19.7618 7.35956 18.7391 5.82892C17.7163 4.29828 16.2627 3.10529 14.5619 2.40081C12.8611 1.69634 10.9897 1.51201 9.18416 1.87115C7.37865 2.23029 5.72018 3.11676 4.41847 4.41847C3.11677 5.72017 2.2303 7.37864 1.87116 9.18416C1.51202 10.9897 1.69634 12.8611 2.40082 14.5619C3.10529 16.2627 4.29828 17.7163 5.82893 18.7391C7.35957 19.7618 9.15912 20.3077 11 20.3077C13.4677 20.3049 15.8335 19.3234 17.5784 17.5784C19.3234 15.8335 20.3049 13.4677 20.3077 11Z" fill="white"/>
</svg>
