<svg width="20" height="15" viewBox="0 0 20 15" fill="none" xmlns="http://www.w3.org/2000/svg">
<path d="M5.10204 14.6939C3.57143 14.6939 2.32993 14.1667 1.37755 13.1122C0.459184 12.0578 0 10.6122 0 8.77551C0 6.80272 0.578231 5.10204 1.73469 3.67347C2.92517 2.21088 4.45578 1.15646 6.32653 0.510204L7.7551 0L9.13265 3.41837L7.70408 3.92857C6.64966 4.30272 5.85034 4.69388 5.30612 5.10204C4.7619 5.5102 4.37075 6.05442 4.13265 6.73469C4.54082 6.63265 4.93197 6.58163 5.30612 6.58163C6.32653 6.58163 7.2449 6.9898 8.06122 7.80612C8.87755 8.58843 9.28571 9.54082 9.28571 10.6633C9.28571 11.7517 8.86054 12.7041 8.0102 13.5204C7.19388 14.3027 6.22449 14.6939 5.10204 14.6939ZM15.8163 14.6939C14.2857 14.6939 13.0442 14.1667 12.0918 13.1122C11.1735 12.0578 10.7143 10.6122 10.7143 8.77551C10.7143 6.80272 11.2925 5.10204 12.449 3.67347C13.6395 2.21088 15.1701 1.15646 17.0408 0.510204L18.4694 0L19.8469 3.41837L18.4184 3.92857C17.3639 4.30272 16.5646 4.69388 16.0204 5.10204C15.4762 5.5102 15.085 6.05442 14.8469 6.73469C15.2551 6.63265 15.6463 6.58163 16.0204 6.58163C17.0408 6.58163 17.9592 6.9898 18.7755 7.80612C19.5918 8.58843 20 9.54082 20 10.6633C20 11.7517 19.5748 12.7041 18.7245 13.5204C17.9082 14.3027 16.9388 14.6939 15.8163 14.6939Z" fill="#FF2D20"/>
</svg>
