<svg width="541" height="484" viewBox="0 0 541 484" fill="none" xmlns="http://www.w3.org/2000/svg">
<path d="M495.975 81.6475C520.478 81.6475 540.323 101.534 540.323 126.002V358.233C540.323 382.071 521.468 401.621 497.665 402.581L497.666 402.582L472.922 403.593V476.219C472.922 478.992 471.284 481.504 468.747 482.623C466.21 483.742 463.25 483.257 461.202 481.388L373.379 401.212H238.868C216.103 401.212 197.659 382.764 197.659 359.998V342.232C197.659 338.367 200.793 335.232 204.659 335.232C208.525 335.232 211.659 338.367 211.659 342.232V359.998C211.659 375.034 223.837 387.212 238.868 387.212H376.094L376.42 387.22C378.048 387.296 379.603 387.938 380.812 389.042L458.922 460.35V396.874C458.922 393.119 461.884 390.034 465.636 389.88L497.094 388.594H497.099C513.424 387.937 526.323 374.531 526.323 358.233V126.002C526.323 109.257 512.737 95.6475 495.975 95.6475H400.465C396.599 95.6475 393.465 92.5134 393.465 88.6475C393.465 84.7815 396.599 81.6475 400.465 81.6475H495.975ZM333.422 0C357.922 9.51167e-05 377.771 19.8534 377.771 44.3545V275.21C377.771 299.711 357.922 319.564 333.422 319.564H184.768L96.9424 399.712C94.894 401.581 91.9346 402.065 89.3975 400.945C86.8605 399.826 85.2236 397.314 85.2236 394.541V322.017L42.7607 320.908C42.7348 320.908 42.7086 320.906 42.6826 320.905C18.8505 320.017 0 300.413 0 276.586V44.3447L0.0166016 43.2002C0.656916 19.2377 20.2596 0 44.3789 0H333.422ZM44.3789 14C27.6148 14 14.0245 27.5834 14 44.3643V276.586C14 292.895 26.9065 306.308 43.2041 306.915H43.2031L92.377 308.199L92.376 308.2C96.1715 308.281 99.2235 311.381 99.2236 315.196V378.676L177.334 307.395L177.58 307.18C178.834 306.138 180.416 305.564 182.053 305.564H333.422C350.188 305.564 363.771 291.981 363.771 275.21V44.3545C363.771 27.5834 350.188 14.0001 333.422 14H44.3789ZM224.724 210.011C228.59 210.011 231.724 213.145 231.724 217.011C231.723 220.877 228.589 224.011 224.724 224.011H101.583C97.7172 224.011 94.5833 220.877 94.583 217.011C94.583 213.145 97.717 210.011 101.583 210.011H224.724ZM276.577 157.441C280.276 157.629 283.217 160.688 283.217 164.433C283.217 168.178 280.276 171.236 276.577 171.424L276.217 171.433H101.583C97.717 171.433 94.583 168.299 94.583 164.433C94.5831 160.567 97.7171 157.433 101.583 157.433H276.217L276.577 157.441ZM276.577 104.835C280.276 105.023 283.217 108.081 283.217 111.826C283.217 115.571 280.276 118.63 276.577 118.817L276.217 118.826H101.583C97.7172 118.826 94.5833 115.692 94.583 111.826C94.583 107.96 97.717 104.826 101.583 104.826H276.217L276.577 104.835Z" fill="white"/>
</svg>
