<svg xmlns="http://www.w3.org/2000/svg" xmlns:xlink="http://www.w3.org/1999/xlink" viewBox="0 0 1058.8 576.9"><linearGradient id="a"><stop offset=".0247" stop-color="#fff"/><stop offset=".0428" stop-color="#f7fbfe"/><stop offset=".0723" stop-color="#deedf6"/><stop offset=".1094" stop-color="#b9daed"/><stop offset=".1527" stop-color="#82bce0"/><stop offset=".2005" stop-color="#3d98d2"/><stop offset=".2267" stop-color="#1c83c6"/><stop offset=".7118" stop-color="#1c83c6"/><stop offset="1" stop-color="#025788"/></linearGradient><linearGradient id="b" gradientUnits="userSpaceOnUse" x1="3.74269996" x2="1012.08492191" xlink:href="#a" y1="132.33149016" y2="136.52444445"/><linearGradient id="c" gradientUnits="userSpaceOnUse" x1="3.76001191" x2="1012.08607604" xlink:href="#a" y1="130.76456633" y2="134.95713591"/><linearGradient id="d" gradientUnits="userSpaceOnUse" x1="8.84318514" x2="1017.18463767" xlink:href="#a" y1="130.34638656" y2="134.53934085"/><linearGradient id="e" gradientUnits="userSpaceOnUse" x1="-14.93073873" x2="1043.43032329" y1="133.13591877" y2="137.53623175"><stop offset=".0197" stop-color="#fff" stop-opacity="0"/><stop offset=".0493" stop-color="#d0e7f3" stop-opacity=".1624"/><stop offset=".1049" stop-color="#85bee2" stop-opacity=".4674"/><stop offset=".1506" stop-color="#469cd3" stop-opacity=".7183"/><stop offset=".1842" stop-color="#278acb" stop-opacity=".9024"/><stop offset=".2019" stop-color="#1c83c6"/><stop offset=".7118" stop-color="#1c83c6"/><stop offset="1" stop-color="#025788"/></linearGradient><g fill="#025788"><path d="m106.9 381.8-27.1-41.1c0-.4-.8-1.3-1.3-2.5-.4-.8-.8-1.3-.8-1.3-.4-.8-.4-1.3-.8-2.1v46.7h-11.6v-63.6h14l26.7 42s.4.9.8 1.3c.4.8.4.8.4 1.3l.4 1.7.4 1.3v-47.9h11.5v64h-12.7v.2z"/><path d="m167.5 379.2c-4.7 2.1-9.3 3.4-14.8 3.4-13.1 0-21.6-8.9-21.6-22.5 0-14 9.8-25 22.5-25 11 0 18.7 8.5 18.7 20.4v5.1h-29.7c0 3.8.4 5.1 1.7 7.2 2.1 3.4 5.9 5.5 10.2 5.5 1.7 0 3.4 0 5.1-.9 2.5-.8 4.2-1.7 8.5-4.2l4.2 8.9c-2.2.8-3.9 1.7-4.8 2.1zm-14.8-35.6c-5.1 0-8.5 3.4-9.3 9.3h17.4c-.5-6.3-2.6-9.3-8.1-9.3z"/><path d="m207.4 380.9v-5.9c-1.7 2.5-2.5 3.4-4.7 4.7-2.5 1.7-5.5 2.5-8.5 2.5-10.6 0-18.2-9.3-18.2-22.5 0-14 9.3-25 21.2-25 1.3 0 2.5 0 3.8.4 2.5.4 3.4.8 5.9 2.5v-26.7h11.5v70.4h-11zm0-26.7c0-2.5-.4-4.7-.4-5.9-.8-2.5-3.8-4.2-7.6-4.2-6.4 0-11 6.4-11 14.8 0 8.1 3.8 13.6 9.3 13.6 3.4 0 7.2-2.5 9.8-6.8v-11.5z"/><path d="m263.8 379.2c-4.7 2.1-9.3 3.4-14.8 3.4-13.1 0-21.6-8.9-21.6-22.5 0-14 9.8-25 22.5-25 11 0 18.7 8.5 18.7 20.4v5.1h-29.7c0 3.8.4 5.1 1.7 7.2 2.1 3.4 5.9 5.5 10.2 5.5 1.7 0 3.4 0 5.1-.9 2.5-.8 4.2-1.7 8.5-4.2l4.2 8.9c-2.2.8-3.9 1.7-4.8 2.1zm-14.8-35.6c-5.1 0-8.5 3.4-9.3 9.3h17.3c-.4-6.3-2.5-9.3-8-9.3z"/><path d="m299.5 349.9c-1.3-.8-2.1-1.3-3.4-1.3-1.7 0-3.8 1.3-5.5 3.4-2.1 2.5-3 5.1-3 8.5v20.4h-11.5v-44.5h9.8l.4 9.8c4.2-7.6 7.2-10.6 10.6-10.6 2.5 0 4.2.8 6.4 3z"/><path d="m308.4 380.9v-70h11.5v70.4h-11.5z"/><path d="m366.5 381.8h-2.5c-5.9 0-7.6-.8-9.8-5.1-4.2 3.8-8.1 5.5-12.7 5.5-7.6 0-13.1-5.1-13.1-12.3 0-1.7.4-3 .8-4.7 1.7-4.2 4.2-6.4 10.6-8.1l12.7-3.8v-3.8c0-4.7-1.7-7.2-5.5-7.2-3.4 0-6.4 1.7-6.4 4.2 0 .4 0 .4.4 1.3l-11 2.5c-.4-1.3-.4-1.7-.4-3 0-8.1 6.8-12.3 19.1-12.3 10.6 0 15.7 4.2 15.7 14.4v18.7c0 4.2.4 4.7 3.4 5.1zm-13.2-20.8-11.5 3.8c-.8 1.7-.8 2.5-.8 3.8 0 3 1.7 4.7 4.7 4.7 1.3 0 3.4-.4 4.7-1.3.8-.4 1.3-.8 3-2.1v-8.9z"/><path d="m405.9 380.9v-28.8c0-5.5-.8-7.6-3.8-7.6-2.5 0-5.9 2.5-10.6 7.6l-1.7 1.7v27.1h-11.5v-44.5h11.5v7.2c5.5-5.9 9.8-8.5 15.7-8.5 8.1 0 12.3 4.2 12.3 12.7v33.1z"/><path d="m457.7 380.9v-5.9c-1.7 2.5-2.5 3.4-4.7 4.7-2.5 1.7-5.5 2.5-8.5 2.5-10.6 0-18.2-9.3-18.2-22.5 0-14 9.3-25 21.2-25 1.3 0 2.5 0 3.8.4 2.5.4 3.4.8 5.9 2.5v-26.7h11.5v70.4h-11zm0-26.7c0-2.5-.4-4.7-.4-5.9-.8-2.5-3.8-4.2-7.6-4.2-6.4 0-11 6.4-11 14.8 0 8.1 3.8 13.6 9.3 13.6 3.4 0 7.2-2.5 9.8-6.8z"/><path d="m511.1 348.7c-1.3-.8-2.1-1.3-3-2.1-3-2.1-7.2-3-10.2-3-4.2 0-7.2 1.7-7.2 4.2 0 2.1 1.7 3.4 5.5 4.7 5.1 1.7 11.5 4.7 13.6 6.4 3 2.1 4.7 5.9 4.7 9.8 0 8.1-7.2 13.6-17.8 13.6-2.1 0-4.7-.4-7.2-.8-4.2-.8-6.4-1.7-11-4.2l3.8-9.3c4.7 3 6.4 3.8 9.8 4.7 1.7.4 3.4.9 5.1.9 4.2 0 7.2-1.3 7.2-3.8 0-2.1-1.3-3.4-4.7-4.7l-7.6-3c-8.1-3-11.5-7.2-11.5-13.1 0-8.5 7.2-14 18.2-14 2.1 0 4.7.4 7.6.8 4.2.8 5.9 1.3 9.8 3.8z"/><path d="m556.9 379.2c-4.7 2.1-9.3 3.4-14.8 3.4-13.1 0-21.6-8.9-21.6-22.5 0-14 9.8-25 22.5-25 11 0 18.7 8.5 18.7 20.4v5.1h-29.7c0 3.8.4 5.1 1.7 7.2 2.1 3.4 5.9 5.5 10.2 5.5 1.7 0 3.4 0 5.1-.9 2.5-.8 4.2-1.7 8.5-4.2l4.2 8.9c-1.8.8-3.5 1.7-4.8 2.1zm-14.8-35.6c-5.1 0-8.5 3.4-9.3 9.3h17.4c-.1-6.3-2.6-9.3-8.1-9.3z"/><path d="m87.8 479.3h-8.5l-23.7-65.3h13.1l14.4 42.8v.8.8l.4 1.3v-.7c0-.8 0-1.3.4-1.7l.4-.8 14-42.8h12.7z"/><path d="m144.6 475.5c-4.7 2.1-9.3 3.4-14.8 3.4-13.1 0-21.6-8.9-21.6-22.5 0-14 9.8-25 22.5-25 11 0 18.7 8.5 18.7 20.4v5.1h-29.7c0 3.8.4 5.1 1.7 7.2 2.1 3.4 5.9 5.5 10.2 5.5 1.7 0 3.4 0 5.1-.8 2.5-.8 4.2-1.7 8.5-4.2l4.2 8.9c-2.2.7-3.5 1.6-4.8 2zm-14.8-35.6c-5.1 0-8.5 3.4-9.3 9.3h17.4c-.5-6.4-2.6-9.3-8.1-9.3z"/><path d="m180.7 446.2c-1.3-.8-2.1-1.3-3.4-1.3-1.7 0-3.8 1.3-5.5 3.4-2.1 2.5-3 5.1-3 8.5v20.4h-11.5v-44.5h9.8l.4 9.8c4.2-7.6 7.2-10.6 10.6-10.6 2.5 0 4.2.8 6.4 3.4z"/><path d="m222.3 475.5c-4.7 2.1-9.3 3.4-14.8 3.4-13.1 0-21.6-8.9-21.6-22.5 0-14 9.8-25 22.5-25 11 0 18.7 8.5 18.7 20.4v5.1h-29.7c0 3.8.4 5.1 1.7 7.2 2.1 3.4 5.9 5.5 10.2 5.5 1.7 0 3.4 0 5.1-.8 2.5-.8 4.2-1.7 8.5-4.2l4.2 8.9c-2.3.7-4 1.6-4.8 2zm-14.9-35.6c-5.1 0-8.5 3.4-9.3 9.3h17.4c-.4-6.4-2.6-9.3-8.1-9.3z"/><path d="m263.4 477.6v-28.8c0-5.5-.8-7.6-3.8-7.6-2.5 0-5.9 2.5-10.6 7.6l-1.7 1.7v27.1h-11.5v-45h11.5v7.2c5.5-5.9 9.8-8.5 15.7-8.5 8.1 0 12.3 4.2 12.3 12.7v33.1h-11.9z"/><path d="m293.1 424.2c-3.4 0-6.4-3.4-6.4-7.6s3-7.6 6.4-7.6 6.4 3.4 6.4 7.6-2.6 7.6-6.4 7.6zm-5.5 53.4v-45h11.4v45z"/><path d="m345.3 441.1c1.7 2.1 2.1 3.8 2.1 6.8 0 10.2-8.1 17-19.5 17-1.3 0-1.7 0-3.4-.4-3 2.1-4.2 3.8-4.2 4.7 0 .8.8 1.3 3 1.3h15.7c8.9 0 12.7 3.4 12.7 10.6 0 11-10.6 19.1-25.9 19.1-11 0-18.2-4.7-18.2-11.5 0-3.4 2.1-6.4 7.2-11-4.2-1.7-6.4-3.4-6.4-5.9s1.7-4.7 5.9-7.6c.4-.4 1.7-.8 3-2.1-2.1-1.7-3-2.1-3.8-3.4-2.5-3-3.8-6.8-3.8-11 0-10.6 7.2-17.4 19.1-17.4 3.4 0 5.1.4 9.3 1.7h6.8l8.9-.4v8.5h-8.5zm-10.2 39.1h-14c-.4.8-.8 1.3-.8 1.7-1.3 2.1-2.1 3.8-2.1 5.1 0 3 4.2 5.1 9.3 5.1 3.4 0 7.2-1.3 9.8-3.4 2.1-1.7 3.4-3.8 3.4-5.5-.1-2.2-1.8-3-5.6-3zm-7.2-40.3c-4.2 0-7.2 3.8-7.2 8.5s3.4 8.1 7.2 8.1 7.2-3.8 7.2-8.5c.4-4.7-3-8.1-7.2-8.1z"/><path d="m366.1 424.2c-3.4 0-6.4-3.4-6.4-7.6s3-7.6 6.4-7.6 6.4 3.4 6.4 7.6-3.1 7.6-6.4 7.6zm-6 53.4v-45h11.5v45z"/><path d="m412.3 477.6v-28.8c0-5.5-.8-7.6-3.8-7.6-2.5 0-5.9 2.5-10.6 7.6l-1.7 1.7v27.1h-11.5v-45h11.5v7.2c5.5-5.9 9.8-8.5 15.7-8.5 8.1 0 12.3 4.2 12.3 12.7v33.1h-11.9z"/><path d="m470.4 441.1c1.7 2.1 2.1 3.8 2.1 6.8 0 10.2-8.1 17-19.5 17-1.3 0-1.7 0-3.4-.4-3 2.1-4.2 3.8-4.2 4.7 0 .8.8 1.3 3 1.3h15.6c8.9 0 12.7 3.4 12.7 10.6 0 11-10.6 19.1-25.9 19.1-11 0-18.2-4.7-18.2-11.5 0-3.4 2.1-6.4 7.2-11-4.2-1.7-6.4-3.4-6.4-5.9s1.7-4.7 5.9-7.6c.4-.4 1.7-.8 3-2.1-2.1-1.7-3-2.1-3.8-3.4-2.5-3-3.8-6.8-3.8-11 0-10.6 7.2-17.4 19.1-17.4 3.4 0 5.1.4 9.3 1.7h6.8l8.9-.4v8.5h-8.5zm-10.2 39.1h-14c-.4.8-.8 1.3-.8 1.7-1.3 2.1-2.1 3.8-2.1 5.1 0 3 4.2 5.1 9.3 5.1 3.4 0 7.2-1.3 9.8-3.4 2.1-1.7 3.4-3.8 3.4-5.5.4-2.2-1.8-3-5.6-3zm-6.8-40.3c-4.2 0-7.2 3.8-7.2 8.5s3.4 8.1 7.2 8.1 7.2-3.8 7.2-8.5-3.4-8.1-7.2-8.1z"/><path d="m530.2 477.6h-11.5l-14.8-45h11.9l8.9 29.7.4 2.1.4-2.1 10.2-29.7h11.9z"/><path d="m572.6 478.9c-12.7 0-22.5-10.2-22.5-23.8s9.8-23.8 22.5-23.8 22.5 10.2 22.5 23.8c.4 13.2-9.3 23.8-22.5 23.8zm0-38.2c-5.9 0-10.6 6.4-10.6 14.4s4.7 14.4 10.6 14.4 10.6-6.4 10.6-14.4-4.6-14.4-10.6-14.4z"/><path d="m622.7 478.9c-12.7 0-22.5-10.2-22.5-23.8s9.8-23.8 22.5-23.8 22.5 10.2 22.5 23.8c0 13.2-9.8 23.8-22.5 23.8zm0-38.2c-5.9 0-10.6 6.4-10.6 14.4s4.7 14.4 10.6 14.4 10.6-6.4 10.6-14.4-5.1-14.4-10.6-14.4z"/><path d="m677 446.2c-1.3-.8-2.1-1.3-3.4-1.3-1.7 0-3.8 1.3-5.5 3.4-2.1 2.5-3 5.1-3 8.5v20.4h-11.5v-44.5h9.8l.4 9.8c4.2-7.6 7.2-10.6 10.6-10.6 2.5 0 4.2.8 6.4 3.4z"/><path d="m100.1 573.9-5.1-15.7h-21.2l-5.1 15.7h-12.7l22.9-63.6h11l22.9 63.6zm-15.7-49.2-7.2 22.9h14.8z"/><path d="m147.2 573.9v-7.6c-5.5 5.9-9.8 8.5-15.7 8.5-8.1 0-12.3-4.2-12.3-12.7v-33.1h11.5v28.8c0 5.5.8 7.6 3.8 7.6 2.5 0 5.9-2.5 11-7.6l1.7-1.7v-27.1h11.5v45z"/><path d="m191.3 572.2c-3.4 2.1-6.8 3-10.2 3-5.9 0-8.9-3-8.9-9.8v-28h-6.4v-7.2l6.8-1.3v-13.6h11v13.6h9.8v8.5h-9.8v19.9c0 5.1.4 6.4 2.1 6.4 1.3 0 3-.8 6.4-3l3.8 8.5c-2.1 1.3-3.3 2.2-4.6 3z"/><path d="m207.4 520.9c-3.4 0-6.4-3.4-6.4-7.6s3-7.6 6.4-7.6 6.4 3.4 6.4 7.6-3 7.6-6.4 7.6zm-5.9 53v-45h11.5v45z"/><path d="m254.9 541.2c-1.3-.8-2.1-1.3-3-2.1-3.4-2.1-7.2-3-10.2-3-4.2 0-7.2 1.7-7.2 4.2 0 2.1 1.7 3.4 5.5 4.7 5.1 1.7 11.5 4.7 13.6 6.4 3 2.1 4.7 5.9 4.7 9.8 0 8.1-7.2 13.6-17.8 13.6-2.1 0-4.7-.4-7.2-.8-4.2-.8-6.4-1.7-11-4.2l3.8-9.3c4.7 3 6.4 3.8 9.8 4.7 1.7.4 3.4.8 5.1.8 4.2 0 7.2-1.3 7.2-3.8 0-2.1-1.3-3.4-4.7-4.7l-7.6-3c-8.1-3-11.5-7.2-11.5-13.1 0-8.5 7.2-14 18.2-14 2.1 0 4.7.4 7.2.8 4.2.8 5.9 1.3 9.8 3.8z"/><path d="m324.5 573.9v-28.8c0-5.5-.8-7.6-3.8-7.6-1.3 0-3.8 1.3-6.4 3.4-1.7 1.3-3.4 3-6.4 6.4v26.7h-11.5v-28.8c0-5.5-.8-7.6-3.8-7.6-2.5 0-5.9 2.5-10.6 7.6l-1.7 1.7v27.1h-11.5v-45h11.5v7.2c5.5-5.9 9.8-8.5 15.7-8.5 6.8 0 10.6 3 11.9 8.9 5.1-5.9 10.2-8.9 15.7-8.9 8.1 0 12.3 4.2 12.3 12.7v33.5z"/><path d="m380.9 571.8c-4.7 2.1-9.3 3.4-14.8 3.4-13.1 0-21.6-8.9-21.6-22.5 0-14 9.8-25 22.5-25 11 0 18.7 8.5 18.7 20.4v5.1h-29.7c0 3.8.4 5.1 1.7 7.2 2.1 3.4 5.9 5.5 10.2 5.5 1.7 0 3.4 0 5.1-.8 2.5-.8 4.2-1.7 8.5-4.2l4.2 8.9c-1.8.7-3.5 1.6-4.8 2zm-14.8-35.2c-5.1 0-8.5 3.4-9.3 9.3h17.4c-.1-6.8-2.6-9.3-8.1-9.3z"/></g><path d="m564.6 154.4-.4.4c-11-19.1-91.2-154.4-91.2-154.4h-67.9l2.1 268.1h67.4s-.4-131.5-.4-154l.4-.4c11 19.1 91.2 154.4 91.2 154.4h58.2v-268.1h-59.8s.4 131.1.4 154z" fill="url(#b)"/><path d="m799.2 0s-44.1 148-50.1 170.1h-.4c-5.9-21.6-48.3-170.1-48.3-170.1h-66.6l83.6 268.1h62.4l83.4-268.1z" fill="url(#c)"/><path d="m970.5 0h-61.1l-88.2 268.1h64l16.1-54.7h74.7l15.3 54.7h67.4zm-52.6 157.4s17-58.5 21.2-75.5h.4c4.2 16.5 20.4 75.5 20.4 75.5z" fill="url(#d)"/><path d="m28.9 0v108.2c1.3-2.1 2.1-4.2 3-5.5 0 0 6.4-10.2 9.8-14 3.7-4.7 11.4-7.7 19.9-7.7h29.3c8.5 0 16.1 3 19.9 7.6 3.4 3.8 9.8 14 9.8 14 2.1 3.8 7.6 14 12.7 23.3 5.1-9.3 10.6-19.5 12.7-23.3 0 0 6.4-10.2 9.8-14 3.8-4.7 11.5-7.6 19.9-7.6h29.3c8.5 0 16.1 3 19.9 7.6 3.4 3.8 9.8 14 9.8 14 2.1 3.8 7.6 14 12.7 23.3 5.1-9.3 10.6-19.5 12.7-23.3 0 0 6.4-10.2 9.8-14 3.8-4.7 11.5-7.6 19.9-7.6h29.2c8.5 0 16.1 3 19.9 7.6 3.4 3.8 9.8 14 9.8 14 3.4 6.4 17 30.5 21.2 38.6 0 .4.4.4.4.8 0 0 .4.4.4 1.3 1.3 2.5-.8 4.2-6.4 5.5-5.1 1.3-11-.4-12.3-3l-11-18.7-6.4-11-.8-.4c-.8-.8-2.1-1.3-3.4-1.3-1.7 0-3.4.8-3.8 2.5 0 0 0 .4-.4.4 0 .4-.4 1.3-.4 1.7v1.3c6.8 27.1 22.5 92.9 26.7 110.7 0 .4.4.8.4 1.3 0 4.7-4.7 5.9-14 5.9-8.5 0-15.7-3.4-17-7.6l-17.8-69.6-18.7 69.6c-.8 4.2-8.1 7.6-17 7.6-9.3 0-14-.8-14-5.9 0-.4 0-.8.4-1.3 4.7-18.2 19.9-83.6 26.7-110.7 0-.4 0-.8 0-1.3 0-.4 0-1.3-.4-1.7s0-.4-.4-.4c-.8-1.3-2.1-2.5-3.8-2.5-1.3 0-2.5.4-3.4 1.3l-.4.8-6.4 11-11 18.7c-.8 1.7-5.1 3.4-9.3 3.4s-8.1-1.7-9.3-3.4l-11-18.7-6.4-11-.4-.8c-.8-.8-2.1-1.3-3.4-1.3-1.7 0-3.4.8-3.8 2.5 0 0 0 .4-.4.4 0 .4-.4 1.3-.4 1.7v1.3c6.8 27.1 22.5 92.9 26.7 110.7 0 .4.4.8.4 1.3 0 4.7-4.7 5.9-14 5.9-8.5 0-15.7-3.4-17-7.6l-18.7-69.6-18.7 69.6c-.8 4.2-8.1 7.6-17 7.6-9.3 0-14-.8-14-5.9 0-.4 0-.8.4-1.3 4.7-18.2 19.9-83.6 26.7-110.7 0-.4 0-.8 0-1.3 0-.4 0-1.3-.4-1.7s0-.4-.4-.4c-.8-1.3-2.1-2.5-3.8-2.5-1.3 0-2.5.4-3.4 1.3l-.4.8-6.4 11-10.6 18.2s0 .4-.4.4c-.8 1.7-5.1 3.4-9.3 3.4s-8.1-1.7-9.3-3.4 0-.4-.4-.4l-10.6-18.2-6.4-11-.4-.8c-.8-.8-2.1-1.3-3.4-1.3-1.7 0-3.4.8-3.8 2.5 0 0 0 .4-.4.4 0 .4-.4 1.3-.4 1.7v1.3c6.8 27.1 22.5 92.9 26.7 110.7 0 .4.4.8.4 1.3 0 4.7-4.7 5.9-14 5.9-8.5 0-15.7-3.4-17-7.6l-18.7-69.6-18.7 69.6c-.8 4.2-8.1 7.6-17 7.6-5.5 0-9.8-.4-11.9-1.7v31.4h350.8v-267.9zm46.2 74.2c-11.4-.4-20.7-10.2-20.3-21.6.4-11.5 10.2-20.8 21.6-20.4 11.5.4 20.8 10.2 20.4 21.6 0 11.5-9.8 20.9-21.7 20.4zm114.6 0c-11.5-.4-20.8-10.2-20.4-21.6.4-11.5 10.2-20.8 21.6-20.4 11.5.4 20.8 10.2 20.4 21.6-.4 11.5-10.2 20.9-21.6 20.4zm114.1 0c-11.5-.4-20.8-10.2-20.4-21.6.4-11.5 10.2-20.8 21.6-20.4 11.5.4 20.8 10.2 20.4 21.6-.4 11.5-10.2 20.9-21.6 20.4z" fill="url(#e)"/><path d="m0 308.8h3.4v268.1h-3.4z" fill="#025788"/><path d="m716.4 304.9c0 2.2-.5 3.8-1.6 4.7-1 1-2.4 1.5-4.1 1.5-1 0-2.2-.2-3.4-.6v7c1.5.5 3.4.8 5.5.8 3.9 0 7-1.1 9.1-3.3s3.2-5.4 3.2-9.6v-37.6h-8.7z" fill="none"/><path d="m760.1 273c-1.1-1.9-2.6-3.5-4.6-4.6s-4.3-1.6-6.9-1.6c-3 0-5.8.8-8.2 2.3-2.4 1.6-4.3 3.7-5.6 6.5s-2 6-2 9.6.7 6.8 2 9.5 3.2 4.8 5.6 6.3 5.1 2.2 8.2 2.2c2.6 0 4.9-.5 6.9-1.6s3.6-2.6 4.6-4.6v5.6h8.7v-35.1l-8.7-.1z" fill="none"/><path d="m760.3 347.2-26.6-37.2h-6.7v53.1h8.3v-37.2l26.7 37.2h6.7v-53.1h-8.4z" fill="none"/><path d="m716.4 304.9c0 2.2-.5 3.8-1.6 4.7-1 1-2.4 1.5-4.1 1.5-1 0-2.2-.2-3.4-.6v7c1.5.5 3.4.8 5.5.8 3.9 0 7-1.1 9.1-3.3s3.2-5.4 3.2-9.6v-37.6h-8.7z" fill="none"/><path d="m760.1 273c-1.1-1.9-2.6-3.5-4.6-4.6s-4.3-1.6-6.9-1.6c-3 0-5.8.8-8.2 2.3-2.4 1.6-4.3 3.7-5.6 6.5s-2 6-2 9.6.7 6.8 2 9.5 3.2 4.8 5.6 6.3 5.1 2.2 8.2 2.2c2.6 0 4.9-.5 6.9-1.6s3.6-2.6 4.6-4.6v5.6h8.7v-35.1l-8.7-.1z" fill="none"/><path d="m716.4 304.9c0 2.2-.5 3.8-1.6 4.7-1 1-2.4 1.5-4.1 1.5-1 0-2.2-.2-3.4-.6v7c1.5.5 3.4.8 5.5.8 3.9 0 7-1.1 9.1-3.3s3.2-5.4 3.2-9.6v-37.6h-8.7z" fill="none"/><path d="m760.3 347.2-26.6-37.2h-6.7v53.1h8.3v-37.2l26.7 37.2h6.7v-53.1h-8.4z" fill="none"/><path d="m760.1 273c-1.1-1.9-2.6-3.5-4.6-4.6s-4.3-1.6-6.9-1.6c-3 0-5.8.8-8.2 2.3-2.4 1.6-4.3 3.7-5.6 6.5s-2 6-2 9.6.7 6.8 2 9.5 3.2 4.8 5.6 6.3 5.1 2.2 8.2 2.2c2.6 0 4.9-.5 6.9-1.6s3.6-2.6 4.6-4.6v5.6h8.7v-35.1l-8.7-.1z" fill="none"/><path d="m815.2 310-16.5 41-16.5-41h-9.2l22 53.1h7.3l22-53.1z" fill="none"/></svg>