<svg width="562" height="236" viewBox="0 0 562 236" fill="none" xmlns="http://www.w3.org/2000/svg">
<g clip-path="url(#clip0_160_34)">
<rect width="562" height="236" fill="white"></rect>
<path d="M23.5117 60.3361C24.3587 59.9241 25.3417 59.8767 26.2002 60.2716L26.3701 60.3575L26.3779 60.3605L26.3857 60.3644L48.376 72.6827L48.499 72.7511L48.7041 72.9503C48.7762 72.9921 48.8744 73.057 48.9697 73.1495C49.0314 73.2095 49.0946 73.2702 49.1563 73.3302C49.2511 73.4225 49.3173 73.518 49.3604 73.588L49.4033 73.63L49.4814 73.7823C49.5394 73.8951 49.5721 73.9891 49.5918 74.046C49.6403 74.122 49.7192 74.2654 49.7568 74.4572C49.8407 74.7538 49.8418 74.9829 49.8418 75.1515V119.185L66.0342 110.117V87.2892C66.0342 87.21 66.034 87.0702 66.0469 86.9318C66.0571 86.8227 66.0828 86.6485 66.1582 86.4601V86.4405L66.252 86.2579C66.2543 86.2502 66.258 86.2402 66.2617 86.2277C66.2705 86.1976 66.294 86.116 66.334 86.0265C66.3656 85.9559 66.4165 85.8554 66.5 85.7521C66.5416 85.6807 66.6122 85.5715 66.7197 85.4669C66.7814 85.407 66.8436 85.3472 66.9053 85.2872L67.0303 85.1818C67.0818 85.1428 67.1304 85.1116 67.1709 85.088C67.2055 85.0543 67.2407 85.0211 67.2754 84.9874L67.377 84.8888L67.501 84.8195L89.5537 72.5021L89.5811 72.4864L89.6084 72.4738C90.5119 72.0344 91.5699 72.0097 92.4668 72.4943L92.4814 72.5021L114.473 84.8195L114.596 84.8888L114.8 85.088C114.84 85.1116 114.89 85.1425 114.942 85.1818L115.067 85.2872L115.252 85.4669C115.347 85.5593 115.413 85.6556 115.456 85.7257L115.499 85.7677L115.577 85.92C115.635 86.0331 115.669 86.1269 115.688 86.1837C115.728 86.246 115.788 86.3532 115.829 86.4952C115.85 86.552 115.866 86.6024 115.877 86.6417C115.896 86.7125 115.91 86.7809 115.917 86.8126C115.918 86.8166 115.918 86.821 115.919 86.8243L116 86.9816V111.684C116 112.712 115.428 113.661 114.533 114.151L93.9473 125.687V148.517C93.947 149.551 93.3699 150.505 92.4668 150.993L92.4658 150.992L48.4863 175.592C48.4051 175.646 48.3308 175.684 48.2734 175.708C48.1808 175.747 48.0951 175.771 48.0645 175.779C48.0613 175.78 48.0585 175.782 48.0557 175.782C48.0029 175.813 47.943 175.839 47.8779 175.863L47.8447 175.88H47.8311C47.8139 175.886 47.7972 175.894 47.7793 175.899C47.7557 175.905 47.7304 175.906 47.707 175.911C47.3924 175.998 47.1506 176 46.9736 176C46.8922 176 46.7482 176.001 46.6055 175.988C46.4934 175.978 46.3155 175.953 46.1221 175.88H46.1006L45.874 175.77C45.8847 175.775 45.8988 175.778 45.8604 175.766C45.8067 175.748 45.6984 175.715 45.5645 175.65L45.5371 175.636L45.5098 175.62L1.4668 150.984L1.43555 150.967L1.40527 150.949C0.619337 150.44 0.000241858 149.601 3.0602e-07 148.517V75.1515C3.0602e-07 75.0723 -0.000239361 74.9326 0.0126956 74.7941C0.0229301 74.6846 0.0479791 74.5096 0.124024 74.3204V74.3038L0.219727 74.1154C0.221733 74.1086 0.224708 74.1006 0.227539 74.0909C0.236331 74.061 0.259657 73.9786 0.299805 73.8888C0.331461 73.818 0.382874 73.718 0.466797 73.6144C0.508489 73.543 0.578462 73.4344 0.685547 73.3302L0.870117 73.1495L0.994141 73.0441C1.04601 73.0049 1.09607 72.9739 1.13672 72.9503C1.17136 72.9166 1.20657 72.8834 1.24121 72.8497L1.34277 72.7511L1.46582 72.6827L23.4834 60.3497L23.5117 60.3361ZM79.1973 133.862L49.8418 150.144V168.276L88.0869 146.889V128.928L79.1973 133.862ZM5.73633 146.77L43.9814 168.157V150.026L23.5654 138.787C23.4148 138.73 23.3082 138.658 23.2559 138.62C23.2126 138.589 23.1722 138.554 23.1387 138.525C23.0657 138.483 22.9622 138.417 22.8623 138.319C22.7525 138.213 22.6808 138.102 22.6396 138.03C22.5833 137.962 22.5438 137.897 22.5166 137.85C22.4376 137.751 22.3881 137.659 22.3594 137.598C22.3576 137.594 22.3562 137.59 22.3545 137.586L22.1758 137.412V137.176C22.1119 137.036 22.0862 136.915 22.0752 136.851C22.0631 136.78 22.0572 136.713 22.0547 136.66L22.0527 136.559V89.0939L11.9678 83.4484L5.73633 79.9562V146.77ZM48.4385 126.529L30.8555 136.371L46.9717 145.269L73.3096 130.605L73.3135 130.601L85.2021 124.053L69.0264 114.993L48.4385 126.529ZM37.9365 83.5079L27.8506 89.1544V131.503L44.0439 122.435V80.0861L37.9365 83.5079ZM71.8945 110.057L88.0869 119.126V101.232L78.002 95.5861L71.8945 92.1632V110.057ZM103.971 95.5851L93.8848 101.232V119.126L110.079 110.057V92.1622L103.971 95.5851ZM74.8262 87.2882L91.0166 96.3556L107.206 87.2882L91.0166 78.2208L74.8262 87.2882ZM8.73047 75.1505L24.9209 84.2179L41.1104 75.1505L24.9209 66.0831L8.73047 75.1505Z" fill="#FF2D20"></path>
<path d="M222.909 196.551C226.729 196.551 230.065 197.355 233.023 198.963C235.928 200.571 238.188 202.875 239.748 205.823C241.308 208.825 242.115 212.309 242.115 216.275C242.115 220.295 241.308 223.78 239.748 226.728C238.188 229.729 235.928 231.98 233.023 233.588C230.118 235.196 226.729 236 222.909 236C219.036 235.946 215.646 235.142 212.688 233.588C209.729 231.98 207.468 229.676 205.908 226.728C204.348 223.726 203.541 220.242 203.541 216.275C203.541 212.255 204.348 208.771 205.908 205.823C207.468 202.822 209.729 200.571 212.688 198.963C215.646 197.355 219.036 196.551 222.909 196.551ZM259.33 220.456C259.33 223.19 259.868 225.226 261.052 226.513C262.182 227.799 263.903 228.442 266.271 228.442C269.014 228.442 271.22 227.531 272.888 225.763C274.555 223.994 275.362 221.582 275.362 218.58V197.516H284.885V235.356H275.685V229.515C274.501 231.605 272.887 233.213 270.843 234.339C268.852 235.464 266.539 236 263.903 236C254.596 236 249.97 230.801 249.97 220.402V197.516H259.33V220.456ZM376.934 235.356H367.681V229.3C366.551 231.39 364.882 233.052 362.73 234.231C360.579 235.411 358.104 236 355.36 236C352.079 236 349.174 235.196 346.646 233.534C344.063 231.873 342.073 229.568 340.674 226.513C339.221 223.511 338.521 220.027 338.521 216.114C338.522 212.202 339.22 208.771 340.619 205.823C342.018 202.875 344.009 200.571 346.591 198.963C349.173 197.355 352.079 196.551 355.414 196.551C358.104 196.551 360.525 197.086 362.677 198.212C364.829 199.337 366.442 200.946 367.626 202.982V180.149H376.934V235.356ZM401.896 196.497C404.64 196.497 407.115 197.086 409.267 198.266C411.418 199.445 413.086 201.053 414.216 203.197V197.516H423.577V235.356H414.27V229.3C413.14 231.39 411.472 233.052 409.32 234.231C407.168 235.411 404.694 236 401.95 236C398.615 236 395.709 235.196 393.127 233.588C390.545 231.98 388.608 229.729 387.155 226.781C385.757 223.833 385.058 220.402 385.058 216.489C385.058 212.577 385.757 209.147 387.209 206.092C388.661 203.09 390.652 200.732 393.181 199.017C395.763 197.355 398.669 196.497 401.896 196.497ZM499.271 196.551C503.091 196.551 506.426 197.355 509.385 198.963C512.29 200.571 514.55 202.875 516.11 205.823C517.67 208.825 518.478 212.309 518.478 216.275C518.478 220.295 517.67 223.78 516.11 226.728C514.55 229.729 512.29 231.98 509.385 233.588C506.48 235.196 503.091 236 499.271 236C495.398 235.946 491.955 235.142 489.05 233.588C486.091 231.98 483.831 229.675 482.271 226.728C480.71 223.726 479.903 220.242 479.903 216.275C479.903 212.255 480.71 208.771 482.271 205.823C483.831 202.822 486.091 200.571 489.05 198.963C492.009 197.355 495.398 196.551 499.271 196.551ZM445.796 197.462H455.909V204.537H445.796V221.475C445.796 225.923 447.894 228.175 452.036 228.175C453.166 228.175 454.457 227.96 455.802 227.585V235.035C454.134 235.625 452.143 235.946 449.776 235.946C445.473 235.946 442.137 234.767 439.824 232.355C437.511 229.944 436.381 226.513 436.381 222.011V204.591H429.064V197.516H436.381V188.242L445.796 185.08V197.462ZM199.022 189.636H173.63V204.322H197.516V212.148H173.63V235.41H164V181.918H199.022V189.636ZM317.002 196.443C325.986 196.497 330.56 201.696 330.56 212.095V235.356H321.145V212.523C321.145 209.522 320.553 207.324 319.423 205.984C318.293 204.591 316.464 203.894 314.097 203.894C311.246 203.894 308.932 204.805 307.157 206.627C305.382 208.449 304.521 210.862 304.521 213.863V235.304H295.16V208.128C295.16 204.108 294.945 200.571 294.568 197.408H303.392L304.091 203.626C305.382 201.321 307.157 199.552 309.417 198.319C311.676 197.087 314.151 196.443 317.002 196.443ZM471.727 235.356H462.365V197.462H471.727V235.356ZM548.442 196.443C557.427 196.497 562 201.696 562 212.095V235.356H552.585V212.523C552.585 209.522 551.993 207.324 550.863 205.984C549.734 204.591 547.905 203.894 545.538 203.894C542.687 203.894 540.373 204.805 538.598 206.627C536.822 208.449 535.962 210.862 535.962 213.863V235.304H526.601V208.128C526.601 204.108 526.385 200.571 526.009 197.408H534.832L535.531 203.626C536.822 201.321 538.598 199.552 540.857 198.319C543.117 197.087 545.591 196.443 548.442 196.443ZM357.889 203.84C354.715 203.84 352.294 204.912 350.572 207.056C348.851 209.2 347.99 212.202 347.99 216.114C347.99 220.081 348.851 223.136 350.572 225.334C352.294 227.531 354.715 228.657 357.835 228.657C360.901 228.604 363.322 227.531 365.098 225.388C366.819 223.244 367.681 220.188 367.681 216.222C367.681 212.255 366.819 209.2 365.098 207.056C363.376 204.912 360.955 203.84 357.889 203.84ZM404.425 203.894C401.305 203.894 398.884 205.019 397.162 207.217C395.441 209.468 394.579 212.523 394.579 216.489C394.579 220.402 395.441 223.404 397.162 225.494C398.884 227.585 401.358 228.657 404.479 228.657C407.599 228.604 410.02 227.532 411.741 225.388C413.463 223.244 414.323 220.188 414.323 216.329C414.323 212.309 413.463 209.253 411.741 207.109C410.02 204.966 407.599 203.894 404.425 203.894ZM222.909 203.733C219.735 203.733 217.313 204.805 215.592 206.949C213.87 209.093 213.01 212.148 213.01 216.222C213.01 220.349 213.871 223.404 215.538 225.494C217.206 227.584 219.627 228.603 222.801 228.604C226.029 228.604 228.504 227.585 230.172 225.494C231.839 223.404 232.7 220.349 232.7 216.222C232.7 212.148 231.84 209.093 230.118 206.949C228.397 204.805 225.976 203.733 222.909 203.733ZM499.271 203.733C496.097 203.733 493.676 204.805 491.954 206.949C490.233 209.093 489.372 212.148 489.372 216.222C489.372 220.349 490.233 223.404 491.9 225.494C493.568 227.584 495.989 228.603 499.163 228.604C502.391 228.604 504.813 227.585 506.534 225.494C508.202 223.404 509.062 220.349 509.062 216.222C509.062 212.148 508.202 209.093 506.48 206.949C504.759 204.805 502.338 203.734 499.271 203.733ZM472.211 189.529H461.72V180.31H472.211V189.529ZM220.058 106.449C222.801 106.449 225.276 107.039 227.428 108.218C229.58 109.397 231.247 111.005 232.377 113.149V107.468H241.685V145.31H232.431V139.252C231.301 141.342 229.633 143.004 227.481 144.184C225.33 145.363 222.855 145.952 220.111 145.952C216.776 145.952 213.87 145.148 211.288 143.54C208.706 141.932 206.769 139.681 205.316 136.733C203.918 133.786 203.219 130.355 203.219 126.442C203.219 122.53 203.918 119.099 205.37 116.044C206.823 113.043 208.813 110.684 211.342 108.969C213.924 107.307 216.83 106.449 220.058 106.449ZM295.429 106.449C298.172 106.449 300.648 107.039 302.8 108.218C304.952 109.397 306.619 111.005 307.749 113.149V107.468H317.056V145.31H307.803V139.252C306.673 141.342 305.005 143.004 302.854 144.184C300.702 145.363 298.226 145.952 295.482 145.952C292.147 145.952 289.242 145.148 286.66 143.54C284.078 141.932 282.141 139.681 280.688 136.733C279.29 133.786 278.59 130.355 278.59 126.442C278.59 122.53 279.29 119.099 280.742 116.044C282.195 113.042 284.185 110.684 286.714 108.969C289.296 107.307 292.201 106.449 295.429 106.449ZM383.928 106.396C389.146 106.396 393.288 108.057 396.301 111.487C399.313 114.864 400.874 119.528 400.874 125.424V126.871H374.62C374.835 130.945 375.857 133.893 377.687 135.822C379.516 137.752 382.26 138.717 385.864 138.717C390.007 138.717 393.88 137.376 397.484 134.643L400.175 141.075C398.346 142.522 396.14 143.701 393.504 144.559C390.868 145.416 388.177 145.898 385.487 145.898C379.247 145.898 374.351 144.129 370.801 140.646C367.25 137.162 365.475 132.338 365.475 126.228C365.475 122.368 366.228 118.938 367.788 115.937C369.348 112.935 371.554 110.577 374.352 108.915C377.149 107.253 380.377 106.396 383.928 106.396ZM272.457 106.61C273.856 106.503 275.093 106.717 276.169 107.146L276.115 115.722C274.501 115.079 272.834 114.757 271.166 114.757C267.938 114.757 265.517 115.668 263.85 117.544C262.182 119.42 261.321 121.833 261.321 124.888V145.362H251.96V118.188C251.96 114.168 251.745 110.63 251.368 107.468H260.191L260.944 114.168C261.913 111.702 263.419 109.825 265.463 108.539C267.507 107.253 269.875 106.61 272.457 106.61ZM342.825 134.696L353.962 107.521H363.322L346.699 145.362H338.468L322.06 107.521H331.904L342.825 134.696ZM418.144 145.31H408.782V90.1016H418.144V145.31ZM173.737 137.322H198.808V145.256H164V91.8701H173.737V137.322ZM222.532 113.846C219.412 113.846 216.991 114.971 215.27 117.169C213.548 119.42 212.688 122.476 212.688 126.442C212.688 130.355 213.548 133.356 215.27 135.446C216.991 137.537 219.466 138.609 222.586 138.609C225.706 138.556 228.127 137.484 229.849 135.34C231.57 133.196 232.431 130.14 232.431 126.281C232.431 122.261 231.57 119.206 229.849 117.062C228.127 114.918 225.706 113.846 222.532 113.846ZM297.903 113.846C294.783 113.846 292.362 114.971 290.641 117.169C288.919 119.42 288.059 122.476 288.059 126.442C288.059 130.355 288.919 133.356 290.641 135.446C292.362 137.537 294.838 138.609 297.958 138.609C301.132 138.556 303.553 137.484 305.221 135.34C306.942 133.196 307.803 130.14 307.803 126.281C307.803 122.261 306.942 119.206 305.221 117.062C303.499 114.918 301.077 113.846 297.903 113.846ZM384.089 113.203C381.56 113.203 379.516 113.953 377.956 115.4C376.396 116.901 375.374 118.991 374.89 121.832H392.589C392.266 118.991 391.405 116.848 390.007 115.4C388.554 113.953 386.617 113.203 384.089 113.203ZM229.795 40.3604C229.795 43.0938 230.333 45.1306 231.517 46.417C232.646 47.7034 234.368 48.3467 236.735 48.3467C239.479 48.3466 241.685 47.4357 243.353 45.667C245.02 43.8982 245.827 41.4859 245.827 38.4844V17.4199H255.35V55.2617H246.149V49.4189C244.966 51.5093 243.352 53.1176 241.308 54.2432C239.317 55.3686 237.004 55.9043 234.368 55.9043C225.061 55.9043 220.435 50.705 220.435 40.3066V17.4199H229.795V40.3604ZM311.783 16.4014C314.473 16.4014 317.11 16.8299 319.639 17.6875C322.167 18.5451 324.211 19.7249 325.718 21.2256L323.081 27.8184C321.467 26.532 319.746 25.5133 317.971 24.8701C316.142 24.1733 314.366 23.8516 312.645 23.8516C309.255 23.8516 306.566 24.9236 304.683 27.0674C302.8 29.2114 301.831 32.267 301.831 36.2334C301.831 40.2533 302.8 43.3081 304.629 45.3984C306.458 47.4888 309.201 48.5615 312.645 48.5615C314.42 48.5615 316.195 48.186 317.971 47.4893C319.8 46.7925 321.467 45.7737 323.081 44.4873L325.718 51.0801C324.104 52.5809 322.005 53.7606 319.477 54.6182C316.894 55.4757 314.205 55.9043 311.407 55.9043C307.426 55.8507 303.983 55.0465 301.078 53.4922C298.173 51.8842 295.913 49.6335 294.353 46.6855C292.792 43.7377 292.04 40.3071 292.04 36.3945C292.04 32.4282 292.847 28.944 294.515 25.9424C296.129 22.9409 298.442 20.5825 301.454 18.9209C304.467 17.2594 307.91 16.4014 311.783 16.4014ZM277.568 17.3662H287.682V24.4414H277.568V41.3789C277.568 45.8277 279.666 48.0791 283.809 48.0791C284.938 48.0791 286.229 47.8644 287.574 47.4893V54.9395C285.907 55.529 283.916 55.8506 281.549 55.8506C277.245 55.8505 273.91 54.6716 271.597 52.2598C269.283 49.8478 268.153 46.4173 268.153 41.915V24.4951H260.837V17.4199H268.153V8.14648L277.568 4.98438V17.3662ZM183.743 1.82227C192.512 1.82227 199.346 4.12685 204.188 8.79004C209.029 13.4531 211.45 19.9925 211.45 28.4609C211.45 36.9831 209.029 43.5761 204.188 48.2393C199.346 52.9024 192.512 55.2617 183.743 55.2617H164V1.82227H183.743ZM341.427 22.833C342.718 20.7964 344.44 19.188 346.646 18.0625C348.797 16.9371 351.219 16.4014 353.854 16.4014C362.892 16.4015 367.465 21.6008 367.465 31.999V55.2617H358.051V32.4277C358.051 29.4263 357.459 27.2287 356.329 25.8887C355.199 24.4951 353.37 23.7979 351.003 23.7979C348.152 23.7979 345.838 24.7098 344.062 26.5322C342.287 28.3545 341.427 30.7663 341.427 33.7676V55.208H332.065V0H341.427V22.833ZM173.737 47.3818H183.151C195.525 47.3818 201.658 41.0569 201.658 28.4609C201.658 15.9724 195.471 9.70117 183.151 9.70117H173.737V47.3818Z" fill="#090910"></path>
</g>
<defs>
<clipPath id="clip0_160_34">
<rect width="562" height="236" fill="white"></rect>
</clipPath>
</defs>
</svg>