<?xml version="1.0" encoding="UTF-8"?><svg xmlns="http://www.w3.org/2000/svg" width="1000" height="1000" viewBox="0 0 1000 1000"><path id="Path" fill="#000000" stroke="none" d="M 361 211 L 491.700012 195.099976 L 493 195.099976 L 514.200012 208.400024 L 514.200012 402 C 525.700012 390.099976 539.799988 380.200012 556.599976 372.5 C 573.400024 364.799988 591.299988 360.900024 610.299988 360.900024 C 652.799988 360.900024 687.099976 375.799988 713.400024 405.700012 C 739.700012 435.5 752.900024 481.200012 752.900024 542.700012 C 752.900024 581.200012 744.799988 615.900024 728.700012 646.799988 C 712.599976 677.799988 689.5 702.099976 659.400024 719.799988 C 629.299988 737.5 594.200012 746.299988 553.900024 746.299988 C 515.900024 746.299988 484 743.299988 458.399994 737.400024 C 432.799988 731.400024 415.899994 726 408 721.200012 L 408 258.200012 L 360.899994 249.599976 L 360.899994 211 Z M 538.099976 433.200012 C 528.400024 438.099976 520.400024 443.799988 514.200012 450.400024 L 514.200012 690.5 C 516 694.900024 520.900024 698.5 529.099976 701.099976 C 537.299988 703.799988 546.700012 705.099976 557.299988 705.099976 C 582.099976 705.099976 601.700012 692.099976 616.299988 666 C 630.900024 639.900024 638.200012 601.5 638.200012 550.599976 C 638.200012 507.700012 632 476.200012 619.599976 456.099976 C 607.200012 436 590.400024 425.900024 569.200012 425.900024 C 558.200012 425.900024 547.799988 428.299988 538.099976 433.200012 Z"/><path id="path1" fill="#ff1c48" fill-rule="evenodd" stroke="none" d="M 299.700012 597.599976 C 299.5 598 299.200012 598.400024 299 598.799988"/><path id="path2" fill="#ff1c48" fill-rule="evenodd" stroke="none" d="M 210.600006 716 C 210 718.700012 209.899994 721.5 210.300003 724.200012 C 213.5 745.900024 234.399994 757.400024 254 760.200012 C 272.700012 762.799988 292.200012 756.599976 307.600006 741.900024 C 331.600006 718.900024 344.299988 685.5 342.899994 654.799988 C 341.799988 629.099976 332.200012 599.900024 314.100006 567.299988 C 312.5 576.099976 308.600006 586.099976 302.600006 597.299988 C 297 607.400024 290.200012 617.5 282.100006 627.799988 C 274.700012 637.099976 264.899994 648 252.5 660.400024 C 240.300003 672.700012 232.100006 681.5 227.800003 686.799988 C 221.199997 695 212.800003 705.400024 210.600006 716 Z"/><path id="path3" fill="#ff1c48" stroke="none" d="M 335.299988 435.200012 C 326 425.200012 313.399994 420.299988 297.5 420.299988 C 280.700012 420.299988 266.399994 425.5 254.699997 435.900024 C 243 446.299988 237.100006 459.700012 237.100006 476 C 237.100006 490.600006 242.199997 502.600006 252.399994 512.200012 C 262.600006 521.700012 274.5 526.5 288.200012 526.5 C 306.299988 526.5 321 521.5 332.299988 511.600006 C 343.600006 501.700012 349.200012 488.100006 349.200012 470.799988 C 349.200012 457 344.600006 445.099976 335.299988 435.200012 Z M 312.100006 465 C 304.299988 465 298 458.700012 298 450.900024 C 298 443.099976 304.299988 436.799988 312.100006 436.799988 C 319.899994 436.799988 326.200012 443.099976 326.200012 450.900024 C 326.200012 458.700012 319.899994 465 312.100006 465 Z"/></svg>