<svg xmlns="http://www.w3.org/2000/svg" width="812" height="148" viewBox="0 0 812 148" fill="none"><path d="M218.04 23.6C230.627 23.6 239.747 24.4 245.4 26C251.16 27.4933 255.267 29.3067 257.72 31.44C263.16 36.1333 265.88 43.3333 265.88 53.04C265.88 60.2933 261.987 67.1733 254.2 73.68C264.12 78.6933 269.08 88.0267 269.08 101.68C269.08 112.347 265.56 120.293 258.52 125.52C251.587 130.64 241.187 133.467 227.32 134H181.72L180.12 120.72C181.507 118.907 184.44 117.147 188.92 115.44V42.32C184.547 40.72 181.613 38.9067 180.12 36.88L181.72 23.6H218.04ZM226.2 86.16H211.96V116.56H223C230.253 116.56 235.747 115.493 239.48 113.36C243.213 111.227 245.08 107.387 245.08 101.84C245.08 96.2933 243.587 92.2933 240.6 89.84C237.72 87.3867 232.92 86.16 226.2 86.16ZM220.28 41.04H211.96V68.72H225.08C230.52 68.72 234.68 67.3333 237.56 64.56C240.44 61.7867 241.88 58.4267 241.88 54.48C241.88 50.4267 240.867 47.3867 238.84 45.36C236.813 43.3333 234.467 42.1067 231.8 41.68C229.133 41.2533 225.293 41.04 220.28 41.04ZM325.91 73.68C317.803 73.68 312.203 75.2267 309.11 78.32V114.96C317.75 116.56 323.67 118.8 326.87 121.68L325.27 134H279.51L277.91 121.68C279.403 119.653 282.337 117.84 286.71 116.24V71.76C282.977 70.48 280.043 68.6667 277.91 66.32L279.51 54C285.377 52.72 290.657 52.08 295.35 52.08C300.043 52.08 303.937 52.1867 307.03 52.4V62.48C309.483 59.6 312.63 57.2533 316.47 55.44C320.31 53.52 323.777 52.56 326.87 52.56C330.07 52.56 332.257 52.8267 333.43 53.36L332.95 74.16C330.817 73.84 328.47 73.68 325.91 73.68ZM376.901 135.28C364.315 135.28 354.981 131.92 348.901 125.2C342.821 118.48 339.781 108.347 339.781 94.8C339.781 81.1467 343.141 70.7467 349.861 63.6C356.688 56.3467 366.448 52.72 379.141 52.72C391.835 52.72 401.221 55.92 407.301 62.32C413.488 68.72 416.581 78.7467 416.581 92.4C416.581 105.947 413.115 116.507 406.181 124.08C399.355 131.547 389.595 135.28 376.901 135.28ZM362.821 93.36C362.821 110.427 367.941 118.96 378.181 118.96C383.408 118.96 387.248 117.04 389.701 113.2C392.261 109.253 393.541 102.853 393.541 94C393.541 77.36 388.315 69.04 377.861 69.04C372.741 69.04 368.955 70.9067 366.501 74.64C364.048 78.2667 362.821 84.5067 362.821 93.36ZM426.385 54C432.252 52.72 437.532 52.08 442.225 52.08C446.918 52.08 450.812 52.1867 453.905 52.4V60.4C456.572 58.16 460.092 56.3467 464.465 54.96C468.945 53.4667 473.212 52.72 477.265 52.72C487.718 52.72 495.025 55.1733 499.185 60.08C503.452 64.9867 505.585 73.4667 505.585 85.52V116.24C509.745 117.84 512.678 119.653 514.385 121.68L512.785 134H475.985L474.385 121.68C475.878 119.653 478.812 117.84 483.185 116.24V84.56C483.185 78.8 482.225 74.96 480.305 73.04C478.492 71.0133 475.185 70 470.385 70C465.585 70 460.785 71.7067 455.985 75.12V116.24C460.145 117.84 463.078 119.653 464.785 121.68L463.185 134H426.385L424.785 121.68C426.278 119.653 429.212 117.84 433.585 116.24V71.76C429.852 70.48 426.918 68.6667 424.785 66.32L426.385 54ZM523.141 65.84C523.141 64.24 523.195 62.5333 523.301 60.72C533.221 55.3867 543.888 52.72 555.301 52.72C566.715 52.72 574.875 54.9067 579.781 59.28C584.795 63.5467 587.301 70.6933 587.301 80.72V114.8C591.035 115.547 593.968 116.453 596.101 117.52V131.44C590.661 134 582.875 135.28 572.741 135.28C571.675 132.507 570.768 129.147 570.021 125.2C565.435 131.92 557.115 135.28 545.061 135.28C537.915 135.28 531.781 133.2 526.661 129.04C521.648 124.88 519.141 119.227 519.141 112.08C519.141 104.933 521.488 99.3333 526.181 95.28C530.981 91.12 538.075 89.04 547.461 89.04H564.901V81.36C564.901 73.04 560.475 68.88 551.621 68.88C548.315 68.88 545.595 69.2 543.461 69.84C543.248 74.32 542.608 77.7867 541.541 80.24H525.861C524.048 76.5067 523.141 71.7067 523.141 65.84ZM551.941 118.96C557.381 118.96 561.701 117.36 564.901 114.16V101.04H553.701C546.021 101.04 542.181 103.973 542.181 109.84C542.181 112.507 542.981 114.693 544.581 116.4C546.288 118.107 548.741 118.96 551.941 118.96ZM598.456 20.4C604.43 19.0133 609.976 18.32 615.096 18.32C620.216 18.32 624.536 18.48 628.056 18.8V58.8C630.296 57.2 633.283 55.8133 637.016 54.64C640.75 53.36 644.323 52.72 647.736 52.72C659.363 52.72 667.523 55.7067 672.216 61.68C676.91 67.6533 679.256 77.84 679.256 92.24C679.256 100.24 678.136 107.173 675.896 113.04C673.763 118.8 670.83 123.227 667.096 126.32C660.056 132.293 651.736 135.28 642.136 135.28C634.883 135.28 627.736 133.467 620.696 129.84C618.67 132.613 616.323 134 613.656 134H605.656V38.16C601.923 36.88 598.99 35.0667 596.856 32.72L598.456 20.4ZM640.856 118.96C651.096 118.96 656.216 110.373 656.216 93.2C656.216 84.1333 655.31 78 653.496 74.8C651.79 71.4933 648.75 69.84 644.376 69.84C637.763 69.84 632.323 71.6 628.056 75.12V116.24C632.643 118.053 636.91 118.96 640.856 118.96ZM687.434 20.4C693.407 19.0133 698.954 18.32 704.074 18.32C709.194 18.32 713.514 18.48 717.034 18.8V116.24C721.194 117.84 724.127 119.653 725.834 121.68L724.234 134H687.434L685.834 121.68C687.327 119.653 690.26 117.84 694.634 116.24V38.16C690.9 36.88 687.967 35.0667 685.834 32.72L687.434 20.4ZM770.841 135.28C758.041 135.28 748.388 131.867 741.881 125.04C735.481 118.213 732.281 108.293 732.281 95.28C732.281 87.3867 733.401 80.6133 735.641 74.96C737.881 69.2 740.921 64.7733 744.761 61.68C752.228 55.7067 760.921 52.72 770.841 52.72C780.761 52.72 788.335 55.28 793.561 60.4C798.895 65.4133 801.561 74.48 801.561 87.6C801.561 95.28 797.775 99.12 790.201 99.12H755.481C755.908 105.84 757.615 110.587 760.601 113.36C763.695 116.133 768.548 117.52 775.161 117.52C778.788 117.52 782.255 117.093 785.561 116.24C788.868 115.387 791.268 114.533 792.761 113.68L795.001 112.4L799.801 125.2C799.161 125.947 798.201 126.907 796.921 128.08C795.748 129.147 792.655 130.64 787.641 132.56C782.735 134.373 777.135 135.28 770.841 135.28ZM780.921 84.88C781.135 83.3867 781.241 81.5733 781.241 79.44C781.241 77.3067 780.388 75.0667 778.681 72.72C776.975 70.2667 773.988 69.04 769.721 69.04C765.561 69.04 762.361 70.32 760.121 72.88C757.881 75.44 756.388 79.76 755.641 85.84L780.921 84.88Z" fill="#162C47"/><path d="M16.8 135L8 127.4C12.9333 114.333 23.6 98.2667 40 79.2C23.8667 60.6667 13.2 44.5333 8 30.8L16.8 23.4C24.4 26.7333 34.2667 34.3333 46.4 46.2C58.6667 57.9333 67.7333 68.9333 73.6 79.2C67.7333 89.4667 58.6667 100.533 46.4 112.4C34.2667 124.133 24.4 131.667 16.8 135Z" fill="#4F82C2"/><path d="M94.925 135L86.125 127.4C91.0583 114.333 101.725 98.2667 118.125 79.2C101.992 60.6667 91.325 44.5333 86.125 30.8L94.925 23.4C102.525 26.7333 112.392 34.3333 124.525 46.2C136.792 57.9333 145.858 68.9333 151.725 79.2C145.858 89.4667 136.792 100.533 124.525 112.4C112.392 124.133 102.525 131.667 94.925 135Z" fill="#73A6E2"/></svg>