<?xml version="1.0" encoding="UTF-8" standalone="no"?><!DOCTYPE svg PUBLIC "-//W3C//DTD SVG 1.1//EN" "http://www.w3.org/Graphics/SVG/1.1/DTD/svg11.dtd"><svg width="100%" height="100%" viewBox="0 0 12584 4421" version="1.1" xmlns="http://www.w3.org/2000/svg" xmlns:xlink="http://www.w3.org/1999/xlink" xml:space="preserve" xmlns:serif="http://www.serif.com/" style="fill-rule:evenodd;clip-rule:evenodd;stroke-linejoin:round;stroke-miterlimit:2;"><rect id="Logo" x="0" y="0" width="12583.333" height="4420.833" style="fill:none;"/><g><path d="M658.333,2433.333l995.833,-1083.333l725,0l-945.833,1083.333l975,1320.833l-704.167,-4.167l-1045.833,-1316.667Z" style="fill:#1f3552;"/><path d="M512.5,537.5l-0,3329.167l-475,470.833l-4.167,-4275l479.167,475Z" style="fill:#2a7ba8;"/></g><g><path d="M2566.23,3035.359l78.975,0l0,152.641l74.202,0l0,75.044l-74.202,0l0,356.843c0,19.059 5.496,31.821 16.489,38.288c6.075,3.744 16.2,5.616 30.375,5.616c3.761,0 7.811,-0.085 12.15,-0.255c4.339,-0.17 9.402,-0.596 15.188,-1.276l0,72.492c-8.968,3.063 -18.297,5.275 -27.988,6.637c-9.691,1.361 -20.178,2.042 -31.46,2.042c-36.45,0 -61.184,-10.976 -74.202,-32.928c-13.018,-21.952 -19.527,-50.455 -19.527,-85.51l0,-361.948l-62.92,0l0,-75.044l62.92,0l0,-152.641Z" style="fill-rule:nonzero;"/><path d="M2991.047,3175.748c32.979,0 64.945,9.104 95.898,27.312c30.954,18.208 54.53,41.776 70.731,70.705c15.621,27.567 26.036,59.729 31.243,96.486c4.629,25.185 6.943,65.345 6.943,120.479l-340.635,0c1.446,55.475 12.584,99.974 33.413,133.497c20.829,33.523 53.084,50.285 96.766,50.285c40.789,0 73.334,-15.826 97.634,-47.477c13.886,-18.378 23.721,-39.649 29.507,-63.813l76.806,0c-2.025,20.08 -8.751,42.457 -20.178,67.131c-11.427,24.674 -24.228,44.839 -38.403,60.495c-23.721,27.227 -53.084,45.605 -88.088,55.135c-18.804,5.445 -40.066,8.168 -63.788,8.168c-57.857,0 -106.891,-24.76 -147.102,-74.279c-40.211,-49.519 -60.316,-118.863 -60.316,-208.031c0,-87.807 20.25,-159.107 60.75,-213.902c40.5,-54.794 93.439,-82.191 158.818,-82.191Zm124.538,241.98c-3.182,-39.819 -10.559,-71.641 -22.13,-95.464c-21.407,-44.244 -57.134,-66.366 -107.181,-66.366c-35.872,0 -65.957,15.23 -90.257,45.69c-24.3,30.46 -37.173,69.173 -38.62,116.14l258.188,0Z" style="fill-rule:nonzero;"/><path d="M3470.973,3172.174c52.361,0 94.958,14.975 127.792,44.924c32.834,29.95 52.578,81.511 59.231,154.683l-75.938,0c-4.629,-33.693 -15.188,-61.686 -31.677,-83.978c-16.489,-22.292 -42.959,-33.438 -79.409,-33.438c-49.757,0 -85.339,28.588 -106.747,85.765c-13.886,37.097 -20.829,82.872 -20.829,137.326c0,54.794 9.836,100.91 29.507,138.347c19.671,37.437 50.625,56.156 92.861,56.156c32.4,0 58.074,-11.657 77.022,-34.97c18.948,-23.313 32.038,-55.22 39.271,-95.72l75.938,0c-8.679,72.492 -30.375,125.499 -65.089,159.022c-34.714,33.523 -79.12,50.285 -133.216,50.285c-60.75,0 -109.206,-26.121 -145.366,-78.363c-36.161,-52.242 -54.241,-117.501 -54.241,-195.779c0,-95.975 19.816,-170.679 59.448,-224.112c39.632,-53.433 90.113,-80.149 151.441,-80.149Z" style="fill-rule:nonzero;"/><path d="M3736.104,2982.266l78.107,0l0,279.757c18.514,-27.567 35.148,-46.966 49.902,-58.198c25.168,-19.399 56.555,-29.099 94.163,-29.099c67.404,0 113.111,27.737 137.122,83.212c13.018,30.29 19.527,72.322 19.527,126.095l0,350.717l-80.277,0l0,-344.591c0,-40.16 -4.339,-69.599 -13.018,-88.317c-14.175,-29.95 -40.789,-44.924 -79.843,-44.924c-32.4,0 -61.763,13.103 -88.088,39.309c-26.325,26.206 -39.488,75.725 -39.488,148.557l0,289.967l-78.107,0l0,-752.485Z" style="fill-rule:nonzero;"/><rect x="4483.764" y="2984.819" width="78.107" height="749.932" style="fill-rule:nonzero;"/><path d="M4872.565,3175.748c32.979,0 64.945,9.104 95.898,27.312c30.954,18.208 54.53,41.776 70.731,70.705c15.621,27.567 26.036,59.729 31.243,96.486c4.629,25.185 6.943,65.345 6.943,120.479l-340.635,0c1.446,55.475 12.584,99.974 33.413,133.497c20.829,33.523 53.084,50.285 96.766,50.285c40.789,0 73.334,-15.826 97.634,-47.477c13.886,-18.378 23.721,-39.649 29.507,-63.813l76.806,0c-2.025,20.08 -8.751,42.457 -20.178,67.131c-11.427,24.674 -24.228,44.839 -38.403,60.495c-23.721,27.227 -53.084,45.605 -88.088,55.135c-18.804,5.445 -40.066,8.168 -63.788,8.168c-57.857,0 -106.891,-24.76 -147.102,-74.279c-40.211,-49.519 -60.316,-118.863 -60.316,-208.031c0,-87.807 20.25,-159.107 60.75,-213.902c40.5,-54.794 93.439,-82.191 158.818,-82.191Zm124.538,241.98c-3.182,-39.819 -10.559,-71.641 -22.13,-95.464c-21.407,-44.244 -57.134,-66.366 -107.181,-66.366c-35.872,0 -65.957,15.23 -90.257,45.69c-24.3,30.46 -37.173,69.173 -38.62,116.14l258.188,0Z" style="fill-rule:nonzero;"/><path d="M5233.16,3589.257c0,26.546 8.245,47.477 24.734,62.792c16.489,15.315 36.016,22.973 58.58,22.973c27.482,0 54.097,-7.487 79.843,-22.462c43.393,-24.845 65.089,-65.515 65.089,-122.011l0,-74.023c-9.546,7.147 -21.841,13.103 -36.884,17.868c-15.043,4.765 -29.796,8.168 -44.261,10.21l-47.298,7.147c-28.35,4.424 -49.613,11.401 -63.788,20.931c-24.011,15.996 -36.016,41.521 -36.016,76.576Zm189.193,-185.824c17.936,-2.723 29.941,-11.571 36.016,-26.546c3.471,-8.168 5.207,-19.91 5.207,-35.225c0,-31.311 -9.474,-54.028 -28.422,-68.152c-18.948,-14.124 -46.069,-21.186 -81.362,-21.186c-40.789,0 -69.718,12.933 -86.786,38.798c-9.546,14.294 -15.766,35.565 -18.659,63.813l-72.9,0c1.446,-67.387 20.033,-114.268 55.76,-140.644c35.727,-26.376 77.167,-39.564 124.321,-39.564c54.675,0 99.081,12.252 133.216,36.756c33.847,24.504 50.77,62.622 50.77,114.353l0,314.982c0,9.529 1.663,17.187 4.99,22.973c3.327,5.786 10.342,8.679 21.046,8.679c3.471,0 7.377,-0.255 11.716,-0.766c4.339,-0.511 8.968,-1.276 13.886,-2.297l0,67.897c-12.15,4.084 -21.407,6.637 -27.771,7.658c-6.364,1.021 -15.043,1.532 -26.036,1.532c-26.904,0 -46.43,-11.231 -58.58,-33.693c-6.364,-11.912 -10.848,-28.758 -13.452,-50.54c-15.911,24.504 -38.764,45.775 -68.561,63.813c-29.796,18.038 -62.63,27.057 -98.502,27.057c-43.104,0 -78.324,-15.4 -105.662,-46.201c-27.338,-30.8 -41.006,-69.344 -41.006,-115.629c0,-50.71 13.452,-90.019 40.355,-117.927c26.904,-27.908 62.197,-45.095 105.879,-51.561l124.538,-18.378Z" style="fill-rule:nonzero;"/><path d="M5716.992,3467.757c0,58.538 10.559,107.546 31.677,147.026c21.118,39.479 54.964,59.219 101.54,59.219c36.161,0 65.885,-18.293 89.173,-54.879c23.288,-36.586 34.931,-89.083 34.931,-157.491c0,-69.088 -12.005,-120.224 -36.016,-153.407c-24.011,-33.183 -53.663,-49.774 -88.956,-49.774c-39.343,0 -71.237,17.698 -95.681,53.093c-24.445,35.395 -36.667,87.467 -36.667,156.215Zm117.595,-289.457c35.582,0 65.379,8.849 89.389,26.546c13.886,10.21 29.652,28.078 47.298,53.603l0,-276.183l75.07,0l0,752.485l-70.297,0l0,-76.065c-18.225,33.693 -39.777,58.027 -64.656,73.002c-24.879,14.975 -53.373,22.462 -85.484,22.462c-51.782,0 -96.622,-25.61 -134.518,-76.831c-37.897,-51.221 -56.845,-119.373 -56.845,-204.457c0,-79.639 17.285,-148.642 51.855,-207.01c34.57,-58.368 83.965,-87.552 148.187,-87.552Z" style="fill-rule:nonzero;"/><path d="M6597.435,3675.533c51.782,0 87.292,-23.058 106.53,-69.173c19.238,-46.116 28.856,-97.421 28.856,-153.917c0,-51.051 -6.943,-92.572 -20.829,-124.563c-21.986,-50.37 -59.882,-75.555 -113.69,-75.555c-47.732,0 -82.447,21.441 -104.143,64.324c-21.696,42.882 -32.545,94.614 -32.545,155.194c0,58.198 10.848,106.696 32.545,145.494c21.696,38.798 56.122,58.198 103.275,58.198Zm3.038,-503.358c59.882,0 110.507,23.483 151.875,70.45c41.368,46.966 62.052,116.055 62.052,207.265c0,88.147 -18.225,160.979 -54.675,218.496c-36.45,57.517 -93.006,86.275 -169.666,86.275c-63.932,0 -114.702,-25.44 -152.309,-76.321c-37.607,-50.88 -56.411,-119.203 -56.411,-204.968c0,-91.891 19.816,-165.063 59.448,-219.517c39.632,-54.454 92.861,-81.681 159.686,-81.681Z" style="fill-rule:nonzero;"/><path d="M6907.261,3188l74.202,0l0,77.597c21.986,-31.992 45.273,-54.964 69.863,-68.918c24.589,-13.954 51.927,-20.931 82.013,-20.931c65.957,0 110.507,27.057 133.65,81.17c12.729,29.609 19.093,71.981 19.093,127.116l0,350.717l-79.409,0l0,-344.591c0,-33.353 -4.195,-60.24 -12.584,-80.66c-13.886,-34.034 -39.054,-51.051 -75.504,-51.051c-18.514,0 -33.702,2.212 -45.563,6.637c-21.407,7.487 -40.211,22.462 -56.411,44.924c-13.018,18.038 -21.48,36.671 -25.385,55.9c-3.905,19.229 -5.858,46.711 -5.858,82.447l0,286.393l-78.107,0l0,-546.751Z" style="fill-rule:nonzero;"/><path d="M7702.219,3467.757c0,58.538 10.559,107.546 31.677,147.026c21.118,39.479 54.964,59.219 101.54,59.219c36.161,0 65.885,-18.293 89.173,-54.879c23.288,-36.586 34.931,-89.083 34.931,-157.491c0,-69.088 -12.005,-120.224 -36.016,-153.407c-24.011,-33.183 -53.663,-49.774 -88.956,-49.774c-39.343,0 -71.237,17.698 -95.681,53.093c-24.445,35.395 -36.667,87.467 -36.667,156.215Zm117.595,-289.457c35.582,0 65.379,8.849 89.389,26.546c13.886,10.21 29.652,28.078 47.298,53.603l0,-276.183l75.07,0l0,752.485l-70.297,0l0,-76.065c-18.225,33.693 -39.777,58.027 -64.656,73.002c-24.879,14.975 -53.373,22.462 -85.484,22.462c-51.782,0 -96.622,-25.61 -134.518,-76.831c-37.897,-51.221 -56.845,-119.373 -56.845,-204.457c0,-79.639 17.285,-148.642 51.855,-207.01c34.57,-58.368 83.965,-87.552 148.187,-87.552Z" style="fill-rule:nonzero;"/><path d="M8340.53,3175.748c32.979,0 64.945,9.104 95.898,27.312c30.954,18.208 54.53,41.776 70.731,70.705c15.621,27.567 26.036,59.729 31.243,96.486c4.629,25.185 6.943,65.345 6.943,120.479l-340.635,0c1.446,55.475 12.584,99.974 33.413,133.497c20.829,33.523 53.084,50.285 96.766,50.285c40.789,0 73.334,-15.826 97.634,-47.477c13.886,-18.378 23.721,-39.649 29.507,-63.813l76.806,0c-2.025,20.08 -8.751,42.457 -20.178,67.131c-11.427,24.674 -24.228,44.839 -38.403,60.495c-23.721,27.227 -53.084,45.605 -88.088,55.135c-18.804,5.445 -40.066,8.168 -63.788,8.168c-57.857,0 -106.891,-24.76 -147.102,-74.279c-40.211,-49.519 -60.316,-118.863 -60.316,-208.031c0,-87.807 20.25,-159.107 60.75,-213.902c40.5,-54.794 93.439,-82.191 158.818,-82.191Zm124.538,241.98c-3.182,-39.819 -10.559,-71.641 -22.13,-95.464c-21.407,-44.244 -57.134,-66.366 -107.181,-66.366c-35.872,0 -65.957,15.23 -90.257,45.69c-24.3,30.46 -37.173,69.173 -38.62,116.14l258.188,0Z" style="fill-rule:nonzero;"/><path d="M8641.243,3188l77.239,0l0,77.597c18.514,-26.887 35.293,-46.456 50.336,-58.708c25.746,-20.761 54.964,-31.141 87.654,-31.141c37.029,0 66.825,10.721 89.389,32.162c12.729,12.252 24.3,30.29 34.714,54.114c17.357,-29.269 37.752,-50.965 61.184,-65.089c23.432,-14.124 49.757,-21.186 78.975,-21.186c62.486,0 105.011,26.546 127.575,79.639c12.15,28.588 18.225,67.046 18.225,115.374l0,363.99l-81.145,0l0,-379.816c0,-36.416 -7.738,-61.431 -23.215,-75.044c-15.477,-13.613 -34.353,-20.42 -56.628,-20.42c-30.664,0 -57.062,12.082 -79.192,36.246c-22.13,24.164 -33.196,64.494 -33.196,120.99l0,318.045l-79.409,0l0,-356.843c0,-37.097 -3.761,-64.154 -11.282,-81.17c-11.861,-25.525 -33.991,-38.288 -66.391,-38.288c-29.507,0 -56.339,13.443 -80.494,40.33c-24.155,26.887 -36.233,75.555 -36.233,146.005l0,289.967l-78.107,0l0,-546.751Z" style="fill-rule:nonzero;"/><path d="M9441.409,3589.257c0,26.546 8.245,47.477 24.734,62.792c16.489,15.315 36.016,22.973 58.58,22.973c27.482,0 54.097,-7.487 79.843,-22.462c43.393,-24.845 65.089,-65.515 65.089,-122.011l0,-74.023c-9.546,7.147 -21.841,13.103 -36.884,17.868c-15.043,4.765 -29.796,8.168 -44.261,10.21l-47.298,7.147c-28.35,4.424 -49.613,11.401 -63.788,20.931c-24.011,15.996 -36.016,41.521 -36.016,76.576Zm189.193,-185.824c17.936,-2.723 29.941,-11.571 36.016,-26.546c3.471,-8.168 5.207,-19.91 5.207,-35.225c0,-31.311 -9.474,-54.028 -28.422,-68.152c-18.948,-14.124 -46.069,-21.186 -81.362,-21.186c-40.789,0 -69.718,12.933 -86.786,38.798c-9.546,14.294 -15.766,35.565 -18.659,63.813l-72.9,0c1.446,-67.387 20.033,-114.268 55.76,-140.644c35.727,-26.376 77.167,-39.564 124.321,-39.564c54.675,0 99.081,12.252 133.216,36.756c33.847,24.504 50.77,62.622 50.77,114.353l0,314.982c0,9.529 1.663,17.187 4.99,22.973c3.327,5.786 10.342,8.679 21.046,8.679c3.471,0 7.377,-0.255 11.716,-0.766c4.339,-0.511 8.968,-1.276 13.886,-2.297l0,67.897c-12.15,4.084 -21.407,6.637 -27.771,7.658c-6.364,1.021 -15.043,1.532 -26.036,1.532c-26.904,0 -46.43,-11.231 -58.58,-33.693c-6.364,-11.912 -10.848,-28.758 -13.452,-50.54c-15.911,24.504 -38.764,45.775 -68.561,63.813c-29.796,18.038 -62.63,27.057 -98.502,27.057c-43.104,0 -78.324,-15.4 -105.662,-46.201c-27.338,-30.8 -41.006,-69.344 -41.006,-115.629c0,-50.71 13.452,-90.019 40.355,-117.927c26.904,-27.908 62.197,-45.095 105.879,-51.561l124.538,-18.378Z" style="fill-rule:nonzero;"/><path d="M9875.773,3188l74.202,0l0,77.597c21.986,-31.992 45.273,-54.964 69.863,-68.918c24.589,-13.954 51.927,-20.931 82.013,-20.931c65.957,0 110.507,27.057 133.65,81.17c12.729,29.609 19.093,71.981 19.093,127.116l0,350.717l-79.409,0l0,-344.591c0,-33.353 -4.195,-60.24 -12.584,-80.66c-13.886,-34.034 -39.054,-51.051 -75.504,-51.051c-18.514,0 -33.702,2.212 -45.563,6.637c-21.407,7.487 -40.211,22.462 -56.411,44.924c-13.018,18.038 -21.48,36.671 -25.385,55.9c-3.905,19.229 -5.858,46.711 -5.858,82.447l0,286.393l-78.107,0l0,-546.751Z" style="fill-rule:nonzero;"/><path d="M10419.486,3467.757c0,58.538 10.559,107.546 31.677,147.026c21.118,39.479 54.964,59.219 101.54,59.219c36.161,0 65.885,-18.293 89.173,-54.879c23.288,-36.586 34.931,-89.083 34.931,-157.491c0,-69.088 -12.005,-120.224 -36.016,-153.407c-24.011,-33.183 -53.663,-49.774 -88.956,-49.774c-39.343,0 -71.237,17.698 -95.681,53.093c-24.445,35.395 -36.667,87.467 -36.667,156.215Zm117.595,-289.457c35.582,0 65.379,8.849 89.389,26.546c13.886,10.21 29.652,28.078 47.298,53.603l0,-276.183l75.07,0l0,752.485l-70.297,0l0,-76.065c-18.225,33.693 -39.777,58.027 -64.656,73.002c-24.879,14.975 -53.373,22.462 -85.484,22.462c-51.782,0 -96.622,-25.61 -134.518,-76.831c-37.897,-51.221 -56.845,-119.373 -56.845,-204.457c0,-79.639 17.285,-148.642 51.855,-207.01c34.57,-58.368 83.965,-87.552 148.187,-87.552Z" style="fill-rule:nonzero;"/></g><g><path d="M3160.352,1348.849c50.804,0 97.455,14.587 139.955,43.761c42.499,29.174 76.206,70.222 101.119,123.142c24.913,52.921 37.37,111.948 37.37,177.081c0,172.331 -56.177,280.887 -168.532,325.666l0,8.142c127.987,40.708 191.98,157.405 191.98,350.091c0,73.275 -12.945,138.069 -38.836,194.382c-25.89,56.313 -61.307,100.074 -106.248,131.284c-44.942,31.21 -94.28,46.814 -148.015,46.814l-679.99,0l0,-1400.363l671.197,0Zm-347.323,545.49l222.755,0c21.494,0 39.324,-10.516 53.491,-31.549c14.166,-21.033 21.25,-47.154 21.25,-78.363l0,-20.354c0,-29.853 -7.327,-55.295 -21.982,-76.328c-14.655,-21.033 -32.241,-31.549 -52.758,-31.549l-222.755,0l0,238.143Zm0,529.207l246.203,0c21.494,0 39.324,-10.516 53.491,-31.549c14.166,-21.033 21.25,-47.154 21.25,-78.363l0,-20.354c0,-31.21 -7.083,-57.331 -21.25,-78.363c-14.166,-21.033 -31.997,-31.549 -53.491,-31.549l-246.203,0l0,240.178Z" style="fill-rule:nonzero;"/><path d="M4008.875,1650.09c135.803,0 242.54,47.832 320.211,143.496c77.671,95.664 116.507,235.09 116.507,418.277c0,183.187 -38.836,322.613 -116.507,418.277c-77.671,95.664 -184.408,143.496 -320.211,143.496c-135.803,0 -242.295,-47.493 -319.478,-142.479c-77.183,-94.986 -115.774,-234.751 -115.774,-419.295c0,-184.544 38.591,-324.309 115.774,-419.295c77.183,-94.986 183.675,-142.479 319.478,-142.479Zm0,274.78c-95.746,0 -143.619,76.667 -143.619,230.001l0,116.018c0,151.977 47.873,227.966 143.619,227.966c96.723,0 145.084,-75.989 145.084,-227.966l0,-116.018c0,-153.334 -48.361,-230.001 -145.084,-230.001Z" style="fill-rule:nonzero;"/><path d="M4879.379,1774.25c55.689,-82.773 127.987,-124.16 216.893,-124.16c104.539,0 185.141,47.154 241.807,141.461c56.666,94.307 84.999,233.733 84.999,418.277c0,185.901 -28.333,326.344 -84.999,421.33c-56.666,94.986 -137.268,142.479 -241.807,142.479c-107.47,0 -189.537,-59.027 -246.203,-177.081l-24.913,152.656l-237.41,0l0,-1475.673l291.634,0l0,500.711Zm126.033,175.045c-42.988,0 -75.229,21.372 -96.723,64.115c-21.494,42.744 -32.241,98.039 -32.241,165.886l0,67.169c0,67.847 10.747,122.803 32.241,164.868c21.494,42.065 53.735,63.098 96.723,63.098c84.022,0 126.033,-69.204 126.033,-207.612l0,-107.877c0,-139.765 -42.011,-209.647 -126.033,-209.647Z" style="fill-rule:nonzero;"/><path d="M6755.214,1348.849l401.546,0l-361.977,576.021l369.305,824.341l-382.494,0l-209.566,-512.924l-175.86,199.47l0,313.453l-323.875,0l0,-1400.363l323.875,0l0,598.411l359.046,-598.411Z" style="fill-rule:nonzero;"/><path d="M7603.41,1650.09c135.803,0 242.54,47.832 320.211,143.496c77.671,95.664 116.507,235.09 116.507,418.277c0,183.187 -38.836,322.613 -116.507,418.277c-77.671,95.664 -184.408,143.496 -320.211,143.496c-135.803,0 -242.295,-47.493 -319.478,-142.479c-77.183,-94.986 -115.774,-234.751 -115.774,-419.295c0,-184.544 38.591,-324.309 115.774,-419.295c77.183,-94.986 183.675,-142.479 319.478,-142.479Zm0,274.78c-95.746,0 -143.619,76.667 -143.619,230.001l0,116.018c0,151.977 47.873,227.966 143.619,227.966c96.723,0 145.084,-75.989 145.084,-227.966l0,-116.018c0,-153.334 -48.361,-230.001 -145.084,-230.001Z" style="fill-rule:nonzero;"/><path d="M8548.655,1650.09c103.562,0 191.247,28.157 263.057,84.47c71.809,56.313 107.714,143.496 107.714,261.55l-271.117,0c0,-39.351 -12.701,-67.169 -38.103,-83.452c-17.586,-13.569 -39.568,-20.354 -65.947,-20.354c-70.344,0 -105.516,23.068 -105.516,69.204c0,25.782 12.212,44.101 36.637,54.956c24.425,10.856 64.482,22.39 120.171,34.602c68.39,13.569 125.544,29.513 171.463,47.832c45.919,18.319 85.976,50.885 120.171,97.7c34.195,46.814 51.292,112.287 51.292,196.417c0,137.051 -36.882,234.751 -110.645,293.099c-73.763,58.348 -170.242,87.523 -289.435,87.523c-68.39,0 -132.872,-13.23 -193.445,-39.691c-60.574,-26.46 -109.912,-67.508 -148.015,-123.142c-38.103,-55.635 -57.154,-126.195 -57.154,-211.683l271.117,0l0,8.142c0.977,46.136 14.899,78.363 41.767,96.682c26.867,18.319 55.445,27.478 85.732,27.478c81.091,0 121.636,-26.46 121.636,-79.381c0,-27.139 -12.701,-46.814 -38.103,-59.027c-25.402,-12.212 -66.924,-25.103 -124.567,-38.673c-69.367,-16.283 -126.277,-33.924 -170.73,-52.921c-44.453,-18.997 -83.289,-51.225 -116.507,-96.682c-33.218,-45.458 -49.827,-108.894 -49.827,-190.311c0,-131.623 35.905,-225.252 107.714,-280.887c71.809,-55.635 165.357,-83.452 280.642,-83.452Z" style="fill-rule:nonzero;"/><path d="M9444.073,1650.09c103.562,0 191.247,28.157 263.057,84.47c71.809,56.313 107.714,143.496 107.714,261.55l-271.117,0c0,-39.351 -12.701,-67.169 -38.103,-83.452c-17.586,-13.569 -39.568,-20.354 -65.947,-20.354c-70.344,0 -105.516,23.068 -105.516,69.204c0,25.782 12.212,44.101 36.637,54.956c24.425,10.856 64.482,22.39 120.171,34.602c68.39,13.569 125.544,29.513 171.463,47.832c45.919,18.319 85.976,50.885 120.171,97.7c34.195,46.814 51.292,112.287 51.292,196.417c0,137.051 -36.882,234.751 -110.645,293.099c-73.763,58.348 -170.242,87.523 -289.435,87.523c-68.39,0 -132.872,-13.23 -193.445,-39.691c-60.574,-26.46 -109.912,-67.508 -148.015,-123.142c-38.103,-55.635 -57.154,-126.195 -57.154,-211.683l271.117,0l0,8.142c0.977,46.136 14.899,78.363 41.767,96.682c26.867,18.319 55.445,27.478 85.732,27.478c81.091,0 121.636,-26.46 121.636,-79.381c0,-27.139 -12.701,-46.814 -38.103,-59.027c-25.402,-12.212 -66.924,-25.103 -124.567,-38.673c-69.367,-16.283 -126.277,-33.924 -170.73,-52.921c-44.453,-18.997 -83.289,-51.225 -116.507,-96.682c-33.218,-45.458 -49.827,-108.894 -49.827,-190.311c0,-131.623 35.905,-225.252 107.714,-280.887c71.809,-55.635 165.357,-83.452 280.642,-83.452Z" style="fill-rule:nonzero;"/><path d="M10371.732,1650.09c141.665,0 249.867,46.136 324.607,138.408c74.74,92.272 112.11,233.394 112.11,423.365l0,69.204l-580.336,0c0,77.346 12.457,135.694 37.37,175.045c24.913,39.351 64.238,59.027 117.972,59.027c48.85,0 84.755,-14.248 107.714,-42.744c22.959,-28.496 34.439,-66.49 34.439,-113.983l282.841,0c0,130.266 -35.66,232.037 -106.981,305.312c-71.321,73.275 -175.371,109.912 -312.151,109.912c-143.619,0 -254.996,-46.475 -334.133,-139.426c-79.137,-92.95 -118.705,-233.733 -118.705,-422.348c0,-184.544 38.591,-324.309 115.774,-419.295c77.183,-94.986 183.675,-142.479 319.478,-142.479Zm11.724,258.497c-91.838,0 -143.13,60.384 -153.877,181.152l284.306,0c0,-55.635 -11.48,-99.735 -34.439,-132.302c-22.959,-32.567 -54.956,-48.85 -95.99,-48.85Z" style="fill-rule:nonzero;"/></g><path d="M12533.333,2433.333l-995.833,-1083.333l-725,0l945.833,1083.333l-975,1320.833l704.167,-4.167l1045.833,-1316.667Z" style="fill:#1f3552;"/></svg>