<?xml version="1.0" encoding="UTF-8"?>
<svg id="Layer_1" xmlns="http://www.w3.org/2000/svg" xmlns:xlink="http://www.w3.org/1999/xlink" version="1.1" viewBox="0 0 1756.5 490.3">
  <!-- Generator: Adobe Illustrator 29.3.1, SVG Export Plug-In . SVG Version: 2.1.0 Build 151)  -->
  <defs>
    <style>
      .st0 {
        fill: #ba3f26;
      }

      .st1 {
        fill: #c65d3f;
      }

      .st2 {
        opacity: .1;
      }

      .st2, .st3, .st4, .st5 {
        isolation: isolate;
      }

      .st2, .st6 {
        fill: #333;
      }

      .st7 {
        fill: #96231e;
      }

      .st8, .st4, .st5 {
        fill: #fff;
      }

      .st9 {
        fill: #e05f40;
      }

      .st4 {
        opacity: .8;
      }

      .st5 {
        opacity: 0;
      }
    </style>
  </defs>
  <g class="st3">
    <g class="st3">
      <path class="st1" d="M520.7,172.5v-24.8h125v24.8h-48.2v146.5h-28v-146.5h-48.8Z"/>
    </g>
    <g class="st3">
      <path class="st1" d="M655,319v-125h27v15c14.2-9.2,28.3-15.1,42.5-17.8v27.2c-14.3,2.8-26.6,6.5-36.8,11l-5.5,2.2v87.2h-27.2Z"/>
      <path class="st1" d="M752.7,172.7v-28.8h27.2v28.8h-27.2ZM752.7,319v-125h27.2v125h-27.2Z"/>
    </g>
    <g class="st3">
      <path class="st1" d="M818,372.7v-178.8h27v7.8c11.5-7,22.2-10.5,32.2-10.5,16.5,0,28.6,5,36.2,15.1,7.7,10.1,11.5,27,11.5,50.8s-4.4,40.5-13.1,50.1c-8.8,9.7-23,14.5-42.9,14.5s-14.8-.8-23.8-2.2v53.2h-27.2ZM872.5,215.5c-7.8,0-15.7,1.8-23.5,5.2l-3.8,1.8v73.8c6.7,1.3,14,2,22,2,11.3,0,19.2-3.2,23.5-9.8,4.3-6.5,6.5-17.6,6.5-33.2,0-26.5-8.2-39.8-24.8-39.8Z"/>
    </g>
    <g class="st3">
      <path class="st6" d="M1010.5,169.2c-21.2,0-31.8,7.4-31.8,22.2s2.5,13.1,7.5,16.4,16,7.2,33.1,12c17.1,4.8,29.1,10.4,36.1,17,7,6.6,10.5,17,10.5,31.1s-5.1,31.5-15.4,40.4c-10.2,8.9-24.2,13.4-41.9,13.4s-29.8-1.7-47-5l-9-1.8,2.8-22.2c22.5,3,39.7,4.5,51.5,4.5,20.7,0,31-9.2,31-27.5s-2.3-12.5-7-15.9c-4.7-3.4-15.2-7.2-31.5-11.2-16.3-4.1-28.5-9.7-36.5-16.9-8-7.2-12-18.5-12-34s5-27.2,15.1-35.1c10.1-7.9,24-11.9,41.9-11.9s28,1.5,45.5,4.5l8.8,1.5-2.2,22.5c-23.3-2.7-39.8-4-49.5-4Z"/>
      <path class="st6" d="M1189.2,296.5l7-.8.5,20.2c-19,3.8-35.8,5.8-50.5,5.8s-31.8-5.1-39.9-15.2c-8.1-10.2-12.1-26.4-12.1-48.8,0-44.3,18.1-66.5,54.2-66.5s52.5,19.1,52.5,57.2l-1.8,19.5h-77.5c.2,10.3,2.4,17.9,6.8,22.8,4.3,4.8,12.4,7.2,24.2,7.2s24-.5,36.5-1.5ZM1174.2,247c0-12.3-2-21-5.9-25.9-3.9-4.9-10.5-7.4-19.9-7.4s-16.1,2.6-20.4,7.8c-4.2,5.2-6.5,13.7-6.6,25.5h52.8Z"/>
      <path class="st6" d="M1234.7,319v-125h27v15c14.2-9.2,28.3-15.1,42.5-17.8v27.2c-14.3,2.8-26.6,6.5-36.8,11l-5.5,2.2v87.2h-27.2Z"/>
      <path class="st6" d="M1320.7,194h28.5l24,101.8h8l25-101.8h27.8l-32.5,125h-48.5l-32.2-125Z"/>
      <path class="st6" d="M1462.7,172.7v-28.8h27.2v28.8h-27.2ZM1462.7,319v-125h27.2v125h-27.2Z"/>
    </g>
    <g class="st3">
      <path class="st6" d="M1571,191.2c8.8,0,19.2,1.2,31.2,3.5l6.2,1.2-1,21.5c-13.2-1.3-22.9-2-29.2-2-12.7,0-21.2,2.8-25.5,8.5-4.3,5.7-6.5,16.3-6.5,32s2.1,26.5,6.2,32.5c4.2,6,12.8,9,26,9l29.2-2,.8,21.8c-16.8,3-29.5,4.5-38,4.5-19,0-32.4-5.1-40.1-15.4s-11.6-27-11.6-50.4,4.1-40,12.2-49.9c8.2-9.9,21.5-14.9,40-14.9Z"/>
    </g>
    <g class="st3">
      <path class="st6" d="M1728.7,296.5l7-.8.5,20.2c-19,3.8-35.8,5.8-50.5,5.8s-31.8-5.1-39.9-15.2c-8.1-10.2-12.1-26.4-12.1-48.8,0-44.3,18.1-66.5,54.2-66.5s52.5,19.1,52.5,57.2l-1.8,19.5h-77.5c.2,10.3,2.4,17.9,6.8,22.8,4.3,4.8,12.4,7.2,24.2,7.2s24-.5,36.5-1.5ZM1713.7,247c0-12.3-2-21-5.9-25.9-3.9-4.9-10.5-7.4-19.9-7.4s-16.1,2.6-20.4,7.8c-4.2,5.2-6.5,13.7-6.6,25.5h52.8Z"/>
    </g>
  </g>
  <g>
    <g>
      <g class="st3">
        <polygon class="st9" points="425 122.9 213.5 245.8 .7 122.9 212.1 0 425 122.9"/>
        <polygon class="st0" points="425 122.9 424.3 367.4 212.8 490.3 213.5 245.8 425 122.9"/>
        <polygon class="st7" points="213.5 245.8 212.8 490.3 0 367.4 .7 122.9 213.5 245.8"/>
      </g>
      <polygon class="st5" points="212.1 0 425 122.9 424.3 367.4 213.5 245.8 212.1 0"/>
      <polygon class="st2" points="212.1 0 213.5 245.8 0 367.4 .7 122.9 212.1 0"/>
    </g>
    <g>
      <path class="st8" d="M213.5,389.3c-11.4-13.1-22.2-25-32.4-37.5-18.1-22.2-34.5-45.6-46.1-72-11.4-25.9-12.1-51.5,1-77,16-31,49.7-51.8,89.3-46.2,38.9,5.5,67.8,34,74.3,71.5,3.1,18-.4,35.1-7.6,51.6-11.5,26.5-27.9,49.8-46.1,72-10.2,12.5-21,24.4-32.4,37.5h0ZM271.8,243.3c0-32.4-25.8-58.6-58-58.7-32.1-.1-58.5,26.1-58.6,58.2,0,32.4,25.9,58.6,58,58.6,32.5,0,58.4-25.8,58.5-58.1h0Z"/>
      <path class="st4" d="M271.8,243.3c0,32.4-26,58.2-58.5,58.1-32.2,0-58.1-26.2-58-58.6,0-32.1,26.4-58.4,58.6-58.2,32.2.1,58,26.3,58,58.7h0Z"/>
    </g>
  </g>
</svg>