<svg xmlns="http://www.w3.org/2000/svg" width="140" height="48" viewBox="0 0 140 48" fill="none"><g clip-path="url(#clip0_1489_2)"><path d="M17.9117 27.9516H8.01246C7.23341 27.954 6.47151 27.7229 5.8251 27.2881C5.1787 26.8532 4.67746 26.2346 4.3861 25.5121L0.28877 15.4525C-0.0988608 14.506 -0.0988608 13.4451 0.28877 12.4986L4.3861 2.43789C4.67764 1.71558 5.17895 1.09721 5.82534 0.662577C6.47173 0.227945 7.23354 -0.00300369 8.01246 -0.000467617H17.9117V3.2362H8.01246C7.87716 3.23567 7.74482 3.2757 7.63249 3.35111C7.52016 3.42653 7.43301 3.53387 7.38227 3.65929L3.28606 13.7189C3.21927 13.8835 3.21927 14.0676 3.28606 14.2322L7.38227 24.2918C7.43301 24.4172 7.52016 24.5246 7.63249 24.6C7.74482 24.6754 7.87716 24.7154 8.01246 24.7149H17.9117V27.9516Z" fill="#253637"/><path d="M134.816 27.9518H131.579V22.0986H118.692C118.436 22.0987 118.185 22.0384 117.957 21.9227C117.73 21.807 117.533 21.6392 117.383 21.4329C117.233 21.2266 117.134 20.9877 117.093 20.7358C117.053 20.4838 117.073 20.2259 117.152 19.9831L122.771 2.55167C122.783 2.5127 122.797 2.47485 122.812 2.44033C123.104 1.71802 123.605 1.09965 124.251 0.665019C124.898 0.230387 125.66 -0.000562283 126.439 0.00197379H133.197C133.626 0.00197369 134.038 0.172382 134.341 0.475742C134.645 0.779102 134.816 1.19059 134.816 1.61975V18.8619H139.381V22.0986H134.816V27.9518ZM120.913 18.8619H131.579V3.23641H126.439C126.311 3.23601 126.186 3.27177 126.078 3.33955C125.969 3.40733 125.883 3.50437 125.827 3.61943L120.913 18.8619Z" fill="#253637"/><path d="M63.2694 27.9521H53.3701V24.7154H63.2694C63.4045 24.7157 63.5366 24.6756 63.6487 24.6002C63.7608 24.5248 63.8478 24.4175 63.8985 24.2923L67.9958 14.2327C68.0626 14.0685 68.0626 13.8847 67.9958 13.7205L63.8985 3.65867C63.8476 3.53363 63.7606 3.42665 63.6485 3.35145C63.5364 3.27626 63.4044 3.23629 63.2694 3.23669H53.3701V2.06645e-05H63.2694C64.0483 -0.00251541 64.8101 0.228434 65.4565 0.663066C66.1029 1.0977 66.6042 1.71607 66.8958 2.43838L70.9931 12.4991C71.3807 13.4456 71.3807 14.5065 70.9931 15.453L66.8969 25.5126C66.6054 26.2353 66.104 26.854 65.4574 27.2889C64.8108 27.7237 64.0486 27.9547 63.2694 27.9521Z" fill="#253637"/><path d="M39.3349 27.9521H31.8406C31.0615 27.9545 30.2996 27.7234 29.6532 27.2885C29.0068 26.8537 28.5056 26.2351 28.2142 25.5126L24.1169 15.453C23.7293 14.5065 23.7293 13.4456 24.1169 12.4991L28.2131 2.43838C28.5046 1.71607 29.006 1.0977 29.6523 0.663066C30.2987 0.228434 31.0605 -0.00251541 31.8395 2.06645e-05H39.3338C40.1127 -0.00251541 40.8745 0.228434 41.5209 0.663066C42.1673 1.0977 42.6686 1.71607 42.9602 2.43838L47.0564 12.4991C47.444 13.4456 47.444 14.5065 47.0564 15.453L42.9602 25.5126C42.6689 26.2349 42.1678 26.8534 41.5216 27.2882C40.8754 27.7231 40.1138 27.9543 39.3349 27.9521V27.9521ZM31.8406 3.23446C31.7056 3.23407 31.5736 3.27403 31.4615 3.34923C31.3494 3.42442 31.2623 3.5314 31.2115 3.65644L27.1153 13.7172C27.048 13.8813 27.048 14.0652 27.1153 14.2293L31.2126 24.2901C31.2633 24.4153 31.3503 24.5225 31.4624 24.5979C31.5745 24.6733 31.7066 24.7135 31.8417 24.7132H39.336C39.4711 24.7135 39.6032 24.6733 39.7153 24.5979C39.8275 24.5225 39.9144 24.4153 39.9651 24.2901L44.0613 14.2304C44.095 14.1493 44.1123 14.0623 44.1123 13.9744C44.1123 13.8865 44.095 13.7995 44.0613 13.7183L39.964 3.65867C39.9131 3.53363 39.8261 3.42665 39.714 3.35145C39.6019 3.27626 39.4699 3.23629 39.3349 3.23669L31.8406 3.23446Z" fill="#253637"/><path d="M96.6071 27.952H82.6305C81.5925 27.9508 80.5973 27.5379 79.8633 26.8037C79.1294 26.0696 78.7167 25.0743 78.7158 24.0362V3.91585C78.7167 2.87776 79.1294 1.88243 79.8633 1.14829C80.5973 0.414155 81.5925 0.00117926 82.6305 0H96.6071V3.23667H82.6305C82.4505 3.23696 82.2779 3.30861 82.1506 3.43592C82.0233 3.56323 81.9517 3.73581 81.9514 3.91585V24.0362C81.9517 24.2162 82.0233 24.3888 82.1506 24.5161C82.2779 24.6434 82.4505 24.7151 82.6305 24.7154H96.6071V27.952Z" fill="#253637"/><path d="M110.157 27.952H106.92V3.91585C106.92 3.73572 106.848 3.56296 106.721 3.43559C106.594 3.30822 106.421 3.23667 106.241 3.23667H104.623V0H106.241C107.279 0.00117875 108.274 0.414118 109.008 1.14823C109.743 1.88233 110.155 2.87766 110.157 3.91585V27.952Z" fill="#253637"/><path d="M92.3183 12.3579H86.002V15.5935H92.3183V12.3579Z" fill="#253637"/><path d="M16.905 39.0529H14.3541V45.661H13.0181V39.0529H10.4795V37.8994H16.9105L16.905 39.0529Z" fill="#F8835B"/><path d="M16.6729 42.8895C16.6729 41.2038 17.7707 39.9624 19.5332 39.9624C21.2957 39.9624 22.2165 41.2039 22.2165 42.933V43.1557H17.941V43.1668C18.0078 44.0987 18.54 44.7411 19.5154 44.7411C20.2357 44.7411 20.6577 44.4205 20.935 43.8771H22.1831C21.8491 44.9638 21.0073 45.7699 19.5555 45.7699C17.7183 45.7721 16.6729 44.5407 16.6729 42.8895ZM20.9528 42.2905C20.808 41.4922 20.376 40.96 19.5221 40.96C18.6681 40.96 18.1637 41.4944 17.9811 42.2905H20.9528Z" fill="#F8835B"/><path d="M26.1355 45.7723C24.4064 45.7723 23.1973 44.5297 23.1973 42.8563C23.1973 41.1828 24.4064 39.9614 26.1244 39.9614C27.5551 39.9614 28.6529 40.8032 28.8188 42.1114H27.5774C27.4104 41.4434 26.9094 41.0147 26.13 41.0147C25.099 41.0147 24.4443 41.7941 24.4443 42.8552C24.4443 43.9418 25.099 44.7179 26.13 44.7179C26.9172 44.7179 27.4494 44.2625 27.593 43.5087H28.8411C28.7075 44.8849 27.6097 45.7723 26.1355 45.7723Z" fill="#F8835B"/><path d="M35.3382 42.2239V45.661H34.1079V42.412C34.1079 41.5213 33.6413 41.0704 32.9321 41.0704C32.0113 41.0704 31.4357 41.7139 31.4357 42.7672V45.6621H30.2109V37.8994H31.4357V40.9268C31.812 40.2721 32.4444 39.9626 33.2427 39.9626C34.6067 39.9626 35.3382 40.8154 35.3382 42.2239Z" fill="#F8835B"/><path d="M42.0565 42.2237V45.6608H40.8373V42.4119C40.8373 41.5356 40.3708 41.0702 39.6616 41.0702C38.7308 41.0702 38.1652 41.7249 38.1652 42.7671V45.6619H36.9404V40.0726H38.1652V40.9489C38.5304 40.2808 39.1672 39.9624 39.9722 39.9624C41.3362 39.9624 42.0565 40.8264 42.0565 42.2237Z" fill="#F8835B"/><path d="M49.1849 42.8563C49.1849 44.5631 47.9423 45.7723 46.2578 45.7723C44.5732 45.7723 43.3262 44.5631 43.3262 42.8563C43.3262 41.1706 44.5676 39.9614 46.2533 39.9614C47.939 39.9614 49.1849 41.1706 49.1849 42.8563ZM44.5721 42.8563C44.5721 43.943 45.2713 44.719 46.2578 44.719C47.2442 44.719 47.9279 43.9396 47.9279 42.8563C47.9279 41.7919 47.2287 41.0158 46.2578 41.0158C45.2869 41.0158 44.5721 41.7919 44.5721 42.8563Z" fill="#F8835B"/><path d="M55.1291 44.6121V45.6654H50.2725V44.6121H52.0706V38.9527H50.4617V37.8994H53.2898V44.6121H55.1291Z" fill="#F8835B"/><path d="M61.9558 42.8563C61.9558 44.5631 60.7133 45.7723 59.0287 45.7723C57.3441 45.7723 56.1016 44.5631 56.1016 42.8563C56.1016 41.1706 57.343 39.9614 59.0287 39.9614C60.7144 39.9614 61.9558 41.1706 61.9558 42.8563ZM57.343 42.8563C57.343 43.9441 58.0422 44.7235 59.0254 44.7235C60.0085 44.7235 60.6955 43.9441 60.6955 42.8607C60.6955 41.7963 59.9974 41.0203 59.0254 41.0203C58.0534 41.0203 57.343 41.7919 57.343 42.8563V42.8563Z" fill="#F8835B"/><path d="M68.6986 40.0726V45.6831C68.6986 47.0247 67.5117 48.0001 65.8828 48.0001C64.4354 48.0001 63.2218 47.1795 63.0882 45.8935H64.353C64.4643 46.5482 65.1179 47.0069 65.8939 47.0069C66.7691 47.0069 67.4527 46.4636 67.4683 45.7432V44.6187H67.4572C67.1354 45.1397 66.4551 45.5172 65.5833 45.5172C64.0089 45.5172 62.9668 44.3303 62.9668 42.7114C62.9668 41.0702 64.0201 39.9624 65.561 39.9624C66.503 39.9624 67.1198 40.3721 67.4538 40.8821H67.4649V40.0726H68.6986ZM67.4739 42.7003V42.6223C67.4739 41.6804 66.8303 41.0157 65.8661 41.0157C64.9019 41.0157 64.2138 41.7027 64.2138 42.7003C64.2138 43.6979 64.9019 44.4528 65.8661 44.4528C66.8303 44.4528 67.4683 43.6979 67.4683 42.7003H67.4739Z" fill="#F8835B"/><path d="M76.2833 40.0723L73.7558 46.4254C73.3561 47.4274 72.569 47.9997 71.5379 47.9997C71.0557 48.0049 70.5784 47.9026 70.1406 47.7002V46.559C70.7842 46.913 71.205 46.9687 71.5268 46.9687C72.0479 46.9687 72.5467 46.5912 72.7349 46.0713L72.8017 45.8931L70.1406 40.0723H71.5379L73.345 44.3633L74.8637 40.0723H76.2833Z" fill="#F8835B"/><path d="M90.3827 42.8773C90.3827 44.5964 89.2515 45.7722 87.7217 45.7722C86.8788 45.7722 86.2464 45.4726 85.8289 44.8514H85.8178V47.8342H84.583V40.0726H85.8144V40.9823H85.8367C86.2687 40.3276 86.8566 39.9624 87.754 39.9624C89.2404 39.9624 90.3827 41.1704 90.3827 42.8773ZM89.1402 42.8773C89.1402 41.7806 88.4087 41.0157 87.4333 41.0157C86.4313 41.0157 85.8033 41.7695 85.8033 42.8339V42.9218C85.8144 43.9974 86.4569 44.7189 87.4445 44.7189C88.4087 44.7233 89.1402 43.964 89.1402 42.8773Z" fill="#F8835B"/><path d="M91.2959 42.8562C91.2959 41.1371 92.4939 39.9502 94.0349 39.9502C94.8777 39.9502 95.4656 40.2608 95.8531 40.8821H95.8642V40.0727H97.0889V45.6609H95.8642V44.7512H95.8419C95.4433 45.4059 94.9 45.7722 94.0015 45.7722C92.5162 45.7722 91.2959 44.563 91.2959 42.8562ZM92.5385 42.8562C92.5385 43.9529 93.27 44.7189 94.2453 44.7189C95.2474 44.7189 95.8753 43.964 95.8753 42.8996V42.8116C95.8642 41.7361 95.2206 41.0046 94.2342 41.0046C93.27 41.0046 92.5396 41.7695 92.5396 42.8562H92.5385Z" fill="#F8835B"/><path d="M115.906 42.2917V45.7255H114.681V42.4799C114.681 41.6037 114.216 41.1382 113.506 41.1382C112.575 41.1382 112.009 41.7929 112.009 42.8351V45.7299H110.8V40.1406H112.019V41.0169C112.385 40.3488 113.021 40.0293 113.826 40.0293C115.184 40.0293 115.906 40.8944 115.906 42.2917Z" fill="#F8835B"/><path d="M117.221 42.9564C117.221 41.2719 118.319 40.0293 120.081 40.0293C121.844 40.0293 122.764 41.2719 122.764 43.001V43.2237H118.482V43.2348C118.548 44.1667 119.08 44.8091 120.057 44.8091C120.777 44.8091 121.198 44.4885 121.475 43.9451H122.728C122.394 45.0318 121.553 45.8379 120.1 45.8379C118.26 45.8368 117.221 44.6121 117.221 42.9564ZM121.501 42.3585C121.357 41.5602 120.924 41.028 120.071 41.028C119.218 41.028 118.707 41.5602 118.529 42.3585H121.501Z" fill="#F8835B"/><path d="M109.333 44.6555C109.165 44.6915 108.994 44.7091 108.823 44.7078C107.903 44.7078 107.404 44.3081 107.404 43.61V41.126H109.333V40.0727H107.404V38.3213H106.18V38.809C106.18 39.7843 105.957 40.0727 104.994 40.0727H104.622V41.126H106.181V43.6645C106.181 44.9182 107.168 45.7722 108.765 45.7722C108.954 45.7738 109.143 45.7593 109.33 45.7288L109.333 44.6555Z" fill="#F8835B"/><path d="M103.562 41.1256V40.0679C102.168 40.1013 101.528 40.4186 101.119 41.2035V40.0723H98.469V41.1256H99.8997V44.6117H98.4668V45.665H102.57V44.6117H101.112V43.7132C101.112 41.9751 101.23 41.09 103.562 41.1256Z" fill="#F8835B"/><path d="M128.91 41.1959V40.1382C127.517 40.1716 126.876 40.4889 126.468 41.2739V40.1426H123.818V41.1959H125.248V44.6775H123.818V45.7308H127.921V44.6775H126.474V43.779C126.468 42.0443 126.581 41.1603 128.91 41.1959Z" fill="#F8835B"/></g><defs><clipPath id="clip0_1489_2"><rect width="139.384" height="48" fill="white"/></clipPath></defs></svg>