<svg xmlns="http://www.w3.org/2000/svg" width="1600" height="1024" viewBox="0 0 1600 1024" fill="none"><path fill-rule="evenodd" clip-rule="evenodd" d="M424.619 178.014H475.722C502.047 178.014 523.393 201.332 523.393 230.108V578.804H424.619V178.014ZM424.223 110.244C412.739 98.6473 406.686 84.4342 406.007 67.605C405.252 49.3134 411.909 30.9187 424.223 18.4977C436.424 6.15902 452.226 0 471.63 0C491.355 0 507.384 6.11782 519.641 18.3535C531.973 30.6509 538.291 49.231 537.178 67.4402C536.141 84.3312 530.107 98.4825 519.037 109.874C506.856 122.459 491.034 128.742 471.63 128.742C452.226 128.742 436.405 122.583 424.223 110.244Z" fill="#1F1F1F"/><mask id="mask0_201_839" style="mask-type:luminance" maskUnits="userSpaceOnUse" x="0" y="176" width="395" height="541"><path fill-rule="evenodd" clip-rule="evenodd" d="M0 176.554H394.278V716.055H0V176.554Z" fill="white"/></mask><g mask="url(#mask0_201_839)"><path fill-rule="evenodd" clip-rule="evenodd" d="M261.164 462.073C278.55 442.092 287.243 415.334 287.243 381.799C287.243 348.265 278.55 321.486 261.164 301.526C243.777 281.545 221.526 271.534 194.447 271.534C167.349 271.534 145.116 281.545 127.73 301.526C110.343 321.486 101.65 348.265 101.65 381.799C101.65 415.334 110.343 442.092 127.73 462.073C145.116 482.054 167.349 492.044 194.447 492.044C221.526 492.044 243.777 482.054 261.164 462.073ZM305.196 202.385C332.973 219.378 354.734 243.314 370.574 274.13C386.358 304.987 394.278 340.87 394.278 381.799C394.278 422.729 386.358 458.633 370.574 489.448C354.734 520.285 332.973 544.2 305.196 561.214C277.419 578.25 246.606 586.736 212.739 586.736C166.218 586.736 112.889 538.659 112.889 538.659V716.055C50.5471 716.055 -0.00933838 660.83 -0.00933838 592.73V176.554H51.0751C77.4375 176.554 98.784 199.871 98.784 228.627C124.449 194.104 162.597 176.842 212.739 176.842C246.606 176.842 277.419 185.349 305.196 202.385Z" fill="#1F1F1F"/></g><path fill-rule="evenodd" clip-rule="evenodd" d="M812.04 559.383L744.229 455.442L661.031 578.787H545.115L686.262 376.178L549.886 176.556H647.642C661.2 176.556 673.929 183.662 681.906 195.692L746.982 293.927L826.749 176.556H939.968L803.573 373.171L945.418 578.787H846.473C832.821 578.787 819.998 571.557 812.04 559.383Z" fill="#1F1F1F"/><path fill-rule="evenodd" clip-rule="evenodd" d="M1117.62 621.091C1139.35 611.224 1164.41 606.28 1192.79 606.28V710.015C1180.42 708.986 1172.1 708.471 1167.8 708.471C1135.95 708.471 1110.95 718.193 1092.88 737.68C1074.82 757.166 1065.79 786.396 1065.79 825.368V1012.98H967.011V612.213H1017.7C1044.25 612.213 1065.79 635.716 1065.79 664.739C1078.61 645.5 1095.88 630.958 1117.62 621.091Z" fill="#1F1F1F"/><mask id="mask1_201_839" style="mask-type:luminance" maskUnits="userSpaceOnUse" x="1199" y="606" width="401" height="411"><path fill-rule="evenodd" clip-rule="evenodd" d="M1199.35 606.349H1599.66V1016.24H1199.35V606.349Z" fill="white"/></mask><g mask="url(#mask1_201_839)"><path fill-rule="evenodd" clip-rule="evenodd" d="M1466.56 891.579C1483.94 871.598 1492.66 844.841 1492.66 811.306C1492.66 777.771 1483.94 750.993 1466.56 731.033C1449.19 711.052 1426.94 701.041 1399.86 701.041C1372.76 701.041 1350.42 711.052 1332.78 731.033C1315.19 750.993 1306.38 777.771 1306.38 811.306C1306.38 844.841 1315.19 871.598 1332.78 891.579C1350.42 911.56 1372.76 921.55 1399.86 921.55C1426.94 921.55 1449.19 911.56 1466.56 891.579ZM1296.54 989.979C1266.07 972.491 1242.25 948.184 1225.09 917.101C1207.93 886.017 1199.35 850.773 1199.35 811.306C1199.35 771.859 1207.93 736.574 1225.09 705.49C1242.25 674.427 1266.07 650.121 1296.54 632.612C1327.05 615.124 1361.47 606.349 1399.86 606.349C1438.23 606.349 1472.54 615.124 1502.8 632.612C1533.05 650.121 1556.75 674.427 1573.93 705.49C1591.09 736.574 1599.67 771.859 1599.67 811.306C1599.67 850.773 1591.09 886.017 1573.93 917.101C1556.75 948.184 1533.05 972.491 1502.8 989.979C1472.54 1007.51 1438.23 1016.24 1399.86 1016.24C1361.47 1016.24 1327.05 1007.51 1296.54 989.979Z" fill="#1F1F1F"/></g><path fill-rule="evenodd" clip-rule="evenodd" d="M658.218 782.552C661.819 756.907 671.776 736.679 688.031 721.889C704.286 707.078 724.369 699.683 748.318 699.683C771.776 699.683 791.652 707.202 807.907 722.239C824.181 737.297 834.099 757.401 837.739 782.552H658.218ZM937.287 813.121C937.287 771.697 929.046 735.34 912.565 703.988C896.065 672.678 873.379 648.64 844.49 631.852C815.6 615.105 783.317 606.701 747.62 606.701C711.056 606.701 677.98 615.455 648.393 632.964C618.825 650.473 595.574 674.882 578.64 706.213C561.706 737.544 553.239 772.685 553.239 811.658C553.239 851.125 561.819 886.37 578.979 917.453C596.139 948.537 620.522 972.843 652.127 990.331C668.891 999.642 687.22 1006.09 706.7 1010.44L706.398 1010.46C706.398 1010.46 707.775 1010.79 710.207 1011.26C710.301 1011.28 710.377 1011.3 710.471 1011.32H710.49C727.348 1014.66 793.594 1025.18 840.058 995.852L839.964 995.872C840.624 995.564 841.284 995.255 841.925 994.904C872.172 977.395 895.876 953.089 913.055 922.026C917.675 913.642 921.409 904.847 924.728 895.845H806.153C805.983 896.051 805.851 896.278 805.663 896.484C805.55 896.628 805.436 896.772 805.304 896.916C784.863 920.152 753.353 927.32 725.029 918.359C713.884 914.837 703.796 909.605 694.801 902.663C676.283 888.368 664.554 868.881 659.575 844.204H935.25C936.627 824.965 937.287 814.624 937.287 813.121Z" fill="#1F1F1F"/><mask id="mask2_201_839" style="mask-type:luminance" maskUnits="userSpaceOnUse" x="128" y="614" width="400" height="410"><path fill-rule="evenodd" clip-rule="evenodd" d="M128.48 614.108H527.199V1024H128.48V614.108Z" fill="white"/></mask><g mask="url(#mask2_201_839)"><path fill-rule="evenodd" clip-rule="evenodd" d="M418.468 851.961C414.489 870.583 406.946 886.403 395.688 899.318C378.321 919.319 356.069 929.289 328.99 929.289C301.873 929.289 279.546 919.319 261.915 899.318C244.321 879.358 235.514 852.6 235.514 819.045C235.514 785.51 244.321 758.752 261.915 738.771C279.546 718.791 301.873 708.8 328.99 708.8C356.069 708.8 378.321 718.791 395.688 738.771C407.776 752.655 415.545 769.876 419.241 790.289H527.199C523.993 762.254 515.941 736.567 503.043 713.25C485.883 682.166 462.179 657.88 431.932 640.371C401.666 622.862 367.364 614.108 328.99 614.108C290.596 614.108 256.163 622.862 225.671 640.371C195.197 657.88 171.381 682.166 154.221 713.25C137.06 744.312 128.48 779.598 128.48 819.045C128.48 858.512 137.06 893.777 154.221 924.86C171.381 955.923 195.197 980.25 225.671 997.739C256.163 1015.25 290.596 1024 328.99 1024C367.364 1024 401.666 1015.25 431.932 997.739C462.179 980.25 485.883 955.923 503.043 924.86C515.3 902.696 523.088 878.369 526.595 851.961H418.468Z" fill="#1F1F1F"/></g></svg>