<?xml version="1.0" encoding="UTF-8"?>
<svg id="Laag_1" data-name="Laag 1" xmlns="http://www.w3.org/2000/svg" viewBox="0 0 387.16 77.93">
  <defs>
    <style>
      .cls-1 {
        fill: #08b7d9;
      }

      .cls-2 {
        fill: #20294d;
      }
    </style>
  </defs>
  <path class="cls-2" d="M6.33,71.77V25.01c0-.39.32-.7.71-.7h10.85c.39,0,.71.31.71.7v6.78c0,.71.94.97,1.31.36.61-1.01,1.33-1.95,2.17-2.81,1.57-1.6,3.39-2.85,5.48-3.74,2.09-.89,4.23-1.33,6.44-1.33,3.65,0,6.86.8,9.61,2.41,2.75,1.6,4.89,3.91,6.39,6.92,1.51,3.01,2.26,6.63,2.26,10.87v27.31c0,.39-.32.7-.71.7h-10.76c-.39,0-.71-.31-.71-.7v-25.07c0-3.78-.99-6.74-2.96-8.89-1.97-2.15-4.55-3.22-7.74-3.22-2.15,0-4.03.56-5.66,1.68-1.62,1.12-2.89,2.65-3.78,4.6-.9,1.95-1.35,4.18-1.35,6.7v24.22c0,.39-.32.7-.71.7H7.04c-.39,0-.71-.31-.71-.7Z"/>
  <rect class="cls-2" x="63.75" y="24.28" width="12.35" height="48.2" rx=".71" ry=".71"/>
  <path class="cls-2" d="M88.2,71.77V25.01c0-.39.32-.7.71-.7h10.85c.39,0,.71.31.71.7v6.78c0,.71.94.97,1.31.36.61-1.01,1.33-1.95,2.17-2.81,1.57-1.6,3.39-2.85,5.48-3.74,2.09-.89,4.23-1.33,6.44-1.33,3.65,0,6.86.8,9.61,2.41,2.75,1.6,4.89,3.91,6.39,6.92,1.51,3.01,2.26,6.63,2.26,10.87v27.31c0,.39-.32.7-.71.7h-10.76c-.39,0-.71-.31-.71-.7v-25.07c0-3.78-.99-6.74-2.96-8.89-1.97-2.15-4.55-3.22-7.74-3.22-2.15,0-4.03.56-5.66,1.68-1.62,1.12-2.89,2.65-3.78,4.6-.9,1.95-1.35,4.18-1.35,6.7v24.22c0,.39-.32.7-.71.7h-10.85c-.39,0-.71-.31-.71-.7Z"/>
  <path class="cls-2" d="M168.59,73.08c-3.71,0-7.15-.57-10.31-1.72-3.16-1.15-5.92-2.78-8.27-4.9-2.35-2.12-4.18-4.65-5.48-7.6-1.31-2.95-1.96-6.23-1.96-9.84s.67-7.1,2-10.14c1.33-3.04,3.19-5.64,5.57-7.82,2.38-2.18,5.1-3.85,8.18-5.03,3.07-1.17,6.32-1.76,9.74-1.76,2.9,0,5.63.39,8.18,1.16,2.55.77,4.8,1.86,6.74,3.27,1.94,1.4,3.45,3.08,4.52,5.03,1.07,1.95,1.61,4.07,1.61,6.36,0,2.98-.87,5.47-2.61,7.48-1.74,2.01-4.05,3.6-6.92,4.77-2.87,1.17-6.02,1.98-9.44,2.41-3.42.43-6.79.59-10.09.47-.52-.06-1.13-.09-1.83-.09s-1.32-.01-1.87-.04c-.55-.03-.91-.04-1.09-.04.35,1.55,1.17,2.98,2.48,4.3,1.3,1.32,2.91,2.33,4.83,3.05,2.67,1,5.61,1.3,8.85.91.03,0,.06,0,.09-.01,2.89-.58,5.5-1.71,7.81-3.39,1.33-.96,2.45-2,3.36-3.12.24-.29.67-.36.97-.13l7.3,5.43c.32.24.38.69.13,1-1.75,2.15-3.75,3.95-5.99,5.4-2.44,1.58-5.05,2.74-7.83,3.48-2.78.74-5.69,1.12-8.7,1.12ZM160.5,46.53c1.91,0,3.84-.09,5.79-.26,1.94-.17,3.74-.5,5.39-.99,1.65-.49,2.99-1.17,4-2.06,1.01-.89,1.52-2.02,1.52-3.39,0-1.15-.39-2.16-1.17-3.05-.78-.89-1.83-1.6-3.13-2.15-1.3-.54-2.8-.82-4.48-.82-2.67,0-5.03.6-7.09,1.8-2.06,1.2-3.67,2.76-4.83,4.68-1.03,1.7-1.65,3.45-1.85,5.26-.04.39.26.73.65.76.55.04,1.18.08,1.89.12,1.04.06,2.15.09,3.31.09Z"/>
  <path class="cls-2" d="M200.86,71.77v-36.69c0-.39-.32-.71-.71-.71h-4.15c-.39,0-.71-.32-.71-.71v-8.67c0-.39.32-.71.71-.71h4.15c.39,0,.71-.32.71-.71v-1.73c0-3.25.49-5.96,1.48-8.13.99-2.17,2.38-3.93,4.18-5.26,1.8-1.33,3.94-2.29,6.44-2.87,2.3-.53,4.82-.77,7.56-.72.39,0,.7.33.7.72v8.88c0,.39-.31.69-.7.7-1.28.04-2.43.21-3.44.51-1.19.35-2.13,1-2.83,1.96-.7.96-1.04,2.33-1.04,4.13v1.81c0,.39.32.71.71.71h7.11c.39,0,.71.32.71.71v8.67c0,.39-.32.71-.71.71h-7.11c-.39,0-.71.32-.71.71v36.69c0,.39-.32.71-.71.71h-10.94c-.39,0-.71-.32-.71-.71ZM242.88,73.08c-2.15,0-4.25-.45-6.31-1.35-2.06-.9-3.74-2.35-5.05-4.35-1.31-2-1.96-4.62-1.96-7.87V5.55c0-.39.32-.71.71-.71h10.85c.39,0,.71.32.71.71v53.17c0,1.28.38,2.23,1.13,2.87.75.64,1.65.96,2.7.96.46,0,.87-.04,1.25-.13s.76.14.85.52l1.95,8.01c.08.33-.08.68-.38.82-1.9.88-4.05,1.31-6.44,1.31Z"/>
  <path class="cls-2" d="M309.71,24.28h10.93c.33,0,.62.23.69.55l9.85,42.87c.1.44-.24.87-.69.87h-1.85c-.46,0-.8-.43-.69-.88l10.78-42.87c.08-.32.36-.54.69-.54h11.86c.33,0,.61.22.69.54l10.61,42.87c.11.45-.23.88-.69.88h-1.86c-.45,0-.79-.42-.69-.87l9.77-42.87c.07-.32.36-.55.69-.55h10.32c.47,0,.81.45.68.91l-13.6,46.78c-.09.3-.37.51-.68.51h-12.32c-.32,0-.61-.22-.69-.53l-10.16-39.39c-.12-.45.22-.89.69-.89h1.99c.46,0,.8.44.69.89l-10.41,39.39c-.08.31-.36.53-.69.53h-12.23c-.31,0-.59-.21-.68-.51l-13.68-46.78c-.13-.45.21-.91.68-.91Z"/>
  <path class="cls-2" d="M291.29,46.26c-.41,0-.74.35-.71.75.04.51.06,1.04.06,1.58,0,3.09-.61,5.69-1.83,7.78-1.22,2.09-2.78,3.64-4.7,4.64-1.91,1-3.94,1.5-6.09,1.5s-4.13-.5-5.96-1.5c-1.83-1-3.29-2.55-4.39-4.64-1.1-2.09-1.65-4.68-1.65-7.78s.58-5.67,1.74-7.73c1.16-2.06,2.65-3.59,4.48-4.6,1.83-1,3.81-1.5,5.96-1.5h2c.39,0,.71-.32.71-.71v-9c0-.37-.29-.69-.66-.71-.62-.04-1.24-.07-1.88-.07-4.64,0-8.85.99-12.61,2.96-3.77,1.98-6.76,4.78-8.96,8.42-2.2,3.64-3.31,7.95-3.31,12.93s1.09,9.31,3.26,12.97c2.18,3.67,5.1,6.5,8.79,8.51,3.68,2.01,7.84,3.01,12.48,3.01s8.95-1,12.75-3.01c3.8-2.01,6.81-4.84,9.05-8.51,2.23-3.67,3.35-7.99,3.35-12.97,0-.57-.02-1.12-.05-1.67-.02-.37-.34-.66-.71-.66h-11.11Z"/>
  <path class="cls-1" d="M283.24,25.47l18.71,18.48c.45.44,1.21.13,1.21-.49v-18.48c0-.39-.32-.7-.71-.7h-18.71c-.63,0-.95.75-.5,1.19Z"/>
</svg>