<?xml version="1.0" encoding="UTF-8" standalone="no"?><svg xmlns="http://www.w3.org/2000/svg" xmlns:xlink="http://www.w3.org/1999/xlink" xmlns:serif="http://www.serif.com/" width="100%" height="100%" viewBox="0 0 3508 1071" version="1.1" style="fill-rule:evenodd;clip-rule:evenodd;stroke-linejoin:round;stroke-miterlimit:2;"><g transform="matrix(1,0,0,1,0,-713)"><g id="Light-background" transform="matrix(1,0,0,0.431524,0,713)"><rect x="0" y="0" width="3507.874" height="2480.315" style="fill:none;"/><g id="Squircle" transform="matrix(1,0,0,2.317369,-111.5,-1633.74531)"><g transform="matrix(0.901333,0,0,0.942222,-100.045657,149.770814)"><path d="M793.25,864.945C878.756,864.945 938.564,865.028 980.403,872.684C1010.834,878.252 1032.371,887.907 1047.868,903.414C1063.259,918.815 1072.86,940.228 1078.377,970.446C1086.003,1012.222 1086.057,1071.923 1086.057,1157.25C1086.057,1242.59 1085.901,1302.299 1078.162,1344.08C1072.566,1374.294 1062.885,1395.704 1047.437,1411.101C1031.884,1426.603 1010.317,1436.25 979.915,1441.816C938.097,1449.472 878.422,1449.555 793.25,1449.555C708.073,1449.555 648.395,1449.438 606.575,1441.745C576.175,1436.152 554.609,1426.478 539.058,1410.958C523.611,1395.542 513.933,1374.122 508.338,1343.918C500.599,1302.144 500.443,1242.479 500.443,1157.25C500.443,1072.033 500.497,1012.377 508.123,970.608C513.639,940.399 523.238,918.976 538.626,903.558C554.123,888.031 575.658,878.35 606.087,872.755C647.929,865.062 707.74,864.945 793.25,864.945ZM793.25,887.055C709.737,887.055 651.314,886.955 610.449,894.468C585.739,899.012 567.928,906.218 555.344,918.826C542.653,931.542 535.441,949.499 530.892,974.413C523.421,1015.328 523.557,1073.774 523.557,1157.25C523.557,1240.714 523.519,1299.151 531.097,1340.06C535.713,1364.98 543.001,1382.939 555.745,1395.658C568.385,1408.273 586.231,1415.486 610.94,1420.032C651.78,1427.545 710.069,1427.445 793.25,1427.445C876.435,1427.445 934.728,1427.577 975.57,1420.1C1000.276,1415.576 1018.122,1408.388 1030.76,1395.791C1043.503,1383.091 1050.787,1365.143 1055.403,1340.223C1062.981,1299.306 1062.943,1240.824 1062.943,1157.25C1062.943,1073.663 1063.079,1015.174 1055.608,974.25C1051.059,949.335 1043.85,931.391 1031.161,918.693C1018.578,906.102 1000.769,898.922 976.061,894.401C935.194,886.923 876.767,887.055 793.25,887.055Z"/></g><g transform="matrix(0.307335,0,0,0.307335,297.306091,935.434639)"><path d="M461.112,632.819C461.232,640.951 463.739,647.114 467.341,651.78C463.529,646.408 461.242,639.878 461.112,632.819L494.287,665.995C494.343,666.002 494.396,666.009 494.446,666.016C490.064,660.555 461.152,624.809 461.107,632.186C461.107,575.674 483.556,521.476 523.516,481.516C563.476,441.556 617.674,419.106 674.186,419.106L674.186,419.112C674.35,419.109 674.514,419.107 674.678,419.107C674.724,419.106 674.769,419.106 674.814,419.106C731.326,419.106 785.524,441.556 825.484,481.516C865.444,521.476 887.894,575.674 887.894,632.186L887.894,778.106L1179.106,778.106L1179.106,632.499C1179.107,514.646 1274.647,419.107 1392.5,419.106C1510.353,419.107 1605.893,514.647 1605.894,632.5C1605.893,750.353 1510.354,845.893 1392.501,845.894L1246.894,845.894L1246.894,1137.106L1392.501,1137.106C1510.354,1137.107 1605.893,1232.647 1605.894,1350.5C1605.893,1468.353 1510.353,1563.893 1392.5,1563.894C1274.647,1563.893 1179.107,1468.354 1179.106,1350.501L1179.106,1204.894L887.894,1204.894L887.894,1350.501C887.893,1468.354 792.353,1563.893 674.5,1563.894C556.647,1563.893 461.107,1468.353 461.106,1350.5C461.107,1232.647 556.646,1137.107 674.499,1137.106L820.106,1137.106L820.106,845.894L674.186,845.894C617.674,845.894 563.476,823.444 523.516,783.484C483.556,743.524 461.106,689.326 461.106,632.814L461.112,632.819ZM674.814,486.894L674.186,486.894C635.652,486.894 598.696,502.201 571.449,529.449C544.201,556.696 528.894,593.652 528.894,632.186C528.894,632.192 528.894,632.198 528.894,632.203C528.893,632.409 528.891,632.615 528.888,632.82L528.894,632.814C528.894,671.348 544.201,708.304 571.449,735.551C598.696,762.799 635.652,778.106 674.186,778.106L820.106,778.106L820.106,632.186C820.106,593.652 804.799,556.696 777.551,529.449C750.304,502.201 713.348,486.894 674.814,486.894ZM495.634,666.073C495.63,666.074 495.627,666.074 495.623,666.074L495,666.708C495,666.708 494.823,666.485 494.494,666.076C494.451,666.075 494.409,666.074 494.366,666.073L495,666.708L495.634,666.073ZM887.894,845.894L887.894,1137.106L1179.106,1137.106L1179.106,845.894L887.894,845.894ZM1246.893,1204.893L1246.894,1350.501C1246.894,1430.917 1312.084,1496.106 1392.5,1496.106C1472.916,1496.106 1538.106,1430.916 1538.106,1350.5C1538.106,1270.084 1472.917,1204.894 1392.501,1204.894L1246.893,1204.893ZM820.107,1204.893L674.499,1204.894C594.083,1204.894 528.894,1270.084 528.894,1350.5C528.894,1430.916 594.084,1496.106 674.5,1496.106C754.916,1496.106 820.106,1430.917 820.106,1350.501L820.107,1204.893ZM1246.893,778.107L1392.501,778.106C1472.917,778.106 1538.106,712.916 1538.106,632.5C1538.106,552.084 1472.916,486.894 1392.5,486.894C1312.084,486.894 1246.894,552.083 1246.894,632.499L1246.893,778.107Z"/></g></g><g transform="matrix(1,0,0,2.317369,-212.06299,-1479.275316)"><g transform="matrix(333.333333,0,0,333.333333,1139,1296.833333)"><path d="M0.382,0.01C0.333,0.01 0.289,0.001 0.248,-0.016C0.207,-0.033 0.172,-0.058 0.142,-0.09C0.112,-0.123 0.089,-0.161 0.072,-0.205C0.056,-0.249 0.048,-0.297 0.048,-0.35C0.048,-0.4 0.057,-0.446 0.074,-0.489C0.092,-0.533 0.117,-0.57 0.148,-0.603C0.179,-0.636 0.216,-0.661 0.257,-0.679C0.298,-0.697 0.343,-0.706 0.391,-0.706C0.425,-0.706 0.458,-0.701 0.49,-0.691C0.523,-0.68 0.552,-0.666 0.579,-0.647C0.605,-0.629 0.626,-0.608 0.643,-0.585L0.571,-0.51C0.552,-0.529 0.532,-0.545 0.512,-0.558C0.493,-0.572 0.473,-0.581 0.453,-0.588C0.432,-0.595 0.412,-0.598 0.391,-0.598C0.358,-0.598 0.328,-0.592 0.299,-0.58C0.271,-0.567 0.247,-0.55 0.226,-0.528C0.205,-0.506 0.188,-0.48 0.176,-0.45C0.164,-0.419 0.158,-0.386 0.158,-0.35C0.158,-0.312 0.164,-0.278 0.176,-0.246C0.187,-0.216 0.204,-0.189 0.225,-0.167C0.246,-0.145 0.272,-0.128 0.301,-0.117C0.331,-0.105 0.364,-0.099 0.4,-0.099C0.422,-0.099 0.444,-0.102 0.465,-0.108C0.486,-0.114 0.506,-0.123 0.525,-0.134C0.544,-0.145 0.561,-0.159 0.576,-0.174L0.63,-0.086C0.615,-0.068 0.594,-0.052 0.568,-0.037C0.541,-0.022 0.512,-0.011 0.48,-0.003C0.447,0.006 0.415,0.01 0.382,0.01Z" style="fill:rgb(42,42,42);fill-rule:nonzero;"/></g><g transform="matrix(333.333333,0,0,333.333333,1365.333333,1296.833333)"><path d="M0.308,0.01C0.257,0.01 0.211,-0.002 0.171,-0.026C0.13,-0.049 0.098,-0.082 0.075,-0.122C0.052,-0.164 0.04,-0.21 0.04,-0.263C0.04,-0.316 0.052,-0.363 0.075,-0.404C0.098,-0.445 0.13,-0.477 0.171,-0.501C0.211,-0.524 0.257,-0.536 0.308,-0.536C0.359,-0.536 0.404,-0.524 0.445,-0.501C0.485,-0.477 0.517,-0.445 0.54,-0.404C0.563,-0.363 0.575,-0.316 0.575,-0.263C0.575,-0.21 0.563,-0.164 0.54,-0.122C0.517,-0.082 0.485,-0.049 0.445,-0.026C0.404,-0.002 0.359,0.01 0.308,0.01ZM0.308,-0.084C0.339,-0.084 0.367,-0.092 0.392,-0.107C0.417,-0.123 0.436,-0.144 0.45,-0.172C0.464,-0.199 0.471,-0.229 0.47,-0.263C0.471,-0.298 0.464,-0.329 0.45,-0.355C0.436,-0.383 0.417,-0.404 0.392,-0.419C0.367,-0.434 0.339,-0.442 0.308,-0.442C0.277,-0.442 0.249,-0.434 0.224,-0.418C0.199,-0.403 0.179,-0.382 0.165,-0.354C0.151,-0.327 0.144,-0.297 0.145,-0.263C0.144,-0.229 0.151,-0.199 0.165,-0.172C0.179,-0.144 0.199,-0.123 0.224,-0.107C0.249,-0.092 0.277,-0.084 0.308,-0.084Z" style="fill:rgb(42,42,42);fill-rule:nonzero;"/></g><g transform="matrix(333.333333,0,0,333.333333,1570.333333,1296.833333)"><path d="M0.07,-0L0.07,-0.525L0.174,-0.525L0.174,-0.413L0.155,-0.401C0.16,-0.418 0.169,-0.435 0.18,-0.451C0.192,-0.467 0.207,-0.481 0.224,-0.493C0.241,-0.506 0.259,-0.516 0.279,-0.523C0.298,-0.53 0.318,-0.534 0.339,-0.534C0.369,-0.534 0.395,-0.529 0.418,-0.519C0.441,-0.509 0.459,-0.494 0.474,-0.474C0.489,-0.454 0.499,-0.429 0.506,-0.399L0.49,-0.403L0.497,-0.42C0.504,-0.435 0.514,-0.45 0.527,-0.464C0.541,-0.477 0.555,-0.489 0.572,-0.5C0.589,-0.511 0.606,-0.519 0.625,-0.525C0.644,-0.531 0.662,-0.534 0.68,-0.534C0.719,-0.534 0.752,-0.526 0.777,-0.51C0.803,-0.494 0.823,-0.47 0.836,-0.437C0.849,-0.404 0.855,-0.364 0.855,-0.315L0.855,-0L0.751,-0L0.751,-0.309C0.751,-0.339 0.747,-0.363 0.74,-0.383C0.732,-0.402 0.72,-0.416 0.705,-0.425C0.69,-0.434 0.67,-0.439 0.646,-0.439C0.627,-0.439 0.61,-0.436 0.594,-0.429C0.577,-0.423 0.563,-0.414 0.551,-0.403C0.539,-0.392 0.53,-0.379 0.523,-0.363C0.516,-0.349 0.513,-0.332 0.513,-0.314L0.513,-0L0.409,-0L0.409,-0.311C0.409,-0.338 0.405,-0.361 0.397,-0.381C0.389,-0.4 0.377,-0.414 0.362,-0.424C0.347,-0.434 0.328,-0.439 0.306,-0.439C0.287,-0.439 0.27,-0.436 0.254,-0.429C0.238,-0.423 0.224,-0.415 0.212,-0.404C0.2,-0.393 0.191,-0.38 0.184,-0.364C0.177,-0.349 0.174,-0.333 0.174,-0.316L0.174,-0L0.07,-0Z" style="fill:rgb(42,42,42);fill-rule:nonzero;"/></g><g transform="matrix(333.333333,0,0,333.333333,1877.333333,1296.833333)"><path d="M0.07,-0L0.07,-0.525L0.174,-0.525L0.174,-0.413L0.155,-0.401C0.16,-0.418 0.169,-0.435 0.18,-0.451C0.192,-0.467 0.207,-0.481 0.224,-0.493C0.241,-0.506 0.259,-0.516 0.279,-0.523C0.298,-0.53 0.318,-0.534 0.339,-0.534C0.369,-0.534 0.395,-0.529 0.418,-0.519C0.441,-0.509 0.459,-0.494 0.474,-0.474C0.489,-0.454 0.499,-0.429 0.506,-0.399L0.49,-0.403L0.497,-0.42C0.504,-0.435 0.514,-0.45 0.527,-0.464C0.541,-0.477 0.555,-0.489 0.572,-0.5C0.589,-0.511 0.606,-0.519 0.625,-0.525C0.644,-0.531 0.662,-0.534 0.68,-0.534C0.719,-0.534 0.752,-0.526 0.777,-0.51C0.803,-0.494 0.823,-0.47 0.836,-0.437C0.849,-0.404 0.855,-0.364 0.855,-0.315L0.855,-0L0.751,-0L0.751,-0.309C0.751,-0.339 0.747,-0.363 0.74,-0.383C0.732,-0.402 0.72,-0.416 0.705,-0.425C0.69,-0.434 0.67,-0.439 0.646,-0.439C0.627,-0.439 0.61,-0.436 0.594,-0.429C0.577,-0.423 0.563,-0.414 0.551,-0.403C0.539,-0.392 0.53,-0.379 0.523,-0.363C0.516,-0.349 0.513,-0.332 0.513,-0.314L0.513,-0L0.409,-0L0.409,-0.311C0.409,-0.338 0.405,-0.361 0.397,-0.381C0.389,-0.4 0.377,-0.414 0.362,-0.424C0.347,-0.434 0.328,-0.439 0.306,-0.439C0.287,-0.439 0.27,-0.436 0.254,-0.429C0.238,-0.423 0.224,-0.415 0.212,-0.404C0.2,-0.393 0.191,-0.38 0.184,-0.364C0.177,-0.349 0.174,-0.333 0.174,-0.316L0.174,-0L0.07,-0Z" style="fill:rgb(42,42,42);fill-rule:nonzero;"/></g><g transform="matrix(333.333333,0,0,333.333333,2184.333333,1296.833333)"><path d="M0.274,0.01C0.231,0.01 0.191,-0.002 0.155,-0.026C0.12,-0.05 0.091,-0.083 0.07,-0.124C0.049,-0.165 0.038,-0.212 0.038,-0.264C0.038,-0.317 0.049,-0.363 0.071,-0.405C0.092,-0.446 0.122,-0.478 0.159,-0.501C0.196,-0.524 0.237,-0.536 0.283,-0.536C0.31,-0.536 0.335,-0.532 0.358,-0.524C0.381,-0.516 0.401,-0.505 0.417,-0.49C0.435,-0.476 0.448,-0.46 0.46,-0.441C0.471,-0.422 0.477,-0.402 0.48,-0.381L0.457,-0.389L0.457,-0.525L0.561,-0.525L0.561,-0L0.457,-0L0.457,-0.125L0.481,-0.132C0.477,-0.114 0.469,-0.096 0.457,-0.08C0.444,-0.062 0.429,-0.047 0.41,-0.034C0.391,-0.021 0.369,-0.01 0.347,-0.002C0.324,0.006 0.299,0.01 0.274,0.01ZM0.301,-0.085C0.332,-0.085 0.36,-0.093 0.384,-0.108C0.408,-0.123 0.427,-0.144 0.441,-0.172C0.454,-0.199 0.461,-0.229 0.461,-0.264C0.461,-0.298 0.454,-0.328 0.441,-0.355C0.427,-0.382 0.408,-0.403 0.384,-0.418C0.36,-0.433 0.332,-0.441 0.301,-0.441C0.27,-0.441 0.243,-0.433 0.22,-0.418C0.196,-0.403 0.177,-0.382 0.164,-0.355C0.15,-0.328 0.143,-0.298 0.143,-0.264C0.143,-0.229 0.15,-0.199 0.164,-0.172C0.177,-0.144 0.196,-0.123 0.22,-0.108C0.243,-0.093 0.27,-0.085 0.301,-0.085Z" style="fill:rgb(42,42,42);fill-rule:nonzero;"/></g><g transform="matrix(333.333333,0,0,333.333333,2395.333333,1296.833333)"><path d="M0.072,-0L0.072,-0.525L0.175,-0.525L0.175,-0.417L0.157,-0.405C0.164,-0.428 0.177,-0.45 0.196,-0.47C0.215,-0.489 0.238,-0.505 0.265,-0.517C0.292,-0.53 0.319,-0.536 0.347,-0.536C0.387,-0.536 0.42,-0.528 0.447,-0.512C0.474,-0.497 0.494,-0.473 0.507,-0.441C0.52,-0.409 0.527,-0.369 0.527,-0.32L0.527,-0L0.424,-0L0.424,-0.313C0.424,-0.343 0.42,-0.368 0.412,-0.388C0.404,-0.407 0.392,-0.421 0.375,-0.43C0.358,-0.44 0.338,-0.443 0.313,-0.442C0.293,-0.442 0.275,-0.439 0.258,-0.432C0.241,-0.426 0.227,-0.417 0.214,-0.406C0.202,-0.395 0.193,-0.382 0.185,-0.366C0.179,-0.351 0.175,-0.335 0.175,-0.318L0.175,-0L0.072,-0Z" style="fill:rgb(42,42,42);fill-rule:nonzero;"/></g><g transform="matrix(333.333333,0,0,333.333333,2593.666667,1296.833333)"><path d="M0.291,0.01C0.243,0.01 0.2,-0.002 0.163,-0.026C0.125,-0.049 0.095,-0.082 0.073,-0.122C0.051,-0.164 0.04,-0.21 0.04,-0.263C0.04,-0.316 0.051,-0.363 0.072,-0.404C0.094,-0.445 0.124,-0.477 0.161,-0.501C0.198,-0.524 0.241,-0.536 0.288,-0.536C0.314,-0.536 0.339,-0.532 0.363,-0.523C0.388,-0.515 0.41,-0.504 0.429,-0.489C0.448,-0.475 0.464,-0.46 0.475,-0.443C0.486,-0.425 0.491,-0.408 0.491,-0.391L0.461,-0.389L0.461,-0.74L0.564,-0.74L0.564,-0L0.461,-0L0.461,-0.125L0.481,-0.125C0.481,-0.109 0.476,-0.093 0.465,-0.077C0.454,-0.062 0.44,-0.047 0.422,-0.034C0.405,-0.021 0.385,-0.01 0.361,-0.002C0.339,0.006 0.315,0.01 0.291,0.01ZM0.305,-0.079C0.336,-0.079 0.364,-0.087 0.388,-0.103C0.412,-0.119 0.431,-0.141 0.445,-0.169C0.458,-0.196 0.465,-0.228 0.465,-0.263C0.465,-0.298 0.458,-0.33 0.445,-0.357C0.431,-0.385 0.412,-0.407 0.388,-0.423C0.364,-0.439 0.336,-0.447 0.305,-0.447C0.274,-0.447 0.246,-0.439 0.222,-0.423C0.198,-0.407 0.179,-0.385 0.166,-0.357C0.152,-0.33 0.145,-0.298 0.145,-0.263C0.145,-0.228 0.152,-0.196 0.166,-0.169C0.179,-0.141 0.198,-0.119 0.222,-0.103C0.246,-0.087 0.274,-0.079 0.305,-0.079Z" style="fill:rgb(42,42,42);fill-rule:nonzero;"/></g><g transform="matrix(333.333333,0,0,333.333333,2898.333333,1296.833333)"><path d="M0.045,-0.235L0.045,-0.325L0.546,-0.325L0.546,-0.235L0.045,-0.235ZM0.242,-0.042L0.242,-0.525L0.347,-0.525L0.347,-0.042L0.242,-0.042Z" style="fill:rgb(42,42,42);fill-rule:nonzero;"/></g><g transform="matrix(333.333333,0,0,333.333333,3188.666667,1296.833333)"><path d="M0.411,0.01C0.36,0.01 0.313,0.001 0.269,-0.018C0.225,-0.036 0.186,-0.061 0.153,-0.094C0.12,-0.127 0.094,-0.165 0.075,-0.208C0.057,-0.252 0.048,-0.299 0.048,-0.35C0.048,-0.4 0.057,-0.447 0.075,-0.49C0.094,-0.533 0.12,-0.571 0.152,-0.604C0.185,-0.636 0.224,-0.661 0.268,-0.679C0.312,-0.697 0.359,-0.706 0.41,-0.706C0.445,-0.706 0.48,-0.701 0.513,-0.691C0.547,-0.681 0.578,-0.667 0.605,-0.649C0.632,-0.631 0.655,-0.61 0.672,-0.587L0.602,-0.514C0.582,-0.533 0.561,-0.549 0.54,-0.562C0.519,-0.575 0.498,-0.584 0.476,-0.591C0.454,-0.598 0.432,-0.601 0.41,-0.601C0.374,-0.601 0.341,-0.595 0.31,-0.582C0.28,-0.569 0.254,-0.552 0.231,-0.529C0.208,-0.506 0.19,-0.48 0.177,-0.45C0.164,-0.419 0.158,-0.386 0.158,-0.35C0.158,-0.315 0.165,-0.282 0.178,-0.252C0.191,-0.221 0.21,-0.193 0.234,-0.17C0.257,-0.147 0.285,-0.128 0.316,-0.115C0.346,-0.102 0.379,-0.095 0.414,-0.095C0.44,-0.095 0.465,-0.099 0.488,-0.106C0.511,-0.114 0.532,-0.125 0.55,-0.139C0.568,-0.153 0.582,-0.169 0.592,-0.188C0.602,-0.206 0.607,-0.225 0.607,-0.246L0.607,-0.266L0.622,-0.252L0.408,-0.252L0.408,-0.359L0.718,-0.359C0.719,-0.352 0.72,-0.345 0.721,-0.338C0.722,-0.331 0.722,-0.324 0.723,-0.318C0.723,-0.311 0.723,-0.305 0.723,-0.299C0.723,-0.253 0.715,-0.211 0.699,-0.174C0.683,-0.136 0.661,-0.103 0.633,-0.076C0.604,-0.049 0.571,-0.028 0.533,-0.013C0.496,0.003 0.455,0.01 0.411,0.01Z" style="fill:rgb(74,140,255);fill-rule:nonzero;"/></g></g></g></g></svg>