<?xml version="1.0" encoding="UTF-8"?><svg xmlns="http://www.w3.org/2000/svg" id="Dawn_Tech" data-name="Dawn Tech" viewBox="0 0 1393.91 389.09"><defs><style> .cls-1 { fill: #000835; } </style></defs><g><path class="cls-1" d="M97.55,97.55h62.37c13.08,0,24.3,2.1,33.69,6.29,9.38,4.19,16.95,11.34,22.73,21.44-12.09-5.5-26.38-8.25-42.88-8.25h-51.54v155.17h54.25c12.54,0,24.22-1.94,35.04-5.82-6.31,8.57-13.84,14.91-22.59,19.01-8.75,4.11-18.31,6.16-28.68,6.16h-62.37V97.55ZM229.72,192.65c0-29.94-4.46-52.4-13.39-67.37,13.26,5.77,23.52,14.36,30.78,25.77,7.26,11.41,10.89,25.28,10.89,41.6,0,18.85-4.15,34.48-12.45,46.88-8.3,12.4-19.75,21.35-34.36,26.85,12.36-17.4,18.53-41.98,18.53-73.73Z"/><path class="cls-1" d="M353.21,285.34c-9.45,6.53-20.53,9.8-33.25,9.8-9.36,0-17.71-1.81-25.04-5.43-7.33-3.62-13.07-8.83-17.22-15.63-4.15-6.8-6.23-14.88-6.23-24.24,0-14.48,4.9-25.57,14.7-33.25,9.8-7.68,22.83-11.52,39.08-11.52h22.52c8.65,0,15.1-1.59,19.34-4.77,4.24-3.18,6.36-7.95,6.36-14.31,0-8.48-3.4-15.14-10.2-20-6.8-4.86-15.59-7.29-26.36-7.29-11.84,0-21.46,2.96-28.88,8.88-7.42,5.92-11.57,14.44-12.45,25.57h-18.55c1.06-15.9,6.8-28.3,17.22-37.22,10.42-8.92,24.73-13.38,42.92-13.38,12.01,0,22.12,1.99,30.34,5.96,8.21,3.97,14.35,9.54,18.41,16.69,4.06,7.15,6.09,15.41,6.09,24.77v75.24c0,3.54.75,6.09,2.25,7.68,1.5,1.59,3.84,2.38,7.02,2.38h7.15v16.43h-12.98c-6.71,0-11.92-1.81-15.63-5.43-3.71-3.62-5.56-8.61-5.56-14.97v-14.31h-.53c-4.24,12.37-11.09,21.82-20.53,28.35ZM348.18,273.02c7.51-3.98,13.6-10.02,18.28-18.15,4.68-8.12,7.02-18.28,7.02-30.47v-19.34h-.53c-2.3,5.3-6.05,9.27-11.26,11.92-5.21,2.65-12.23,3.97-21.06,3.97l-15.1.26c-11.84-.17-20.58,2.48-26.23,7.95-5.65,5.48-8.48,12.37-8.48,20.67s2.74,15.46,8.21,20.93c5.47,5.48,13.6,8.21,24.38,8.21,9.01,0,17.26-1.99,24.77-5.96Z"/><path class="cls-1" d="M405.54,145.98h19.87l31.53,122.93h.53l30.2-122.93h22.79l29.94,122.93h.53l31.79-122.93h19.61l-41.33,145.72h-20.67l-31-121.35h-.53l-31,121.35h-20.93l-41.33-145.72Z"/><path class="cls-1" d="M608.75,145.98h18.28v32.06h.53c4.24-11.13,10.77-19.83,19.61-26.1,8.83-6.27,19.16-9.4,31-9.4,10.07,0,18.72,2.34,25.96,7.02,7.24,4.68,12.81,11.57,16.69,20.66,3.88,9.1,5.83,19.92,5.83,32.46v89.02h-18.55v-86.64c0-15.9-3.22-27.51-9.67-34.84-6.45-7.33-15.15-11-26.1-11-7.95,0-15.33,1.9-22.12,5.7-6.8,3.8-12.32,9.67-16.56,17.62-4.24,7.95-6.36,17.66-6.36,29.14v80.02h-18.55v-145.72Z"/><path class="cls-1" d="M755.8,269.71h0c5.71,0,10.33,4.63,10.33,10.33v1.32c0,5.71-4.63,10.33-10.33,10.33h0c-5.71,0-10.33-4.63-10.33-10.33v-1.32c0-5.71,4.63-10.33,10.33-10.33Z"/></g><g><path class="cls-1" d="M766.14,121.8h14.71c2.6,0,4.66.54,6.17,1.61,1.51,1.07,2.36,2.72,2.54,4.93h-23.42v-6.54ZM789.56,128.33h7.9v66.2h-7.9v-66.2ZM800,123.41c1.51-1.07,3.59-1.61,6.22-1.61h14.66v6.54h-23.42c.18-2.21,1.03-3.85,2.54-4.93Z"/><path class="cls-1" d="M831.39,192.59c-3.81-2.23-6.76-5.38-8.83-9.44-2.08-4.06-3.11-8.79-3.11-14.18s1.05-10.13,3.16-14.23c2.11-4.09,5.04-7.24,8.79-9.44,3.75-2.2,8.07-3.3,12.97-3.3,4.59,0,8.72.98,12.41,2.93,3.69,1.95,6.58,4.76,8.69,8.41,2.11,3.66,3.16,7.97,3.16,12.92v5.49h-40.35c.25,3.22,1.04,6.12,2.37,8.69,1.33,2.57,3.19,4.59,5.58,6.04,2.39,1.46,5.16,2.18,8.32,2.18,3.53,0,6.58-.88,9.16-2.65,2.57-1.77,4.38-4.17,5.44-7.21h9.02c-.68,3.35-2.12,6.31-4.32,8.88-2.2,2.57-4.97,4.59-8.32,6.04-3.35,1.46-7,2.19-10.97,2.19-4.96,0-9.34-1.12-13.16-3.35ZM858.03,156.56c-1.24-2.32-3.01-4.12-5.3-5.39-2.29-1.27-4.99-1.91-8.09-1.91s-5.89.67-8.18,2c-2.29,1.33-4.11,3.15-5.44,5.44-1.33,2.29-2.18,4.93-2.56,7.9h31.42c0-3.04-.62-5.72-1.86-8.04Z"/><path class="cls-1" d="M889.8,192.59c-3.84-2.23-6.82-5.38-8.93-9.44-2.11-4.06-3.16-8.79-3.16-14.18s1.01-10.21,3.02-14.27c2.01-4.06,4.94-7.19,8.79-9.39,3.84-2.2,8.37-3.3,13.57-3.3,4.65,0,8.69.91,12.13,2.74,3.44,1.83,6.12,4.32,8.04,7.48,1.92,3.16,3.07,6.73,3.44,10.69h-8.74c-.19-2.48-.88-4.76-2.09-6.83-1.21-2.08-2.91-3.73-5.11-4.97-2.2-1.24-4.76-1.86-7.67-1.86-3.41,0-6.37.84-8.88,2.51-2.51,1.67-4.43,4-5.76,6.97-1.33,2.97-2,6.38-2,10.23s.73,7.44,2.18,10.41c1.46,2.98,3.44,5.27,5.95,6.88,2.51,1.61,5.35,2.42,8.51,2.42,2.85,0,5.35-.63,7.48-1.91,2.14-1.27,3.83-2.87,5.07-4.79,1.24-1.92,2.01-3.91,2.32-5.95h8.74c-.5,3.6-1.74,6.91-3.72,9.95-1.98,3.04-4.66,5.45-8.04,7.25-3.38,1.8-7.33,2.7-11.85,2.7-5.02,0-9.45-1.12-13.29-3.35Z"/><path class="cls-1" d="M938.81,121.93h8.37v22.78c0,2.73-.06,5.45-.19,8.18h.19c1.3-3.22,3.36-5.84,6.18-7.86,2.82-2.01,6.21-3.02,10.18-3.02,3.59,0,6.74.84,9.44,2.51,2.7,1.67,4.77,4.05,6.23,7.11,1.46,3.07,2.18,6.62,2.18,10.64v32.26h-8.37v-29.84c0-5.33-1.02-9.2-3.07-11.62-2.05-2.42-4.87-3.63-8.46-3.63-2.67,0-5.07.6-7.2,1.81-2.14,1.21-3.86,3.11-5.16,5.72-1.3,2.6-1.95,5.89-1.95,9.85v27.7h-8.37v-72.61Z"/><path class="cls-1" d="M996.69,143.4h8.18v9.58h.19c1.55-3.47,3.78-6.17,6.69-8.09,2.91-1.92,6.32-2.88,10.23-2.88,3.59,0,6.69.84,9.3,2.51,2.6,1.67,4.59,4.15,5.95,7.44,1.36,3.28,2.05,7.25,2.05,11.9v30.68h-8.37v-29.84c0-5.27-1.02-9.13-3.07-11.57-2.05-2.45-4.87-3.67-8.46-3.67-2.54,0-4.9.62-7.07,1.86-2.17,1.24-3.92,3.16-5.25,5.77-1.33,2.6-2,5.86-2,9.76v27.7h-8.37v-51.13Z"/><path class="cls-1" d="M1063.57,192.72c-3.84-2.14-6.88-5.24-9.11-9.3-2.23-4.06-3.35-8.88-3.35-14.46s1.12-10.4,3.35-14.46c2.23-4.06,5.27-7.16,9.11-9.3,3.84-2.14,8.15-3.21,12.92-3.21s9.08,1.07,12.92,3.21c3.84,2.14,6.88,5.24,9.11,9.3,2.23,4.06,3.35,8.88,3.35,14.46s-1.12,10.4-3.35,14.46c-2.23,4.06-5.27,7.16-9.11,9.3-3.84,2.14-8.15,3.21-12.92,3.21s-9.08-1.07-12.92-3.21ZM1085,186.4c2.51-1.52,4.49-3.75,5.95-6.69,1.46-2.94,2.18-6.52,2.18-10.74s-.73-7.79-2.18-10.74c-1.46-2.94-3.44-5.17-5.95-6.69-2.51-1.52-5.35-2.28-8.51-2.28s-6,.76-8.51,2.28c-2.51,1.52-4.49,3.75-5.95,6.69-1.46,2.94-2.18,6.52-2.18,10.74s.73,7.79,2.18,10.74c1.46,2.94,3.44,5.18,5.95,6.69,2.51,1.52,5.35,2.28,8.51,2.28s6-.76,8.51-2.28Z"/><path class="cls-1" d="M1114.1,121.93h8.37v72.61h-8.37v-72.61Z"/><path class="cls-1" d="M1147.25,192.72c-3.84-2.14-6.88-5.24-9.11-9.3-2.23-4.06-3.35-8.88-3.35-14.46s1.12-10.4,3.35-14.46c2.23-4.06,5.27-7.16,9.11-9.3,3.84-2.14,8.15-3.21,12.92-3.21s9.08,1.07,12.92,3.21c3.84,2.14,6.88,5.24,9.11,9.3,2.23,4.06,3.35,8.88,3.35,14.46s-1.12,10.4-3.35,14.46c-2.23,4.06-5.27,7.16-9.11,9.3-3.84,2.14-8.15,3.21-12.92,3.21s-9.08-1.07-12.92-3.21ZM1168.68,186.4c2.51-1.52,4.49-3.75,5.95-6.69,1.46-2.94,2.18-6.52,2.18-10.74s-.73-7.79-2.18-10.74c-1.46-2.94-3.44-5.17-5.95-6.69-2.51-1.52-5.35-2.28-8.51-2.28s-6,.76-8.51,2.28c-2.51,1.52-4.49,3.75-5.95,6.69-1.46,2.94-2.18,6.52-2.18,10.74s.73,7.79,2.18,10.74c1.46,2.94,3.44,5.18,5.95,6.69,2.51,1.52,5.35,2.28,8.51,2.28s6-.76,8.51-2.28Z"/><path class="cls-1" d="M1197.61,209.83c-2.73-2.2-4.09-5.1-4.09-8.69,0-2.67.76-4.97,2.28-6.93,1.52-1.95,3.7-3.3,6.55-4.04v-.19c-1.98-.68-3.55-1.73-4.7-3.16-1.15-1.43-1.72-3.1-1.72-5.02,0-2.23.73-4.04,2.18-5.44,1.46-1.39,3.27-2.15,5.44-2.28l1.21-.09v-.19c-2.98-1.24-5.3-3.1-6.97-5.58-1.67-2.48-2.51-5.42-2.51-8.83,0-3.59.88-6.71,2.65-9.34,1.77-2.63,4.18-4.63,7.25-6,3.07-1.36,6.49-2.05,10.27-2.05s7.21.71,10.27,2.14c3.07,1.43,5.49,3.46,7.25,6.09,1.77,2.63,2.65,5.69,2.65,9.16s-.9,6.54-2.7,9.2c-1.8,2.67-4.23,4.71-7.3,6.14-3.07,1.43-6.46,2.14-10.18,2.14h-6.88c-1.67,0-2.98.31-3.91.93-.93.62-1.39,1.58-1.39,2.88s.45,2.29,1.35,2.97c.9.68,2.21,1.02,3.95,1.02h17.01c4.96,0,8.89,1.27,11.81,3.81,2.91,2.54,4.37,5.98,4.37,10.32,0,2.91-.65,5.45-1.95,7.62-1.3,2.17-3.18,3.83-5.62,4.97-2.45,1.15-5.32,1.72-8.6,1.72h-16.08c-5.21,0-9.17-1.1-11.9-3.3ZM1229.6,205.23c1.24-.56,2.18-1.36,2.84-2.42.65-1.06.98-2.32.98-3.81,0-2.23-.73-3.97-2.18-5.21-1.46-1.24-3.46-1.86-6-1.86h-15.99c-1.74,0-3.22.29-4.46.88-1.24.59-2.18,1.43-2.84,2.51-.65,1.08-.98,2.34-.98,3.77,0,2.11.7,3.8,2.09,5.07,1.39,1.27,3.45,1.91,6.18,1.91h15.99c1.67,0,3.13-.28,4.37-.84ZM1221.41,168.69c1.8-.74,3.24-1.89,4.32-3.44,1.08-1.55,1.63-3.47,1.63-5.76,0-3.35-1.15-5.89-3.44-7.62-2.29-1.74-5.11-2.6-8.46-2.6-2.17,0-4.15.37-5.95,1.12-1.8.74-3.24,1.88-4.32,3.39-1.09,1.52-1.63,3.43-1.63,5.72,0,3.41,1.15,5.98,3.44,7.72,2.29,1.74,5.11,2.6,8.46,2.6,2.17,0,4.15-.37,5.95-1.11ZM1231.36,149.63h1.39c.19-1.98.84-3.52,1.95-4.6,1.12-1.08,2.63-1.63,4.56-1.63h1.95v7.44h-3.44c-1.12,0-1.89.22-2.32.65-.43.43-.71,1.15-.84,2.14l-3.25-4Z"/><path class="cls-1" d="M1248.77,205.69h13.57l5.95-13.95-19.52-48.34h9.11l14.6,38.58h.19l14.6-38.58h9.11l-26.5,65.82c-.5,1.3-1.22,2.28-2.18,2.93-.96.65-2.15.98-3.58.98h-15.34v-7.44Z"/></g></svg>