<?xml version="1.0" encoding="UTF-8"?>
<svg id="Logos" xmlns="http://www.w3.org/2000/svg" viewBox="0 0 634.18 230.32">
  <defs>
    <style>
      .cls-1 {
        fill: #00152c;
      }
    </style>
  </defs>
  <path class="cls-1" d="M196.88,115.36c7.79-14.14,10.53-30.16,7.29-43.83-2.73-11.53-9.54-20.72-19.68-26.58-10.15-5.86-21.51-7.16-32.86-3.75-13.45,4.03-25.95,14.41-34.31,28.23-16.15.32-31.38,5.96-41.6,15.6-8.62,8.13-13.18,18.62-13.18,30.33s4.56,22.2,13.18,30.33c10.22,9.64,25.46,15.27,41.6,15.6,8.35,13.82,20.85,24.2,34.31,28.23,4.13,1.24,8.26,1.85,12.34,1.85,7.12,0,14.07-1.88,20.52-5.61,10.15-5.86,16.95-15.05,19.68-26.58,3.24-13.67.5-29.69-7.29-43.83ZM128.21,142.4c-2.21-6.01-5.15-16.06-5.15-27.04s2.96-21.01,5.17-27.06c6.31,1.09,16.49,3.57,26,9.06,9.44,5.45,16.72,13.07,20.85,18.01-4.1,4.92-11.34,12.49-20.85,17.98-9.44,5.45-19.67,7.94-26.02,9.05ZM186.39,115.36h0s0,0,0,0ZM156.8,58.44c6.58-1.97,12.87-1.26,18.69,2.1,5.83,3.36,9.58,8.46,11.16,15.14,1.65,6.98.84,15.27-2.06,23.3-5.21-5.53-12.45-12.06-21.36-17.21-8.91-5.15-18.19-8.15-25.59-9.9,5.51-6.53,12.28-11.38,19.15-13.44ZM80.54,115.36c0-6.73,2.53-12.53,7.53-17.24,5.22-4.92,12.81-8.37,21.21-9.87-2.18,7.28-4.22,16.82-4.22,27.11s2.04,19.83,4.22,27.1c-8.41-1.5-15.99-4.94-21.21-9.87-5-4.71-7.53-10.51-7.53-17.24ZM186.66,155.04c-1.58,6.68-5.34,11.77-11.17,15.14-5.83,3.36-12.12,4.07-18.69,2.1-6.87-2.06-13.65-6.91-19.15-13.44,7.39-1.75,16.67-4.75,25.59-9.9,8.91-5.15,16.16-11.68,21.36-17.21,2.9,8.03,3.71,16.32,2.06,23.31Z"/>
  <g>
    <path class="cls-1" d="M436.85,84.15c0-5.18,4.42-8.96,9.59-8.96s9.47,3.79,9.47,8.96-4.17,8.96-9.47,8.96-9.59-3.91-9.59-8.96Z"/>
    <path class="cls-1" d="M304.48,134.1c0,12.24-8.71,24.74-26.76,24.74h-35.06c-.78,0-1.42-.63-1.42-1.42v-84.13c0-.78.63-1.42,1.42-1.42h32.41c15.15,0,24.74,9.09,24.74,22.34,0,6.82-2.52,15.02-11.36,18.18,10.6,2.15,16.03,12.12,16.03,21.71ZM274.44,85.64h-17.8v21.33h17.8c6.44,0,9.97-4.29,9.97-10.6s-3.28-10.73-9.97-10.73ZM275.32,145.08c8.96,0,13.63-5.93,13.63-12.5,0-6.18-4.04-12.62-13.25-12.62h-19.06v25.12h18.68Z"/>
    <path class="cls-1" d="M382.14,140.67h10.96c.7,0,1.27.52,1.4,1.21.63,3.55,4.05,6.61,9.61,6.61s9.59-2.9,9.59-6.69c0-3.28-2.52-4.8-6.94-5.81l-7.83-2.02c-13.25-3.53-16.66-10.6-16.66-18.05,0-9.21,9.09-17.54,21.96-17.54,10.06,0,21.41,4.89,22.17,16.91.05.82-.6,1.52-1.42,1.52h-11.27c-.7,0-1.26-.52-1.4-1.2-.65-3.33-3.98-5.36-7.71-5.36-4.54,0-7.7,2.65-7.7,6.31,0,3.03,2.9,4.8,6.31,5.55l9.47,2.52c13.25,3.41,15.65,11.74,15.65,17.17,0,11.99-11.99,18.55-23.98,18.55-11.24,0-22.48-6.48-23.64-18.12-.08-.84.57-1.57,1.42-1.57Z"/>
    <path class="cls-1" d="M439.12,157.42v-56.11c0-.78.63-1.42,1.42-1.42h11.81c.78,0,1.42.63,1.42,1.42v56.11c0,.78-.63,1.42-1.42,1.42h-11.81c-.78,0-1.42-.63-1.42-1.42Z"/>
    <path class="cls-1" d="M499.68,101.32v8.78c0,.78-.63,1.42-1.42,1.42h-11.07v45.91c0,.78-.63,1.42-1.42,1.42h-11.81c-.78,0-1.42-.63-1.42-1.42v-45.91h-9.18c-.78,0-1.42-.63-1.42-1.42v-8.78c0-.78.63-1.42,1.42-1.42h9.18v-14.44c0-.51.27-.97.71-1.23l11.81-6.81c.94-.55,2.13.14,2.13,1.23v21.26h11.07c.78,0,1.42.63,1.42,1.42Z"/>
    <path class="cls-1" d="M363.87,133.23c-.59,0-1.1.37-1.33.92-1.64,4.04-4.83,7.61-8.83,9.92-7.65,4.42-15.33,3.75-20.85-2.54l38.41-22.18c.65-.38.89-1.19.56-1.87-.72-1.44-1.38-2.73-2.02-3.85-9.21-15.96-26.69-19.72-41.22-11.32-14.65,8.46-20.72,25.96-11.32,42.24,9.21,15.96,27.11,20.2,42.31,11.43,8.1-4.68,14.2-12.42,15.9-21.06.17-.88-.5-1.69-1.4-1.69h-10.21ZM335.2,113.51c7.1-4.1,14.97-3.1,19.77,3.45l-27.22,15.71c-2.95-8.64.67-15.25,7.44-19.16Z"/>
    <path class="cls-1" d="M554.6,133.23c-.59,0-1.1.37-1.33.92-1.64,4.04-4.83,7.61-8.83,9.92-7.65,4.42-15.33,3.75-20.85-2.54l38.41-22.18c.65-.38.89-1.19.56-1.87-.72-1.44-1.38-2.73-2.02-3.85-9.21-15.96-26.69-19.72-41.22-11.32-14.65,8.46-20.72,25.96-11.32,42.24,9.21,15.96,27.11,20.2,42.31,11.43,8.1-4.68,14.2-12.42,15.9-21.06.17-.88-.5-1.69-1.4-1.69h-10.21ZM525.92,113.51c7.1-4.1,14.97-3.1,19.77,3.45l-27.22,15.71c-2.95-8.64.67-15.25,7.45-19.16Z"/>
  </g>
</svg>