<?xml version="1.0" encoding="UTF-8" standalone="no"?><svg xmlns="http://www.w3.org/2000/svg" xmlns:xlink="http://www.w3.org/1999/xlink" xmlns:serif="http://www.serif.com/" width="100%" height="100%" viewBox="0 0 842 257" version="1.1" style="fill-rule:evenodd;clip-rule:evenodd;stroke-linejoin:round;stroke-miterlimit:2;"><rect id="Light-background" x="0" y="0" width="841.89" height="256.876" style="fill:none;"/><g id="Squircle"><path d="M120.825,62.338c18.497,0 31.434,0.019 40.485,1.75c6.583,1.259 11.242,3.443 14.594,6.949c3.329,3.483 5.406,8.325 6.6,15.158c1.65,9.447 1.661,22.947 1.661,42.243c0,19.298 -0.034,32.8 -1.708,42.249c-1.211,6.832 -3.305,11.674 -6.647,15.156c-3.364,3.505 -8.03,5.687 -14.606,6.946c-9.046,1.731 -21.955,1.75 -40.379,1.75c-18.425,0 -31.335,-0.027 -40.382,-1.766c-6.576,-1.265 -11.241,-3.452 -14.605,-6.962c-3.341,-3.486 -5.435,-8.33 -6.645,-15.16c-1.674,-9.447 -1.708,-22.939 -1.708,-42.212c0,-19.27 0.012,-32.761 1.661,-42.206c1.193,-6.831 3.27,-11.676 6.598,-15.162c3.352,-3.511 8.011,-5.7 14.593,-6.965c9.051,-1.74 21.99,-1.766 40.487,-1.766Zm0,5c-18.065,0 -30.704,-0.023 -39.543,1.676c-5.345,1.027 -9.198,2.657 -11.92,5.508c-2.745,2.876 -4.305,6.936 -5.29,12.57c-1.616,9.252 -1.587,22.469 -1.587,41.346c-0,18.874 -0.008,32.089 1.631,41.339c0.999,5.635 2.575,9.696 5.332,12.573c2.734,2.853 6.595,4.484 11.94,5.512c8.835,1.699 21.444,1.676 39.437,1.676c17.995,0 30.605,0.03 39.44,-1.661c5.344,-1.023 9.205,-2.648 11.939,-5.497c2.756,-2.872 4.332,-6.93 5.331,-12.566c1.639,-9.253 1.631,-22.477 1.631,-41.376c0,-18.902 0.029,-32.128 -1.587,-41.382c-0.984,-5.634 -2.543,-9.692 -5.288,-12.563c-2.722,-2.847 -6.574,-4.471 -11.919,-5.493c-8.84,-1.691 -21.479,-1.661 -39.546,-1.661Z"/><path d="M78.605,101.981c0.009,0.6 0.194,1.054 0.459,1.399c-0.281,-0.396 -0.45,-0.878 -0.459,-1.399l2.447,2.447c0.004,0.001 0.008,0.001 0.012,0.002c-0.323,-0.403 -2.456,-3.039 -2.459,-2.495c-0,-4.168 1.656,-8.166 4.603,-11.113c2.947,-2.947 6.945,-4.603 11.113,-4.603l-0,0c0.012,-0 0.024,-0 0.036,-0c0.003,-0 0.007,-0 0.01,-0c4.168,-0 8.166,1.656 11.113,4.603c2.947,2.947 4.603,6.945 4.603,11.113l0,10.763l21.48,0l0,-10.74c0,-8.693 7.047,-15.74 15.74,-15.74c8.693,0 15.74,7.047 15.74,15.74c-0,8.693 -7.047,15.74 -15.74,15.74l-10.74,0l0,21.48l10.74,0c8.693,0 15.74,7.047 15.74,15.74c-0,8.693 -7.047,15.74 -15.74,15.74c-8.693,-0 -15.74,-7.047 -15.74,-15.74l-0,-10.74l-21.48,0l-0,10.74c-0,8.693 -7.047,15.74 -15.74,15.74c-8.693,-0 -15.74,-7.047 -15.74,-15.74c0,-8.693 7.047,-15.74 15.74,-15.74l10.74,0l-0,-21.48l-10.763,-0c-4.168,0 -8.166,-1.656 -11.113,-4.603c-2.947,-2.947 -4.603,-6.945 -4.603,-11.113l0,0Zm15.763,-10.764l-0.046,0c-2.842,-0 -5.568,1.129 -7.578,3.139c-2.01,2.01 -3.139,4.736 -3.139,7.578c0,0 0,0.001 -0,0.001c-0,0.015 -0,0.03 -0,0.045l0,-0c-0,2.842 1.129,5.568 3.139,7.578c2.01,2.01 4.736,3.139 7.578,3.139l10.763,0l-0,-10.763c0,-2.842 -1.129,-5.568 -3.139,-7.578c-2.01,-2.01 -4.736,-3.139 -7.578,-3.139Zm-13.216,13.216c-0,0 -0.001,0 -0.001,0l-0.046,0.047c0,0 -0.013,-0.016 -0.037,-0.047c-0.003,-0 -0.006,-0 -0.009,-0l0.047,0.047l0.047,-0.047Zm28.933,13.264l0,21.48l21.48,-0l-0,-21.48l-21.48,0Zm26.48,26.48l0,10.74c0,5.931 4.808,10.74 10.74,10.74c5.931,-0 10.74,-4.808 10.74,-10.74c-0,-5.931 -4.808,-10.74 -10.74,-10.74l-10.74,-0Zm-31.48,-0l-10.74,0c-5.931,0 -10.74,4.808 -10.74,10.74c0,5.931 4.808,10.74 10.74,10.74c5.931,-0 10.74,-4.808 10.74,-10.74l0,-10.74Zm31.48,-31.48l10.74,-0c5.931,-0 10.74,-4.808 10.74,-10.74c-0,-5.931 -4.808,-10.74 -10.74,-10.74c-5.931,0 -10.74,4.808 -10.74,10.74l-0,10.74Z"/></g><g transform="matrix(0.24,0,0,0.24,-50.895118,-153.202205)"><text x="1139px" y="1296.833px" style="font-family:'Lexend-Regular', 'Lexend';font-size:333.333px;fill:#2a2a2a;">Command +</text><g transform="matrix(333.333333,0,0,333.333333,3444,1296.833333)"/><text x="3188.667px" y="1296.833px" style="font-family:'Lexend-Regular', 'Lexend';font-size:333.333px;fill:#4a8cff;">G</text></g></svg>