<!--?xml version="1.0" encoding="utf-8"?-->
<!-- Generator: Adobe Illustrator 22.0.0, SVG Export Plug-In . SVG Version: 6.00 Build 0)  -->
<svg version="1.1" id="logo_coding_agency" xmlns="http://www.w3.org/2000/svg" xmlns:xlink="http://www.w3.org/1999/xlink" x="0px" y="0px" viewBox="0 0 208.4 234.3" style="" xml:space="preserve">
<style type="text/css">
	.st0{fill:#3F3E29;}
	.st1{fill:#FFCC6E;}
	.st2{fill:#FDB924;}
	.st3{fill:#FFE0A8;}
</style>
<path class="st0 XjaLmxFQ_0" d="M38.4,150.6c0-8.9,4.7-13.9,13.2-13.9s13.2,5.1,13.2,13.9v28.8c0,8.9-4.7,13.9-13.2,13.9s-13.2-5.1-13.2-13.9
	V150.6z M47.1,179.9c0,4,1.7,5.5,4.5,5.5c2.8,0,4.5-1.5,4.5-5.5V150c0-4-1.7-5.5-4.5-5.5c-2.8,0-4.5,1.5-4.5,5.5V179.9z"></path>
<path class="st0 XjaLmxFQ_1" d="M78.4,137.3h13.8c8.7,0,13,4.8,13,13.7v28c0,8.9-4.3,13.7-13,13.7H78.4V137.3z M87.1,145.2v39.5H92
	c2.8,0,4.4-1.4,4.4-5.4v-28.8c0-4-1.7-5.4-4.4-5.4H87.1z"></path>
<path class="st0 XjaLmxFQ_2" d="M118.6,137.3h8.7v55.4h-8.7V137.3z"></path>
<path class="st0 XjaLmxFQ_3" d="M149.2,152.6v40.1h-7.8v-55.4h10.9l8.9,33.1v-33.1h7.8v55.4h-8.9L149.2,152.6z"></path>
<g>
	<path class="st0 XjaLmxFQ_4" d="M32.6,226c-0.8,0-1.5-0.7-1.5-1.5c0-0.8,0.7-1.5,1.5-1.5h17.8c0.8,0,1.5,0.7,1.5,1.5c0,0.8-0.7,1.5-1.5,1.5
		H32.6z"></path>
	<path class="st0 XjaLmxFQ_5" d="M81.2,222.4c0,0.9-0.7,1.6-1.6,1.6h-2.9c-1.4,0-2.4-1.6-2.4-3.7c-1.2,2.6-4.2,3.9-6.4,3.9
		c-2.3,0-4.6-1.1-6.2-2.7c-1.8-1.7-2.7-4.3-2.7-6.9c0-2.6,0.9-5.2,2.7-7c1.6-1.6,3.9-2.5,6.2-2.5c2.1,0,5.3,1.4,6.4,3.8
		c0-1.9,1.1-3.6,2.4-3.6h2.9c0.9,0,1.6,0.7,1.6,1.6c0,0.9-0.7,1.5-1.6,1.5h-2.1V221h2.1C80.5,221,81.2,221.6,81.2,222.4z
		 M64.2,209.9c-1.2,1.2-1.8,3-1.8,4.8c0,1.8,0.6,3.6,1.8,4.8c1.1,1.1,2.2,1.7,3.7,1.7c1.6,0,3.1-0.6,4.1-1.7c1.1-1.1,1.8-3,1.8-4.8
		c0-1.8-0.6-3.6-1.8-4.8c-1.1-1.1-2.5-1.7-4.1-1.7C66.4,208.2,65.3,208.8,64.2,209.9z"></path>
	<path class="st0 XjaLmxFQ_6" d="M88.7,227.6c0.7-0.4,1.6-0.2,2.1,0.5c0.8,1.1,1.6,1.6,2.6,2.2c1.1,0.7,2.3,1,3.2,1c3.3,0,6.2-3.2,6.2-6.3v-4.4
		c-1.4,2.6-4.1,3.4-6.2,3.4c-2.5,0-4.8-1-6.5-2.7c-1.8-1.8-2.7-4.3-2.7-6.9c0-2.5,0.9-5,2.7-6.8c1.6-1.7,4-2.7,6.5-2.7
		c2.1,0,5,1.2,6.2,3.4c0.2-1.8,1.3-3,2.5-3h2.8c0.9,0,1.5,0.7,1.5,1.5c0,0.9-0.7,1.5-1.5,1.5h-2.2v16.5c0,2.6-1,5-2.7,6.6
		c-1.7,1.7-4.1,2.7-6.6,2.7c-1.4,0-3.1-0.5-4.8-1.4c-1.3-0.8-2.5-1.6-3.5-3.2C87.7,229,87.9,228.1,88.7,227.6z M96.5,208.1
		c-1.6,0-3.2,0.7-4.3,1.8c-1.3,1.2-1.8,3-1.8,4.7c0,1.8,0.6,3.5,1.8,4.7c1.1,1.1,2.7,1.8,4.3,1.8c1.7,0,3.2-0.7,4.3-1.8
		c1.2-1.2,1.8-3,1.8-4.7c0-1.8-0.7-3.4-1.8-4.7C99.7,208.8,98.2,208.1,96.5,208.1z"></path>
	<path class="st0 XjaLmxFQ_7" d="M122.7,205.1c2.3,0,4.6,0.7,6.4,2.6h0c1.7,2,2.2,4.4,2.2,7.1c0,0.9-0.7,1.6-1.6,1.6h-12.5
		c1,2.8,3.4,4.9,6.1,4.8c1.7,0,3.3-0.7,4.5-1.9c0.2-0.3,0.7-0.4,1.1-0.4c0.4,0,0.8,0.1,1.1,0.4c0.3,0.3,0.5,0.7,0.5,1.1
		c0,0.3-0.2,0.8-0.4,1.1c-1.8,1.7-4.3,2.8-6.7,2.8c-2.5,0-4.9-1.1-6.6-2.8c-1.8-1.8-2.7-4.3-2.7-6.9c0-2.4,0.8-4.7,2.5-6.6
		C117.9,206.2,120.1,205.1,122.7,205.1z M128.1,213.2c-0.5-3.3-2.5-5-5.4-5c-2.8,0-5,2.1-5.7,5H128.1z"></path>
	<path class="st0 XjaLmxFQ_8" d="M146.6,222.5c0,0.8-0.7,1.5-1.5,1.5h-7c-0.9,0-1.6-0.7-1.6-1.5c0-0.9,0.7-1.5,1.6-1.5h1.9v-12.6h-2.1
		c-0.8,0-1.5-0.7-1.5-1.5c0-0.8,0.7-1.5,1.5-1.5h2.8c0.7,0,2,0.9,2,2.3c0.9-2,3.2-2.6,4.8-2.6c2,0,4.1,0.9,5.5,2.3
		c1.3,1.5,2.1,3.5,2.1,5.7v7.8h2c0.9,0,1.6,0.7,1.6,1.5c0,0.8-0.7,1.5-1.6,1.5h-7c-0.9,0-1.6-0.7-1.6-1.5c0-0.9,0.7-1.5,1.6-1.5h2
		v-7.8c0-2.7-2.1-5-4.7-5c-2.9,0-4.4,2.1-4.4,5v7.8h2.1C145.9,221,146.6,221.6,146.6,222.5z"></path>
	<path class="st0 XjaLmxFQ_9" d="M178.6,218.9c0.9,0,1.5,0.7,1.5,1.5c0,0.4-0.1,0.8-0.4,1.1c-1.7,1.8-4.2,2.8-6.6,2.8c-5.3,0-9.4-4.3-9.4-9.6
		c0-5.3,4.2-9.6,9.4-9.6c1,0,2.5,0.3,4.1,1.1c0.3-0.6,1-0.9,1.5-0.9c0.8,0,1.5,0.7,1.5,1.6v4.1c0,0.9-0.7,1.6-1.5,1.6
		c-0.9,0-1.6-0.7-1.6-1.6c0-0.8-0.4-1.4-0.9-1.8c-0.9-0.7-2.1-1-3.1-1c-3.6,0-6.3,3-6.3,6.5c0,3.5,2.7,6.5,6.3,6.5
		c1.7,0,3.2-0.7,4.4-1.9C177.8,219,178.2,218.9,178.6,218.9z"></path>
	<path class="st0 XjaLmxFQ_10" d="M198.1,219.5l4.3-11.1c-1.2,0-2.1-0.7-2.1-1.5c0-0.8,0.7-1.5,1.5-1.5h4.8c0.9,0,1.5,0.7,1.5,1.5
		c0,0.9-0.7,1.5-1.5,1.5h-0.9l-5.2,13.1c-1.5,4-4.2,11.1-10.9,11.1c-0.8,0-1.5-0.7-1.5-1.5c0-0.9,0.7-1.6,1.5-1.6
		c3.2,0,5.2-2.8,6.6-5.7l-7.3-15.4h-0.7c-0.8,0-1.5-0.7-1.5-1.5c0-0.8,0.7-1.5,1.5-1.5h4.8c0.9,0,1.6,0.7,1.6,1.5
		c0,0.7-0.8,1.4-1.7,1.6L198.1,219.5z"></path>
</g>
<g>
	<path class="st1 XjaLmxFQ_11" d="M115,92.8L109.7,95.8L79.7,78.5L56.7,91.8L109.7,122.3L133.3,108.7L133.3,103.4L115,113.9Z"></path>
	<path class="st1 XjaLmxFQ_12" d="M96.2,34.3L82.7,26.5L82.7,15.6L56.7,30.6L79.7,43.8Z"></path>
	<path class="st1 XjaLmxFQ_13" d="M108.3,27.3L109.7,26.5L133.3,40.1L133.3,13.6L109.7,0L96.1,7.8L108.3,14.9Z"></path>
	<path class="st2 XjaLmxFQ_14" d="M96.2,34.3L108.3,41.2L108.3,27.3L108.3,14.9L96.1,7.8L82.7,0L82.7,15.6L82.7,26.5Z"></path>
	<path class="st3 XjaLmxFQ_15" d="M115,87.4L115,92.8L115,113.9L133.3,103.4L140.6,99.2L140.6,72.7Z"></path>
	<path class="st3 XjaLmxFQ_16" d="M79.7,43.8L56.7,30.6L56.7,91.8L79.7,78.5Z"></path>
</g>
<path class="st0 XjaLmxFQ_17" d="M25.9,156v-5.4c0-8.3-3.9-13.3-11.4-13.9l-13.7,7.9c-0.6,1.7-0.8,3.7-0.8,6v28.8c0,8.9,4.4,13.9,13,13.9
	s13-5.1,13-13.9V172h-8.2v7.9c0,4-1.7,5.4-4.5,5.4c-2.8,0-4.5-1.4-4.5-5.4V150c0-4,1.7-5.5,4.5-5.5c2.8,0,4.5,1.5,4.5,5.5v5.9H25.9z
	"></path>
<path class="st0 XjaLmxFQ_18" d="M208.4,156v-5.4c0-8.5-4.1-13.5-12.1-13.9l-12.8,7.4c-0.7,1.9-1.1,4-1.1,6.5v28.8c0,8.9,4.4,13.9,13,13.9
	c8.5,0,13-5.1,13-13.9v-17.6h-12.2v7.9h4v10.2c0,4-1.7,5.4-4.5,5.4c-2.8,0-4.5-1.4-4.5-5.4V150c0-4,1.7-5.5,4.5-5.5
	c2.8,0,4.5,1.5,4.5,5.5v5.9H208.4z"></path>
<style data-made-with="vivus-instant">.XjaLmxFQ_0{stroke-dasharray:238 240;stroke-dashoffset:239;animation:XjaLmxFQ_draw 2000ms linear 0ms forwards;}.XjaLmxFQ_1{stroke-dasharray:249 251;stroke-dashoffset:250;animation:XjaLmxFQ_draw 2000ms linear 55ms forwards;}.XjaLmxFQ_2{stroke-dasharray:129 131;stroke-dashoffset:130;animation:XjaLmxFQ_draw 2000ms linear 111ms forwards;}.XjaLmxFQ_3{stroke-dasharray:296 298;stroke-dashoffset:297;animation:XjaLmxFQ_draw 2000ms linear 166ms forwards;}.XjaLmxFQ_4{stroke-dasharray:45 47;stroke-dashoffset:46;animation:XjaLmxFQ_draw 2000ms linear 222ms forwards;}.XjaLmxFQ_5{stroke-dasharray:126 128;stroke-dashoffset:127;animation:XjaLmxFQ_draw 2000ms linear 277ms forwards;}.XjaLmxFQ_6{stroke-dasharray:165 167;stroke-dashoffset:166;animation:XjaLmxFQ_draw 2000ms linear 333ms forwards;}.XjaLmxFQ_7{stroke-dasharray:112 114;stroke-dashoffset:113;animation:XjaLmxFQ_draw 2000ms linear 388ms forwards;}.XjaLmxFQ_8{stroke-dasharray:124 126;stroke-dashoffset:125;animation:XjaLmxFQ_draw 2000ms linear 444ms forwards;}.XjaLmxFQ_9{stroke-dasharray:91 93;stroke-dashoffset:92;animation:XjaLmxFQ_draw 2000ms linear 500ms forwards;}.XjaLmxFQ_10{stroke-dasharray:117 119;stroke-dashoffset:118;animation:XjaLmxFQ_draw 2000ms linear 555ms forwards;}.XjaLmxFQ_11{stroke-dasharray:204 206;stroke-dashoffset:205;animation:XjaLmxFQ_draw 2000ms linear 611ms forwards;}.XjaLmxFQ_12{stroke-dasharray:103 105;stroke-dashoffset:104;animation:XjaLmxFQ_draw 2000ms linear 666ms forwards;}.XjaLmxFQ_13{stroke-dasharray:125 127;stroke-dashoffset:126;animation:XjaLmxFQ_draw 2000ms linear 722ms forwards;}.XjaLmxFQ_14{stroke-dasharray:112 114;stroke-dashoffset:113;animation:XjaLmxFQ_draw 2000ms linear 777ms forwards;}.XjaLmxFQ_15{stroke-dasharray:113 115;stroke-dashoffset:114;animation:XjaLmxFQ_draw 2000ms linear 833ms forwards;}.XjaLmxFQ_16{stroke-dasharray:149 151;stroke-dashoffset:150;animation:XjaLmxFQ_draw 2000ms linear 888ms forwards;}.XjaLmxFQ_17{stroke-dasharray:220 222;stroke-dashoffset:221;animation:XjaLmxFQ_draw 2000ms linear 944ms forwards;}.XjaLmxFQ_18{stroke-dasharray:249 251;stroke-dashoffset:250;animation:XjaLmxFQ_draw 2000ms linear 1000ms forwards;}@keyframes XjaLmxFQ_draw{100%{stroke-dashoffset:0;}}@keyframes XjaLmxFQ_fade{0%{stroke-opacity:1;}94.44444444444444%{stroke-opacity:1;}100%{stroke-opacity:0;}}</style></svg>
