<svg xmlns="http://www.w3.org/2000/svg" xmlns:xlink="http://www.w3.org/1999/xlink" width="402.322" height="120" viewBox="0 0 402.322 120"><defs><clipPath id="clip-path"><rect id="Rectangle_23" data-name="Rectangle 23" width="402.322" height="120" fill="none"/></clipPath></defs><g id="Toomba_-_Logo_-_w_Slogan" data-name="Toomba - Logo - w Slogan" transform="translate(0 0)"><g id="Group_58" data-name="Group 58" transform="translate(0 0)" clip-path="url(#clip-path)"><path id="Path_35" data-name="Path 35" d="M88.509,69.143a14.348,14.348,0,0,0,6.753-1.475,10.148,10.148,0,0,0,4.3-4.159,12.84,12.84,0,0,0,1.467-6.293,12.748,12.748,0,0,0-1.471-6.263,10.077,10.077,0,0,0-4.291-4.118,14.479,14.479,0,0,0-6.749-1.465H80.526V69.143ZM88.2,65.676H84.382V48.771H88.2a9.116,9.116,0,0,1,6.6,2.223,8.267,8.267,0,0,1,2.3,6.222,8.257,8.257,0,0,1-2.3,6.23,9.108,9.108,0,0,1-6.6,2.23M106.84,47.391a2.649,2.649,0,0,0,1.81-.605,2,2,0,0,0,.694-1.578,2.1,2.1,0,0,0-.694-1.617,2.562,2.562,0,0,0-1.81-.639,2.5,2.5,0,0,0-1.793.639,2.124,2.124,0,0,0-.676,1.617,2.029,2.029,0,0,0,.676,1.578,2.59,2.59,0,0,0,1.795.605Zm1.929,21.755V50.589h-3.855V69.143Zm14,9.092a9.353,9.353,0,0,0,4.733-1.146,7.792,7.792,0,0,0,3.061-3.155,9.642,9.642,0,0,0,1.065-4.6V50.589h-3.85V54.9a6.7,6.7,0,0,0-2.542-3.3,7.392,7.392,0,0,0-4.339-1.246,8.278,8.278,0,0,0-4.339,1.144,7.842,7.842,0,0,0-2.994,3.3,12.4,12.4,0,0,0,0,10.135,7.84,7.84,0,0,0,2.994,3.3A8.3,8.3,0,0,0,120.9,69.38a7.392,7.392,0,0,0,4.339-1.246,6.7,6.7,0,0,0,2.536-3.3v4.512a5.4,5.4,0,0,1-1.489,4.108,5.271,5.271,0,0,1-3.788,1.414,5.988,5.988,0,0,1-3.449-.927,4.533,4.533,0,0,1-1.826-2.576h-3.816a7.983,7.983,0,0,0,3.027,5.017,10.152,10.152,0,0,0,6.34,1.854Zm-.676-12.257a5.384,5.384,0,0,1-4.11-1.633,6.293,6.293,0,0,1-1.538-4.5,6.293,6.293,0,0,1,1.538-4.5,5.384,5.384,0,0,1,4.11-1.633,5.621,5.621,0,0,1,2.909.757,5.365,5.365,0,0,1,2.029,2.156,7.364,7.364,0,0,1,0,6.449A5.4,5.4,0,0,1,125,65.221a5.628,5.628,0,0,1-2.907.757Zm16.1-18.587a2.648,2.648,0,0,0,1.81-.605,2,2,0,0,0,.694-1.578,2.108,2.108,0,0,0-.694-1.617,2.562,2.562,0,0,0-1.81-.639,2.507,2.507,0,0,0-1.793.639,2.124,2.124,0,0,0-.676,1.617,2.029,2.029,0,0,0,.676,1.578,2.588,2.588,0,0,0,1.795.6Zm1.929,21.755V50.589H136.27V69.143Zm14.038,0V65.814H152.3a2.859,2.859,0,0,1-2.081-.605,3.132,3.132,0,0,1-.592-2.189V53.863h4.5V50.589h-4.5V45.975h-3.883v4.615h-2.68v3.274h2.68v9.091a6.269,6.269,0,0,0,1.538,4.765,6.4,6.4,0,0,0,4.516,1.432h2.367Zm11.1.237a7.392,7.392,0,0,0,4.339-1.246,6.7,6.7,0,0,0,2.536-3.3v4.311h3.85V50.589h-3.857V54.9a6.7,6.7,0,0,0-2.536-3.3,7.392,7.392,0,0,0-4.339-1.246A8.3,8.3,0,0,0,160.91,51.5a7.842,7.842,0,0,0-2.994,3.3,12.4,12.4,0,0,0,0,10.135,7.842,7.842,0,0,0,2.994,3.3,8.291,8.291,0,0,0,4.349,1.146Zm1.183-3.4a5.384,5.384,0,0,1-4.11-1.633,6.293,6.293,0,0,1-1.538-4.5,6.293,6.293,0,0,1,1.538-4.5,5.384,5.384,0,0,1,4.11-1.633,5.621,5.621,0,0,1,2.909.757,5.367,5.367,0,0,1,2.037,2.154,7.364,7.364,0,0,1,0,6.449,5.4,5.4,0,0,1-2.029,2.138,5.623,5.623,0,0,1-2.915.757Zm18.029,3.165V44.225h-3.855V69.143Zm20.059.237a7.392,7.392,0,0,0,4.339-1.246,6.7,6.7,0,0,0,2.536-3.3v4.311h3.855V50.589h-3.863V54.9a6.7,6.7,0,0,0-2.538-3.3,7.392,7.392,0,0,0-4.339-1.246,8.278,8.278,0,0,0-4.339,1.144,7.843,7.843,0,0,0-2.994,3.3,12.4,12.4,0,0,0,0,10.135,7.84,7.84,0,0,0,2.994,3.3,8.292,8.292,0,0,0,4.349,1.146Zm1.183-3.4a5.384,5.384,0,0,1-4.11-1.633,6.292,6.292,0,0,1-1.538-4.5,6.292,6.292,0,0,1,1.538-4.5,5.384,5.384,0,0,1,4.11-1.633,5.621,5.621,0,0,1,2.909.757,5.365,5.365,0,0,1,2.031,2.154,7.364,7.364,0,0,1,0,6.449,5.4,5.4,0,0,1-2.029,2.138,5.621,5.621,0,0,1-2.909.757Zm23.508,12.257a9.353,9.353,0,0,0,4.733-1.146,7.78,7.78,0,0,0,3.061-3.155,9.642,9.642,0,0,0,1.065-4.6V50.589h-3.852V54.9a6.7,6.7,0,0,0-2.536-3.3,7.392,7.392,0,0,0-4.339-1.246,8.3,8.3,0,0,0-4.339,1.146,7.842,7.842,0,0,0-2.994,3.3,12.4,12.4,0,0,0,0,10.135,7.842,7.842,0,0,0,2.994,3.3,8.3,8.3,0,0,0,4.339,1.146,7.392,7.392,0,0,0,4.339-1.246,6.7,6.7,0,0,0,2.536-3.3v4.512a5.4,5.4,0,0,1-1.489,4.108,5.271,5.271,0,0,1-3.788,1.414,5.988,5.988,0,0,1-3.449-.927,4.533,4.533,0,0,1-1.826-2.576h-3.822a7.979,7.979,0,0,0,3.027,5.019,10.152,10.152,0,0,0,6.342,1.852Zm-.676-12.257a5.384,5.384,0,0,1-4.11-1.633,6.292,6.292,0,0,1-1.538-4.5,6.292,6.292,0,0,1,1.538-4.5,5.384,5.384,0,0,1,4.11-1.633,5.621,5.621,0,0,1,2.909.757,5.365,5.365,0,0,1,2.029,2.156,7.364,7.364,0,0,1,0,6.449,5.4,5.4,0,0,1-2.029,2.138,5.626,5.626,0,0,1-2.907.755ZM251,69.384a10.124,10.124,0,0,0,4.228-.858,7.888,7.888,0,0,0,4.634-5.843H255.74a4.026,4.026,0,0,1-1.641,2.593,5.38,5.38,0,0,1-3.264.986,5.213,5.213,0,0,1-3.688-1.38,5.822,5.822,0,0,1-1.59-4.242H259.9a9.521,9.521,0,0,0-.962-6.045,7.86,7.86,0,0,0-3.155-3.1,10.643,10.643,0,0,0-9.563,0,8.168,8.168,0,0,0-3.264,3.3,11.442,11.442,0,0,0,0,10.135,8.163,8.163,0,0,0,3.264,3.3A9.777,9.777,0,0,0,251,69.38Zm5.141-10.506H245.558a5.623,5.623,0,0,1,1.657-4.074A5.433,5.433,0,0,1,251,53.423a5.886,5.886,0,0,1,2.621.592,4.34,4.34,0,0,1,1.9,1.818,5.69,5.69,0,0,1,.625,3.047ZM267.61,69.149V59.289A6.022,6.022,0,0,1,268.99,55a4.835,4.835,0,0,1,3.688-1.465,4.6,4.6,0,0,1,3.518,1.365,5.41,5.41,0,0,1,1.286,3.856v10.4h3.855V58.334a8.376,8.376,0,0,0-1.962-5.96,6.813,6.813,0,0,0-5.2-2.088,7.269,7.269,0,0,0-4.059,1.146,6.232,6.232,0,0,0-2.5,3.232V50.589h-3.856V69.143Zm26.519.237a9.2,9.2,0,0,0,5.987-1.919,8.272,8.272,0,0,0,2.942-5.187h-4.092a4.424,4.424,0,0,1-1.641,2.761,5.171,5.171,0,0,1-3.264,1.01,4.891,4.891,0,0,1-3.721-1.578,6.492,6.492,0,0,1-1.489-4.613,6.429,6.429,0,0,1,1.489-4.6,4.93,4.93,0,0,1,3.721-1.566,5.226,5.226,0,0,1,3.264.986,4.356,4.356,0,0,1,1.641,2.745h4.092a8.2,8.2,0,0,0-2.942-5.169,9.255,9.255,0,0,0-5.987-1.9,9.763,9.763,0,0,0-4.784,1.14,8.163,8.163,0,0,0-3.264,3.3,11.442,11.442,0,0,0,0,10.135,8.163,8.163,0,0,0,3.264,3.3,9.779,9.779,0,0,0,4.786,1.15Zm18.637,8.587,11.263-27.383h-4.3l-5.171,13.637-5.581-13.637h-4.339l7.847,18.116-4.025,9.269Z" transform="translate(78.282 41.752)" fill="#a4a4a4"/><path id="Path_36" data-name="Path 36" d="M0,0V20.9L37.33,35.3,0,49.7V70.58L59.994,44.113V26.468Z" transform="translate(0 0)" fill="#0464fa"/><path id="Path_37" data-name="Path 37" d="M74.294,62.278v-12.1c-5.859.355-9.143,0-9.143-3.826V30.605h9.143V17.787H65.151V5.339l-13.314,4v8.453h-7.1V30.613h7.1V46.345c0,12.464,5.059,17.712,22.457,15.933m27.277,1.246a23.3,23.3,0,1,0-.436,0c.146,0,.29,0,.436,0m0-12.988a9.97,9.97,0,0,1-10.22-9.709q-.009-.4.012-.793a10.212,10.212,0,0,1,20.415-.568q.009.284,0,.568a9.967,9.967,0,0,1-9.417,10.488c-.264.016-.527.018-.791.012Zm51.687,12.988a23.3,23.3,0,1,0-.436,0c.146,0,.29,0,.436,0m0-12.988a9.97,9.97,0,0,1-10.22-9.709q-.009-.4.012-.793a10.212,10.212,0,0,1,20.415-.568q.009.284,0,.568a9.967,9.967,0,0,1-9.417,10.488c-.264.016-.527.018-.791.012Zm43.7,11.744V37.188c0-5.25,2.485-8.364,6.924-8.364,4.26,0,6.392,2.848,6.392,7.3V62.278h13.314V37.188c0-5.25,2.485-8.364,6.924-8.364,4.26,0,6.392,2.848,6.392,7.3V62.278h13.314V34.964c0-11.121-6.658-18.416-16.866-18.416-6.311,0-10.385,2.313-12.87,5.871a13.194,13.194,0,0,0-11.636-5.871c-5.948,0-9.861,2.313-11.894,5.339V17.795h-13.31V62.278Zm88.257,1.246c11.636,0,21.214-10.231,21.214-23.488S296.841,16.55,285.213,16.55a16.651,16.651,0,0,0-13.225,5.427V0H258.672V62.278h13.314V58.1a16.652,16.652,0,0,0,13.227,5.427Zm-2.662-12.633a10.143,10.143,0,0,1-10.563-10.847,10.567,10.567,0,0,1,21.125-.578c.006.193.006.387,0,.578a10.148,10.148,0,0,1-9.425,10.821,10.461,10.461,0,0,1-1.14.014Zm49.741,12.631A16.651,16.651,0,0,0,345.517,58.1v4.181h13.314V17.795H345.505v4.181a16.651,16.651,0,0,0-13.225-5.427c-11.636,0-21.214,10.231-21.214,23.488s9.59,23.488,21.226,23.488m2.662-12.633a10.143,10.143,0,0,1-10.563-10.847,10.567,10.567,0,0,1,21.125-.578c.006.193.006.385,0,.578a10.143,10.143,0,0,1-10.571,10.837Z" transform="translate(43.491 0)"/></g></g></svg>