<svg xmlns="http://www.w3.org/2000/svg" xmlns:xlink="http://www.w3.org/1999/xlink" version="1.1" width="283" height="214"><svg xmlns="http://www.w3.org/2000/svg" width="283" height="214" viewBox="0 0 283 214"><g id="SvgjsG1231"><path id="SvgjsPath1230" fill="#fd8286" stroke="none" d="M 129.868576 38.613312 L 97.356003 38.613312 L 97.356003 150.71846 C 97.356003 155.447235 93.510612 159.275284 88.78183 159.275284 L 54.086746 159.275284 C 49.357952 159.275284 45.512566 155.447235 45.512566 150.71846 L 45.512566 38.613312 L 13 38.613312 L 13 116.941399 C 13 149.211456 39.172882 175.367035 71.442947 175.367035 C 87.569313 175.367035 102.188713 168.819489 112.754868 158.253326 C 123.32103 147.687195 129.868576 133.06778 129.868576 116.941399 L 129.868576 38.613312 Z"/><path id="SvgjsPath1229" fill="#fd8286" stroke="none" d="M 226.037888 98.060898 C 232.065796 95.168198 237.522079 91.28817 242.198883 86.62867 C 252.765045 76.045197 259.312592 61.443115 259.312592 45.299438 L 259.312592 38.613312 L 226.800018 38.613312 L 226.800018 67.037994 C 226.800018 81.466858 215.107971 93.158905 200.679108 93.158905 C 186.250259 93.158905 174.558212 81.466858 174.558212 67.037994 L 174.558212 38.613312 L 142.045639 38.613312 L 142.045639 45.299438 C 142.045639 61.425812 148.593185 76.045197 159.159348 86.62867 C 163.836166 91.305496 169.292435 95.185524 175.320343 98.060898 C 150.602493 108.020798 131.392853 132.219025 131.392853 160.505127 L 131.392853 175.384338 L 174.575531 175.384338 L 174.575531 129.915253 C 174.575531 115.486397 186.267578 103.794342 200.696442 103.794342 C 215.125305 103.794342 226.817352 115.486397 226.817352 129.915253 L 226.817352 175.384338 L 270 175.384338 L 270 160.505127 C 270 132.219025 250.773087 108.020798 226.072525 98.060898"/></g></svg><style>@media (prefers-color-scheme: light) { :root { filter: none; } }
@media (prefers-color-scheme: dark) { :root { filter: none; } }</style></svg>