<svg preserveAspectRatio="none" width="100%" height="100%" overflow="visible" style="display: block;" viewBox="0 0 105.014 15.7788" fill="none" xmlns="http://www.w3.org/2000/svg">
<path id="Vector" d="M8.35729 0.249315H4.18576L0 15.5199H3.11797L3.97695 12.1349H8.2861L9.1261 15.5199H12.4576L8.35254 0.249315H8.35729ZM4.60814 9.79041L6.05085 3.18835H6.09356L7.61695 9.79041H4.60339H4.60814ZM22.2529 7.6089V7.57054C23.9708 7.22534 24.8298 5.95958 24.8298 4.20479C24.8298 0.949315 22.8414 0.249315 20.4305 0.249315H14.821V15.5199H20.4115C21.7498 15.5199 25.0766 15.3521 25.0766 11.4829C25.0766 9.38767 24.4929 7.93013 22.2529 7.6089ZM17.9817 2.59863H19.9275C20.9953 2.59863 21.7498 3.41849 21.7498 4.54041C21.7498 6.02191 20.7912 6.48219 20.0983 6.48219H17.9817V2.59383V2.59863ZM19.7376 13.1705H17.9817V8.8363H19.8231C21.4129 8.8363 21.9159 9.66095 21.9159 11.013C21.9159 13.1514 20.4068 13.1705 19.7329 13.1705H19.7376ZM28.8447 15.5199V0.249315H33.1159L37.1356 10.826H37.1783V0.249315H40.1302V15.5199H35.9634L31.8393 4.35342H31.7966V15.5199H28.8447ZM56.3085 0.249315H52.1417L47.9559 15.5199H51.0739L51.9329 12.1349H56.2468L57.082 15.5199H60.4088L56.3037 0.249315H56.3085ZM52.5593 9.79041L54.0068 3.18835H54.0495L55.5776 9.79041H52.5593ZM63.0902 15.5199V0.249315H68.1776L70.5458 10.6342H70.5885L73.099 0.249315H78.0203V15.5199H74.9451V3.73972H74.9024L71.9932 15.5199H68.9797L66.2176 3.73972H66.1749V15.5199H63.0949H63.0902ZM91.0997 11.037C91.0997 8.28493 89.0447 8.12191 88.3566 8.03561V7.99246C90.4068 7.65205 91.1614 6.19452 91.1614 4.24794C91.1614 1.64452 89.7803 0.249315 87.6258 0.249315H81.7837V15.5199H84.9492V9.19589H85.7607C88.1905 9.19589 88.0291 10.7397 88.0291 12.5616C88.0291 13.5541 87.9437 14.5945 88.3614 15.5199H91.4603C91.1661 14.887 91.1044 12.0103 91.1044 11.037H91.0997ZM86.3444 6.85137H84.9444V2.60342H86.3444C87.3505 2.60342 87.958 3.15 87.958 4.61232C87.958 5.58082 87.602 6.85137 86.3444 6.85137ZM99.8034 0C94.5925 0 94.5925 3.8452 94.5925 7.88698C94.5925 11.9288 94.5925 15.7788 99.8034 15.7788C105.014 15.7788 105.014 11.8856 105.014 7.88698C105.014 3.88835 105.014 0 99.8034 0ZM99.8034 13.4918C98.0285 13.4918 97.7959 11.8041 97.7959 7.88698C97.7959 3.96986 98.0285 2.28219 99.8034 2.28219C101.578 2.28219 101.816 3.97945 101.816 7.88698C101.816 11.7945 101.588 13.4918 99.8034 13.4918ZM44.8522 9.17671L42.6739 6.97602L44.8522 4.78013L47.0305 6.97602L44.8522 9.17671Z" fill="var(--fill-0, #004C4C)"/>
</svg>
