<svg width="140" height="35" viewBox="0 0 140 35" fill="none" xmlns="http://www.w3.org/2000/svg">
<g clip-path="url(#clip0_302_192)">
<mask id="mask0_302_192" style="mask-type:luminance" maskUnits="userSpaceOnUse" x="0" y="0" width="140" height="35">
<path d="M140 0H0V35H140V0Z" fill="white"/>
</mask>
<g mask="url(#mask0_302_192)">
<path d="M43.253 2.53154H39.0815L34.8958 17.8021H38.0137L38.8727 14.4172H43.1819L44.0219 17.8021H47.3534L43.2483 2.53154H43.253ZM39.5039 12.0726L40.9466 5.47058H40.9893L42.5127 12.0726H39.4991H39.5039ZM57.1486 9.89113V9.85277C58.8666 9.50756 59.7256 8.24181 59.7256 6.48702C59.7256 3.23154 57.7371 2.53154 55.3263 2.53154H49.7168V17.8021H55.3073C56.6456 17.8021 59.9724 17.6343 59.9724 13.7651C59.9724 11.6699 59.3886 10.2124 57.1486 9.89113ZM52.8774 4.88085H54.8232C55.891 4.88085 56.6456 5.70072 56.6456 6.82263C56.6456 8.30414 55.6869 8.76441 54.9941 8.76441H52.8774V4.87606V4.88085ZM54.6334 15.4528H52.8774V11.1185H54.7188C56.3086 11.1185 56.8117 11.9432 56.8117 13.2952C56.8117 15.4336 55.3025 15.4528 54.6286 15.4528H54.6334ZM63.7405 17.8021V2.53154H68.0117L72.0313 13.1082H72.0741V2.53154H75.0259V17.8021H70.8591L66.7351 6.63565H66.6924V17.8021H63.7405ZM91.2042 2.53154H87.0374L82.8517 17.8021H85.9696L86.8286 14.4172H91.1425L91.9778 17.8021H95.3046L91.1995 2.53154H91.2042ZM87.4551 12.0726L88.9025 5.47058H88.9452L90.4734 12.0726H87.4551ZM97.9859 17.8021V2.53154H103.073L105.442 12.9165H105.484L107.995 2.53154H112.916V17.8021H109.841V6.02195H109.798L106.889 17.8021H103.875L101.113 6.02195H101.071V17.8021H97.9907H97.9859ZM125.995 13.3192C125.995 10.5672 123.94 10.4041 123.252 10.3178V10.2747C125.303 9.93428 126.057 8.47674 126.057 6.53017C126.057 3.92675 124.676 2.53154 122.522 2.53154H116.679V17.8021H119.845V11.4781H120.656C123.086 11.4781 122.925 13.0219 122.925 14.8439C122.925 15.8363 122.839 16.8767 123.257 17.8021H126.356C126.062 17.1692 126 14.2925 126 13.3192H125.995ZM121.24 9.13359H119.84V4.88565H121.24C122.246 4.88565 122.854 5.43222 122.854 6.89455C122.854 7.86304 122.498 9.13359 121.24 9.13359ZM134.699 2.28223C129.488 2.28223 129.488 6.12743 129.488 10.1692C129.488 14.211 129.488 18.061 134.699 18.061C139.91 18.061 139.91 14.1678 139.91 10.1692C139.91 6.17058 139.91 2.28223 134.699 2.28223ZM134.699 15.774C132.924 15.774 132.692 14.0863 132.692 10.1692C132.692 6.25208 132.924 4.56442 134.699 4.56442C136.474 4.56442 136.711 6.26167 136.711 10.1692C136.711 14.0767 136.484 15.774 134.699 15.774ZM79.748 11.4589L77.5696 9.25825L79.748 7.06236L81.9263 9.25825L79.748 11.4589Z" fill="#004C4C"/>
<path d="M12.8706 34.5685L25.6699 21.6137V0.0192261H0.019043V21.6137L12.8706 34.5685Z" fill="#00A296"/>
<path d="M25.6699 21.6138L12.8706 8.659V34.5686L25.6699 21.6138Z" fill="#F3C000"/>
</g>
</g>
<defs>
<clipPath id="clip0_302_192">
<rect width="140" height="35" fill="white"/>
</clipPath>
</defs>
</svg>
