<svg preserveAspectRatio="none" width="100%" height="100%" overflow="visible" style="display: block;" viewBox="0 0 95 35.9926" fill="none" xmlns="http://www.w3.org/2000/svg">
<g id="Group">
<path id="Vector" d="M12.3574 24.1076H17.0556L14.7065 13.5489L12.3574 24.1076ZM20.2831 7.79681L29.4352 35.9926H19.7156L18.7249 31.5483H10.6968L9.70604 35.9926H0L9.14221 7.79681H20.2831ZM54.7151 7.79433L45.5692 35.9815L34.8921 35.9691L25.7783 7.79433H35.2092L40.2467 24.8917L45.2866 7.79433L54.7151 7.79433ZM69.4129 7.79433L60.2756 35.9815H50.8558L59.9944 7.79433L69.4129 7.79433ZM77.9197 24.1076H82.6327L80.2762 13.5489L77.9197 24.1076ZM85.8455 7.79433L95 35.9815H85.2804L84.2872 31.5371H76.2566L75.2696 35.9815L65.5611 35.9802L74.7058 7.79433L85.8455 7.79433ZM71.8681 0L70.2038 5.13543H60.8345L62.4779 0H71.8681Z" fill="var(--fill-0, #E10000)"/>
</g>
</svg>
