<svg width="65" height="67" viewBox="0 0 65 67" fill="none" xmlns="http://www.w3.org/2000/svg">
<g clip-path="url(#clip0_302_236)">
<path d="M19.4905 34.0098C19.9833 34.0098 20.3837 33.6015 20.3837 33.097C20.385 32.9786 20.3629 32.8611 20.3187 32.7513C20.2744 32.6415 20.209 32.5414 20.126 32.4568C20.0431 32.3722 19.9443 32.3048 19.8352 32.2584C19.7262 32.2119 19.6091 32.1874 19.4905 32.1862C19.3719 32.1873 19.2546 32.2117 19.1455 32.2581C19.0363 32.3045 18.9374 32.3719 18.8543 32.4565C18.7713 32.541 18.7057 32.6412 18.6614 32.7511C18.6171 32.861 18.595 32.9785 18.5962 33.097C18.5962 33.6015 18.9957 34.0098 19.4905 34.0098ZM25.7798 34.0098C26.2736 34.0098 26.6751 33.6015 26.6751 33.097C26.6762 32.9784 26.6539 32.8609 26.6095 32.751C26.5651 32.6411 26.4995 32.541 26.4164 32.4564C26.3332 32.3718 26.2342 32.3044 26.125 32.2581C26.0158 32.2117 25.8985 32.1873 25.7798 32.1862C25.6612 32.1873 25.5439 32.2117 25.4347 32.2581C25.3256 32.3045 25.2266 32.3719 25.1436 32.4565C25.0605 32.541 24.995 32.6412 24.9507 32.7511C24.9064 32.861 24.8843 32.9785 24.8855 33.097C24.8855 33.6015 25.286 34.0098 25.7798 34.0098ZM32.068 34.0098C32.5608 34.0098 32.9623 33.6015 32.9623 33.097C32.9623 32.5934 32.5608 32.1862 32.068 32.1862C31.5753 32.1862 31.1748 32.5934 31.1748 33.097C31.1748 33.6015 31.5742 34.0098 32.068 34.0098ZM38.3573 34.0098C38.85 34.0098 39.2526 33.6015 39.2526 33.097C39.2537 32.9784 39.2314 32.8609 39.187 32.751C39.1426 32.6411 39.077 32.541 38.9939 32.4564C38.9107 32.3718 38.8117 32.3044 38.7025 32.2581C38.5933 32.2117 38.476 32.1873 38.3573 32.1862C38.1178 32.1887 37.8891 32.286 37.7214 32.4568C37.5537 32.6275 37.4608 32.8578 37.463 33.097C37.463 33.6015 37.8635 34.0098 38.3573 34.0098ZM44.6455 34.0098C45.1404 34.0098 45.5419 33.6015 45.5419 33.097C45.543 32.9784 45.5207 32.8607 45.4762 32.7507C45.4318 32.6408 45.366 32.5406 45.2828 32.456C45.1995 32.3714 45.1004 32.3041 44.991 32.2578C44.8817 32.2115 44.7643 32.1871 44.6455 32.1862C44.527 32.1874 44.4098 32.2119 44.3008 32.2584C44.1917 32.3048 44.0929 32.3722 44.01 32.4568C43.927 32.5414 43.8616 32.6415 43.8174 32.7513C43.7732 32.8611 43.751 32.9786 43.7523 33.097C43.7523 33.6015 44.1528 34.0098 44.6455 34.0098ZM50.9369 34.0098C51.4296 34.0098 51.8312 33.6015 51.8312 33.097C51.8324 32.9785 51.8102 32.861 51.766 32.7511C51.7217 32.6412 51.6561 32.541 51.5731 32.4565C51.49 32.3719 51.3911 32.3045 51.2819 32.2581C51.1728 32.2117 51.0555 32.1873 50.9369 32.1862C50.8183 32.1873 50.701 32.2117 50.5918 32.2581C50.4827 32.3045 50.3837 32.3719 50.3007 32.4565C50.2176 32.541 50.1521 32.6412 50.1078 32.7511C50.0635 32.861 50.0414 32.9785 50.0426 33.097C50.0426 33.6015 50.4431 34.0098 50.9369 34.0098ZM57.2251 34.0098C57.7199 34.0098 58.1194 33.6015 58.1194 33.097C58.1208 32.9785 58.0987 32.8609 58.0545 32.7509C58.0102 32.6409 57.9447 32.5408 57.8616 32.4562C57.7785 32.3715 57.6796 32.3041 57.5703 32.2578C57.4611 32.2115 57.3438 32.1871 57.2251 32.1862C57.1066 32.1874 56.9894 32.2119 56.8804 32.2584C56.7713 32.3048 56.6725 32.3722 56.5896 32.4568C56.5066 32.5414 56.4412 32.6415 56.397 32.7513C56.3528 32.8611 56.3306 32.9786 56.3319 33.097C56.3319 33.6015 56.7324 34.0098 57.2251 34.0098ZM63.5165 34.0098C64.0092 34.0098 64.4108 33.6015 64.4108 33.097C64.412 32.9785 64.3898 32.861 64.3456 32.7511C64.3013 32.6412 64.2357 32.541 64.1527 32.4565C64.0696 32.3719 63.9707 32.3045 63.8615 32.2581C63.7524 32.2117 63.6351 32.1873 63.5165 32.1862C63.2769 32.1887 63.0481 32.2859 62.8802 32.4567C62.7124 32.6274 62.6192 32.8577 62.6212 33.097C62.6212 33.6015 63.0227 34.0098 63.5165 34.0098ZM19.4905 27.603C19.9833 27.603 20.3837 27.1947 20.3837 26.6901C20.385 26.5717 20.3629 26.4543 20.3187 26.3444C20.2744 26.2346 20.209 26.1345 20.126 26.0499C20.0431 25.9654 19.9443 25.8979 19.8352 25.8515C19.7262 25.8051 19.6091 25.7805 19.4905 25.7793C19.251 25.7818 19.0223 25.8791 18.8546 26.0499C18.6869 26.2207 18.594 26.4509 18.5962 26.6901C18.5962 27.1947 18.9957 27.603 19.4905 27.603ZM25.7798 27.603C26.2736 27.603 26.6751 27.1947 26.6751 26.6901C26.6771 26.4508 26.5839 26.2206 26.4161 26.0498C26.2482 25.8791 26.0194 25.7818 25.7798 25.7793C25.5403 25.7818 25.3116 25.8791 25.1439 26.0499C24.9762 26.2207 24.8833 26.4509 24.8855 26.6901C24.8855 27.1947 25.286 27.603 25.7798 27.603ZM32.068 27.603C32.5608 27.603 32.9623 27.1947 32.9623 26.6901C32.9645 26.4509 32.8716 26.2207 32.7039 26.0499C32.5362 25.8791 32.3075 25.7818 32.068 25.7793C31.9495 25.7805 31.8323 25.8051 31.7233 25.8515C31.6142 25.8979 31.5154 25.9654 31.4325 26.0499C31.3495 26.1345 31.2841 26.2346 31.2399 26.3444C31.1957 26.4543 31.1735 26.5717 31.1748 26.6901C31.1748 27.1947 31.5742 27.603 32.068 27.603ZM38.3573 27.603C38.85 27.603 39.2526 27.1947 39.2526 26.6901C39.2546 26.4508 39.1614 26.2206 38.9936 26.0498C38.8257 25.8791 38.5969 25.7818 38.3573 25.7793C38.1178 25.7818 37.8891 25.8791 37.7214 26.0499C37.5537 26.2207 37.4608 26.4509 37.463 26.6901C37.463 27.1947 37.8635 27.603 38.3573 27.603ZM44.6455 27.603C45.1404 27.603 45.5419 27.1947 45.5419 26.6901C45.5438 26.4506 45.4505 26.2202 45.2825 26.0495C45.1144 25.8787 44.8853 25.7815 44.6455 25.7793C44.527 25.7805 44.4098 25.8051 44.3008 25.8515C44.1917 25.8979 44.0929 25.9654 44.01 26.0499C43.927 26.1345 43.8616 26.2346 43.8174 26.3444C43.7732 26.4543 43.751 26.5717 43.7523 26.6901C43.7523 27.1947 44.1528 27.603 44.6455 27.603ZM50.9369 27.603C51.4296 27.603 51.8312 27.1947 51.8312 26.6901C51.8334 26.4509 51.7405 26.2207 51.5728 26.0499C51.4051 25.8791 51.1764 25.7818 50.9369 25.7793C50.6974 25.7818 50.4687 25.8791 50.301 26.0499C50.1333 26.2207 50.0404 26.4509 50.0426 26.6901C50.0426 27.1947 50.4431 27.603 50.9369 27.603Z" fill="#D64F2A"/>
<path d="M57.2251 27.603C57.7199 27.603 58.1193 27.1947 58.1193 26.6901C58.1206 26.5716 58.0984 26.4541 58.0542 26.3442C58.0099 26.2343 57.9443 26.1342 57.8613 26.0496C57.7782 25.965 57.6793 25.8976 57.5701 25.8512C57.4609 25.8048 57.3437 25.7804 57.2251 25.7793C57.1065 25.7805 56.9894 25.8051 56.8803 25.8515C56.7713 25.8979 56.6725 25.9654 56.5895 26.0499C56.5066 26.1345 56.4411 26.2346 56.3969 26.3444C56.3527 26.4543 56.3306 26.5717 56.3318 26.6901C56.3318 27.1947 56.7323 27.603 57.2251 27.603Z" fill="#E05329"/>
<path d="M63.5165 27.603C64.0092 27.603 64.4107 27.1947 64.4107 26.6901C64.413 26.4509 64.3201 26.2207 64.1524 26.0499C63.9847 25.8791 63.756 25.7818 63.5165 25.7793C63.2769 25.7818 63.0481 25.8791 62.8802 26.0498C62.7124 26.2206 62.6192 26.4508 62.6212 26.6901C62.6212 27.1947 63.0227 27.603 63.5165 27.603ZM19.4905 21.1971C19.9832 21.1971 20.3837 20.7889 20.3837 20.2832C20.3837 19.7807 19.9832 19.3724 19.4905 19.3724C19.251 19.3749 19.0223 19.4722 18.8546 19.643C18.6869 19.8138 18.594 20.0441 18.5962 20.2832C18.5962 20.7878 18.9957 21.1971 19.4905 21.1971Z" fill="#D64F2A"/>
<path d="M25.7798 21.1971C26.2736 21.1971 26.6751 20.7889 26.6751 20.2832C26.6751 19.7807 26.2736 19.3724 25.7798 19.3724C25.5403 19.3749 25.3116 19.4722 25.1439 19.643C24.9762 19.8138 24.8833 20.0441 24.8855 20.2832C24.8855 20.7878 25.286 21.1971 25.7798 21.1971Z" fill="#E05329"/>
<path d="M32.068 21.1971C32.5608 21.1971 32.9623 20.7889 32.9623 20.2832C32.9623 19.7807 32.5608 19.3724 32.068 19.3724C31.5753 19.3724 31.1748 19.7807 31.1748 20.2832C31.1748 20.7878 31.5742 21.1971 32.068 21.1971ZM38.3573 21.1971C38.85 21.1971 39.2526 20.7889 39.2526 20.2832C39.2526 19.7807 38.8511 19.3724 38.3573 19.3724C37.8646 19.3724 37.463 19.7807 37.463 20.2832C37.463 20.7878 37.8635 21.1971 38.3573 21.1971ZM44.6455 21.1971C45.1404 21.1971 45.5419 20.7889 45.5419 20.2832C45.5419 19.7807 45.1404 19.3724 44.6455 19.3724C44.1528 19.3724 43.7523 19.7807 43.7523 20.2832C43.7523 20.7878 44.1528 21.1971 44.6455 21.1971ZM50.9369 21.1971C51.4296 21.1971 51.8312 20.7889 51.8312 20.2832C51.8312 19.7807 51.4307 19.3724 50.9369 19.3724C50.6974 19.3749 50.4687 19.4722 50.301 19.643C50.1333 19.8138 50.0404 20.0441 50.0426 20.2832C50.0426 20.7878 50.4431 21.1971 50.9369 21.1971Z" fill="#D64F2A"/>
<path d="M57.225 21.1971C57.7199 21.1971 58.1193 20.7889 58.1193 20.2832C58.1193 19.7807 57.7199 19.3724 57.225 19.3724C56.7323 19.3724 56.3318 19.7807 56.3318 20.2832C56.3318 20.7878 56.7323 21.1971 57.225 21.1971Z" fill="#E05329"/>
<path d="M63.5165 21.1971C64.0092 21.1971 64.4108 20.7888 64.4108 20.2832C64.4108 19.7807 64.0103 19.3724 63.5165 19.3724C63.277 19.3752 63.0483 19.4725 62.8805 19.6432C62.7127 19.8139 62.6195 20.044 62.6212 20.2832C62.6212 20.7878 63.0227 21.1971 63.5165 21.1971ZM19.4905 14.7902C19.9833 14.7902 20.3837 14.3819 20.3837 13.8774C20.3863 13.6381 20.2936 13.4076 20.1262 13.2365C19.9587 13.0653 19.7301 12.9675 19.4905 12.9645C19.2507 12.9672 19.0219 13.0649 18.8542 13.2361C18.6865 13.4073 18.5937 13.6379 18.5962 13.8774C18.5962 14.3809 18.9957 14.7902 19.4905 14.7902ZM25.7798 14.7902C26.2736 14.7902 26.6751 14.3819 26.6751 13.8774C26.6773 13.6378 26.5843 13.4072 26.4165 13.236C26.2486 13.0649 26.0197 12.9672 25.7798 12.9645C25.54 12.9672 25.3111 13.0649 25.1435 13.2361C24.9758 13.4073 24.883 13.6379 24.8855 13.8774C24.8855 14.3809 25.286 14.7902 25.7798 14.7902Z" fill="#D64F2A"/>
<path d="M32.0681 14.7902C32.5608 14.7902 32.9624 14.3819 32.9624 13.8774C32.9649 13.6379 32.8721 13.4073 32.7044 13.2361C32.5367 13.0649 32.3079 12.9672 32.0681 12.9645C31.8285 12.9675 31.5999 13.0653 31.4324 13.2365C31.265 13.4076 31.1723 13.6381 31.1749 13.8774C31.1749 14.3809 31.5743 14.7902 32.0681 14.7902Z" fill="#E05329"/>
<path d="M38.3572 14.7902C38.85 14.7902 39.2525 14.3819 39.2525 13.8774C39.2548 13.6378 39.1618 13.4072 38.9939 13.236C38.8261 13.0649 38.5971 12.9672 38.3572 12.9645C38.1174 12.9672 37.8886 13.0649 37.7209 13.2361C37.5532 13.4073 37.4604 13.6379 37.4629 13.8774C37.4629 14.3809 37.8634 14.7902 38.3572 14.7902ZM44.6454 14.7902C45.1403 14.7902 45.5418 14.3819 45.5418 13.8774C45.544 13.6376 45.4509 13.4068 45.2828 13.2357C45.1147 13.0645 44.8855 12.967 44.6454 12.9645C44.4058 12.9675 44.1772 13.0653 44.0098 13.2365C43.8423 13.4076 43.7497 13.6381 43.7522 13.8774C43.7522 14.3809 44.1527 14.7902 44.6454 14.7902Z" fill="#D64F2A"/>
<path d="M50.9368 14.7902C51.4295 14.7902 51.8311 14.3819 51.8311 13.8774C51.8336 13.6379 51.7408 13.4073 51.5731 13.2361C51.4055 13.0649 51.1766 12.9672 50.9368 12.9645C50.697 12.9672 50.4682 13.0649 50.3005 13.2361C50.1328 13.4073 50.04 13.6379 50.0425 13.8774C50.0425 14.3809 50.443 14.7902 50.9368 14.7902Z" fill="#E05329"/>
<path d="M57.2251 14.7902C57.7199 14.7902 58.1194 14.3819 58.1194 13.8773C58.1208 13.7588 58.0987 13.641 58.0545 13.531C58.0103 13.4209 57.9448 13.3206 57.8617 13.2358C57.7787 13.151 57.6797 13.0834 57.5705 13.0369C57.4612 12.9903 57.3439 12.9657 57.2251 12.9645C56.9855 12.9675 56.7569 13.0653 56.5894 13.2365C56.422 13.4076 56.3294 13.6381 56.3319 13.8773C56.3319 14.3809 56.7324 14.7902 57.2251 14.7902ZM63.5165 14.7902C64.0092 14.7902 64.4107 14.3819 64.4107 13.8773C64.4133 13.6379 64.3205 13.4073 64.1528 13.2361C63.9851 13.0649 63.7563 12.9672 63.5165 12.9645C63.2766 12.9672 63.0476 13.0649 62.8798 13.236C62.7119 13.4072 62.6189 13.6378 62.6212 13.8773C62.6212 14.3809 63.0227 14.7902 63.5165 14.7902ZM19.4905 8.38335C19.9832 8.38335 20.3837 7.97507 20.3837 7.47047C20.385 7.3521 20.3629 7.23465 20.3186 7.12481C20.2744 7.01498 20.209 6.91492 20.126 6.83034C20.0431 6.74577 19.9443 6.67834 19.8352 6.6319C19.7262 6.58546 19.609 6.56092 19.4905 6.55969C19.251 6.56218 19.0223 6.6595 18.8546 6.83028C18.6869 7.00106 18.594 7.23132 18.5962 7.47047C18.5962 7.97507 18.9957 8.38335 19.4905 8.38335ZM25.7798 8.38335C26.2736 8.38335 26.6751 7.97507 26.6751 7.47047C26.6771 7.23122 26.5839 7.00096 26.416 6.83022C26.2482 6.65947 26.0194 6.56218 25.7798 6.55969C25.5403 6.56218 25.3116 6.6595 25.1439 6.83028C24.9762 7.00106 24.8833 7.23132 24.8855 7.47047C24.8855 7.97507 25.286 8.38335 25.7798 8.38335ZM32.068 8.38335C32.5607 8.38335 32.9623 7.97507 32.9623 7.47047C32.9645 7.23132 32.8716 7.00106 32.7039 6.83028C32.5362 6.6595 32.3075 6.56218 32.068 6.55969C31.9495 6.56092 31.8323 6.58546 31.7233 6.6319C31.6142 6.67834 31.5154 6.74577 31.4325 6.83034C31.3495 6.91492 31.2841 7.01498 31.2399 7.12481C31.1956 7.23465 31.1735 7.3521 31.1748 7.47047C31.1748 7.97507 31.5742 8.38335 32.068 8.38335Z" fill="#D64F2A"/>
<path d="M38.3572 8.38335C38.8499 8.38335 39.2525 7.97507 39.2525 7.47047C39.2545 7.23122 39.1613 7.00096 38.9935 6.83022C38.8256 6.65947 38.5968 6.56218 38.3572 6.55969C38.1177 6.56218 37.889 6.6595 37.7213 6.83028C37.5536 7.00106 37.4607 7.23132 37.4629 7.47047C37.4629 7.97507 37.8634 8.38335 38.3572 8.38335ZM44.6454 8.38335C45.1403 8.38335 45.5418 7.97507 45.5418 7.47047C45.5438 7.23104 45.4504 7.00062 45.2824 6.82985C45.1143 6.65907 44.8852 6.5619 44.6454 6.55969C44.5269 6.56092 44.4098 6.58546 44.3007 6.6319C44.1917 6.67834 44.0928 6.74577 44.0099 6.83034C43.927 6.91492 43.8615 7.01498 43.8173 7.12481C43.7731 7.23465 43.751 7.3521 43.7522 7.47047C43.7522 7.97507 44.1527 8.38335 44.6454 8.38335Z" fill="#E05329"/>
<path d="M50.9369 8.38337C51.4296 8.38337 51.8312 7.97509 51.8312 7.4705C51.8334 7.23134 51.7405 7.00108 51.5728 6.8303C51.4051 6.65953 51.1764 6.5622 50.9369 6.55972C50.6974 6.5622 50.4687 6.65953 50.301 6.8303C50.1333 7.00108 50.0404 7.23134 50.0426 7.4705C50.0426 7.97509 50.4431 8.38337 50.9369 8.38337ZM57.2251 8.38337C57.7199 8.38337 58.1194 7.97509 58.1194 7.4705C58.1206 7.35204 58.0985 7.2345 58.0542 7.1246C58.0099 7.0147 57.9444 6.91459 57.8613 6.83C57.7783 6.74541 57.6793 6.678 57.5702 6.63162C57.461 6.58525 57.3437 6.56081 57.2251 6.55972C57.1066 6.56095 56.9894 6.58548 56.8804 6.63192C56.7713 6.67836 56.6725 6.74579 56.5896 6.83037C56.5066 6.91494 56.4412 7.015 56.397 7.12484C56.3528 7.23467 56.3306 7.35213 56.3319 7.4705C56.3319 7.97509 56.7324 8.38337 57.2251 8.38337ZM63.5165 8.38337C64.0092 8.38337 64.4108 7.97509 64.4108 7.4705C64.413 7.23134 64.3201 7.00108 64.1524 6.8303C63.9847 6.65953 63.756 6.5622 63.5165 6.55972C63.2769 6.5622 63.0481 6.65949 62.8802 6.83024C62.7124 7.00099 62.6192 7.23124 62.6212 7.4705C62.6212 7.97509 63.0227 8.38337 63.5165 8.38337ZM25.7798 1.9765C26.2736 1.9765 26.6751 1.56822 26.6751 1.06362C26.6773 0.824188 26.5843 0.593661 26.4164 0.422688C26.2485 0.251714 26.0196 0.154281 25.7798 0.151794C25.6611 0.153025 25.5438 0.177588 25.4347 0.224079C25.3255 0.27057 25.2266 0.338079 25.1435 0.422751C25.0605 0.507423 24.9949 0.607601 24.9507 0.717562C24.9064 0.827523 24.8843 0.945115 24.8855 1.06362C24.8855 1.56717 25.286 1.9765 25.7798 1.9765ZM32.068 1.9765C32.5608 1.9765 32.9623 1.56822 32.9623 1.06362C32.9635 0.945115 32.9414 0.827523 32.8971 0.717562C32.8529 0.607601 32.7873 0.507423 32.7043 0.422751C32.6212 0.338079 32.5223 0.27057 32.4131 0.224079C32.304 0.177588 32.1867 0.153025 32.068 0.151794C31.5753 0.151794 31.1748 0.560076 31.1748 1.06362C31.1748 1.56717 31.5742 1.9765 32.068 1.9765ZM38.3573 1.9765C38.85 1.9765 39.2526 1.56822 39.2526 1.06362C39.2548 0.824188 39.1618 0.593661 38.9939 0.422688C38.826 0.251714 38.5971 0.154281 38.3573 0.151794C37.8645 0.151794 37.463 0.560076 37.463 1.06362C37.463 1.56717 37.8635 1.9765 38.3573 1.9765ZM44.6455 1.9765C45.1404 1.9765 45.5419 1.56822 45.5419 1.06362C45.543 0.944978 45.5207 0.827278 45.4762 0.717243C45.4318 0.607207 45.3661 0.506993 45.2828 0.42232C45.1996 0.337648 45.1005 0.270177 44.9911 0.22376C44.8818 0.177343 44.7643 0.152889 44.6455 0.151794C44.1528 0.151794 43.7523 0.560076 43.7523 1.06362C43.7523 1.56717 44.1528 1.9765 44.6455 1.9765ZM50.9369 1.9765C51.4296 1.9765 51.8312 1.56822 51.8312 1.06362C51.8324 0.945115 51.8103 0.827523 51.766 0.717562C51.7217 0.607601 51.6562 0.507423 51.5732 0.422751C51.4901 0.338079 51.3912 0.27057 51.282 0.224079C51.1728 0.177588 51.0556 0.153025 50.9369 0.151794C50.8182 0.153025 50.7009 0.177588 50.5918 0.224079C50.4826 0.27057 50.3837 0.338079 50.3006 0.422751C50.2176 0.507423 50.152 0.607601 50.1078 0.717562C50.0635 0.827523 50.0414 0.945115 50.0426 1.06362C50.0426 1.56717 50.4431 1.9765 50.9369 1.9765ZM57.2251 1.9765C57.7199 1.9765 58.1194 1.56822 58.1194 1.06362C58.1208 0.945078 58.0987 0.827425 58.0545 0.717402C58.0103 0.607379 57.9448 0.507147 57.8617 0.422447C57.7786 0.337747 57.6796 0.270242 57.5704 0.2238C57.4612 0.177357 57.3438 0.152888 57.2251 0.151794C56.7324 0.151794 56.3319 0.560076 56.3319 1.06362C56.3319 1.56717 56.7324 1.9765 57.2251 1.9765ZM63.5165 1.9765C64.0092 1.9765 64.4108 1.56822 64.4108 1.06362C64.412 0.945115 64.3899 0.827523 64.3456 0.717562C64.3013 0.607601 64.2358 0.507423 64.1527 0.422751C64.0697 0.338079 63.9708 0.27057 63.8616 0.224079C63.7524 0.177588 63.6352 0.153025 63.5165 0.151794C63.2767 0.154281 63.0477 0.251714 62.8798 0.422688C62.712 0.593661 62.6189 0.824188 62.6212 1.06362C62.6212 1.56717 63.0227 1.9765 63.5165 1.9765ZM19.4905 40.4177C19.9833 40.4177 20.3837 40.0095 20.3837 39.5038C20.386 39.2649 20.2932 39.0347 20.1257 38.864C19.9583 38.6932 19.7298 38.5958 19.4905 38.593C19.251 38.5955 19.0223 38.6929 18.8546 38.8636C18.6869 39.0344 18.594 39.2647 18.5962 39.5038C18.5962 40.0084 18.9957 40.4167 19.4905 40.4167M25.7798 40.4167C26.2736 40.4167 26.6751 40.0084 26.6751 39.5038C26.6771 39.2646 26.5839 39.0343 26.4161 38.8636C26.2482 38.6928 26.0194 38.5955 25.7798 38.593C25.5403 38.5955 25.3116 38.6929 25.1439 38.8636C24.9762 39.0344 24.8833 39.2647 24.8855 39.5038C24.8855 40.0084 25.286 40.4167 25.7798 40.4167ZM32.068 40.4167C32.5608 40.4167 32.9623 40.0084 32.9623 39.5038C32.9645 39.2647 32.8716 39.0344 32.7039 38.8636C32.5362 38.6929 32.3075 38.5955 32.068 38.593C31.5753 38.593 31.1748 39.0013 31.1748 39.5038C31.1748 40.0084 31.5742 40.4167 32.068 40.4167ZM38.3573 40.4167C38.85 40.4167 39.2526 40.0084 39.2526 39.5038C39.2546 39.2646 39.1614 39.0343 38.9936 38.8636C38.8257 38.6928 38.5969 38.5955 38.3573 38.593C37.8645 38.593 37.463 39.0013 37.463 39.5038C37.463 40.0084 37.8635 40.4167 38.3573 40.4167ZM44.6455 40.4167C45.1404 40.4167 45.5419 40.0084 45.5419 39.5038C45.5438 39.2644 45.4505 39.034 45.2825 38.8632C45.1144 38.6924 44.8853 38.5953 44.6455 38.593C44.1528 38.593 43.7523 39.0013 43.7523 39.5038C43.7523 40.0084 44.1528 40.4167 44.6455 40.4167ZM50.9369 40.4167C51.4296 40.4167 51.8312 40.0084 51.8312 39.5038C51.8334 39.2647 51.7405 39.0344 51.5728 38.8636C51.4051 38.6929 51.1764 38.5955 50.9369 38.593C50.6974 38.5955 50.4687 38.6929 50.301 38.8636C50.1333 39.0344 50.0404 39.2647 50.0426 39.5038C50.0426 40.0084 50.4431 40.4167 50.9369 40.4167ZM57.2251 40.4167C57.7199 40.4167 58.1194 40.0084 58.1194 39.5038C58.1216 39.2647 58.0287 39.0344 57.861 38.8636C57.6933 38.6929 57.4646 38.5955 57.2251 38.593C56.7324 38.593 56.3319 39.0013 56.3319 39.5038C56.3319 40.0084 56.7324 40.4167 57.2251 40.4167ZM63.5165 40.4167C64.0092 40.4167 64.4108 40.0084 64.4108 39.5038C64.413 39.2647 64.3201 39.0344 64.1524 38.8636C63.9847 38.6929 63.756 38.5955 63.5165 38.593C63.2769 38.5955 63.0481 38.6928 62.8802 38.8636C62.7124 39.0343 62.6192 39.2646 62.6212 39.5038C62.6212 40.0084 63.0227 40.4167 63.5165 40.4167ZM19.4905 46.8236C19.9833 46.8236 20.3837 46.4153 20.3837 45.9107C20.385 45.7923 20.3629 45.6749 20.3187 45.565C20.2744 45.4552 20.209 45.3551 20.126 45.2706C20.0431 45.186 19.9443 45.1186 19.8352 45.0721C19.7262 45.0257 19.6091 45.0012 19.4905 44.9999C19.3719 45.001 19.2546 45.0254 19.1455 45.0718C19.0363 45.1182 18.9374 45.1856 18.8543 45.2702C18.7713 45.3548 18.7057 45.4549 18.6614 45.5648C18.6171 45.6747 18.595 45.7922 18.5962 45.9107C18.5962 46.4142 18.9957 46.8236 19.4905 46.8236ZM25.7798 46.8236C26.2736 46.8236 26.6751 46.4153 26.6751 45.9107C26.6762 45.7922 26.6539 45.6746 26.6095 45.5647C26.5651 45.4548 26.4995 45.3547 26.4164 45.2701C26.3332 45.1856 26.2342 45.1182 26.125 45.0718C26.0158 45.0254 25.8985 45.001 25.7798 44.9999C25.6612 45.001 25.5439 45.0254 25.4347 45.0718C25.3256 45.1182 25.2266 45.1856 25.1436 45.2702C25.0605 45.3548 24.995 45.4549 24.9507 45.5648C24.9064 45.6747 24.8843 45.7922 24.8855 45.9107C24.8855 46.4142 25.286 46.8236 25.7798 46.8236ZM32.068 46.8236C32.5608 46.8236 32.9623 46.4153 32.9623 45.9107C32.9645 45.6715 32.8716 45.4413 32.7039 45.2705C32.5362 45.0997 32.3075 45.0024 32.068 44.9999C31.5753 44.9999 31.1748 45.4072 31.1748 45.9107C31.1748 46.4142 31.5742 46.8236 32.068 46.8236ZM38.3573 46.8236C38.85 46.8236 39.2526 46.4153 39.2526 45.9107C39.2537 45.7922 39.2314 45.6746 39.187 45.5647C39.1426 45.4548 39.077 45.3547 38.9939 45.2701C38.9107 45.1856 38.8117 45.1182 38.7025 45.0718C38.5933 45.0254 38.476 45.001 38.3573 44.9999C37.8645 44.9999 37.463 45.4072 37.463 45.9107C37.463 46.4142 37.8635 46.8236 38.3573 46.8236ZM44.6455 46.8236C45.1404 46.8236 45.5419 46.4153 45.5419 45.9107C45.543 45.7921 45.5207 45.6745 45.4762 45.5645C45.4318 45.4545 45.366 45.3544 45.2828 45.2698C45.1995 45.1852 45.1004 45.1178 44.991 45.0715C44.8817 45.0252 44.7643 45.0009 44.6455 44.9999C44.1528 44.9999 43.7523 45.4072 43.7523 45.9107C43.7523 46.4142 44.1528 46.8236 44.6455 46.8236ZM50.9369 46.8236C51.4296 46.8236 51.8312 46.4153 51.8312 45.9107C51.8334 45.6715 51.7405 45.4413 51.5728 45.2705C51.4051 45.0997 51.1764 45.0024 50.9369 44.9999C50.6974 45.0024 50.4687 45.0997 50.301 45.2705C50.1333 45.4413 50.0404 45.6715 50.0426 45.9107C50.0426 46.4142 50.4431 46.8236 50.9369 46.8236ZM57.2251 46.8236C57.7199 46.8236 58.1194 46.4153 58.1194 45.9107C58.1208 45.7922 58.0987 45.6746 58.0545 45.5646C58.0102 45.4547 57.9447 45.3545 57.8616 45.2699C57.7785 45.1853 57.6796 45.1179 57.5703 45.0715C57.4611 45.0252 57.3438 45.0009 57.2251 44.9999C56.7324 44.9999 56.3319 45.4072 56.3319 45.9107C56.3319 46.4142 56.7324 46.8236 57.2251 46.8236ZM63.5165 46.8236C64.0092 46.8236 64.4108 46.4153 64.4108 45.9107C64.412 45.7922 64.3898 45.6747 64.3456 45.5648C64.3013 45.4549 64.2357 45.3548 64.1527 45.2702C64.0696 45.1856 63.9707 45.1182 63.8615 45.0718C63.7524 45.0254 63.6351 45.001 63.5165 44.9999C63.2769 45.0024 63.0481 45.0997 62.8802 45.2704C62.7124 45.4412 62.6192 45.6714 62.6212 45.9107C62.6212 46.4142 63.0227 46.8236 63.5165 46.8236ZM19.4895 1.9765C19.9822 1.9765 20.3827 1.56822 20.3827 1.06362C20.3839 0.945253 20.3618 0.827797 20.3176 0.717963C20.2734 0.608128 20.2079 0.508067 20.125 0.423491C20.0421 0.338916 19.9432 0.271484 19.8342 0.225046C19.7251 0.178607 19.608 0.154072 19.4895 0.152841C19.2501 0.155603 19.0217 0.253047 18.8542 0.423794C18.6868 0.594541 18.594 0.824646 18.5962 1.06362C18.5962 1.56822 18.9957 1.9765 19.4895 1.9765ZM58.0617 66.6734H64.3783V60.2319H58.0617V66.6734Z" fill="#D64F2A"/>
<path d="M1.05131 8.38337C1.54405 8.38337 1.94558 7.97509 1.94558 7.4705C1.94782 7.23134 1.85488 7.00108 1.6872 6.8303C1.51952 6.65953 1.29081 6.5622 1.05131 6.55972C0.811807 6.5622 0.583091 6.65953 0.41541 6.8303C0.247728 7.00108 0.154796 7.23134 0.157032 7.4705C0.157032 7.97509 0.556468 8.38337 1.05131 8.38337ZM7.33953 8.38337C7.83437 8.38337 8.23485 7.97509 8.23485 7.4705C8.23596 7.35199 8.21368 7.23443 8.16928 7.12452C8.12489 7.01461 8.05925 6.91451 7.97611 6.82994C7.89297 6.74536 7.79396 6.67797 7.68473 6.6316C7.57551 6.58524 7.45821 6.56081 7.33953 6.55972C7.22099 6.56095 7.10385 6.58548 6.99481 6.63192C6.88576 6.67836 6.78695 6.74579 6.704 6.83037C6.62106 6.91494 6.55561 7.015 6.51139 7.12484C6.46718 7.23467 6.44506 7.35213 6.44631 7.4705C6.44631 7.97509 6.84784 8.38337 7.33953 8.38337ZM1.05131 1.9765C1.54405 1.9765 1.94558 1.56822 1.94558 1.06362C1.94683 0.945115 1.92468 0.827523 1.88041 0.717562C1.83615 0.607601 1.77062 0.507423 1.68758 0.422751C1.60453 0.338079 1.5056 0.27057 1.39643 0.224079C1.28726 0.177588 1.16999 0.153025 1.05131 0.151794C0.932628 0.153025 0.815354 0.177588 0.706182 0.224079C0.59701 0.27057 0.498078 0.338079 0.415036 0.422751C0.331994 0.507423 0.266468 0.607601 0.222199 0.717562C0.17793 0.827523 0.155787 0.945115 0.157032 1.06362C0.157032 1.56717 0.556468 1.9765 1.05131 1.9765ZM7.33953 1.9765C7.83437 1.9765 8.23485 1.56822 8.23485 1.06362C8.2361 0.945028 8.21392 0.827351 8.16959 0.717322C8.12525 0.607293 8.05963 0.50707 7.97648 0.422384C7.89333 0.337698 7.79427 0.27021 7.68498 0.22378C7.57569 0.17735 7.4583 0.152889 7.33953 0.151794C6.84679 0.151794 6.44735 0.560076 6.44735 1.06362C6.44735 1.56717 6.84784 1.9765 7.33953 1.9765Z" fill="#0E182B"/>
<path d="M3.22786 38.3292H0.512537L0.50415 45.8981H2.03689L2.02536 39.5331H3.27609C4.89584 39.5331 5.95576 40.6261 5.95576 42.0593C5.95576 43.7426 4.75326 44.6942 2.96576 44.6942H2.39859V45.8981H3.27609C5.46721 45.8981 7.55246 44.3655 7.55246 42.0697C7.55246 39.8169 5.82471 38.3292 3.22786 38.3292ZM12.872 39.3363H10.1231V41.3966H12.8122V42.4058H10.1231V44.8335H13.3731V45.8416H8.47504V38.3271H12.872V39.3363Z" fill="#D64F2A"/>
<path d="M7.28204 56.2957H5.63397V52.6788H2.20784V56.2968H0.559778V48.7823H2.20784V51.6696H5.63397V48.8032H7.28204V56.2957ZM10.7365 56.2957V53.1509L8.22139 48.888L10.0697 48.6724C10.6421 49.758 11.203 50.8415 11.7765 52.1407C12.4086 50.8426 13.0513 49.758 13.6824 48.6724L15.0391 48.888L12.3845 53.1509V56.2957H10.7365ZM17.5929 56.2957H15.9449V48.7813H18.5176C20.3649 48.7813 21.4992 49.4889 21.4992 50.9493C21.4992 52.2161 20.3062 53.4618 18.3415 53.4618H17.9557V52.528L18.3184 52.4945C19.1026 52.4527 19.8501 52.013 19.8501 51.0027C19.8501 50.2291 19.3007 49.7904 18.3299 49.7904H17.594L17.5929 56.2957ZM28.5349 52.4307C28.5349 51.0457 27.8451 49.7245 26.2086 49.7245C24.571 49.7245 23.8811 51.0457 23.8811 52.4307C23.8811 53.8712 24.4892 55.3514 26.2086 55.3514C27.9269 55.3514 28.5349 53.8712 28.5349 52.4307ZM22.1272 52.4307C22.1272 50.3275 23.857 48.6525 26.2086 48.6525C28.5591 48.6525 30.2878 50.3275 30.2878 52.4317C30.2878 54.6741 28.7216 56.4255 26.2096 56.4255C23.6935 56.4255 22.1272 54.6741 22.1272 52.4307ZM32.5744 56.2957V49.7904H30.0499V48.7813H36.7491V49.7904H34.2235V56.2957H32.5744ZM44.3845 56.2957H42.7353V52.6788H39.3092V56.2968H37.6601V48.7823H39.3092V51.6696H42.7353V48.8032H44.3845V56.2957ZM50.2774 49.7894H47.5307V51.8517H50.2208V52.8599H47.5296V55.2876H50.7817V56.2957H45.8815V48.7813H50.2774V49.7894ZM56.6653 49.7894H53.9185V51.8517H56.6076V52.8599H53.9185V55.2876H57.1685V56.2957H52.2694V48.7813H56.6663V49.7904M59.9845 52.0339H60.0086L62.9441 48.6734L64.2524 49.1131L61.4931 52.1407L64.8133 55.9953L63.1296 56.4036L60.0086 52.4945H59.9845V56.2957H58.3353V48.7813H59.9845V52.0339ZM4.56252 60.3587C4.19978 60.1336 3.72067 59.9294 3.2405 59.9294C2.55067 59.9294 2.17744 60.2843 2.17744 60.724C2.17744 61.216 2.74986 61.595 3.70808 62.2912C4.80889 63.0973 5.39284 63.7296 5.39284 64.654C5.39284 65.5983 4.4105 66.6943 2.5622 66.6943C1.70986 66.6943 0.762117 66.4577 0.154053 65.9406L0.751633 65.0821C1.18357 65.3732 1.68679 65.6841 2.42276 65.6841C3.10107 65.6841 3.69655 65.3512 3.69655 64.6435C3.69655 63.8154 2.59784 63.269 1.9426 62.7968C1.14897 62.2053 0.482198 61.7437 0.482198 60.7449C0.482198 59.7368 1.59139 58.9213 3.07696 58.9213C4.01317 58.9213 4.76067 59.2322 5.14647 59.5745L4.56252 60.3587ZM13.2033 66.5656H11.5553V62.9465H8.12808V66.5656H6.48002V59.049H8.12808V61.9373H11.5563V59.071H13.2033V66.5656ZM20.6458 62.6984C20.6458 61.3144 19.956 59.9933 18.3184 59.9933C16.6819 59.9933 15.992 61.3144 15.992 62.6984C15.992 64.14 16.5991 65.6192 18.3184 65.6192C20.0378 65.6192 20.6458 64.14 20.6458 62.6984ZM14.2381 62.6984C14.2381 60.5963 15.9679 58.9213 18.3184 58.9213C20.6699 58.9213 22.3998 60.5963 22.3998 62.6984C22.3998 64.9429 20.8324 66.6943 18.3184 66.6943C15.8033 66.6943 14.2381 64.9429 14.2381 62.6984ZM25.2671 66.5656H23.617V59.049H26.1897C28.037 59.049 29.1713 59.7577 29.1713 61.216C29.1713 62.4849 27.9782 63.7296 26.0146 63.7296H25.6278V62.7968L25.9905 62.7633C26.7736 62.7214 27.5232 62.2818 27.5232 61.2715C27.5232 60.4979 26.9728 60.0582 26.0031 60.0582H25.265V66.5656M41.5895 7.48099L55.2258 26.6912H63.9379L44.5952 0.575806H38.4086L19.0701 26.6912H27.4803L41.5895 7.48099Z" fill="#0E182B"/>
<path d="M57.2942 45.8479V26.6901H50.9724L50.9819 39.3426H38.3824L38.4012 26.6901H32.0679V45.8479H57.2942ZM19.3237 45.8468H25.6392V39.4044H19.3237V45.8468Z" fill="#0E182B"/>
</g>
<defs>
<clipPath id="clip0_302_236">
<rect width="65" height="67" fill="white"/>
</clipPath>
</defs>
</svg>
