<svg width="139" height="41" viewBox="0 0 139 41" fill="none" xmlns="http://www.w3.org/2000/svg">
<path d="M119.562 30.015C119.564 29.7174 119.653 29.4269 119.819 29.18C119.985 28.9331 120.22 28.7409 120.495 28.6276C120.77 28.5143 121.072 28.485 121.363 28.5433C121.655 28.6017 121.922 28.7451 122.132 28.9555C122.342 29.166 122.486 29.4339 122.544 29.7257C122.602 30.0175 122.573 30.32 122.46 30.5952C122.347 30.8704 122.155 31.1058 121.908 31.2719C121.662 31.438 121.371 31.5273 121.074 31.5286C120.871 31.5482 120.666 31.5225 120.473 31.4534C120.281 31.3843 120.106 31.2734 119.962 31.1288C119.817 30.9841 119.707 30.8092 119.638 30.6167C119.569 30.4241 119.543 30.2186 119.562 30.015Z" fill="#FF823B"/>
<path fill-rule="evenodd" clip-rule="evenodd" d="M59.8029 20.459C60.3969 20.4212 60.9906 20.5359 61.5275 20.793C62.0645 21.0502 62.5269 21.4409 62.8703 21.9277H62.9523L63.218 20.6611H65.3117V31.3643H63.218L62.9904 30.0977H62.9084C62.565 30.5891 62.0997 30.9827 61.5588 31.2402C61.0177 31.4977 60.4189 31.61 59.8215 31.5664C56.9501 31.5283 55.3752 29.1474 55.3752 26.0127C55.3752 22.8462 56.9503 20.459 59.8029 20.459ZM60.4103 22.5732C58.5065 22.5732 57.7785 24.1444 57.7785 26.0127C57.7785 27.8809 58.4813 29.458 60.4103 29.458C62.3392 29.4578 63.0412 27.8612 63.0412 25.9932L63.0597 26.0127C63.0597 24.1445 62.3139 22.5735 60.4103 22.5732Z" fill="#8B1C54"/>
<path fill-rule="evenodd" clip-rule="evenodd" d="M48.8029 31.3447H46.7092L46.4435 30.0781H46.3615C46.0194 30.5662 45.557 30.9584 45.0197 31.2158C44.4826 31.473 43.8883 31.5875 43.2941 31.5479C40.568 31.5289 38.8853 29.3312 38.8664 25.9746C38.8664 22.8081 40.4415 20.459 43.2941 20.459C43.8881 20.4212 44.4819 20.5359 45.0187 20.793C45.5557 21.0502 46.0181 21.441 46.3615 21.9277H46.4435V16H48.8029V31.3447ZM43.9015 22.5547C41.9976 22.5547 41.2697 24.1254 41.2697 25.9746C41.2697 27.8239 41.9723 29.4385 43.9015 29.4385C45.8304 29.4383 46.551 27.8365 46.551 25.9746C46.551 24.1255 45.8051 22.5549 43.9015 22.5547Z" fill="#8B1C54"/>
<path fill-rule="evenodd" clip-rule="evenodd" d="M70.1447 21.9277H70.2267C70.5649 21.4416 71.0229 21.0513 71.5558 20.7939C72.0888 20.5366 72.6793 20.4213 73.2697 20.459C76.1536 20.4592 77.6965 22.802 77.6965 25.9746C77.6964 29.3308 76.0208 31.5281 73.2697 31.5283C72.6791 31.5672 72.088 31.4528 71.5549 31.1953C71.0218 30.9378 70.564 30.5466 70.2267 30.0596H70.1447L69.8722 31.3262H67.7853V16H70.1447V21.9277ZM72.6935 22.5547C70.7518 22.5547 70.0627 24.1254 70.0627 25.9746C70.0627 27.8238 70.8087 29.4384 72.6935 29.4385C74.5784 29.4385 75.3439 27.8619 75.3439 25.9746C75.3439 24.1254 74.6353 22.5547 72.6935 22.5547Z" fill="#8B1C54"/>
<path fill-rule="evenodd" clip-rule="evenodd" d="M84.0012 20.458C87.1257 20.458 88.8273 22.7192 88.8273 25.6641V26.6582H81.4338C81.4338 28.3554 82.2999 29.54 84.0392 29.54C85.3485 29.54 86.1334 28.9575 86.3801 28.0898H88.6818C88.3908 30.0404 86.5882 31.5283 84.0392 31.5283C80.7882 31.5283 78.9855 29.1026 78.9855 25.9932C78.9856 22.9219 80.6238 20.4581 84.0012 20.458ZM84.0012 22.4473C82.2809 22.4473 81.5152 23.5682 81.4709 24.9805H86.3986C86.3986 23.5682 85.6141 22.4473 84.0012 22.4473Z" fill="#8B1C54"/>
<path fill-rule="evenodd" clip-rule="evenodd" d="M103.135 20.4238C106.266 20.4239 107.961 22.6851 107.961 25.6299V26.624H107.88V26.6582H100.568C100.579 28.3371 101.452 29.5059 103.179 29.5059C103.644 29.5059 104.044 29.4291 104.377 29.2939C104.93 29.0449 105.287 28.6219 105.438 28.0898H105.507C105.511 28.0783 105.515 28.0673 105.519 28.0557H107.815C107.619 29.3983 106.703 30.521 105.32 31.0908C104.676 31.3702 103.927 31.5283 103.098 31.5283C99.8468 31.5283 98.0441 29.1027 98.0441 25.9932C98.0442 23.667 98.9848 21.6908 100.905 20.8682C101.539 20.5822 102.281 20.4238 103.135 20.4238ZM103.054 22.4473C102.661 22.4473 102.312 22.5144 102.009 22.6348C101.115 23.0284 100.637 23.9072 100.605 24.9453H105.456C105.443 23.5495 104.659 22.4473 103.054 22.4473Z" fill="#8B1C54"/>
<path d="M113.585 20.4463C116.172 20.4464 117.855 21.8774 117.855 23.9482H115.54C115.495 22.973 114.774 22.3526 113.553 22.3525C112.497 22.3525 111.77 22.789 111.77 23.5742C111.77 24.2075 112.288 24.5936 113.18 24.7393L115.002 25.0879C116.862 25.4805 118.108 26.2533 118.108 28.2861C118.108 30.319 116.159 31.5156 113.68 31.5156C110.802 31.5283 109.214 30.0149 109.145 27.7793H111.504C111.504 28.8369 112.333 29.4961 113.68 29.4961C115.027 29.4961 115.729 29.0398 115.729 28.2988C115.729 27.6655 115.298 27.2793 114.324 27.0703L112.428 26.7217C110.688 26.367 109.461 25.392 109.461 23.5557C109.461 21.7191 110.998 20.4463 113.585 20.4463Z" fill="#8B1C54"/>
<path d="M94.0334 20.6426H96.6203V22.6562H94.0334V28.0078C94.0335 29.0207 94.4698 29.4579 95.4181 29.458C95.7692 29.4621 96.1197 29.4131 96.4562 29.3125H96.6642V31.2812C96.0706 31.4415 95.4577 31.5189 94.843 31.5098C92.5723 31.5287 91.6867 30.2682 91.6867 28.4189V22.6562H89.9221V20.6426H91.7883V18.3809L93.8371 17.8047H94.0334V20.6426Z" fill="#8B1C54"/>
<path d="M130.207 20.458C132.591 20.4582 134.059 21.9281 134.059 24.3535V31.3193H131.699V24.9482C131.699 23.4539 131.015 22.6055 129.524 22.6055C128.031 22.6056 127.082 23.6634 127.082 25.4492V31.3574H124.723V20.6426H126.81L127 22.0352H127.082C127.419 21.5209 127.885 21.1039 128.433 20.8271C128.982 20.5504 129.594 20.423 130.207 20.458Z" fill="#8B1C54"/>
<path d="M53.6349 31.3447H51.2756V20.6426H53.6349V31.3447Z" fill="#8B1C54"/>
<path d="M138.865 31.3447H136.507V16H138.865V31.3447Z" fill="#8B1C54"/>
<path d="M52.4523 16C52.8532 16 53.2382 16.1596 53.5217 16.4434C53.805 16.7272 53.964 17.1124 53.964 17.5137C53.964 17.915 53.805 18.3001 53.5217 18.584C53.2382 18.8678 52.8532 19.0273 52.4523 19.0273C52.0514 19.0273 51.6665 18.8678 51.383 18.584C51.0996 18.3001 50.9406 17.915 50.9406 17.5137C50.9406 17.1124 51.0996 16.7272 51.383 16.4434C51.6665 16.1596 52.0514 16 52.4523 16Z" fill="#8B1C54"/>
<path fill-rule="evenodd" clip-rule="evenodd" d="M23.1036 0C23.8288 3.8599e-05 24.5465 0.146825 25.214 0.430664C25.8814 0.71454 26.4852 1.12988 26.9884 1.65234C27.4914 2.17471 27.884 2.79313 28.1427 3.4707C28.4013 4.14845 28.5203 4.87173 28.4933 5.59668V31.1758C28.4952 32.4671 28.2425 33.7461 27.7491 34.9395C27.2557 36.1328 26.5315 37.2171 25.6183 38.1299C24.705 39.0425 23.6202 39.7662 22.4268 40.2588C21.2336 40.7511 19.9549 41.0029 18.6642 41C17.1147 41 15.604 40.6307 14.2462 39.9453C14.026 40.0564 13.8029 40.1624 13.5743 40.2568C12.38 40.7503 11.0999 41.003 9.80771 41C7.20677 41 4.7123 39.9664 2.87314 38.127C1.03395 36.2875 8.85322e-05 33.7919 8.85322e-05 31.1904V28.4668C-0.0103255 26.0149 0.898352 23.6476 2.54599 21.832C4.19365 20.0166 6.46156 18.8845 8.90243 18.6582C9.13302 16.2559 10.2492 14.0251 12.0343 12.4014C13.6098 10.9683 15.6069 10.099 17.713 9.91309V5.59668C17.6859 4.87174 17.8058 4.14845 18.0645 3.4707C18.3231 2.7931 18.7157 2.17471 19.2188 1.65234C19.7219 1.13 20.325 0.714533 20.9923 0.430664C21.6598 0.146787 22.3783 0 23.1036 0ZM8.85653 20.6191C7.11489 20.8321 5.48303 21.6193 4.22958 22.873C2.75021 24.3527 1.9181 26.3596 1.9161 28.4521V31.1758C1.9161 33.269 2.74779 35.2766 4.22763 36.7568C5.70746 38.2369 7.71489 39.0684 9.80771 39.0684C10.6663 39.0683 11.5095 38.9255 12.3087 38.6582C12.1097 38.4888 11.9147 38.3131 11.7286 38.127C9.88965 36.2874 8.85653 33.7918 8.85653 31.1904V20.6191ZM23.1036 2.28809C22.2113 2.28809 21.3526 2.63181 20.7071 3.24805C20.0618 3.86424 19.6784 4.70529 19.6368 5.59668V31.1611C19.6407 32.4534 19.3899 33.7339 18.8975 34.9287C18.4051 36.1237 17.681 37.2098 16.7677 38.124C16.5802 38.3116 16.3831 38.4889 16.1817 38.6602C16.9797 38.9265 17.8217 39.0684 18.6788 39.0684C20.7716 39.0684 22.779 38.2369 24.2589 36.7568C25.7386 35.2766 26.5694 33.269 26.5694 31.1758V5.59668C26.5278 4.70518 26.1445 3.86426 25.4991 3.24805C24.8537 2.63187 23.9959 2.28816 23.1036 2.28809ZM17.6983 11.8672C15.7959 12.077 14.0375 12.981 12.7599 14.4062C11.4821 15.8319 10.7739 17.6793 10.7725 19.5938H10.7882V31.1758C10.7882 33.2689 11.6189 35.2766 13.0987 36.7568C13.4517 37.1099 13.8362 37.4244 14.2433 37.7012C14.6501 37.4245 15.0339 37.1098 15.3868 36.7568C16.8666 35.2766 17.6983 33.269 17.6983 31.1758V11.8672Z" fill="#8B1C54"/>
</svg>
