<svg preserveAspectRatio="none" width="100%" height="100%" overflow="visible" style="display: block;" viewBox="0 0 64.6593 66.5425" fill="none" xmlns="http://www.w3.org/2000/svg">
<g id="Group">
<path id="Vector" d="M19.3365 33.858C19.8292 33.858 20.2297 33.4497 20.2297 32.9452C20.2309 32.8268 20.2088 32.7093 20.1646 32.5995C20.1204 32.4897 20.0549 32.3896 19.972 32.305C19.889 32.2204 19.7902 32.153 19.6812 32.1066C19.5721 32.0601 19.455 32.0356 19.3365 32.0344C19.2178 32.0355 19.1006 32.0599 18.9914 32.1063C18.8822 32.1527 18.7833 32.2201 18.7002 32.3047C18.6172 32.3892 18.5516 32.4894 18.5074 32.5993C18.4631 32.7092 18.4409 32.8267 18.4422 32.9452C18.4422 33.4497 18.8416 33.858 19.3365 33.858ZM25.6257 33.858C26.1195 33.858 26.521 33.4497 26.521 32.9452C26.5222 32.8266 26.4999 32.7091 26.4555 32.5992C26.4111 32.4893 26.3454 32.3892 26.2623 32.3046C26.1792 32.22 26.0802 32.1526 25.9709 32.1063C25.8617 32.0599 25.7444 32.0355 25.6257 32.0344C25.5071 32.0355 25.3898 32.0599 25.2807 32.1063C25.1715 32.1527 25.0726 32.2201 24.9895 32.3047C24.9065 32.3892 24.8409 32.4894 24.7966 32.5993C24.7524 32.7092 24.7302 32.8267 24.7315 32.9452C24.7315 33.4497 25.1319 33.858 25.6257 33.858ZM31.914 33.858C32.4067 33.858 32.8082 33.4497 32.8082 32.9452C32.8082 32.4416 32.4067 32.0344 31.914 32.0344C31.4212 32.0344 31.0207 32.4416 31.0207 32.9452C31.0207 33.4497 31.4202 33.858 31.914 33.858ZM38.2032 33.858C38.696 33.858 39.0986 33.4497 39.0986 32.9452C39.0997 32.8266 39.0774 32.7091 39.033 32.5992C38.9886 32.4893 38.9229 32.3892 38.8398 32.3046C38.7567 32.22 38.6577 32.1526 38.5484 32.1063C38.4392 32.0599 38.3219 32.0355 38.2032 32.0344C37.9637 32.0369 37.735 32.1342 37.5673 32.305C37.3996 32.4757 37.3067 32.706 37.309 32.9452C37.309 33.4497 37.7094 33.858 38.2032 33.858ZM44.4915 33.858C44.9863 33.858 45.3878 33.4497 45.3878 32.9452C45.3889 32.8266 45.3666 32.7089 45.3222 32.5989C45.2777 32.489 45.212 32.3888 45.1287 32.3042C45.0455 32.2196 44.9463 32.1523 44.837 32.106C44.7276 32.0597 44.6102 32.0353 44.4915 32.0344C44.3729 32.0356 44.2558 32.0601 44.1467 32.1066C44.0377 32.153 43.9389 32.2204 43.8559 32.305C43.773 32.3896 43.7075 32.4897 43.6633 32.5995C43.6191 32.7093 43.597 32.8268 43.5982 32.9452C43.5982 33.4497 43.9987 33.858 44.4915 33.858ZM50.7828 33.858C51.2756 33.858 51.6771 33.4497 51.6771 32.9452C51.6783 32.8267 51.6562 32.7092 51.6119 32.5993C51.5676 32.4894 51.5021 32.3892 51.419 32.3047C51.336 32.2201 51.237 32.1527 51.1279 32.1063C51.0187 32.0599 50.9015 32.0355 50.7828 32.0344C50.6642 32.0355 50.5469 32.0599 50.4378 32.1063C50.3286 32.1527 50.2297 32.2201 50.1466 32.3047C50.0636 32.3892 49.998 32.4894 49.9537 32.5993C49.9095 32.7092 49.8873 32.8267 49.8885 32.9452C49.8885 33.4497 50.289 33.858 50.7828 33.858ZM57.071 33.858C57.5659 33.858 57.9653 33.4497 57.9653 32.9452C57.9667 32.8267 57.9446 32.7091 57.9004 32.5991C57.8562 32.4891 57.7906 32.389 57.7076 32.3044C57.6245 32.2197 57.5255 32.1523 57.4163 32.106C57.307 32.0597 57.1897 32.0353 57.071 32.0344C56.9525 32.0356 56.8354 32.0601 56.7263 32.1066C56.6173 32.153 56.5185 32.2204 56.4355 32.305C56.3526 32.3896 56.2871 32.4897 56.2429 32.5995C56.1987 32.7093 56.1766 32.8268 56.1778 32.9452C56.1778 33.4497 56.5783 33.858 57.071 33.858ZM63.3624 33.858C63.8552 33.858 64.2567 33.4497 64.2567 32.9452C64.2579 32.8267 64.2358 32.7092 64.1915 32.5993C64.1472 32.4894 64.0817 32.3892 63.9986 32.3047C63.9156 32.2201 63.8166 32.1527 63.7075 32.1063C63.5983 32.0599 63.481 32.0355 63.3624 32.0344C63.1228 32.0369 62.894 32.1342 62.7262 32.3049C62.5583 32.4756 62.4651 32.7059 62.4671 32.9452C62.4671 33.4497 62.8686 33.858 63.3624 33.858ZM19.3365 27.4512C19.8292 27.4512 20.2297 27.0429 20.2297 26.5383C20.2309 26.4199 20.2088 26.3025 20.1646 26.1926C20.1204 26.0828 20.0549 25.9827 19.972 25.8981C19.889 25.8136 19.7902 25.7461 19.6812 25.6997C19.5721 25.6533 19.455 25.6287 19.3365 25.6275C19.097 25.63 18.8682 25.7273 18.7006 25.8981C18.5329 26.0689 18.4399 26.2991 18.4422 26.5383C18.4422 27.0429 18.8416 27.4512 19.3365 27.4512ZM25.6257 27.4512C26.1195 27.4512 26.521 27.0429 26.521 26.5383C26.523 26.299 26.4298 26.0688 26.262 25.898C26.0941 25.7273 25.8653 25.63 25.6257 25.6275C25.3862 25.63 25.1575 25.7273 24.9898 25.8981C24.8221 26.0689 24.7292 26.2991 24.7315 26.5383C24.7315 27.0429 25.1319 27.4512 25.6257 27.4512ZM31.914 27.4512C32.4067 27.4512 32.8082 27.0429 32.8082 26.5383C32.8105 26.2991 32.7175 26.0689 32.5498 25.8981C32.3822 25.7273 32.1535 25.63 31.914 25.6275C31.7954 25.6287 31.6783 25.6533 31.5692 25.6997C31.4602 25.7461 31.3614 25.8136 31.2784 25.8981C31.1955 25.9827 31.13 26.0828 31.0858 26.1926C31.0416 26.3025 31.0195 26.4199 31.0207 26.5383C31.0207 27.0429 31.4202 27.4512 31.914 27.4512ZM38.2032 27.4512C38.696 27.4512 39.0986 27.0429 39.0986 26.5383C39.1005 26.299 39.0073 26.0688 38.8395 25.898C38.6716 25.7273 38.4428 25.63 38.2032 25.6275C37.9637 25.63 37.735 25.7273 37.5673 25.8981C37.3996 26.0689 37.3067 26.2991 37.309 26.5383C37.309 27.0429 37.7094 27.4512 38.2032 27.4512ZM44.4915 27.4512C44.9863 27.4512 45.3878 27.0429 45.3878 26.5383C45.3898 26.2988 45.2965 26.0684 45.1284 25.8977C44.9603 25.7269 44.7312 25.6297 44.4915 25.6275C44.3729 25.6287 44.2558 25.6533 44.1467 25.6997C44.0377 25.7461 43.9389 25.8136 43.8559 25.8981C43.773 25.9827 43.7075 26.0828 43.6633 26.1926C43.6191 26.3025 43.597 26.4199 43.5982 26.5383C43.5982 27.0429 43.9987 27.4512 44.4915 27.4512ZM50.7828 27.4512C51.2756 27.4512 51.6771 27.0429 51.6771 26.5383C51.6793 26.2991 51.5864 26.0689 51.4187 25.8981C51.251 25.7273 51.0223 25.63 50.7828 25.6275C50.5433 25.63 50.3146 25.7273 50.1469 25.8981C49.9792 26.0689 49.8863 26.2991 49.8885 26.5383C49.8885 27.0429 50.289 27.4512 50.7828 27.4512Z" fill="var(--fill-0, #D64F2A)"/>
<path id="Vector_2" d="M57.071 27.4512C57.5659 27.4512 57.9653 27.0429 57.9653 26.5383C57.9666 26.4198 57.9444 26.3023 57.9001 26.1924C57.8559 26.0825 57.7903 25.9824 57.7073 25.8978C57.6242 25.8132 57.5253 25.7458 57.4161 25.6994C57.3069 25.653 57.1897 25.6286 57.071 25.6275C56.9525 25.6287 56.8354 25.6533 56.7263 25.6997C56.6173 25.7461 56.5185 25.8136 56.4355 25.8981C56.3526 25.9827 56.2871 26.0828 56.2429 26.1926C56.1987 26.3025 56.1766 26.4199 56.1778 26.5383C56.1778 27.0429 56.5783 27.4512 57.071 27.4512Z" fill="var(--fill-0, #E05329)"/>
<path id="Vector_3" d="M63.3624 27.4512C63.8552 27.4512 64.2567 27.0429 64.2567 26.5383C64.2589 26.2991 64.166 26.0689 63.9983 25.8981C63.8306 25.7273 63.6019 25.63 63.3624 25.6275C63.1228 25.63 62.894 25.7273 62.7262 25.898C62.5583 26.0688 62.4651 26.299 62.4671 26.5383C62.4671 27.0429 62.8686 27.4512 63.3624 27.4512ZM19.3365 21.0453C19.8292 21.0453 20.2297 20.637 20.2297 20.1314C20.2297 19.6289 19.8292 19.2206 19.3365 19.2206C19.097 19.2231 18.8682 19.3204 18.7006 19.4912C18.5329 19.662 18.4399 19.8922 18.4422 20.1314C18.4422 20.636 18.8416 21.0453 19.3365 21.0453Z" fill="var(--fill-0, #D64F2A)"/>
<path id="Vector_4" d="M25.6257 21.0453C26.1195 21.0453 26.521 20.637 26.521 20.1314C26.521 19.6289 26.1195 19.2206 25.6257 19.2206C25.3862 19.2231 25.1575 19.3204 24.9898 19.4912C24.8221 19.662 24.7292 19.8922 24.7315 20.1314C24.7315 20.636 25.1319 21.0453 25.6257 21.0453Z" fill="var(--fill-0, #E05329)"/>
<path id="Vector_5" d="M31.914 21.0453C32.4067 21.0453 32.8082 20.637 32.8082 20.1314C32.8082 19.6289 32.4067 19.2206 31.914 19.2206C31.4212 19.2206 31.0207 19.6289 31.0207 20.1314C31.0207 20.636 31.4202 21.0453 31.914 21.0453ZM38.2032 21.0453C38.696 21.0453 39.0986 20.637 39.0986 20.1314C39.0986 19.6289 38.697 19.2206 38.2032 19.2206C37.7105 19.2206 37.309 19.6289 37.309 20.1314C37.309 20.636 37.7094 21.0453 38.2032 21.0453ZM44.4915 21.0453C44.9863 21.0453 45.3878 20.637 45.3878 20.1314C45.3878 19.6289 44.9863 19.2206 44.4915 19.2206C43.9987 19.2206 43.5982 19.6289 43.5982 20.1314C43.5982 20.636 43.9987 21.0453 44.4915 21.0453ZM50.7828 21.0453C51.2756 21.0453 51.6771 20.637 51.6771 20.1314C51.6771 19.6289 51.2766 19.2206 50.7828 19.2206C50.5433 19.2231 50.3146 19.3204 50.1469 19.4912C49.9792 19.662 49.8863 19.8922 49.8886 20.1314C49.8886 20.636 50.289 21.0453 50.7828 21.0453Z" fill="var(--fill-0, #D64F2A)"/>
<path id="Vector_6" d="M57.071 21.0453C57.5659 21.0453 57.9653 20.637 57.9653 20.1314C57.9653 19.6289 57.5659 19.2206 57.071 19.2206C56.5783 19.2206 56.1778 19.6289 56.1778 20.1314C56.1778 20.636 56.5783 21.0453 57.071 21.0453Z" fill="var(--fill-0, #E05329)"/>
<path id="Vector_7" d="M63.3624 21.0453C63.8552 21.0453 64.2567 20.637 64.2567 20.1314C64.2567 19.6289 63.8562 19.2206 63.3624 19.2206C63.1229 19.2234 62.8942 19.3208 62.7265 19.4914C62.5587 19.6621 62.4654 19.8922 62.4671 20.1314C62.4671 20.636 62.8686 21.0453 63.3624 21.0453ZM19.3365 14.6385C19.8292 14.6385 20.2297 14.2302 20.2297 13.7256C20.2322 13.4863 20.1396 13.2558 19.9721 13.0847C19.8047 12.9136 19.576 12.8157 19.3365 12.8127C19.0967 12.8155 18.8678 12.9132 18.7001 13.0843C18.5324 13.2555 18.4397 13.4861 18.4422 13.7256C18.4422 14.2291 18.8416 14.6385 19.3365 14.6385ZM25.6257 14.6385C26.1195 14.6385 26.521 14.2302 26.521 13.7256C26.5233 13.486 26.4303 13.2554 26.2624 13.0843C26.0946 12.9131 25.8656 12.8155 25.6257 12.8127C25.3859 12.8155 25.1571 12.9132 24.9894 13.0843C24.8217 13.2555 24.7289 13.4861 24.7315 13.7256C24.7315 14.2291 25.1319 14.6385 25.6257 14.6385Z" fill="var(--fill-0, #D64F2A)"/>
<path id="Vector_8" d="M31.914 14.6385C32.4067 14.6385 32.8082 14.2302 32.8082 13.7256C32.8107 13.4861 32.718 13.2555 32.5503 13.0843C32.3826 12.9132 32.1537 12.8155 31.914 12.8127C31.6744 12.8157 31.4458 12.9136 31.2783 13.0847C31.1108 13.2558 31.0182 13.4863 31.0207 13.7256C31.0207 14.2291 31.4202 14.6385 31.914 14.6385Z" fill="var(--fill-0, #E05329)"/>
<path id="Vector_9" d="M38.2032 14.6385C38.696 14.6385 39.0986 14.2302 39.0986 13.7256C39.1008 13.486 39.0078 13.2554 38.8399 13.0843C38.6721 12.9131 38.4431 12.8155 38.2032 12.8127C37.9635 12.8155 37.7346 12.9132 37.5669 13.0843C37.3992 13.2555 37.3064 13.4861 37.309 13.7256C37.309 14.2291 37.7094 14.6385 38.2032 14.6385ZM44.4915 14.6385C44.9863 14.6385 45.3878 14.2302 45.3878 13.7256C45.3901 13.4859 45.2969 13.2551 45.1288 13.0839C44.9608 12.9127 44.7315 12.8152 44.4915 12.8127C44.2519 12.8157 44.0233 12.9136 43.8558 13.0847C43.6883 13.2558 43.5957 13.4863 43.5982 13.7256C43.5982 14.2291 43.9987 14.6385 44.4915 14.6385Z" fill="var(--fill-0, #D64F2A)"/>
<path id="Vector_10" d="M50.7828 14.6385C51.2756 14.6385 51.6771 14.2302 51.6771 13.7256C51.6796 13.4861 51.5868 13.2555 51.4192 13.0843C51.2515 12.9132 51.0226 12.8155 50.7828 12.8127C50.543 12.8155 50.3142 12.9132 50.1465 13.0843C49.9788 13.2555 49.886 13.4861 49.8886 13.7256C49.8886 14.2291 50.289 14.6385 50.7828 14.6385Z" fill="var(--fill-0, #E05329)"/>
<path id="Vector_11" d="M57.071 14.6385C57.5659 14.6385 57.9653 14.2302 57.9653 13.7256C57.9667 13.607 57.9447 13.4893 57.9005 13.3792C57.8563 13.2691 57.7908 13.1688 57.7077 13.084C57.6246 12.9992 57.5257 12.9316 57.4164 12.8851C57.3072 12.8385 57.1898 12.8139 57.071 12.8127C56.8315 12.8157 56.6028 12.9136 56.4354 13.0847C56.2679 13.2558 56.1753 13.4863 56.1778 13.7256C56.1778 14.2291 56.5783 14.6385 57.071 14.6385ZM63.3624 14.6385C63.8552 14.6385 64.2567 14.2302 64.2567 13.7256C64.2592 13.4861 64.1664 13.2555 63.9988 13.0843C63.8311 12.9132 63.6022 12.8155 63.3624 12.8127C63.1225 12.8155 62.8936 12.9131 62.7257 13.0843C62.5579 13.2554 62.4649 13.486 62.4671 13.7256C62.4671 14.2291 62.8686 14.6385 63.3624 14.6385ZM19.3365 8.23158C19.8292 8.23158 20.2297 7.8233 20.2297 7.3187C20.2309 7.20033 20.2088 7.08288 20.1646 6.97304C20.1204 6.86321 20.0549 6.76315 19.972 6.67857C19.889 6.594 19.7902 6.52656 19.6812 6.48013C19.5721 6.43369 19.455 6.40915 19.3365 6.40792C19.097 6.41041 18.8682 6.50773 18.7006 6.67851C18.5329 6.84929 18.4399 7.07955 18.4422 7.3187C18.4422 7.8233 18.8416 8.23158 19.3365 8.23158ZM25.6257 8.23158C26.1195 8.23158 26.521 7.8233 26.521 7.3187C26.523 7.07945 26.4298 6.84919 26.262 6.67844C26.0941 6.5077 25.8653 6.41041 25.6257 6.40792C25.3862 6.41041 25.1575 6.50773 24.9898 6.67851C24.8221 6.84929 24.7292 7.07955 24.7315 7.3187C24.7315 7.8233 25.1319 8.23158 25.6257 8.23158ZM31.914 8.23158C32.4067 8.23158 32.8082 7.8233 32.8082 7.3187C32.8105 7.07955 32.7175 6.84929 32.5498 6.67851C32.3822 6.50773 32.1535 6.41041 31.914 6.40792C31.7954 6.40915 31.6783 6.43369 31.5692 6.48013C31.4602 6.52656 31.3614 6.594 31.2784 6.67857C31.1955 6.76315 31.13 6.86321 31.0858 6.97304C31.0416 7.08288 31.0195 7.20033 31.0207 7.3187C31.0207 7.8233 31.4202 8.23158 31.914 8.23158Z" fill="var(--fill-0, #D64F2A)"/>
<path id="Vector_12" d="M38.2032 8.23158C38.696 8.23158 39.0986 7.8233 39.0986 7.3187C39.1005 7.07945 39.0073 6.84919 38.8395 6.67844C38.6716 6.5077 38.4428 6.41041 38.2032 6.40792C37.9637 6.41041 37.735 6.50773 37.5673 6.67851C37.3996 6.84929 37.3067 7.07955 37.309 7.3187C37.309 7.8233 37.7094 8.23158 38.2032 8.23158ZM44.4915 8.23158C44.9863 8.23158 45.3878 7.8233 45.3878 7.3187C45.3898 7.07927 45.2965 6.84885 45.1284 6.67808C44.9603 6.5073 44.7312 6.41013 44.4915 6.40792C44.3729 6.40915 44.2558 6.43369 44.1467 6.48013C44.0377 6.52656 43.9389 6.594 43.8559 6.67857C43.773 6.76315 43.7075 6.86321 43.6633 6.97304C43.6191 7.08288 43.597 7.20033 43.5982 7.3187C43.5982 7.8233 43.9987 8.23158 44.4915 8.23158Z" fill="var(--fill-0, #E05329)"/>
<path id="Vector_13" d="M50.7828 8.23158C51.2756 8.23158 51.6771 7.8233 51.6771 7.3187C51.6793 7.07955 51.5864 6.84929 51.4187 6.67851C51.251 6.50773 51.0223 6.41041 50.7828 6.40792C50.5433 6.41041 50.3146 6.50773 50.1469 6.67851C49.9792 6.84929 49.8863 7.07955 49.8885 7.3187C49.8885 7.8233 50.289 8.23158 50.7828 8.23158ZM57.071 8.23158C57.5659 8.23158 57.9653 7.8233 57.9653 7.3187C57.9666 7.20025 57.9444 7.08271 57.9001 6.9728C57.8559 6.8629 57.7903 6.76279 57.7073 6.6782C57.6242 6.59362 57.5253 6.52621 57.4161 6.47983C57.3069 6.43345 57.1897 6.40902 57.071 6.40792C56.9525 6.40915 56.8354 6.43369 56.7263 6.48013C56.6173 6.52656 56.5185 6.594 56.4355 6.67857C56.3526 6.76315 56.2871 6.86321 56.2429 6.97304C56.1987 7.08288 56.1766 7.20033 56.1778 7.3187C56.1778 7.8233 56.5783 8.23158 57.071 8.23158ZM63.3624 8.23158C63.8552 8.23158 64.2567 7.8233 64.2567 7.3187C64.2589 7.07955 64.166 6.84929 63.9983 6.67851C63.8306 6.50773 63.6019 6.41041 63.3624 6.40792C63.1228 6.41041 62.894 6.5077 62.7262 6.67844C62.5583 6.84919 62.4651 7.07945 62.4671 7.3187C62.4671 7.8233 62.8686 8.23158 63.3624 8.23158ZM25.6257 1.8247C26.1195 1.8247 26.521 1.41642 26.521 0.911828C26.5233 0.672394 26.4302 0.441866 26.2624 0.270893C26.0945 0.09992 25.8655 0.0024867 25.6257 0C25.507 0.00123086 25.3898 0.0257931 25.2806 0.0722841C25.1714 0.118775 25.0725 0.186284 24.9895 0.270957C24.9064 0.355629 24.8409 0.455806 24.7966 0.565768C24.7523 0.675729 24.7302 0.793321 24.7315 0.911828C24.7315 1.41538 25.1319 1.8247 25.6257 1.8247ZM31.914 1.8247C32.4067 1.8247 32.8082 1.41642 32.8082 0.911828C32.8095 0.793321 32.7873 0.675729 32.7431 0.565768C32.6988 0.455806 32.6333 0.355629 32.5502 0.270957C32.4672 0.186284 32.3682 0.118775 32.2591 0.0722841C32.1499 0.0257931 32.0326 0.00123086 31.914 0C31.4212 0 31.0207 0.408281 31.0207 0.911828C31.0207 1.41538 31.4202 1.8247 31.914 1.8247ZM38.2032 1.8247C38.696 1.8247 39.0986 1.41642 39.0986 0.911828C39.1008 0.672394 39.0077 0.441866 38.8399 0.270893C38.672 0.09992 38.443 0.0024867 38.2032 0C37.7105 0 37.309 0.408281 37.309 0.911828C37.309 1.41538 37.7094 1.8247 38.2032 1.8247ZM44.4915 1.8247C44.9863 1.8247 45.3878 1.41642 45.3878 0.911828C45.3889 0.793184 45.3666 0.675483 45.3222 0.565448C45.2777 0.455413 45.212 0.355198 45.1288 0.270526C45.0455 0.185854 44.9464 0.118383 44.8371 0.0719659C44.7277 0.0255488 44.6103 0.00109474 44.4915 0C43.9987 0 43.5982 0.408281 43.5982 0.911828C43.5982 1.41538 43.9987 1.8247 44.4915 1.8247ZM50.7828 1.8247C51.2756 1.8247 51.6771 1.41642 51.6771 0.911828C51.6783 0.793321 51.6562 0.675729 51.6119 0.565768C51.5677 0.455806 51.5021 0.355629 51.4191 0.270957C51.3361 0.186284 51.2371 0.118775 51.1279 0.0722841C51.0188 0.0257931 50.9015 0.00123086 50.7828 0C50.6641 0.00123086 50.5469 0.0257931 50.4377 0.0722841C50.3285 0.118775 50.2296 0.186284 50.1466 0.270957C50.0635 0.355629 49.998 0.455806 49.9537 0.565768C49.9094 0.675729 49.8873 0.793321 49.8885 0.911828C49.8885 1.41538 50.289 1.8247 50.7828 1.8247ZM57.071 1.8247C57.5659 1.8247 57.9653 1.41642 57.9653 0.911828C57.9667 0.793283 57.9447 0.675631 57.9004 0.565607C57.8562 0.455584 57.7907 0.355353 57.7076 0.270653C57.6246 0.185953 57.5256 0.118448 57.4163 0.0720052C57.3071 0.0255623 57.1898 0.00109348 57.071 0C56.5783 0 56.1778 0.408281 56.1778 0.911828C56.1778 1.41538 56.5783 1.8247 57.071 1.8247ZM63.3624 1.8247C63.8552 1.8247 64.2567 1.41642 64.2567 0.911828C64.2579 0.793321 64.2358 0.675729 64.1915 0.565768C64.1473 0.455806 64.0817 0.355629 63.9987 0.270957C63.9156 0.186284 63.8167 0.118775 63.7075 0.0722841C63.5984 0.0257931 63.4811 0.00123086 63.3624 0C63.1226 0.0024867 62.8937 0.09992 62.7258 0.270893C62.5579 0.441866 62.4649 0.672394 62.4671 0.911828C62.4671 1.41538 62.8686 1.8247 63.3624 1.8247ZM19.3365 40.266C19.8292 40.266 20.2297 39.8577 20.2297 39.352C20.2319 39.1131 20.1391 38.8829 19.9717 38.7122C19.8042 38.5415 19.5758 38.444 19.3365 38.4413C19.097 38.4437 18.8682 38.5411 18.7006 38.7118C18.5329 38.8826 18.4399 39.1129 18.4422 39.352C18.4422 39.8566 18.8416 40.2649 19.3365 40.2649M25.6257 40.2649C26.1195 40.2649 26.521 39.8566 26.521 39.352C26.523 39.1128 26.4298 38.8825 26.262 38.7118C26.0941 38.541 25.8653 38.4437 25.6257 38.4413C25.3862 38.4437 25.1575 38.5411 24.9898 38.7118C24.8221 38.8826 24.7292 39.1129 24.7315 39.352C24.7315 39.8566 25.1319 40.2649 25.6257 40.2649ZM31.914 40.2649C32.4067 40.2649 32.8082 39.8566 32.8082 39.352C32.8105 39.1129 32.7175 38.8826 32.5498 38.7118C32.3822 38.5411 32.1535 38.4437 31.914 38.4413C31.4212 38.4413 31.0207 38.8495 31.0207 39.352C31.0207 39.8566 31.4202 40.2649 31.914 40.2649ZM38.2032 40.2649C38.696 40.2649 39.0986 39.8566 39.0986 39.352C39.1005 39.1128 39.0073 38.8825 38.8395 38.7118C38.6716 38.541 38.4428 38.4437 38.2032 38.4413C37.7105 38.4413 37.309 38.8495 37.309 39.352C37.309 39.8566 37.7094 40.2649 38.2032 40.2649ZM44.4915 40.2649C44.9863 40.2649 45.3878 39.8566 45.3878 39.352C45.3898 39.1126 45.2965 38.8822 45.1284 38.7114C44.9603 38.5406 44.7312 38.4435 44.4915 38.4413C43.9987 38.4413 43.5982 38.8495 43.5982 39.352C43.5982 39.8566 43.9987 40.2649 44.4915 40.2649ZM50.7828 40.2649C51.2756 40.2649 51.6771 39.8566 51.6771 39.352C51.6793 39.1129 51.5864 38.8826 51.4187 38.7118C51.251 38.5411 51.0223 38.4437 50.7828 38.4413C50.5433 38.4437 50.3146 38.5411 50.1469 38.7118C49.9792 38.8826 49.8863 39.1129 49.8885 39.352C49.8885 39.8566 50.289 40.2649 50.7828 40.2649ZM57.071 40.2649C57.5659 40.2649 57.9653 39.8566 57.9653 39.352C57.9676 39.1129 57.8746 38.8826 57.7069 38.7118C57.5393 38.5411 57.3105 38.4437 57.071 38.4413C56.5783 38.4413 56.1778 38.8495 56.1778 39.352C56.1778 39.8566 56.5783 40.2649 57.071 40.2649ZM63.3624 40.2649C63.8552 40.2649 64.2567 39.8566 64.2567 39.352C64.2589 39.1129 64.166 38.8826 63.9983 38.7118C63.8306 38.5411 63.6019 38.4437 63.3624 38.4413C63.1228 38.4437 62.894 38.541 62.7262 38.7118C62.5583 38.8825 62.4651 39.1128 62.4671 39.352C62.4671 39.8566 62.8686 40.2649 63.3624 40.2649ZM19.3365 46.6718C19.8292 46.6718 20.2297 46.2635 20.2297 45.7589C20.2309 45.6405 20.2088 45.5231 20.1646 45.4132C20.1204 45.3034 20.0549 45.2033 19.972 45.1188C19.889 45.0342 19.7902 44.9668 19.6812 44.9203C19.5721 44.8739 19.455 44.8494 19.3365 44.8481C19.2178 44.8492 19.1006 44.8737 18.9914 44.92C18.8822 44.9664 18.7833 45.0338 18.7002 45.1184C18.6172 45.203 18.5516 45.3031 18.5074 45.413C18.4631 45.5229 18.4409 45.6404 18.4422 45.7589C18.4422 46.2625 18.8416 46.6718 19.3365 46.6718ZM25.6257 46.6718C26.1195 46.6718 26.521 46.2635 26.521 45.7589C26.5222 45.6404 26.4999 45.5228 26.4555 45.4129C26.4111 45.303 26.3454 45.2029 26.2623 45.1183C26.1792 45.0338 26.0802 44.9664 25.9709 44.92C25.8617 44.8736 25.7444 44.8492 25.6257 44.8481C25.5071 44.8492 25.3898 44.8737 25.2807 44.92C25.1715 44.9664 25.0726 45.0338 24.9895 45.1184C24.9065 45.203 24.8409 45.3031 24.7966 45.413C24.7524 45.5229 24.7302 45.6404 24.7315 45.7589C24.7315 46.2625 25.1319 46.6718 25.6257 46.6718ZM31.914 46.6718C32.4067 46.6718 32.8082 46.2635 32.8082 45.7589C32.8105 45.5197 32.7175 45.2895 32.5498 45.1187C32.3822 44.9479 32.1535 44.8506 31.914 44.8481C31.4212 44.8481 31.0207 45.2554 31.0207 45.7589C31.0207 46.2625 31.4202 46.6718 31.914 46.6718ZM38.2032 46.6718C38.696 46.6718 39.0986 46.2635 39.0986 45.7589C39.0997 45.6404 39.0774 45.5228 39.033 45.4129C38.9886 45.303 38.9229 45.2029 38.8398 45.1183C38.7567 45.0338 38.6577 44.9664 38.5484 44.92C38.4392 44.8736 38.3219 44.8492 38.2032 44.8481C37.7105 44.8481 37.309 45.2554 37.309 45.7589C37.309 46.2625 37.7094 46.6718 38.2032 46.6718ZM44.4915 46.6718C44.9863 46.6718 45.3878 46.2635 45.3878 45.7589C45.3889 45.6403 45.3666 45.5227 45.3222 45.4127C45.2777 45.3027 45.212 45.2026 45.1287 45.118C45.0455 45.0334 44.9463 44.966 44.837 44.9197C44.7276 44.8734 44.6102 44.8491 44.4915 44.8481C43.9987 44.8481 43.5982 45.2554 43.5982 45.7589C43.5982 46.2625 43.9987 46.6718 44.4915 46.6718ZM50.7828 46.6718C51.2756 46.6718 51.6771 46.2635 51.6771 45.7589C51.6793 45.5197 51.5864 45.2895 51.4187 45.1187C51.251 44.9479 51.0223 44.8506 50.7828 44.8481C50.5433 44.8506 50.3146 44.9479 50.1469 45.1187C49.9792 45.2895 49.8863 45.5197 49.8885 45.7589C49.8885 46.2625 50.289 46.6718 50.7828 46.6718ZM57.071 46.6718C57.5659 46.6718 57.9653 46.2635 57.9653 45.7589C57.9667 45.6404 57.9446 45.5228 57.9004 45.4128C57.8562 45.3029 57.7906 45.2027 57.7076 45.1181C57.6245 45.0335 57.5255 44.9661 57.4163 44.9198C57.307 44.8734 57.1897 44.8491 57.071 44.8481C56.5783 44.8481 56.1778 45.2554 56.1778 45.7589C56.1778 46.2625 56.5783 46.6718 57.071 46.6718ZM63.3624 46.6718C63.8552 46.6718 64.2567 46.2635 64.2567 45.7589C64.2579 45.6404 64.2358 45.5229 64.1915 45.413C64.1472 45.3031 64.0817 45.203 63.9986 45.1184C63.9156 45.0338 63.8166 44.9664 63.7075 44.92C63.5983 44.8737 63.481 44.8492 63.3624 44.8481C63.1228 44.8506 62.894 44.9479 62.7262 45.1186C62.5583 45.2894 62.4651 45.5197 62.4671 45.7589C62.4671 46.2625 62.8686 46.6718 63.3624 46.6718ZM19.3354 1.8247C19.8281 1.8247 20.2286 1.41642 20.2286 0.911828C20.2299 0.793458 20.2078 0.676002 20.1635 0.566168C20.1193 0.456334 20.0539 0.356272 19.9709 0.271697C19.888 0.187122 19.7892 0.11969 19.6801 0.0732513C19.5711 0.0268129 19.4539 0.00227773 19.3354 0.00104688C19.0961 0.00380891 18.8676 0.101253 18.7002 0.272C18.5327 0.442747 18.4399 0.672851 18.4422 0.911828C18.4422 1.41642 18.8416 1.8247 19.3354 1.8247ZM57.9077 66.5216H64.2242V60.0802H57.9077V66.5216Z" fill="var(--fill-0, #D64F2A)"/>
<path id="Vector_14" d="M0.897276 8.23158C1.39002 8.23158 1.79155 7.8233 1.79155 7.3187C1.79379 7.07955 1.70085 6.84929 1.53317 6.67851C1.36549 6.50773 1.13678 6.41041 0.897276 6.40792C0.657777 6.41041 0.429062 6.50773 0.26138 6.67851C0.0936982 6.84929 0.000766507 7.07955 0.00300231 7.3187C0.00300231 7.8233 0.402438 8.23158 0.897276 8.23158ZM7.1855 8.23158C7.68034 8.23158 8.08082 7.8233 8.08082 7.3187C8.08193 7.2002 8.05965 7.08263 8.01525 6.97272C7.97086 6.86282 7.90522 6.76272 7.82208 6.67814C7.73894 6.59357 7.63993 6.52617 7.5307 6.47981C7.42148 6.43344 7.30418 6.40902 7.1855 6.40792C7.06696 6.40915 6.94982 6.43369 6.84078 6.48013C6.73173 6.52656 6.63292 6.594 6.54997 6.67857C6.46703 6.76315 6.40158 6.86321 6.35736 6.97304C6.31315 7.08288 6.29103 7.20033 6.29228 7.3187C6.29228 7.8233 6.69381 8.23158 7.1855 8.23158ZM0.897276 1.8247C1.39002 1.8247 1.79155 1.41642 1.79155 0.911828C1.7928 0.793321 1.77065 0.675729 1.72638 0.565768C1.68212 0.455806 1.61659 0.355629 1.53355 0.270957C1.4505 0.186284 1.35157 0.118775 1.2424 0.0722841C1.13323 0.0257931 1.01596 0.00123086 0.897276 6.75209e-09C0.778598 0.00123086 0.661324 0.0257931 0.552152 0.0722841C0.44298 0.118775 0.344049 0.186284 0.261006 0.270957C0.177964 0.355629 0.112438 0.455806 0.068169 0.565768C0.0239005 0.675729 0.00175673 0.793321 0.00300231 0.911828C0.00300231 1.41538 0.402438 1.8247 0.897276 1.8247ZM7.1855 1.8247C7.68034 1.8247 8.08082 1.41642 8.08082 0.911828C8.08207 0.793234 8.05989 0.675557 8.01556 0.565528C7.97122 0.455499 7.9056 0.355276 7.82245 0.270589C7.7393 0.185903 7.64024 0.118416 7.53095 0.0719857C7.42166 0.0255557 7.30427 0.0010942 7.1855 6.75209e-09C6.69276 6.75209e-09 6.29332 0.408281 6.29332 0.911828C6.29332 1.41538 6.69381 1.8247 7.1855 1.8247Z" fill="var(--fill-0, #0E182B)"/>
<path id="Vector_15" d="M3.07387 38.1774H0.358548L0.350161 45.7463H1.8829L1.87137 39.3813H3.1221C4.74185 39.3813 5.80177 40.4743 5.80177 41.9075C5.80177 43.5908 4.59927 44.5424 2.81177 44.5424H2.2446V45.7463H3.1221C5.31323 45.7463 7.39847 44.2137 7.39847 41.9179C7.39847 39.665 5.67073 38.1774 3.07387 38.1774ZM12.718 39.1845H9.96911V41.2448H12.6582V42.254H9.96911V44.6817H13.2191V45.6898H8.32105V38.1753H12.718V39.1845Z" fill="var(--fill-0, #D64F2A)"/>
<path id="Vector_16" d="M7.12798 56.1439H5.47992V52.527H2.05379V56.145H0.405726V48.6305H2.05379V51.5178H5.47992V48.6514H7.12798V56.1439ZM10.5824 56.1439V52.9991L8.06734 48.7362L9.91564 48.5206C10.4881 49.6062 11.049 50.6897 11.6224 51.9889C12.2546 50.6907 12.8973 49.6062 13.5284 48.5206L14.885 48.7362L12.2305 52.9991V56.1439H10.5824ZM17.4389 56.1439H15.7908V48.6294H18.3635C20.2108 48.6294 21.3452 49.3371 21.3452 50.7975C21.3452 52.0642 20.1521 53.31 18.1874 53.31H17.8016V52.3762L18.1644 52.3427C18.9485 52.3008 19.696 51.8611 19.696 50.8509C19.696 50.0773 19.1467 49.6386 18.1759 49.6386H17.4399L17.4389 56.1439ZM28.3809 52.2788C28.3809 50.8938 27.691 49.5727 26.0545 49.5727C24.4169 49.5727 23.7271 50.8938 23.7271 52.2788C23.7271 53.7193 24.3352 55.1996 26.0545 55.1996C27.7728 55.1996 28.3809 53.7193 28.3809 52.2788ZM21.9731 52.2788C21.9731 50.1757 23.703 48.5007 26.0545 48.5007C28.405 48.5007 30.1338 50.1757 30.1338 52.2799C30.1338 54.5223 28.5675 56.2737 26.0556 56.2737C23.5394 56.2737 21.9731 54.5223 21.9731 52.2788ZM32.4203 56.1439V49.6386H29.8958V48.6294H36.595V49.6386H34.0694V56.1439H32.4203ZM44.2304 56.1439H42.5813V52.527H39.1552V56.145H37.506V48.6305H39.1552V51.5178H42.5813V48.6514H44.2304V56.1439ZM50.1234 49.6376H47.3766V51.6999H50.0668V52.7081H47.3756V55.1358H50.6277V56.1439H45.7275V48.6294H50.1234V49.6376ZM56.5112 49.6376H53.7644V51.6999H56.4535V52.7081H53.7644V55.1358H57.0144V56.1439H52.1153V48.6294H56.5123V49.6386M59.8304 51.8821H59.8545L62.79 48.5216L64.0984 48.9613L61.339 51.9889L64.6593 55.8435L62.9756 56.2517L59.8545 52.3427H59.8304V56.1439H58.1813V48.6294H59.8304V51.8821ZM4.40847 60.2068C4.04573 59.9817 3.56661 59.7776 3.08645 59.7776C2.39661 59.7776 2.02339 60.1325 2.02339 60.5722C2.02339 61.0642 2.59581 61.4432 3.55403 62.1394C4.65484 62.9455 5.23879 63.5778 5.23879 64.5022C5.23879 65.4464 4.25645 66.5425 2.40814 66.5425C1.55581 66.5425 0.608064 66.3059 0 65.7888L0.597581 64.9303C1.02952 65.2214 1.53274 65.5323 2.26871 65.5323C2.94702 65.5323 3.5425 65.1994 3.5425 64.4917C3.5425 63.6636 2.44379 63.1171 1.78855 62.645C0.994919 62.0535 0.328145 61.5918 0.328145 60.5931C0.328145 59.585 1.43734 58.7695 2.9229 58.7695C3.85911 58.7695 4.60661 59.0804 4.99242 59.4227L4.40847 60.2068ZM13.0493 66.4137H11.4012V62.7947H7.97403V66.4137H6.32597V58.8972H7.97403V61.7855H11.4023V58.9192H13.0493V66.4137ZM20.4918 62.5466C20.4918 61.1626 19.8019 59.8415 18.1644 59.8415C16.5278 59.8415 15.838 61.1626 15.838 62.5466C15.838 63.9881 16.445 65.4674 18.1644 65.4674C19.8837 65.4674 20.4918 63.9881 20.4918 62.5466ZM14.084 62.5466C14.084 60.4445 15.8139 58.7695 18.1644 58.7695C20.5159 58.7695 22.2457 60.4445 22.2457 62.5466C22.2457 64.7911 20.6784 66.5425 18.1644 66.5425C15.6493 66.5425 14.084 64.7911 14.084 62.5466ZM25.1131 66.4137H23.4629V58.8972H26.0356C27.8829 58.8972 29.0173 59.6059 29.0173 61.0642C29.0173 62.333 27.8242 63.5778 25.8606 63.5778H25.4737V62.645L25.8365 62.6115C26.6196 62.5696 27.3692 62.1299 27.3692 61.1197C27.3692 60.3461 26.8188 59.9064 25.849 59.9064H25.111V66.4137M41.4354 7.32917L55.0718 26.5393H63.7839L44.4411 0.423984H38.2546L18.916 26.5393H27.3262L41.4354 7.32917Z" fill="var(--fill-0, #0E182B)"/>
<path id="Vector_17" d="M57.1402 45.6961V26.5383H50.8185L50.8279 39.1908H38.2284L38.2473 26.5383H31.914V45.6961H57.1402ZM19.1698 45.695H25.4852V39.2526H19.1698V45.695Z" fill="var(--fill-0, #0E182B)"/>
</g>
</svg>
