<svg preserveAspectRatio="none" width="100%" height="100%" overflow="visible" style="display: block;" viewBox="0 0 32.6815 24.9745" fill="none" xmlns="http://www.w3.org/2000/svg">
<g id="Group">
<path id="Vector" d="M0.276632 0V10.0768C0.395154 9.87917 0.474251 9.68156 0.553265 9.56296C0.553265 9.56296 1.14604 8.61458 1.46218 8.25903C1.81782 7.82431 2.5292 7.54777 3.31959 7.54777C4.58415 7.54777 4.58415 7.54777 6.04632 7.54777C6.83671 7.54777 7.54801 7.82431 7.90374 8.25903C8.21988 8.61466 8.81265 9.56296 8.81265 9.56296C9.01027 9.91868 9.52394 10.8671 9.99819 11.7364C10.4724 10.867 10.9862 9.91868 11.1837 9.56296C11.1837 9.56296 11.7765 8.61458 12.0926 8.25903C12.4483 7.82431 13.1597 7.54777 13.9501 7.54777C15.2146 7.54777 15.2146 7.54777 16.6769 7.54777C17.4672 7.54777 18.1785 7.82431 18.5342 8.25903C18.8503 8.61466 19.4431 9.56296 19.4431 9.56296C19.6407 9.91868 20.1544 10.8671 20.6287 11.7364C21.1028 10.867 21.6166 9.91868 21.8142 9.56296C21.8142 9.56296 22.407 8.61458 22.7232 8.25903C23.0789 7.82431 23.7902 7.54777 24.5806 7.54777C25.8451 7.54777 25.8451 7.54777 27.3073 7.54777C28.0976 7.54777 28.809 7.82431 29.1646 8.25903C29.4808 8.61466 30.0737 9.56296 30.0737 9.56296C30.3898 10.1557 31.6544 12.4082 32.0495 13.159C32.0495 13.1986 32.089 13.1986 32.089 13.2381C32.089 13.2381 32.1286 13.2776 32.1286 13.3566C32.2472 13.5938 32.0495 13.7518 31.5359 13.8705C31.0616 13.989 30.5083 13.8309 30.3898 13.5938L29.3622 11.855L28.7695 10.8276L28.6904 10.7881C28.6113 10.709 28.4928 10.6695 28.3743 10.6695C28.2162 10.6695 28.0582 10.7486 28.0186 10.9067C28.0186 10.9067 28.0186 10.9462 27.9791 10.9462C27.9791 10.9857 27.9395 11.0647 27.9395 11.1043C27.9395 11.1438 27.9395 11.1833 27.9395 11.2229C28.5718 13.7519 30.034 19.8769 30.4292 21.5366C30.4292 21.5761 30.4687 21.6156 30.4687 21.6551C30.4687 22.0898 30.034 22.2084 29.1645 22.2084C28.3742 22.2084 27.7024 21.8922 27.5838 21.4972L25.924 15.0164L24.1852 21.4972C24.1061 21.8922 23.4343 22.2084 22.6044 22.2084C21.7351 22.2084 21.3004 22.1293 21.3004 21.6551C21.3004 21.6156 21.3004 21.5761 21.34 21.5366C21.7746 19.8373 23.1973 13.7519 23.8296 11.2229C23.8296 11.1833 23.8296 11.1438 23.8296 11.1043C23.8296 11.0647 23.8296 10.9857 23.7901 10.9462C23.7901 10.9462 23.7901 10.9067 23.7505 10.9067C23.6714 10.7881 23.5529 10.6695 23.3948 10.6695C23.2763 10.6695 23.1578 10.7091 23.0787 10.7881L23.0391 10.8671L22.4463 11.8945L21.4189 13.6333C21.3399 13.7914 20.9447 13.9495 20.5496 13.9495C20.1543 13.9495 19.7987 13.7914 19.6802 13.6333L18.6526 11.8945L18.06 10.8671L18.0204 10.7881C17.9413 10.709 17.8228 10.6695 17.7042 10.6695C17.5461 10.6695 17.3881 10.7486 17.3486 10.9067C17.3486 10.9067 17.3486 10.9462 17.309 10.9462C17.309 10.9857 17.2695 11.0647 17.2695 11.1043C17.2695 11.1438 17.2695 11.1833 17.2695 11.2229C17.9018 13.7519 19.3639 19.8769 19.7592 21.5366C19.7592 21.5761 19.7987 21.6156 19.7987 21.6551C19.7987 22.0898 19.364 22.2084 18.4946 22.2084C17.7043 22.2084 17.0324 21.8922 16.9139 21.4972L15.1751 15.0164L13.4363 21.4972C13.3572 21.8922 12.6855 22.2084 11.8556 22.2084C10.9862 22.2084 10.5515 22.1293 10.5515 21.6551C10.5515 21.6156 10.5515 21.5761 10.591 21.5366C11.0257 19.8373 12.4484 13.7519 13.0807 11.2229C13.0807 11.1833 13.0807 11.1438 13.0807 11.1043C13.0807 11.0647 13.0807 10.9857 13.0411 10.9462C13.0411 10.9462 13.0412 10.9067 13.0016 10.9067C12.9225 10.7881 12.804 10.6695 12.6459 10.6695C12.5274 10.6695 12.4089 10.7091 12.3298 10.7881L12.2903 10.8671L11.6975 11.8945L10.7095 13.5938C10.7095 13.5938 10.7095 13.6333 10.67 13.6333C10.5909 13.7914 10.1957 13.9496 9.80049 13.9496C9.40534 13.9496 9.04969 13.7914 8.93109 13.6333C8.93109 13.6333 8.93109 13.5938 8.89158 13.5938L7.90365 11.8945L7.31088 10.8671L7.27138 10.7881C7.19228 10.709 7.07376 10.6695 6.95515 10.6695C6.79704 10.6695 6.63901 10.7486 6.59951 10.9067C6.59951 10.9067 6.59951 10.9462 6.56 10.9462C6.56 10.9857 6.52041 11.0647 6.52041 11.1043C6.52041 11.1438 6.52041 11.1833 6.52041 11.2229C7.15269 13.7519 8.61487 19.8769 9.0101 21.5366C9.0101 21.5761 9.04969 21.6156 9.04969 21.6551C9.04969 22.0898 8.61495 22.2084 7.74554 22.2084C6.95515 22.2084 6.28337 21.8922 6.16485 21.4972L4.42604 15.0164L2.68723 21.4972C2.60821 21.8922 1.93643 22.2084 1.10653 22.2084C0.592772 22.2084 0.197618 22.1688 0 22.0503V24.9745H32.6815V0H0.276632ZM4.58407 6.91535C3.51704 6.87585 2.64764 5.96697 2.68715 4.90008C2.72665 3.8331 3.63556 2.96373 4.70259 3.00324C5.76961 3.04275 6.63901 3.95162 6.59942 5.0186C6.59951 6.08557 5.6906 6.95494 4.58407 6.91535ZM15.254 6.91535C14.187 6.87585 13.3176 5.96697 13.3571 4.90008C13.3967 3.8331 14.3056 2.96373 15.3726 3.00324C16.4396 3.04275 17.3089 3.95162 17.2694 5.0186C17.2298 6.08557 16.3209 6.95494 15.254 6.91535ZM25.8844 6.91535C24.8174 6.87585 23.9479 5.96697 23.9875 4.90008C24.027 3.8331 24.9359 2.96373 26.003 3.00324C27.0699 3.04275 27.9392 3.95162 27.8998 5.0186C27.8603 6.08557 26.9514 6.95494 25.8844 6.91535Z" fill="url(#paint0_linear_0_7)"/>
</g>
<defs>
<linearGradient id="paint0_linear_0_7" x1="-3.80797" y1="12.4019" x2="94.7967" y2="12.8119" gradientUnits="userSpaceOnUse">
<stop offset="0.0197" stop-color="white" stop-opacity="0"/>
<stop offset="0.0493" stop-color="#D1E7F3" stop-opacity="0.1624"/>
<stop offset="0.1049" stop-color="#83BDE1" stop-opacity="0.4674"/>
<stop offset="0.1506" stop-color="#479DD3" stop-opacity="0.7183"/>
<stop offset="0.1842" stop-color="#258ACA" stop-opacity="0.9024"/>
<stop offset="0.2019" stop-color="#1983C6"/>
<stop offset="0.7118" stop-color="#1983C6"/>
<stop offset="1" stop-color="#005687"/>
</linearGradient>
</defs>
</svg>
