<svg preserveAspectRatio="none" width="100%" height="100%" overflow="visible" style="display: block;" viewBox="0 0 58.2497 24.6187" fill="none" xmlns="http://www.w3.org/2000/svg">
<g id="Group">
<path id="Vector" d="M4.78177 6.59923L2.25257 2.76612C2.25257 2.72662 2.17347 2.64753 2.13396 2.52901C2.09437 2.44992 2.05495 2.41033 2.05495 2.41033C2.01536 2.3314 2.01536 2.29181 1.97585 2.21288V6.55964H0.908829V0.632252H2.2129L4.70259 4.54428C4.70259 4.54428 4.7421 4.62338 4.78161 4.66296C4.8212 4.74189 4.8212 4.74189 4.8212 4.78148L4.8607 4.9395L4.90029 5.05802V0.592747H5.96723V6.55964H4.78177V6.59923Z" fill="var(--fill-0, #005687)"/>
<path id="Vector_2" d="M10.4328 6.36203C9.99812 6.55964 9.56337 6.67815 9.04961 6.67815C7.82464 6.67815 7.03426 5.84829 7.03426 4.58387C7.03426 3.27978 7.94316 2.25239 9.12871 2.25239C10.1563 2.25239 10.8674 3.04275 10.8674 4.14923V4.62338H8.10119C8.10119 4.97909 8.14078 5.09761 8.2593 5.29522C8.45683 5.61134 8.81249 5.80895 9.20773 5.80895C9.36584 5.80895 9.52386 5.80895 9.68197 5.72986C9.91901 5.65077 10.077 5.57184 10.4723 5.33464L10.8674 6.1645C10.6698 6.24351 10.5119 6.32261 10.4328 6.36203ZM9.04961 3.04275C8.57552 3.04275 8.2593 3.35887 8.18029 3.91203H9.80058C9.76107 3.31928 9.56337 3.04275 9.04961 3.04275Z" fill="var(--fill-0, #005687)"/>
<path id="Vector_3" d="M14.1475 6.52013V5.96689C13.9894 6.20409 13.9103 6.2831 13.7127 6.40162C13.4756 6.55964 13.1989 6.63873 12.9224 6.63873C11.9345 6.63873 11.2231 5.76928 11.2231 4.54428C11.2231 3.24036 12.0925 2.21297 13.1989 2.21297C13.3175 2.21297 13.4361 2.21297 13.5547 2.25247C13.7918 2.29198 13.8708 2.33157 14.1079 2.4895V1.41775e-09H15.175V6.55972H14.1474L14.1475 6.52013ZM14.1475 4.03055C14.1475 3.79351 14.1079 3.5959 14.1079 3.47739C14.0289 3.24027 13.7523 3.08217 13.3965 3.08217C12.8039 3.08217 12.3691 3.67492 12.3691 4.46527C12.3691 5.21604 12.7249 5.72978 13.2386 5.72978C13.5547 5.72978 13.9103 5.49266 14.1475 5.09752V4.03055Z" fill="var(--fill-0, #005687)"/>
<path id="Vector_4" d="M19.4034 6.36203C18.9687 6.55964 18.534 6.67815 18.0203 6.67815C16.7953 6.67815 16.0049 5.84829 16.0049 4.58387C16.0049 3.27978 16.9138 2.25239 18.0994 2.25239C19.1268 2.25239 19.838 3.04275 19.838 4.14923V4.62338H17.0719C17.0719 4.97909 17.1114 5.09761 17.2299 5.29522C17.4275 5.61134 17.7831 5.80895 18.1783 5.80895C18.3364 5.80895 18.4945 5.80895 18.6526 5.72986C18.8896 5.65077 19.0477 5.57184 19.4429 5.33464L19.8379 6.1645C19.6405 6.24351 19.4824 6.32261 19.4034 6.36203ZM18.0203 3.04275C17.5461 3.04275 17.23 3.35887 17.1508 3.91203H18.7711C18.7316 3.31928 18.534 3.04275 18.0203 3.04275Z" fill="var(--fill-0, #005687)"/>
<path id="Vector_5" d="M22.7229 3.63549C22.6044 3.5564 22.5253 3.51681 22.4068 3.51681C22.2487 3.51681 22.0511 3.63549 21.8931 3.83294C21.6954 4.07013 21.6163 4.30717 21.6163 4.62329V6.52013H20.5494V2.3709H21.4582L21.4978 3.27978C21.893 2.56851 22.1696 2.29181 22.4858 2.29181C22.7228 2.29181 22.8808 2.3709 23.0784 2.56843L22.7229 3.63549Z" fill="var(--fill-0, #005687)"/>
<path id="Vector_6" d="M23.5528 6.52013V1.41775e-09H24.6198V6.55972H23.5528V6.52013Z" fill="var(--fill-0, #005687)"/>
<path id="Vector_7" d="M28.9667 6.59923H28.7297C28.1764 6.59923 28.0184 6.52013 27.8208 6.125C27.4256 6.48063 27.07 6.63873 26.6352 6.63873C25.9239 6.63873 25.4102 6.1645 25.4102 5.49274C25.4102 5.33464 25.4498 5.21612 25.4892 5.05802C25.6473 4.66296 25.8844 4.46535 26.4771 4.30725L27.6628 3.95162V3.5959C27.6628 3.16126 27.5046 2.92406 27.1489 2.92406C26.8329 2.92406 26.5562 3.08217 26.5562 3.31928C26.5562 3.35887 26.5562 3.35887 26.5957 3.43788L25.5682 3.675C25.5287 3.55648 25.5287 3.51689 25.5287 3.39838C25.5287 2.64761 26.161 2.25239 27.307 2.25239C28.295 2.25239 28.7691 2.64753 28.7691 3.5959V5.33464C28.7691 5.72986 28.8087 5.76928 29.0853 5.80887L28.9667 6.59923ZM27.7417 4.66296L26.6748 5.0186C26.5957 5.1767 26.5957 5.25563 26.5957 5.37431C26.5957 5.65085 26.7538 5.80895 27.0304 5.80895C27.149 5.80895 27.3465 5.76936 27.4652 5.69035C27.5441 5.65077 27.5837 5.61126 27.7418 5.49274L27.7417 4.66296Z" fill="var(--fill-0, #005687)"/>
<path id="Vector_8" d="M32.642 6.52013V3.83302C32.642 3.31937 32.563 3.12176 32.2863 3.12176C32.0492 3.12176 31.7331 3.35895 31.2984 3.83302L31.1403 3.99112V6.52022H30.0733V2.3709H31.1403V3.04275C31.6541 2.48942 32.0492 2.25239 32.6024 2.25239C33.3533 2.25239 33.7485 2.64753 33.7485 3.43788V6.52013H32.642Z" fill="var(--fill-0, #005687)"/>
<path id="Vector_9" d="M37.4632 6.52013V5.96689C37.3051 6.20409 37.2261 6.2831 37.0285 6.40162C36.7914 6.55964 36.5147 6.63873 36.2382 6.63873C35.2502 6.63873 34.5388 5.76928 34.5388 4.54428C34.5388 3.24036 35.4083 2.21297 36.5147 2.21297C36.6334 2.21297 36.7519 2.21297 36.8704 2.25247C37.1074 2.29198 37.1865 2.33157 37.4237 2.4895V1.41775e-09H38.4906V6.55972H37.4631L37.4632 6.52013ZM37.4632 4.03055C37.4632 3.79351 37.4237 3.5959 37.4237 3.47739C37.3446 3.24027 37.0679 3.08217 36.7123 3.08217C36.1196 3.08217 35.6849 3.67492 35.6849 4.46527C35.6849 5.21604 36.0405 5.72978 36.5542 5.72978C36.8704 5.72978 37.2261 5.49266 37.4632 5.09752V4.03055Z" fill="var(--fill-0, #005687)"/>
<path id="Vector_10" d="M42.4425 3.51689C42.3239 3.43788 42.2448 3.39838 42.1658 3.31928C41.8892 3.12167 41.494 3.04275 41.2173 3.04275C40.8222 3.04275 40.5455 3.20077 40.5455 3.43788C40.5455 3.63549 40.7036 3.75401 41.0592 3.87252C41.5335 4.03055 42.1262 4.30717 42.3239 4.46527C42.6005 4.66288 42.7586 5.01843 42.7586 5.37414C42.7586 6.12491 42.0867 6.63865 41.0989 6.63865C40.9013 6.63865 40.6641 6.59914 40.427 6.55956C40.0319 6.48046 39.8343 6.40153 39.3995 6.16434L39.7552 5.29505C40.1898 5.57167 40.3479 5.65068 40.6641 5.72969C40.8222 5.7692 40.9802 5.80879 41.1383 5.80879C41.5335 5.80879 41.81 5.69019 41.81 5.45307C41.81 5.25546 41.6916 5.13695 41.3754 5.01843L40.6641 4.74173C39.9133 4.46519 39.5971 4.07005 39.5971 3.51673C39.5971 2.72645 40.269 2.2128 41.2965 2.2128C41.4941 2.2128 41.7312 2.25231 42.0077 2.29173C42.4029 2.37082 42.561 2.41024 42.9166 2.64744L42.4425 3.51689Z" fill="var(--fill-0, #005687)"/>
<path id="Vector_11" d="M46.7105 6.36203C46.2758 6.55964 45.841 6.67815 45.3273 6.67815C44.1023 6.67815 43.312 5.84829 43.312 4.58387C43.312 3.27978 44.2208 2.25239 45.4064 2.25239C46.4338 2.25239 47.1451 3.04275 47.1451 4.14923V4.62338H44.3789C44.3789 4.97909 44.4184 5.09761 44.537 5.29522C44.7346 5.61134 45.0902 5.80895 45.4854 5.80895C45.6435 5.80895 45.8016 5.80895 45.9597 5.72986C46.1967 5.65077 46.3547 5.57184 46.75 5.33464L47.1451 6.1645C46.987 6.24351 46.829 6.32261 46.7105 6.36203ZM45.3272 3.04275C44.8531 3.04275 44.5369 3.35887 44.4578 3.91203H46.0781C46.0782 3.31928 45.841 3.04275 45.3272 3.04275Z" fill="var(--fill-0, #005687)"/>
<path id="Vector_12" d="M3.00337 15.688H2.21306L2.32333e-06 9.60247H1.22506L2.56863 13.5936V13.6726V13.7517L2.60822 13.8702V13.7912C2.60822 13.7123 2.60822 13.6726 2.64781 13.6333L2.68732 13.5542L3.99138 9.56296H5.17692L3.00337 15.688Z" fill="var(--fill-0, #005687)"/>
<path id="Vector_13" d="M8.29881 15.3324C7.86415 15.5299 7.42933 15.6485 6.91582 15.6485C5.69077 15.6485 4.90029 14.8187 4.90029 13.5541C4.90029 12.25 5.8092 11.2226 6.99475 11.2226C8.02226 11.2226 8.73363 12.013 8.73363 13.1194V13.5935H5.96723C5.96723 13.9492 6.00673 14.0677 6.12534 14.2653C6.32296 14.5815 6.67852 14.7791 7.07376 14.7791C7.23178 14.7791 7.3899 14.7791 7.54801 14.7C7.78505 14.6211 7.94316 14.542 8.3384 14.3049L8.73355 15.1347C8.53602 15.2137 8.41733 15.2927 8.29881 15.3324ZM6.91573 12.013C6.44148 12.013 6.12534 12.3291 6.04624 12.8822H7.66653C7.62694 12.2896 7.42932 12.013 6.91573 12.013Z" fill="var(--fill-0, #005687)"/>
<path id="Vector_14" d="M11.6578 12.6058C11.5392 12.5267 11.4602 12.4872 11.3417 12.4872C11.1837 12.4872 10.986 12.6058 10.8279 12.8033C10.6303 13.0403 10.5514 13.2774 10.5514 13.5936V15.4903H9.48435V11.3411H10.3933L10.4328 12.25C10.8279 11.5387 11.1046 11.262 11.4208 11.262C11.6578 11.262 11.8159 11.3411 12.0136 11.5782L11.6578 12.6058Z" fill="var(--fill-0, #005687)"/>
<path id="Vector_15" d="M15.5306 15.3324C15.0959 15.5299 14.6613 15.6485 14.1476 15.6485C12.9225 15.6485 12.1322 14.8187 12.1322 13.5541C12.1322 12.25 13.0411 11.2226 14.2266 11.2226C15.2541 11.2226 15.9653 12.013 15.9653 13.1194V13.5935H13.199C13.199 13.9492 13.2386 14.0677 13.3571 14.2653C13.5548 14.5815 13.9103 14.7791 14.3056 14.7791C14.4637 14.7791 14.6217 14.7791 14.7798 14.7C15.0168 14.6211 15.175 14.542 15.5701 14.3049L15.9653 15.1347C15.7678 15.2137 15.6097 15.2927 15.5306 15.3324ZM14.1475 12.013C13.6733 12.013 13.3571 12.3291 13.278 12.8822H14.8983C14.8589 12.2896 14.6613 12.013 14.1475 12.013Z" fill="var(--fill-0, #005687)"/>
<path id="Vector_16" d="M19.3639 15.5299V12.8427C19.3639 12.329 19.2848 12.1315 19.0082 12.1315C18.7712 12.1315 18.455 12.3685 18.0203 12.8427L17.8622 13.0008V15.5299H16.7953V11.3411H17.8622V12.013C18.3759 11.4596 18.7712 11.2226 19.3244 11.2226C20.0752 11.2226 20.4704 11.6177 20.4704 12.4082V15.4903H19.3639L19.3639 15.5299Z" fill="var(--fill-0, #005687)"/>
<path id="Vector_17" d="M22.1301 10.5508C21.814 10.5508 21.5374 10.2346 21.5374 9.83958C21.5374 9.44436 21.814 9.12832 22.1301 9.12832C22.4462 9.12832 22.7229 9.44445 22.7229 9.83958C22.7229 10.2346 22.4858 10.5508 22.1301 10.5508ZM21.6163 15.5299V11.3411H22.6834V15.5299H21.6163Z" fill="var(--fill-0, #005687)"/>
<path id="Vector_18" d="M26.9909 12.1315C27.1489 12.3291 27.1885 12.4872 27.1885 12.7637C27.1885 13.7122 26.4377 14.3444 25.3707 14.3444C25.2522 14.3444 25.2126 14.3444 25.0546 14.3048C24.7779 14.5024 24.6594 14.6605 24.6594 14.7395C24.6594 14.8184 24.7385 14.8581 24.9361 14.8581H26.3982C27.2282 14.8581 27.5837 15.1742 27.5837 15.8461C27.5837 16.8735 26.5958 17.6242 25.1731 17.6242C24.1456 17.6242 23.4738 17.1896 23.4738 16.5573C23.4738 16.2411 23.6715 15.9646 24.1456 15.5299C23.7505 15.3718 23.5529 15.2137 23.5529 14.9767C23.5529 14.7396 23.711 14.542 24.1061 14.2654C24.1456 14.2259 24.2642 14.1864 24.3828 14.0677C24.1852 13.9098 24.1061 13.8701 24.0271 13.7517C23.79 13.475 23.6714 13.1194 23.6714 12.7242C23.6714 11.7363 24.3432 11.104 25.4498 11.104C25.7658 11.104 25.9239 11.1435 26.3193 11.2621H26.9515L27.7814 11.2225V12.0129H26.991V12.1315H26.9909ZM26.0425 15.7671H24.7384C24.6988 15.8461 24.6593 15.8857 24.6593 15.9251C24.5408 16.1227 24.4617 16.2808 24.4617 16.3993C24.4617 16.6759 24.8568 16.8735 25.3312 16.8735C25.6473 16.8735 26.003 16.7549 26.2401 16.5573C26.4377 16.3993 26.5562 16.2017 26.5562 16.0435C26.5562 15.8461 26.3981 15.7671 26.0425 15.7671ZM25.3706 12.013C24.9754 12.013 24.6987 12.3685 24.6987 12.8033C24.6987 13.238 25.0149 13.5541 25.3706 13.5541C25.7263 13.5541 26.0425 13.1985 26.0425 12.7638C26.082 12.3291 25.7658 12.013 25.3706 12.013Z" fill="var(--fill-0, #005687)"/>
<path id="Vector_19" d="M28.9273 10.5508C28.6112 10.5508 28.3345 10.2346 28.3345 9.83958C28.3345 9.44436 28.6112 9.12832 28.9273 9.12832C29.2435 9.12832 29.5201 9.44445 29.5201 9.83958C29.52 10.2346 29.2435 10.5508 28.9273 10.5508ZM28.374 15.5299V11.3411H29.441V15.5299H28.374Z" fill="var(--fill-0, #005687)"/>
<path id="Vector_20" d="M33.2347 15.5299V12.8427C33.2347 12.329 33.1558 12.1315 32.8791 12.1315C32.642 12.1315 32.3259 12.3685 31.8911 12.8427L31.7331 13.0008V15.5299H30.6661V11.3411H31.7331V12.013C32.2468 11.4596 32.642 11.2226 33.1952 11.2226C33.9461 11.2226 34.3413 11.6177 34.3413 12.4082V15.4903H33.2347L33.2347 15.5299Z" fill="var(--fill-0, #005687)"/>
<path id="Vector_21" d="M38.6488 12.1315C38.8068 12.3291 38.8464 12.4872 38.8464 12.7637C38.8464 13.7122 38.0955 14.3444 37.0286 14.3444C36.9099 14.3444 36.8705 14.3444 36.7124 14.3048C36.4358 14.5024 36.3173 14.6605 36.3173 14.7395C36.3173 14.8184 36.3964 14.8581 36.594 14.8581H38.0561C38.8859 14.8581 39.2417 15.1742 39.2417 15.8461C39.2417 16.8735 38.2537 17.6242 36.831 17.6242C35.8035 17.6242 35.1317 17.1896 35.1317 16.5573C35.1317 16.2411 35.3294 15.9646 35.8035 15.5299C35.4084 15.3718 35.2108 15.2137 35.2108 14.9767C35.2108 14.7396 35.3689 14.542 35.764 14.2654C35.8035 14.2259 35.9221 14.1864 36.0406 14.0677C35.843 13.9098 35.764 13.8701 35.685 13.7517C35.4478 13.475 35.3293 13.1194 35.3293 12.7242C35.3293 11.7363 36.0011 11.104 37.1077 11.104C37.4237 11.104 37.5818 11.1435 37.977 11.2621H38.6094L39.4393 11.2225V12.0129H38.6489L38.6488 12.1315ZM37.7003 15.7671H36.3963C36.3567 15.8461 36.3172 15.8857 36.3172 15.9251C36.1987 16.1227 36.1196 16.2808 36.1196 16.3993C36.1196 16.6759 36.5147 16.8735 36.989 16.8735C37.3051 16.8735 37.6609 16.7549 37.8979 16.5573C38.0955 16.3993 38.214 16.2017 38.214 16.0435C38.2536 15.8461 38.056 15.7671 37.7003 15.7671ZM37.068 12.013C36.6729 12.013 36.3963 12.3685 36.3963 12.8033C36.3963 13.238 36.7123 13.5541 37.068 13.5541C37.4237 13.5541 37.7399 13.1985 37.7399 12.7638C37.7399 12.3292 37.4237 12.013 37.068 12.013Z" fill="var(--fill-0, #005687)"/>
<path id="Vector_22" d="M44.2208 15.5299H43.1538L41.7707 11.3411H42.8772L43.7071 14.1072L43.7467 14.3049L43.7863 14.1072L44.7348 11.3411H45.8412L44.2208 15.5299Z" fill="var(--fill-0, #005687)"/>
<path id="Vector_23" d="M48.1726 15.6485C46.987 15.6485 46.0782 14.7 46.0782 13.4356C46.0782 12.171 46.987 11.2227 48.1726 11.2227C49.3582 11.2227 50.2671 12.1711 50.2671 13.4356C50.3065 14.6606 49.3976 15.6485 48.1726 15.6485ZM48.1726 12.0921C47.6194 12.0921 47.1847 12.6847 47.1847 13.4356C47.1847 14.1864 47.6194 14.7792 48.1726 14.7792C48.7258 14.7792 49.1605 14.1864 49.1605 13.4356C49.1605 12.6847 48.7258 12.0921 48.1726 12.0921Z" fill="var(--fill-0, #005687)"/>
<path id="Vector_24" d="M52.8357 15.6485C51.6502 15.6485 50.7413 14.7 50.7413 13.4356C50.7413 12.171 51.6502 11.2227 52.8357 11.2227C54.0214 11.2227 54.9303 12.1711 54.9303 13.4356C54.9303 14.6606 54.0214 15.6485 52.8357 15.6485ZM52.8357 12.0921C52.2826 12.0921 51.8479 12.6847 51.8479 13.4356C51.8479 14.1864 52.2826 14.7792 52.8357 14.7792C53.3889 14.7792 53.8237 14.1864 53.8237 13.4356C53.8237 12.6847 53.3495 12.0921 52.8357 12.0921Z" fill="var(--fill-0, #005687)"/>
<path id="Vector_25" d="M57.894 12.6058C57.7755 12.5267 57.6964 12.4872 57.5779 12.4872C57.4198 12.4872 57.2222 12.6058 57.0641 12.8033C56.8665 13.0403 56.7875 13.2774 56.7875 13.5936V15.4903H55.7206V11.3411H56.6294L56.669 12.25C57.0641 11.5387 57.3409 11.262 57.6569 11.262C57.894 11.262 58.0521 11.3411 58.2497 11.5782L57.894 12.6058Z" fill="var(--fill-0, #005687)"/>
<path id="Vector_26" d="M4.14941 24.5002L3.67532 23.0381H1.6993L1.22522 24.5002H0.0395924L2.17355 18.5727H3.20107L5.33503 24.5002H4.14941ZM2.68723 19.9163L2.01536 22.0501H3.39853L2.68723 19.9163Z" fill="var(--fill-0, #005687)"/>
<path id="Vector_27" d="M8.53602 24.5002V23.7889C8.02218 24.3421 7.6271 24.5792 7.07376 24.5792C6.32295 24.5792 5.9278 24.184 5.9278 23.3937V20.3113H6.99475V22.9985C6.99475 23.5123 7.07376 23.7098 7.35047 23.7098C7.58751 23.7098 7.90366 23.4727 8.37799 22.9985L8.5361 22.8404V20.3113H9.60296V24.5002H8.53602Z" fill="var(--fill-0, #005687)"/>
<path id="Vector_28" d="M12.6457 24.342C12.3297 24.5397 12.0136 24.6187 11.6973 24.6187C11.1441 24.6187 10.8674 24.342 10.8674 23.7098V21.1017H10.2747V20.4299L10.9069 20.3113V19.0467H11.9345V20.3113H12.8433V21.1016H11.9345V22.9589C11.9345 23.4331 11.974 23.5516 12.1321 23.5516C12.2506 23.5516 12.4087 23.4726 12.7248 23.275L13.0805 24.0653C12.8829 24.1839 12.7644 24.263 12.6457 24.342Z" fill="var(--fill-0, #005687)"/>
<path id="Vector_29" d="M14.1475 19.5606C13.8314 19.5606 13.5547 19.2444 13.5547 18.8493C13.5547 18.4542 13.8314 18.138 14.1475 18.138C14.4637 18.138 14.7402 18.4542 14.7402 18.8493C14.7402 19.2444 14.4637 19.5606 14.1475 19.5606ZM13.5943 24.5002V20.3113H14.6613V24.5002H13.5943Z" fill="var(--fill-0, #005687)"/>
<path id="Vector_30" d="M18.5735 21.4574C18.455 21.3783 18.3759 21.3387 18.2969 21.2598C17.9807 21.0622 17.6251 20.9831 17.3484 20.9831C16.9532 20.9831 16.6766 21.1412 16.6766 21.3782C16.6766 21.5758 16.8347 21.6944 17.1902 21.813C17.6645 21.9711 18.2573 22.2476 18.4549 22.4057C18.7316 22.6033 18.8896 22.9589 18.8896 23.3146C18.8896 24.0653 18.2179 24.5791 17.2299 24.5791C17.0323 24.5791 16.7952 24.5396 16.558 24.5001C16.1629 24.4211 15.9653 24.342 15.5305 24.105L15.8862 23.2356C16.321 23.5122 16.4791 23.5913 16.7951 23.6702C16.9532 23.7098 17.1113 23.7492 17.2693 23.7492C17.6645 23.7492 17.9412 23.6307 17.9412 23.3937C17.9412 23.196 17.8226 23.0775 17.5065 22.9589L16.7952 22.6823C16.0443 22.4056 15.7282 22.0105 15.7282 21.4573C15.7282 20.667 16.4 20.1533 17.4275 20.1533C17.6251 20.1533 17.8622 20.1928 18.0994 20.2323C18.4945 20.3113 18.6526 20.3509 19.0082 20.588L18.5735 21.4574Z" fill="var(--fill-0, #005687)"/>
<path id="Vector_31" d="M25.0545 24.5002V21.813C25.0545 21.2993 24.9754 21.1018 24.6987 21.1018C24.5802 21.1018 24.3431 21.2203 24.106 21.4178C23.9479 21.5364 23.7899 21.6945 23.5133 22.0106V24.5002H22.4462V21.813C22.4462 21.2993 22.3673 21.1018 22.0906 21.1018C21.8534 21.1018 21.5374 21.3388 21.1026 21.813L20.9446 21.9711V24.5002H19.8776V20.3113H20.9446V20.9832C21.4582 20.43 21.8534 20.1929 22.4067 20.1929C23.0389 20.1929 23.3947 20.4695 23.5133 21.0227C23.9875 20.4695 24.4617 20.1929 24.9754 20.1929C25.7262 20.1929 26.1213 20.588 26.1213 21.3784V24.5002H25.0545Z" fill="var(--fill-0, #005687)"/>
<path id="Vector_32" d="M30.3105 24.3026C29.8757 24.5001 29.441 24.6187 28.9273 24.6187C27.7023 24.6187 26.9119 23.7888 26.9119 22.5243C26.9119 21.2202 27.8208 20.1928 29.0063 20.1928C30.0338 20.1928 30.7451 20.9831 30.7451 22.0896V22.5637H27.9789C27.9789 22.9194 28.0184 23.038 28.1368 23.2356C28.3345 23.5516 28.6902 23.7492 29.0854 23.7492C29.2435 23.7492 29.4015 23.7492 29.5595 23.6702C29.7966 23.5913 29.9547 23.5122 30.3499 23.2751L30.745 24.105C30.587 24.1839 30.4289 24.263 30.3105 24.3026ZM28.9273 21.0226C28.4531 21.0226 28.1369 21.3387 28.0579 21.892H29.6782C29.6781 21.2598 29.441 21.0226 28.9273 21.0226Z" fill="var(--fill-0, #005687)"/>
</g>
</svg>
