<svg width="164" height="25" viewBox="0 0 164 25" fill="none" xmlns="http://www.w3.org/2000/svg">
<g clip-path="url(#clip0_302_306)">
<path d="M110.615 6.83644L108.086 3.00333C108.086 2.96383 108.007 2.88473 107.967 2.76622C107.927 2.68712 107.888 2.64754 107.888 2.64754C107.848 2.56861 107.848 2.52902 107.809 2.45009V6.79685H106.742V0.869462H108.046L110.536 4.78149C110.536 4.78149 110.575 4.86059 110.615 4.90017C110.654 4.9791 110.654 4.9791 110.654 5.01869L110.694 5.17671L110.733 5.29523V0.829956H111.8V6.79685H110.615V6.83644Z" fill="#005687"/>
<path d="M116.266 6.59926C115.831 6.79687 115.397 6.91539 114.883 6.91539C113.658 6.91539 112.867 6.08553 112.867 4.82111C112.867 3.51701 113.776 2.48962 114.962 2.48962C115.989 2.48962 116.701 3.27998 116.701 4.38646V4.86061H113.934C113.934 5.21633 113.974 5.33484 114.092 5.53245C114.29 5.84858 114.646 6.04619 115.041 6.04619C115.199 6.04619 115.357 6.04619 115.515 5.96709C115.752 5.888 115.91 5.80907 116.305 5.57187L116.701 6.40174C116.503 6.48075 116.345 6.55984 116.266 6.59926ZM114.883 3.27998C114.409 3.27998 114.092 3.59611 114.013 4.14927H115.634C115.594 3.55652 115.397 3.27998 114.883 3.27998Z" fill="#005687"/>
<path d="M119.981 6.75732V6.20407C119.822 6.44127 119.743 6.52028 119.546 6.6388C119.309 6.79682 119.032 6.87592 118.755 6.87592C117.768 6.87592 117.056 6.00646 117.056 4.78147C117.056 3.47754 117.926 2.45015 119.032 2.45015C119.151 2.45015 119.269 2.45015 119.388 2.48965C119.625 2.52916 119.704 2.56875 119.941 2.72669V0.237183H121.008V6.7969H119.981L119.981 6.75732ZM119.981 4.26773C119.981 4.0307 119.941 3.83309 119.941 3.71457C119.862 3.47746 119.585 3.31935 119.23 3.31935C118.637 3.31935 118.202 3.9121 118.202 4.70245C118.202 5.45322 118.558 5.96696 119.072 5.96696C119.388 5.96696 119.743 5.72984 119.981 5.33471V4.26773Z" fill="#005687"/>
<path d="M125.237 6.59926C124.802 6.79687 124.367 6.91539 123.853 6.91539C122.628 6.91539 121.838 6.08553 121.838 4.82111C121.838 3.51701 122.747 2.48962 123.933 2.48962C124.96 2.48962 125.671 3.27998 125.671 4.38646V4.86061H122.905C122.905 5.21633 122.945 5.33484 123.063 5.53245C123.261 5.84858 123.616 6.04619 124.011 6.04619C124.17 6.04619 124.328 6.04619 124.486 5.96709C124.723 5.888 124.881 5.80907 125.276 5.57187L125.671 6.40174C125.474 6.48075 125.316 6.55984 125.237 6.59926ZM123.853 3.27998C123.379 3.27998 123.063 3.59611 122.984 4.14927H124.604C124.565 3.55652 124.367 3.27998 123.853 3.27998Z" fill="#005687"/>
<path d="M128.556 3.87273C128.438 3.79364 128.358 3.75405 128.24 3.75405C128.082 3.75405 127.884 3.87273 127.726 4.07018C127.529 4.30738 127.45 4.54441 127.45 4.86053V6.75737H126.383V2.60815H127.291L127.331 3.51702C127.726 2.80576 128.003 2.52905 128.319 2.52905C128.556 2.52905 128.714 2.60815 128.912 2.80567L128.556 3.87273Z" fill="#005687"/>
<path d="M129.386 6.75732V0.237183H130.453V6.7969H129.386V6.75732Z" fill="#005687"/>
<path d="M134.8 6.83646H134.563C134.01 6.83646 133.852 6.75737 133.654 6.36223C133.259 6.71786 132.903 6.87597 132.468 6.87597C131.757 6.87597 131.243 6.40174 131.243 5.72998C131.243 5.57188 131.283 5.45336 131.322 5.29525C131.48 4.9002 131.717 4.70259 132.31 4.54449L133.496 4.18885V3.83314C133.496 3.3985 133.338 3.1613 132.982 3.1613C132.666 3.1613 132.389 3.3194 132.389 3.55652C132.389 3.59611 132.389 3.59611 132.429 3.67512L131.401 3.91223C131.362 3.79372 131.362 3.75413 131.362 3.63561C131.362 2.88484 131.994 2.48962 133.14 2.48962C134.128 2.48962 134.602 2.88476 134.602 3.83314V5.57187C134.602 5.96709 134.642 6.00652 134.918 6.04611L134.8 6.83646ZM133.575 4.9002L132.508 5.25583C132.429 5.41394 132.429 5.49286 132.429 5.61155C132.429 5.88808 132.587 6.04619 132.863 6.04619C132.982 6.04619 133.18 6.0066 133.298 5.92759C133.377 5.888 133.417 5.8485 133.575 5.72998L133.575 4.9002Z" fill="#005687"/>
<path d="M138.475 6.75737V4.07025C138.475 3.5566 138.396 3.35899 138.119 3.35899C137.882 3.35899 137.566 3.59619 137.132 4.07025L136.973 4.22836V6.75745H135.906V2.60814H136.973V3.27998C137.487 2.72666 137.882 2.48962 138.435 2.48962C139.186 2.48962 139.582 2.88476 139.582 3.67512V6.75737H138.475Z" fill="#005687"/>
<path d="M143.296 6.75732V6.20407C143.138 6.44127 143.059 6.52028 142.862 6.6388C142.625 6.79682 142.348 6.87592 142.071 6.87592C141.083 6.87592 140.372 6.00646 140.372 4.78147C140.372 3.47754 141.241 2.45015 142.348 2.45015C142.466 2.45015 142.585 2.45015 142.704 2.48965C142.941 2.52916 143.02 2.56875 143.257 2.72669V0.237183H144.324V6.7969H143.296L143.296 6.75732ZM143.296 4.26773C143.296 4.0307 143.257 3.83309 143.257 3.71457C143.178 3.47746 142.901 3.31935 142.545 3.31935C141.953 3.31935 141.518 3.9121 141.518 4.70245C141.518 5.45322 141.874 5.96696 142.387 5.96696C142.704 5.96696 143.059 5.72984 143.296 5.33471V4.26773Z" fill="#005687"/>
<path d="M148.276 3.75404C148.157 3.67503 148.078 3.63553 147.999 3.55643C147.722 3.35882 147.327 3.2799 147.05 3.2799C146.655 3.2799 146.379 3.43792 146.379 3.67503C146.379 3.87264 146.537 3.99116 146.892 4.10968C147.367 4.2677 147.959 4.54432 148.157 4.70242C148.434 4.90003 148.592 5.25558 148.592 5.6113C148.592 6.36206 147.92 6.8758 146.932 6.8758C146.734 6.8758 146.497 6.83629 146.26 6.79671C145.865 6.71761 145.667 6.63869 145.233 6.40149L145.588 5.5322C146.023 5.80882 146.181 5.88783 146.497 5.96684C146.655 6.00635 146.813 6.04594 146.971 6.04594C147.367 6.04594 147.643 5.92734 147.643 5.69022C147.643 5.49261 147.525 5.3741 147.209 5.25558L146.497 4.97888C145.746 4.70234 145.43 4.3072 145.43 3.75388C145.43 2.9636 146.102 2.44995 147.13 2.44995C147.327 2.44995 147.564 2.48946 147.841 2.52888C148.236 2.60797 148.394 2.6474 148.75 2.88459L148.276 3.75404Z" fill="#005687"/>
<path d="M152.544 6.59926C152.109 6.79687 151.674 6.91539 151.16 6.91539C149.935 6.91539 149.145 6.08553 149.145 4.82111C149.145 3.51701 150.054 2.48962 151.24 2.48962C152.267 2.48962 152.978 3.27998 152.978 4.38646V4.86061H150.212C150.212 5.21633 150.252 5.33484 150.37 5.53245C150.568 5.84858 150.923 6.04619 151.319 6.04619C151.477 6.04619 151.635 6.04619 151.793 5.96709C152.03 5.888 152.188 5.80907 152.583 5.57187L152.978 6.40174C152.82 6.48075 152.662 6.55984 152.544 6.59926ZM151.16 3.27998C150.686 3.27998 150.37 3.59611 150.291 4.14927H151.911C151.911 3.55652 151.674 3.27998 151.16 3.27998Z" fill="#005687"/>
<path d="M108.836 15.9252H108.046L105.833 9.83968H107.058L108.402 13.8308V13.9098V13.9889L108.441 14.1074V14.0284C108.441 13.9495 108.441 13.9098 108.481 13.8705L108.52 13.7914L109.825 9.80017H111.01L108.836 15.9252Z" fill="#005687"/>
<path d="M114.132 15.5696C113.697 15.7672 113.262 15.8858 112.749 15.8858C111.524 15.8858 110.733 15.0559 110.733 13.7913C110.733 12.4872 111.642 11.4598 112.828 11.4598C113.855 11.4598 114.567 12.2502 114.567 13.3566V13.8307H111.8C111.8 14.1865 111.84 14.3049 111.958 14.5026C112.156 14.8187 112.512 15.0163 112.907 15.0163C113.065 15.0163 113.223 15.0163 113.381 14.9372C113.618 14.8583 113.776 14.7792 114.172 14.5421L114.567 15.372C114.369 15.451 114.25 15.53 114.132 15.5696ZM112.749 12.2502C112.275 12.2502 111.958 12.5663 111.879 13.1195H113.5C113.46 12.5268 113.262 12.2502 112.749 12.2502Z" fill="#005687"/>
<path d="M117.491 12.843C117.372 12.7639 117.293 12.7244 117.175 12.7244C117.017 12.7244 116.819 12.843 116.661 13.0406C116.463 13.2776 116.385 13.5146 116.385 13.8308V15.7276H115.318V11.5784H116.226L116.266 12.4872C116.661 11.776 116.938 11.4993 117.254 11.4993C117.491 11.4993 117.649 11.5784 117.847 11.8155L117.491 12.843Z" fill="#005687"/>
<path d="M121.364 15.5696C120.929 15.7672 120.494 15.8858 119.981 15.8858C118.756 15.8858 117.965 15.0559 117.965 13.7913C117.965 12.4872 118.874 11.4598 120.06 11.4598C121.087 11.4598 121.799 12.2502 121.799 13.3566V13.8307H119.032C119.032 14.1865 119.072 14.3049 119.19 14.5026C119.388 14.8187 119.743 15.0163 120.139 15.0163C120.297 15.0163 120.455 15.0163 120.613 14.9372C120.85 14.8583 121.008 14.7792 121.403 14.5421L121.799 15.372C121.601 15.451 121.443 15.53 121.364 15.5696ZM119.981 12.2502C119.506 12.2502 119.19 12.5663 119.111 13.1195H120.731C120.692 12.5268 120.494 12.2502 119.981 12.2502Z" fill="#005687"/>
<path d="M125.197 15.7671V13.08C125.197 12.5662 125.118 12.3687 124.841 12.3687C124.604 12.3687 124.288 12.6057 123.853 13.08L123.695 13.2381V15.7671H122.628V11.5784H123.695V12.2502C124.209 11.6969 124.604 11.4598 125.158 11.4598C125.908 11.4598 126.303 11.855 126.303 12.6454V15.7276H125.197L125.197 15.7671Z" fill="#005687"/>
<path d="M127.963 10.788C127.647 10.788 127.371 10.4718 127.371 10.0767C127.371 9.68152 127.647 9.36548 127.963 9.36548C128.279 9.36548 128.556 9.6816 128.556 10.0767C128.556 10.4718 128.319 10.788 127.963 10.788ZM127.45 15.767V11.5783H128.517V15.767H127.45Z" fill="#005687"/>
<path d="M132.824 12.3687C132.982 12.5663 133.022 12.7244 133.022 13.0009C133.022 13.9494 132.271 14.5815 131.204 14.5815C131.085 14.5815 131.046 14.5815 130.888 14.542C130.611 14.7396 130.493 14.8977 130.493 14.9767C130.493 15.0556 130.572 15.0953 130.769 15.0953H132.231C133.061 15.0953 133.417 15.4114 133.417 16.0832C133.417 17.1107 132.429 17.8614 131.006 17.8614C129.979 17.8614 129.307 17.4268 129.307 16.7945C129.307 16.4783 129.505 16.2018 129.979 15.767C129.584 15.609 129.386 15.4509 129.386 15.2139C129.386 14.9768 129.544 14.7792 129.939 14.5026C129.979 14.4631 130.097 14.4236 130.216 14.3049C130.018 14.147 129.939 14.1073 129.86 13.9889C129.623 13.7122 129.505 13.3566 129.505 12.9614C129.505 11.9734 130.176 11.3412 131.283 11.3412C131.599 11.3412 131.757 11.3807 132.152 11.4993H132.785L133.614 11.4597V12.2501H132.824V12.3687H132.824ZM131.876 16.0042H130.572C130.532 16.0833 130.492 16.1228 130.492 16.1623C130.374 16.3599 130.295 16.518 130.295 16.6365C130.295 16.9131 130.69 17.1107 131.164 17.1107C131.48 17.1107 131.836 16.992 132.073 16.7945C132.271 16.6365 132.389 16.4389 132.389 16.2807C132.389 16.0833 132.231 16.0042 131.876 16.0042ZM131.204 12.2501C130.809 12.2501 130.532 12.6057 130.532 13.0405C130.532 13.4751 130.848 13.7913 131.204 13.7913C131.559 13.7913 131.876 13.4356 131.876 13.001C131.915 12.5663 131.599 12.2501 131.204 12.2501Z" fill="#005687"/>
<path d="M134.76 10.788C134.444 10.788 134.168 10.4718 134.168 10.0767C134.168 9.68152 134.444 9.36548 134.76 9.36548C135.077 9.36548 135.353 9.6816 135.353 10.0767C135.353 10.4718 135.077 10.788 134.76 10.788ZM134.207 15.767V11.5783H135.274V15.767H134.207Z" fill="#005687"/>
<path d="M139.068 15.7671V13.08C139.068 12.5662 138.989 12.3687 138.712 12.3687C138.475 12.3687 138.159 12.6057 137.724 13.08L137.566 13.2381V15.7671H136.499V11.5784H137.566V12.2502C138.08 11.6969 138.475 11.4598 139.028 11.4598C139.779 11.4598 140.174 11.855 140.174 12.6454V15.7276H139.068L139.068 15.7671Z" fill="#005687"/>
<path d="M144.482 12.3687C144.64 12.5663 144.68 12.7244 144.68 13.0009C144.68 13.9494 143.929 14.5815 142.862 14.5815C142.743 14.5815 142.704 14.5815 142.545 14.542C142.269 14.7396 142.15 14.8977 142.15 14.9767C142.15 15.0556 142.229 15.0953 142.427 15.0953H143.889C144.719 15.0953 145.075 15.4114 145.075 16.0832C145.075 17.1107 144.087 17.8614 142.664 17.8614C141.637 17.8614 140.965 17.4268 140.965 16.7945C140.965 16.4783 141.162 16.2018 141.637 15.767C141.241 15.609 141.044 15.4509 141.044 15.2139C141.044 14.9768 141.202 14.7792 141.597 14.5026C141.637 14.4631 141.755 14.4236 141.874 14.3049C141.676 14.147 141.597 14.1073 141.518 13.9889C141.281 13.7122 141.162 13.3566 141.162 12.9614C141.162 11.9734 141.834 11.3412 142.941 11.3412C143.257 11.3412 143.415 11.3807 143.81 11.4993H144.442L145.272 11.4597V12.2501H144.482L144.482 12.3687ZM143.533 16.0042H142.229C142.19 16.0833 142.15 16.1228 142.15 16.1623C142.032 16.3599 141.953 16.518 141.953 16.6365C141.953 16.9131 142.348 17.1107 142.822 17.1107C143.138 17.1107 143.494 16.992 143.731 16.7945C143.929 16.6365 144.047 16.4389 144.047 16.2807C144.087 16.0833 143.889 16.0042 143.533 16.0042ZM142.901 12.2501C142.506 12.2501 142.229 12.6057 142.229 13.0405C142.229 13.4751 142.545 13.7913 142.901 13.7913C143.257 13.7913 143.573 13.4356 143.573 13.001C143.573 12.5664 143.257 12.2501 142.901 12.2501Z" fill="#005687"/>
<path d="M150.054 15.767H148.987L147.604 11.5782H148.71L149.54 14.3444L149.58 14.542L149.619 14.3444L150.568 11.5782H151.674L150.054 15.767Z" fill="#005687"/>
<path d="M154.006 15.8857C152.82 15.8857 151.911 14.9371 151.911 13.6727C151.911 12.4081 152.82 11.4598 154.006 11.4598C155.191 11.4598 156.1 12.4082 156.1 13.6727C156.14 14.8977 155.231 15.8857 154.006 15.8857ZM154.006 12.3292C153.453 12.3292 153.018 12.9219 153.018 13.6727C153.018 14.4236 153.453 15.0163 154.006 15.0163C154.559 15.0163 154.994 14.4236 154.994 13.6727C154.994 12.9219 154.559 12.3292 154.006 12.3292Z" fill="#005687"/>
<path d="M158.669 15.8857C157.483 15.8857 156.574 14.9371 156.574 13.6727C156.574 12.4081 157.483 11.4598 158.669 11.4598C159.855 11.4598 160.763 12.4082 160.763 13.6727C160.763 14.8977 159.855 15.8857 158.669 15.8857ZM158.669 12.3292C158.116 12.3292 157.681 12.9219 157.681 13.6727C157.681 14.4236 158.116 15.0163 158.669 15.0163C159.222 15.0163 159.657 14.4236 159.657 13.6727C159.657 12.9219 159.183 12.3292 158.669 12.3292Z" fill="#005687"/>
<path d="M163.727 12.843C163.609 12.7639 163.53 12.7244 163.411 12.7244C163.253 12.7244 163.055 12.843 162.897 13.0406C162.7 13.2776 162.621 13.5146 162.621 13.8308V15.7276H161.554V11.5784H162.463L162.502 12.4872C162.897 11.776 163.174 11.4993 163.49 11.4993C163.727 11.4993 163.885 11.5784 164.083 11.8155L163.727 12.843Z" fill="#005687"/>
<path d="M109.982 24.7373L109.508 23.2753H107.532L107.058 24.7373H105.873L108.007 18.8098H109.034L111.168 24.7373H109.982ZM108.52 20.1534L107.848 22.2872H109.232L108.52 20.1534Z" fill="#005687"/>
<path d="M114.369 24.7373V24.026C113.855 24.5793 113.46 24.8163 112.907 24.8163C112.156 24.8163 111.761 24.4212 111.761 23.6309V20.5485H112.828V23.2357C112.828 23.7494 112.907 23.9469 113.184 23.9469C113.421 23.9469 113.737 23.7098 114.211 23.2357L114.369 23.0776V20.5485H115.436V24.7373H114.369Z" fill="#005687"/>
<path d="M118.479 24.5792C118.163 24.7768 117.847 24.8559 117.53 24.8559C116.977 24.8559 116.7 24.5792 116.7 23.947V21.3389H116.108V20.6671L116.74 20.5484V19.2839H117.768V20.5484H118.676V21.3388H117.768V23.196C117.768 23.6703 117.807 23.7888 117.965 23.7888C118.084 23.7888 118.242 23.7098 118.558 23.5122L118.914 24.3024C118.716 24.4211 118.597 24.5001 118.479 24.5792Z" fill="#005687"/>
<path d="M119.981 19.7978C119.664 19.7978 119.388 19.4816 119.388 19.0865C119.388 18.6914 119.664 18.3752 119.981 18.3752C120.297 18.3752 120.573 18.6914 120.573 19.0865C120.573 19.4816 120.297 19.7978 119.981 19.7978ZM119.427 24.7374V20.5485H120.494V24.7374H119.427Z" fill="#005687"/>
<path d="M124.407 21.6946C124.288 21.6155 124.209 21.5759 124.13 21.497C123.814 21.2994 123.458 21.2203 123.182 21.2203C122.786 21.2203 122.51 21.3784 122.51 21.6154C122.51 21.813 122.668 21.9315 123.023 22.0501C123.498 22.2082 124.09 22.4848 124.288 22.6429C124.565 22.8405 124.723 23.1961 124.723 23.5518C124.723 24.3025 124.051 24.8163 123.063 24.8163C122.865 24.8163 122.628 24.7768 122.391 24.7373C121.996 24.6582 121.798 24.5792 121.364 24.3422L121.719 23.4728C122.154 23.7494 122.312 23.8285 122.628 23.9074C122.786 23.947 122.944 23.9864 123.102 23.9864C123.498 23.9864 123.774 23.8679 123.774 23.6309C123.774 23.4332 123.656 23.3146 123.34 23.1961L122.628 22.9195C121.877 22.6428 121.561 22.2477 121.561 21.6945C121.561 20.9042 122.233 20.3905 123.261 20.3905C123.458 20.3905 123.695 20.43 123.933 20.4695C124.328 20.5484 124.486 20.5881 124.841 20.8251L124.407 21.6946Z" fill="#005687"/>
<path d="M130.888 24.7373V22.0502C130.888 21.5365 130.809 21.3389 130.532 21.3389C130.413 21.3389 130.176 21.4574 129.939 21.655C129.781 21.7736 129.623 21.9317 129.346 22.2478V24.7373H128.279V22.0502C128.279 21.5365 128.2 21.3389 127.924 21.3389C127.686 21.3389 127.37 21.576 126.936 22.0502L126.778 22.2083V24.7373H125.711V20.5485H126.778V21.2203C127.291 20.6672 127.686 20.4301 128.24 20.4301C128.872 20.4301 129.228 20.7067 129.346 21.2598C129.821 20.7067 130.295 20.4301 130.808 20.4301C131.559 20.4301 131.954 20.8252 131.954 21.6155V24.7373H130.888Z" fill="#005687"/>
<path d="M136.144 24.5399C135.709 24.7374 135.274 24.8559 134.76 24.8559C133.535 24.8559 132.745 24.026 132.745 22.7615C132.745 21.4574 133.654 20.4301 134.839 20.4301C135.867 20.4301 136.578 21.2203 136.578 22.3268V22.801H133.812C133.812 23.1567 133.852 23.2752 133.97 23.4728C134.168 23.7888 134.523 23.9865 134.919 23.9865C135.077 23.9865 135.235 23.9865 135.393 23.9074C135.63 23.8285 135.788 23.7494 136.183 23.5123L136.578 24.3422C136.42 24.4212 136.262 24.5002 136.144 24.5399ZM134.76 21.2598C134.286 21.2598 133.97 21.576 133.891 22.1293H135.511C135.511 21.497 135.274 21.2598 134.76 21.2598Z" fill="#005687"/>
<path d="M50.2707 14.384L50.2312 14.4236C49.2037 12.6453 41.7347 0.0395508 41.7347 0.0395508H35.4119L35.6095 25.0138H41.8929C41.8929 25.0138 41.8533 12.7638 41.8533 10.6694L41.8929 10.6299C42.9203 12.4081 50.3892 25.0138 50.3892 25.0138H55.8032V0.0395508H50.2312C50.2312 0.0395508 50.2707 12.2501 50.2707 14.384Z" fill="url(#paint0_linear_302_306)"/>
<path d="M72.1241 0C72.1241 0 68.0143 13.7913 67.461 15.8461H67.4215C66.8682 13.8308 62.9165 0 62.9165 0H56.7122L64.4971 24.9745H70.3063L78.0915 0H72.1241Z" fill="url(#paint1_linear_302_306)"/>
<path d="M88.0896 0H82.399L74.1792 24.9745H80.1464L81.6481 19.8769H88.6033L90.0259 24.9745H96.3093L88.0896 0ZM83.1894 14.6607C83.1894 14.6607 84.7701 9.20741 85.1652 7.6267H85.2048C85.6001 9.16791 87.1017 14.6607 87.1017 14.6607H83.1894Z" fill="url(#paint2_linear_302_306)"/>
<path d="M0.359396 0V10.0768C0.477917 9.87917 0.557014 9.68156 0.636029 9.56296C0.636029 9.56296 1.2288 8.61458 1.54494 8.25903C1.90059 7.82431 2.61196 7.54777 3.40235 7.54777C4.66691 7.54777 4.66691 7.54777 6.12909 7.54777C6.91948 7.54777 7.63077 7.82431 7.9865 8.25903C8.30264 8.61467 8.89541 9.56296 8.89541 9.56296C9.09303 9.91868 9.60671 10.8671 10.081 11.7364C10.5552 10.867 11.069 9.91868 11.2665 9.56296C11.2665 9.56296 11.8593 8.61458 12.1754 8.25903C12.5311 7.82431 13.2424 7.54777 14.0328 7.54777C15.2974 7.54777 15.2974 7.54777 16.7596 7.54777C17.5499 7.54777 18.2612 7.82431 18.617 8.25903C18.9331 8.61467 19.5259 9.56296 19.5259 9.56296C19.7235 9.91868 20.2372 10.8671 20.7115 11.7364C21.1856 10.867 21.6994 9.91868 21.897 9.56296C21.897 9.56296 22.4897 8.61458 22.806 8.25903C23.1617 7.82431 23.873 7.54777 24.6634 7.54777C25.9279 7.54777 25.9279 7.54777 27.39 7.54777C28.1803 7.54777 28.8917 7.82431 29.2474 8.25903C29.5636 8.61467 30.1564 9.56296 30.1564 9.56296C30.4726 10.1557 31.7371 12.4082 32.1323 13.159C32.1323 13.1986 32.1718 13.1986 32.1718 13.2381C32.1718 13.2381 32.2114 13.2776 32.2114 13.3566C32.33 13.5938 32.1323 13.7518 31.6186 13.8705C31.1444 13.989 30.5911 13.8309 30.4726 13.5938L29.445 11.855L28.8523 10.8276L28.7732 10.7881C28.6941 10.709 28.5756 10.6695 28.4571 10.6695C28.2989 10.6695 28.1409 10.7486 28.1013 10.9067C28.1013 10.9067 28.1013 10.9462 28.0618 10.9462C28.0618 10.9857 28.0222 11.0647 28.0222 11.1043C28.0222 11.1438 28.0222 11.1833 28.0222 11.2229C28.6546 13.7519 30.1168 19.8769 30.5119 21.5366C30.5119 21.5761 30.5514 21.6156 30.5514 21.6551C30.5514 22.0898 30.1168 22.2084 29.2473 22.2084C28.457 22.2084 27.7852 21.8922 27.6666 21.4972L26.0068 15.0164L24.268 21.4972C24.1889 21.8922 23.5171 22.2084 22.6872 22.2084C21.8179 22.2084 21.3831 22.1293 21.3831 21.6551C21.3831 21.6156 21.3831 21.5761 21.4227 21.5366C21.8574 19.8373 23.2801 13.7519 23.9123 11.2229C23.9123 11.1833 23.9123 11.1438 23.9123 11.1043C23.9123 11.0647 23.9123 10.9857 23.8728 10.9462C23.8728 10.9462 23.8728 10.9067 23.8332 10.9067C23.7541 10.7881 23.6356 10.6695 23.4776 10.6695C23.3591 10.6695 23.2405 10.7091 23.1614 10.7881L23.1219 10.8671L22.5291 11.8945L21.5017 13.6333C21.4226 13.7914 21.0275 13.9495 20.6323 13.9495C20.2371 13.9495 19.8814 13.7914 19.7629 13.6333L18.7354 11.8945L18.1427 10.8671L18.1031 10.7881C18.024 10.709 17.9055 10.6695 17.787 10.6695C17.6289 10.6695 17.4709 10.7486 17.4313 10.9067C17.4313 10.9067 17.4313 10.9462 17.3918 10.9462C17.3918 10.9857 17.3523 11.0647 17.3523 11.1043C17.3523 11.1438 17.3523 11.1833 17.3523 11.2229C17.9845 13.7519 19.4467 19.8769 19.8419 21.5366C19.8419 21.5761 19.8814 21.6156 19.8814 21.6551C19.8814 22.0898 19.4468 22.2084 18.5774 22.2084C17.7871 22.2084 17.1152 21.8922 16.9967 21.4972L15.2579 15.0164L13.5191 21.4972C13.44 21.8922 12.7683 22.2084 11.9384 22.2084C11.069 22.2084 10.6342 22.1293 10.6342 21.6551C10.6342 21.6156 10.6342 21.5761 10.6738 21.5366C11.1085 19.8373 12.5311 13.7519 13.1634 11.2229C13.1634 11.1833 13.1634 11.1438 13.1634 11.1043C13.1634 11.0647 13.1634 10.9857 13.1239 10.9462C13.1239 10.9462 13.1239 10.9067 13.0843 10.9067C13.0053 10.7881 12.8868 10.6695 12.7287 10.6695C12.6102 10.6695 12.4916 10.7091 12.4125 10.7881L12.373 10.8671L11.7803 11.8945L10.7922 13.5938C10.7922 13.5938 10.7923 13.6333 10.7527 13.6333C10.6736 13.7914 10.2785 13.9496 9.88326 13.9496C9.4881 13.9496 9.13245 13.7914 9.01385 13.6333C9.01385 13.6333 9.01385 13.5938 8.97434 13.5938L7.98642 11.8945L7.39365 10.8671L7.35414 10.7881C7.27504 10.709 7.15652 10.6695 7.03792 10.6695C6.87981 10.6695 6.72178 10.7486 6.68227 10.9067C6.68227 10.9067 6.68227 10.9462 6.64276 10.9462C6.64276 10.9857 6.60317 11.0647 6.60317 11.1043C6.60317 11.1438 6.60317 11.1833 6.60317 11.2229C7.23545 13.7519 8.69763 19.8769 9.09287 21.5366C9.09287 21.5761 9.13245 21.6156 9.13245 21.6551C9.13245 22.0898 8.69771 22.2084 7.82831 22.2084C7.03792 22.2084 6.36613 21.8922 6.24761 21.4972L4.5088 15.0164L2.76999 21.4972C2.69098 21.8922 2.01919 22.2084 1.18929 22.2084C0.675536 22.2084 0.280382 22.1688 0.0827637 22.0503V24.9745H32.7642V0H0.359396ZM4.66683 6.91535C3.59981 6.87585 2.7304 5.96697 2.76991 4.90008C2.80942 3.8331 3.71833 2.96373 4.78535 3.00324C5.85237 3.04275 6.72178 3.95162 6.68219 5.0186C6.68227 6.08557 5.77336 6.95494 4.66683 6.91535ZM15.3368 6.91535C14.2698 6.87585 13.4004 5.96697 13.4399 4.90008C13.4795 3.8331 14.3884 2.96373 15.4553 3.00324C16.5224 3.04275 17.3917 3.95162 17.3522 5.0186C17.3126 6.08557 16.4037 6.95494 15.3368 6.91535ZM25.9671 6.91535C24.9002 6.87585 24.0307 5.96697 24.0703 4.90008C24.1098 3.8331 25.0187 2.96373 26.0857 3.00324C27.1527 3.04275 28.022 3.95162 27.9826 5.0186C27.9431 6.08557 27.0341 6.95494 25.9671 6.91535Z" fill="url(#paint3_linear_302_306)"/>
<path d="M100.972 0.0395508H100.656V25.0138H100.972V0.0395508Z" fill="#005687"/>
</g>
<defs>
<linearGradient id="paint0_linear_302_306" x1="-1.98523" y1="12.3273" x2="91.9593" y2="12.7179" gradientUnits="userSpaceOnUse">
<stop offset="0.0247" stop-color="white"/>
<stop offset="0.0428" stop-color="#F6FAFE"/>
<stop offset="0.0723" stop-color="#DEEDF6"/>
<stop offset="0.1094" stop-color="#B8D9ED"/>
<stop offset="0.1527" stop-color="#82BCE0"/>
<stop offset="0.2005" stop-color="#3C98D2"/>
<stop offset="0.2267" stop-color="#1983C6"/>
<stop offset="0.7118" stop-color="#1983C6"/>
<stop offset="1" stop-color="#005687"/>
</linearGradient>
<linearGradient id="paint1_linear_302_306" x1="-1.98462" y1="12.1809" x2="91.9598" y2="12.5716" gradientUnits="userSpaceOnUse">
<stop offset="0.0247" stop-color="white"/>
<stop offset="0.0428" stop-color="#F6FAFE"/>
<stop offset="0.0723" stop-color="#DEEDF6"/>
<stop offset="0.1094" stop-color="#B8D9ED"/>
<stop offset="0.1527" stop-color="#82BCE0"/>
<stop offset="0.2005" stop-color="#3C98D2"/>
<stop offset="0.2267" stop-color="#1983C6"/>
<stop offset="0.7118" stop-color="#1983C6"/>
<stop offset="1" stop-color="#005687"/>
</linearGradient>
<linearGradient id="paint2_linear_302_306" x1="-1.5109" y1="12.1421" x2="92.4347" y2="12.5327" gradientUnits="userSpaceOnUse">
<stop offset="0.0247" stop-color="white"/>
<stop offset="0.0428" stop-color="#F6FAFE"/>
<stop offset="0.0723" stop-color="#DEEDF6"/>
<stop offset="0.1094" stop-color="#B8D9ED"/>
<stop offset="0.1527" stop-color="#82BCE0"/>
<stop offset="0.2005" stop-color="#3C98D2"/>
<stop offset="0.2267" stop-color="#1983C6"/>
<stop offset="0.7118" stop-color="#1983C6"/>
<stop offset="1" stop-color="#005687"/>
</linearGradient>
<linearGradient id="paint3_linear_302_306" x1="-3.72521" y1="12.4019" x2="94.8794" y2="12.8119" gradientUnits="userSpaceOnUse">
<stop offset="0.0197" stop-color="white" stop-opacity="0"/>
<stop offset="0.0493" stop-color="#D1E7F3" stop-opacity="0.1624"/>
<stop offset="0.1049" stop-color="#83BDE1" stop-opacity="0.4674"/>
<stop offset="0.1506" stop-color="#479DD3" stop-opacity="0.7183"/>
<stop offset="0.1842" stop-color="#258ACA" stop-opacity="0.9024"/>
<stop offset="0.2019" stop-color="#1983C6"/>
<stop offset="0.7118" stop-color="#1983C6"/>
<stop offset="1" stop-color="#005687"/>
</linearGradient>
<clipPath id="clip0_302_306">
<rect width="164" height="25" fill="white"/>
</clipPath>
</defs>
</svg>
