<svg width="100" height="68" viewBox="0 0 100 68" fill="none" xmlns="http://www.w3.org/2000/svg">
<g clip-path="url(#clip0_302_210)">
<path d="M34.22 -0.557373H0V68.1003H34.22V-0.557373Z" fill="#154273"/>
<path d="M17.7266 52.5562H17.1332V50.9041H17.7266V52.5562ZM20.4132 45.2523H19.8199V43.6002H20.4132V45.2523ZM9.3799 42.3963C9.33323 42.3963 9.02657 42.3963 9.02657 42.4565C9.02657 42.5167 9.17323 42.4899 9.3799 42.5234C9.8599 42.6037 10.0466 42.8444 10.3799 42.8444C10.6799 42.8444 10.9932 42.6371 10.8732 42.2023C10.8532 42.1288 10.8132 42.1488 10.7999 42.1956C10.7532 42.3963 10.5132 42.5033 10.2599 42.5033C9.94657 42.5033 9.88657 42.3963 9.38657 42.3963H9.3799ZM6.10657 44.0484C6.1599 44.1219 6.7199 44.851 5.8599 45.1319C5.8199 45.1453 5.81323 45.1787 5.86657 45.2055C6.4999 45.473 6.81323 44.9781 6.81323 44.9781C7.13323 45.7205 6.6399 46.1218 6.6399 46.1218C6.70657 46.2556 7.01323 46.4763 7.47323 46.5833C7.65323 46.4897 7.8999 46.3091 7.9999 46.0349C7.9999 46.0349 8.1199 46.3559 8.01323 46.6636C9.31323 46.7773 9.77323 45.7339 10.7799 45.9278C10.8066 45.9345 10.8199 45.9145 10.8199 45.8877C10.8199 45.2456 10.4266 44.0684 9.18657 43.8277C7.94657 43.5869 8.2799 43.0785 8.2799 43.0785C8.7999 43.0585 9.0999 43.2859 9.0999 43.2859C9.19323 43.1254 9.0599 42.9648 9.0599 42.9648C9.10657 42.9046 9.13323 42.6906 9.13323 42.6906C8.54657 42.6906 8.39323 42.5568 8.39323 42.5568C8.30657 42.209 8.54657 41.7141 9.4199 42.2425C9.6399 42.0485 9.6199 41.7475 9.6199 41.7475C9.68657 41.7141 9.72657 41.6071 9.72657 41.5669C9.72657 41.4198 9.02657 41.0318 8.85323 40.985C8.81323 40.771 8.5399 40.47 7.7199 40.577C7.32657 40.6238 7.04657 40.5235 7.1799 40.2961C7.1999 40.256 7.13323 40.2493 7.0999 40.2894C7.01323 40.3764 6.88657 40.6305 7.2199 40.8044C7.59323 40.9984 7.6199 41.373 7.62657 41.4265C7.63323 41.5067 7.5399 41.5134 7.5199 41.4332C7.34657 40.7977 6.47323 40.6573 5.9599 40.9917C5.98657 41.3328 6.3599 41.5602 6.55323 41.5602C6.66657 41.5602 6.82657 41.4465 6.82657 41.286C6.82657 41.2124 6.86657 41.2191 6.88657 41.2793C6.96657 41.5067 6.63323 41.9816 6.1399 41.694C5.63323 42.2023 5.8399 42.8311 5.88657 43.0585C5.97323 43.4732 5.7799 43.8745 5.3999 43.6872C5.3799 43.6805 5.3599 43.6738 5.3599 43.7139C5.36657 43.9614 5.6999 44.2557 6.10657 44.0283V44.0484ZM8.89323 41.4867C8.65323 41.7542 8.27323 41.694 8.17323 41.2526C8.66657 41.2258 8.87323 41.2726 8.89323 41.4867ZM23.9999 42.5033C23.7466 42.5033 23.5066 42.3963 23.4599 42.1956C23.4466 42.1488 23.4066 42.1288 23.3866 42.2023C23.2666 42.6438 23.5799 42.8444 23.8799 42.8444C24.2132 42.8444 24.3999 42.6037 24.8799 42.5234C25.0932 42.4899 25.2332 42.5234 25.2332 42.4565C25.2332 42.3963 24.9266 42.3963 24.8799 42.3963C24.3866 42.3963 24.3199 42.5033 24.0066 42.5033H23.9999ZM28.8999 43.7206C28.8999 43.6805 28.8799 43.6872 28.8599 43.6939C28.4866 43.8812 28.2866 43.4798 28.3732 43.0652C28.4199 42.8311 28.6266 42.209 28.1199 41.7007C27.6199 41.9883 27.2866 41.5134 27.3732 41.286C27.3932 41.2258 27.4332 41.2191 27.4332 41.2927C27.4332 41.4532 27.5932 41.5669 27.7066 41.5669C27.9066 41.5669 28.2732 41.3395 28.2999 40.9984C27.7866 40.664 26.9132 40.7977 26.7399 41.4398C26.7199 41.5201 26.6266 41.5134 26.6332 41.4332C26.6332 41.3796 26.6599 40.9984 27.0399 40.8111C27.3799 40.6372 27.2599 40.3831 27.1599 40.2961C27.1266 40.2627 27.0532 40.2694 27.0799 40.3028C27.2132 40.5302 26.9266 40.6305 26.5466 40.5837C25.7266 40.4767 25.4599 40.7844 25.4132 40.9917C25.2332 41.0385 24.5399 41.4332 24.5399 41.5736C24.5399 41.6137 24.5799 41.7275 24.6466 41.7542C24.6466 41.7542 24.6332 42.0485 24.8466 42.2492C25.7132 41.7208 25.9599 42.2157 25.8732 42.5635C25.8732 42.5635 25.7132 42.6839 25.1266 42.6973C25.1266 42.6973 25.1532 42.9113 25.1999 42.9715C25.1999 42.9715 25.0599 43.1454 25.1599 43.2926C25.1599 43.2926 25.4599 43.0652 25.9799 43.0852C25.9799 43.0852 26.3132 43.5936 25.0732 43.8343C23.8332 44.0751 23.4399 45.2456 23.4399 45.8944C23.4399 45.9278 23.4532 45.9412 23.4799 45.9345C24.4866 45.7473 24.9466 46.7907 26.2466 46.6703C26.1332 46.3626 26.2599 46.0416 26.2599 46.0416C26.3599 46.3158 26.6066 46.5031 26.7866 46.59C27.2532 46.4897 27.5532 46.269 27.6199 46.1285C27.6199 46.1285 27.1266 45.7205 27.4466 44.9848C27.4466 44.9848 27.7532 45.4797 28.3932 45.2122C28.4466 45.1854 28.4332 45.152 28.3999 45.1386C27.5399 44.8577 28.0999 44.1286 28.1532 44.0551C28.5599 44.2958 28.8999 44.0016 28.8999 43.7407V43.7206ZM26.0799 41.2593C25.9866 41.7007 25.5999 41.7609 25.3599 41.4934C25.3799 41.2793 25.5932 41.2325 26.0799 41.2593ZM16.9066 33.9153C16.9066 34.0223 16.9532 34.1226 16.9866 34.1761C17.0599 34.2831 17.0466 34.35 17.0132 34.3835C16.9799 34.4169 16.9199 34.4303 16.8066 34.3567C16.7532 34.3166 16.6532 34.2764 16.5466 34.2764C16.3599 34.2764 16.2666 34.3968 16.2666 34.5038C16.2666 34.6109 16.3599 34.7313 16.5466 34.7313C16.6532 34.7313 16.7532 34.6844 16.8066 34.651C16.9132 34.5774 16.9799 34.5908 17.0132 34.6242C17.0466 34.6577 16.9999 35.0389 16.9532 35.3399C16.6466 35.4068 16.4932 35.6543 16.4932 35.8014C16.4932 36.176 16.8932 36.39 17.1266 36.5238C17.3599 36.4034 17.7599 36.1827 17.7599 35.8014C17.7599 35.6543 17.6066 35.4001 17.2999 35.3399C17.2599 35.0456 17.2066 34.6577 17.2399 34.6242C17.2732 34.5908 17.3332 34.5774 17.4466 34.651C17.4999 34.6911 17.5999 34.7313 17.7066 34.7313C17.8932 34.7313 17.9866 34.6109 17.9866 34.5038C17.9866 34.3968 17.8932 34.2764 17.7066 34.2764C17.5999 34.2764 17.4999 34.3233 17.4466 34.3567C17.3399 34.4303 17.2732 34.4169 17.2399 34.3835C17.2066 34.35 17.1932 34.2898 17.2666 34.1761C17.3066 34.1226 17.3466 34.0223 17.3466 33.9153C17.3466 33.728 17.2266 33.6343 17.1199 33.6343C17.0132 33.6343 16.8932 33.728 16.8932 33.9153H16.9066ZM17.1266 36.7044C16.8732 36.7044 16.6666 36.9117 16.6666 37.1659C16.6666 37.42 16.8732 37.6274 17.1266 37.6274C17.3799 37.6274 17.5866 37.42 17.5866 37.1659C17.5866 36.9117 17.3799 36.7044 17.1266 36.7044ZM17.1266 41.1054C18.9532 41.1054 19.9799 41.4532 19.9799 41.4532C19.9866 40.5235 19.9866 40.0085 20.5132 40.0888C20.2266 39.3129 21.4732 39.0052 21.4732 37.9953C21.4732 37.3264 20.9999 37.2528 20.8666 37.2528C20.4532 37.2528 20.5199 37.5204 20.1666 37.5204C20.1266 37.5204 20.0799 37.507 20.0799 37.5404C20.0799 37.6541 20.1732 37.8548 20.3399 37.8548C20.5599 37.8548 20.5599 37.6341 20.7199 37.6341C20.7866 37.6341 20.8932 37.6876 20.8932 37.915C20.8932 38.3497 20.6132 38.8246 20.2799 39.1925C20.2066 39.0922 20.0999 39.0186 19.9732 39.0186C19.7732 39.0186 19.6066 39.2259 19.6066 39.4801C19.6066 39.5737 19.6199 39.6473 19.6532 39.7209C19.5466 39.7811 19.4399 39.8145 19.3732 39.8145C19.2199 39.8145 18.9999 39.7543 18.9999 39.4199C18.9999 38.6842 19.9799 38.0421 19.9799 37.1057C19.9799 36.6576 19.6866 36.2228 19.0599 36.2228C18.3932 36.2228 18.5199 36.8248 17.9466 36.8248C17.9199 36.8248 17.8999 36.8315 17.8999 36.8582C17.8999 36.8983 17.9999 37.2328 18.2999 37.2328C18.6132 37.2328 18.7066 36.6843 18.9932 36.6843C19.0932 36.6843 19.2532 36.7445 19.2532 37.1191C19.2532 37.4067 19.1066 37.8816 18.9066 38.3297C18.8332 38.2561 18.7266 38.1959 18.6199 38.1959C18.3732 38.1959 18.1932 38.4367 18.1932 38.7176C18.1932 38.8982 18.2599 39.0721 18.3866 39.1858C18.2399 39.3731 18.0932 39.5202 17.8932 39.5202C17.4932 39.5202 17.3266 39.2928 17.3266 39.0454C17.3266 38.7778 17.8132 38.6842 17.8132 38.2695C17.8132 37.9886 17.6266 37.828 17.4599 37.828C17.2666 37.828 17.1732 37.9484 17.1532 37.9484C17.1332 37.9484 17.0399 37.828 16.8466 37.828C16.6666 37.828 16.4932 37.9886 16.4932 38.2695C16.4932 38.6842 16.9799 38.7845 16.9799 39.0454C16.9799 39.2928 16.7999 39.5202 16.4132 39.5202C16.2132 39.5202 16.0666 39.3664 15.9199 39.1858C16.0399 39.0721 16.1132 38.8982 16.1132 38.7176C16.1132 38.43 15.9332 38.1959 15.6866 38.1959C15.5732 38.1959 15.4732 38.2494 15.3999 38.3297C15.1932 37.8749 15.0532 37.4067 15.0532 37.1191C15.0532 36.7512 15.2132 36.6843 15.3132 36.6843C15.5932 36.6843 15.6799 37.2328 16.0066 37.2328C16.2999 37.2328 16.4066 36.8983 16.4066 36.8582C16.4066 36.8381 16.3866 36.8248 16.3599 36.8248C15.7866 36.8248 15.9066 36.2228 15.2466 36.2228C14.6332 36.2228 14.3266 36.6642 14.3266 37.1057C14.3266 38.0421 15.3066 38.6842 15.3066 39.4199C15.3066 39.7477 15.0799 39.8145 14.9332 39.8145C14.8599 39.8145 14.7599 39.7811 14.6532 39.7209C14.6866 39.6406 14.6999 39.5737 14.6999 39.4801C14.6999 39.2259 14.5266 39.0186 14.3332 39.0186C14.2132 39.0186 14.1066 39.0855 14.0332 39.1925C13.6999 38.8246 13.4199 38.3497 13.4199 37.915C13.4199 37.6943 13.5199 37.6341 13.5932 37.6341C13.7532 37.6341 13.7599 37.8548 13.9732 37.8548C14.1399 37.8548 14.2332 37.6541 14.2332 37.5404C14.2332 37.507 14.1866 37.5204 14.1466 37.5204C13.7999 37.5204 13.8599 37.2528 13.4466 37.2528C13.3066 37.2528 12.8399 37.3264 12.8399 37.9953C12.8399 39.0119 14.0866 39.3129 13.7999 40.0888C14.3266 40.0152 14.3199 40.5302 14.3332 41.4532C14.3266 41.4532 15.3532 41.1054 17.1799 41.1054H17.1266ZM13.7799 42.4699C13.2799 42.5769 12.9266 42.6839 12.7666 42.7307C12.7732 42.51 12.8532 42.3027 13.0532 42.2625C13.0799 42.2558 13.0866 42.2224 13.0599 42.209C12.6132 41.9147 12.3799 42.4766 12.3732 42.4966C12.2132 42.4833 11.9732 42.5301 11.9732 42.7441C11.9732 43.3795 10.5199 43.734 10.1866 43.7875C10.7799 44.0149 11.0266 44.7707 11.0266 44.7707C11.4599 44.336 11.9599 43.9614 12.0732 43.9614C12.1866 43.9614 12.2332 44.1086 12.2399 44.1888C12.2399 44.2156 12.2666 44.2223 12.2866 44.2022C12.5132 43.8678 12.3999 43.7875 12.3799 43.6872C12.3666 43.6136 12.3866 43.3193 12.7132 43.3528V47.6L12.5399 47.6334C12.4666 47.6468 11.8399 47.1184 11.1399 46.6235C10.4266 46.1285 10.0532 46.4228 9.24657 46.8642C8.18657 47.4395 7.1199 46.9178 7.1199 46.9178C6.20657 47.5732 5.89323 49.4661 5.89323 49.4661C5.70657 49.5397 5.40657 49.6266 5.12657 49.6266C4.42657 49.6266 4.30657 49.1985 4.30657 48.9511C4.30657 47.8742 5.65323 47.4127 5.65323 46.3492C5.65323 46.0884 5.5399 45.045 4.24657 45.045H3.09323C2.60657 45.045 2.49323 44.6972 2.4199 44.5634C2.39323 44.5099 2.34657 44.5433 2.36657 44.5835C2.3999 44.6704 2.31323 44.8109 2.31323 45.0784C2.31323 45.5132 2.56657 45.774 3.0399 45.774C3.25323 45.774 3.4599 45.7138 3.5199 45.6737C3.5599 45.6469 3.58657 45.6871 3.56657 45.7138C3.3599 45.9546 3.34657 46.4094 3.42657 46.5098C3.44657 46.5365 3.47323 46.5298 3.47323 46.5098C3.58657 46.0549 4.01323 45.6269 4.58657 45.6269C5.29323 45.6269 5.28657 46.2221 5.28657 46.3693C5.28657 47.2321 3.77323 47.8675 3.77323 49.0581C3.77323 50.2486 5.04657 50.5229 5.7799 50.3356C5.7399 51.5462 4.35323 51.9542 4.31323 51.0914C4.31323 51.0513 4.2799 51.0446 4.2599 51.0981C4.08657 51.5261 4.1599 51.9007 4.69323 52.0211C4.72657 52.0278 4.71323 52.0478 4.6799 52.0746C4.14657 52.409 4.43323 53.74 4.4599 54.1347C4.4999 54.6965 3.9399 54.6296 3.89323 54.6162C3.87323 54.6096 3.84657 54.6162 3.88657 54.6631C4.28657 55.1513 4.77323 54.7032 4.77323 54.7032C5.1399 54.8169 4.9199 55.1379 4.66657 55.2985C4.62657 55.3252 4.63323 55.352 4.67323 55.352C4.72657 55.3587 5.2999 55.4055 5.40657 54.944C5.6599 55.245 6.03323 55.1379 6.11323 55.0978C6.2199 55.0443 6.76657 54.8437 6.81323 55.4456C6.81323 55.4858 6.8399 55.459 6.8599 55.4389C7.26657 54.9239 6.83323 54.6096 6.58657 54.5761C6.60657 54.5494 6.92657 54.2751 7.2199 54.6497C7.2399 54.6764 7.2599 54.6831 7.2599 54.6296C7.29323 53.9741 6.76657 53.9206 6.42657 54.2016C6.41323 54.1347 6.29323 53.7668 6.80657 53.7802C6.8199 53.7802 6.8399 53.7601 6.8199 53.74C6.4199 53.312 6.09323 53.6999 6.01323 53.7936C5.83323 54.0076 5.39323 53.9139 5.34657 53.9139C5.48657 51.6532 7.46657 52.4558 7.7399 51.3589C7.75323 51.3054 7.7799 51.3255 7.7799 51.3456C7.85323 51.6131 8.52657 51.6465 8.64657 51.1248C8.65323 51.0914 8.64657 51.0713 8.62657 51.0914C8.05323 51.6666 6.7599 49.8674 8.52657 48.4093C10.0332 47.1652 11.3799 47.8608 11.8932 48.2621C11.9199 48.4427 11.8132 48.5029 11.7399 48.523C11.7132 48.5297 11.7066 48.5497 11.7466 48.5698C11.8932 48.6233 12.0866 48.6033 12.1866 48.4762C12.5066 48.7036 12.2332 48.9912 12.1066 49.0648C12.0732 49.0848 12.0866 49.1049 12.1132 49.1116C12.4066 49.1651 12.6532 48.8641 12.6666 48.6835L12.7132 48.7103V49.9945C12.7132 51.8204 14.8132 52.0746 17.1199 53.6196C19.4266 52.0679 21.5199 51.8204 21.5199 49.9945V48.7103L21.5666 48.6835C21.5799 48.8574 21.8199 49.1651 22.1199 49.1116C22.1466 49.1049 22.1599 49.0848 22.1266 49.0648C21.9932 48.9845 21.7132 48.7036 22.0466 48.4762C22.1399 48.6166 22.3399 48.63 22.4866 48.5698C22.5266 48.5564 22.5199 48.5297 22.4932 48.523C22.4266 48.5029 22.3132 48.4427 22.3399 48.2621C22.8532 47.8475 24.1999 47.1585 25.7066 48.4093C27.4732 49.8741 26.1799 51.6666 25.6066 51.0914C25.5799 51.0646 25.5799 51.0914 25.5866 51.1248C25.7066 51.6532 26.3799 51.6131 26.4532 51.3456C26.4599 51.3255 26.4866 51.3054 26.4932 51.3589C26.7666 52.4558 28.7466 51.6532 28.8866 53.9139C28.8466 53.9206 28.3999 54.0009 28.2199 53.7936C28.1466 53.7066 27.8132 53.312 27.4132 53.74C27.3866 53.7668 27.4132 53.7802 27.4266 53.7802C27.9399 53.7668 27.8332 54.128 27.8066 54.2016C27.4666 53.9206 26.9399 53.9741 26.9732 54.6296C26.9732 54.6764 26.9932 54.6764 27.0132 54.6497C27.3066 54.2751 27.6266 54.5494 27.6466 54.5761C27.4066 54.6096 26.9666 54.9239 27.3732 55.4389C27.3932 55.459 27.4132 55.4858 27.4199 55.4456C27.4732 54.8437 28.0066 55.0309 28.1199 55.0978C28.1932 55.1379 28.5732 55.2517 28.8266 54.944C28.9266 55.4055 29.5066 55.3587 29.5599 55.352C29.5999 55.352 29.5999 55.3252 29.5666 55.2985C29.3199 55.1313 29.0866 54.8169 29.4599 54.7032C29.4599 54.7032 29.9532 55.1513 30.3466 54.6631C30.3799 54.6229 30.3599 54.6096 30.3399 54.6162C30.2932 54.6296 29.7332 54.6965 29.7732 54.1347C29.7999 53.74 30.0866 52.409 29.5532 52.0746C29.5199 52.0545 29.5066 52.0345 29.5399 52.0211C30.0732 51.9074 30.1399 51.5261 29.9732 51.0981C29.9532 51.0446 29.9199 51.0579 29.9199 51.0914C29.8799 51.9542 28.5066 51.5462 28.4532 50.3356C29.1932 50.5295 30.4599 50.2687 30.4599 49.0581C30.4599 47.8475 28.9466 47.2321 28.9466 46.3693C28.9466 46.2221 28.9399 45.6269 29.6466 45.6269C30.2199 45.6269 30.6466 46.0616 30.7599 46.5098C30.7666 46.5298 30.7866 46.5365 30.8066 46.5098C30.8866 46.4027 30.8732 45.9546 30.6666 45.7138C30.6466 45.6937 30.6666 45.6469 30.7132 45.6737C30.7732 45.7138 30.9799 45.774 31.1932 45.774C31.6666 45.774 31.9199 45.5132 31.9199 45.0784C31.9199 44.8109 31.8266 44.6704 31.8666 44.5835C31.8866 44.5433 31.8332 44.5166 31.8132 44.5634C31.7466 44.7038 31.6199 45.045 31.1399 45.045H29.9866C28.6932 45.045 28.5799 46.0951 28.5799 46.3492C28.5799 47.4127 29.9266 47.8742 29.9266 48.9511C29.9266 49.2052 29.7932 49.6266 29.1066 49.6266C28.8199 49.6266 28.5199 49.5463 28.3399 49.4661C28.3399 49.4661 28.0332 47.5799 27.1132 46.9178C27.1132 46.9178 26.0466 47.4395 24.9866 46.8642C24.1799 46.4228 23.7932 46.1285 23.0866 46.6235C22.3799 47.1184 21.7599 47.6468 21.6866 47.6334L21.5132 47.6V43.3528C21.8399 43.3193 21.8599 43.6136 21.8466 43.6872C21.8266 43.7808 21.7266 43.8678 21.9399 44.2022C21.9599 44.229 21.9799 44.2156 21.9866 44.1888C21.9932 44.1086 22.0399 43.9614 22.1532 43.9614C22.2666 43.9614 22.7666 44.336 23.1999 44.7707C23.1999 44.7707 23.4466 44.0216 24.0399 43.7875C23.7066 43.734 22.2532 43.3795 22.2532 42.7441C22.2532 42.5301 22.0132 42.4833 21.8532 42.4966C21.8466 42.4766 21.6066 41.9147 21.1666 42.209C21.1466 42.2224 21.1466 42.2558 21.1732 42.2625C21.3732 42.3094 21.4532 42.51 21.4599 42.7307C21.0332 42.597 19.2332 42.0953 17.0999 42.0953C16.0599 42.0953 15.1066 42.2157 14.3466 42.3562V43.8277H13.7532V42.4766M9.8399 57.5659C9.6799 57.5057 9.5799 57.3987 9.5799 57.1913V56.275C9.3199 56.188 8.60657 55.9138 7.1799 55.9138C5.99323 55.9138 5.62657 56.1814 5.60657 56.275L5.29323 58.014C5.29323 58.014 5.77323 57.5726 7.49323 57.6863C9.5599 57.82 11.6999 59.044 11.6999 57.7331V56.9639C10.0866 56.9706 9.84657 57.4923 9.84657 57.5659H9.8399ZM22.5599 56.9639V57.7331C22.5599 59.0374 24.6999 57.8134 26.7666 57.6863C28.4866 57.5793 28.9666 58.014 28.9666 58.014L28.6532 56.2683C28.6399 56.1747 28.2599 55.9071 27.0799 55.9071C25.6532 55.9071 24.9466 56.1814 24.6799 56.2683V57.1846C24.6799 57.392 24.5799 57.4923 24.4199 57.5592C24.4266 57.4856 24.1866 56.9639 22.5666 56.9639H22.5599ZM17.1266 56.1747C20.4599 56.1747 23.8399 56.3486 24.2799 56.8569C24.3132 56.897 24.3266 56.8569 24.3266 56.8235V55.051C24.3266 54.536 20.8332 54.235 17.1199 54.235C13.4066 54.235 9.91323 54.536 9.91323 55.051V56.8235C9.91323 56.8235 9.92657 56.8903 9.9599 56.8569C10.4199 56.3553 13.7999 56.1747 17.1266 56.1747ZM14.1599 47.8274L13.8266 47.7404L13.7999 47.7806L13.4066 47.6067H13.7532C13.7866 47.6067 13.7866 47.5866 13.7732 47.5732C13.6132 47.4127 13.4732 47.2789 13.4732 47.2789C13.4732 47.2789 13.6332 47.3391 13.8532 47.4261C13.8799 47.4328 13.8866 47.4194 13.8732 47.3993C13.7666 47.2388 13.6132 47.0248 13.6132 47.0248C13.6132 47.0248 13.9266 47.2388 13.9866 47.2789C14.0066 47.2923 14.0199 47.2789 14.0132 47.2589C13.9332 47.0515 13.8332 46.8107 13.8332 46.8107L14.1732 47.1385C14.1732 47.1385 14.2066 47.1452 14.1999 47.1251C14.1666 46.9646 14.1066 46.677 14.1066 46.677L14.3599 47.0448C14.3599 47.0448 14.3932 47.0582 14.3932 47.0381C14.3932 46.9646 14.3999 46.6301 14.3999 46.6301C14.3999 46.6301 14.5066 46.8776 14.5599 46.998C14.5732 47.0248 14.5866 47.0248 14.5999 46.9913C14.6132 46.9512 14.7332 46.677 14.7332 46.677L14.7466 47.105L14.6932 47.1184L14.6266 47.6267C15.1266 47.513 15.7532 46.6435 16.2332 46.6435C16.8066 46.6435 17.0132 47.3191 18.0666 46.9713C18.3332 47.3726 18.4266 47.7137 18.5332 48.1886C18.9466 48.5698 19.5132 48.4427 19.5132 48.0347C19.5132 47.4863 18.9199 47.3793 18.9199 46.804C18.9199 46.5499 19.0999 46.182 19.5866 46.182C19.8466 46.182 20.2199 46.289 20.4399 46.289C20.6999 46.289 20.7532 46.1017 20.7799 46.0215C20.7999 45.968 20.8732 45.9814 20.8666 46.0282C20.8599 46.0817 20.8932 46.1619 20.8932 46.2823C20.8932 46.6435 20.3666 46.697 20.3066 46.6435C20.2799 46.6235 20.2599 46.6502 20.2799 46.6703C20.3599 46.7305 20.3399 46.9512 20.2466 47.0916C20.2332 47.105 20.2199 47.105 20.2199 47.0916C20.1666 46.8308 19.8599 46.5098 19.5932 46.5098C19.4999 46.5098 19.2999 46.5633 19.2999 46.7974C19.2999 47.1184 19.9532 47.4194 19.9532 48.0949C19.9532 48.7705 19.2599 48.9644 18.5666 48.7905C18.5866 49.4594 19.5799 49.8473 19.5999 49.3724C19.5999 49.339 19.6199 49.3591 19.6266 49.3724C19.7732 49.5798 19.7066 49.7269 19.5199 49.8139C19.6932 49.8875 19.7266 50.2419 19.7732 50.4493C19.8466 50.7637 20.1799 50.5897 20.1999 50.5831C20.2199 50.5697 20.2266 50.5831 20.2132 50.6031C20.0932 50.9242 19.7532 50.8038 19.7532 50.8038C19.5799 50.9242 19.7866 51.0379 19.9466 51.0847C19.9666 51.0914 19.9666 51.1048 19.9532 51.1181C19.8399 51.1583 19.5932 51.2385 19.4666 51.0312C19.3799 51.2519 19.1932 51.2452 19.1266 51.2452C18.9932 51.2452 18.9132 51.379 18.9399 51.5529C18.9399 51.5663 18.9332 51.573 18.9199 51.5663C18.6199 51.3656 18.7866 51.1248 18.9132 51.0646C18.8932 51.0513 18.6799 50.9643 18.5932 51.2118C18.5866 51.2318 18.5732 51.2318 18.5666 51.2118C18.4332 50.8573 18.7266 50.7503 18.9266 50.8439C18.9132 50.7971 18.8066 50.6165 18.5266 50.6767C18.5132 50.6834 18.5066 50.6767 18.5132 50.6566C18.5599 50.5496 18.6932 50.3891 18.9466 50.5496C19.0799 50.6299 19.2932 50.5162 19.3132 50.5028C18.8666 49.6199 18.0132 50.3556 17.8132 49.6667C17.8066 49.6534 17.7932 49.64 17.7799 49.6801C17.7332 49.8273 17.3532 49.8406 17.2866 49.5463C17.2799 49.5263 17.2866 49.5196 17.3066 49.533C17.3599 49.5865 17.4799 49.6333 17.6332 49.4193C17.7332 49.2654 17.7466 49.0715 17.7466 48.9377C17.7466 48.4026 17.2132 47.493 16.3799 47.493C15.8532 47.493 15.2866 47.7003 14.8599 48.008L15.2532 48.0949C15.2199 48.4962 14.8332 48.7236 14.4866 48.6233L14.5466 48.1685C14.4866 48.1886 14.3332 48.2421 14.2532 48.3625C14.2466 48.3692 14.2332 48.3692 14.2332 48.3558C14.1666 48.0949 14.3799 47.9612 14.4399 47.9344C14.4399 47.9344 14.4399 47.9277 14.4332 47.9277C14.2399 47.921 14.1399 48.0615 14.1066 48.1083C14.0999 48.115 14.0932 48.115 14.0932 48.1083C14.1132 48.0548 14.0799 47.921 14.1666 47.8274H14.1599ZM15.3266 50.9041C15.1732 51.0914 15.0466 50.9108 14.8466 50.9108C14.6599 50.9108 14.6266 51.0713 14.6266 51.1315C14.6266 51.1449 14.6199 51.1449 14.6132 51.1382C14.3999 50.8506 14.6399 50.6901 14.7799 50.67C14.7599 50.6499 14.5532 50.5095 14.4266 50.7035C14.4199 50.7168 14.4066 50.7101 14.4066 50.6968C14.3999 50.3423 14.6799 50.3155 14.8732 50.4694C14.9066 50.3289 14.8199 50.2419 14.6666 50.2353C14.6466 50.2353 14.6466 50.2219 14.6532 50.2152C14.7132 50.1483 14.7732 50.1215 14.8399 50.1215C15.0399 50.1215 15.0666 50.3757 15.1932 50.3757C15.3866 50.3757 15.6666 50.1149 15.6866 50.0881C15.6799 50.0747 15.4932 49.5664 15.5266 49.2654C15.5266 49.252 15.5199 49.252 15.5132 49.2587C15.4199 49.3122 15.1866 49.3056 15.1866 49.0179C15.1866 48.9979 15.1932 48.9912 15.2066 49.0113C15.3066 49.1584 15.4799 48.9912 15.5599 48.8976C15.6466 48.7972 16.1399 48.0816 16.7932 48.0816C16.9399 48.0816 17.1199 48.1618 17.2732 48.2688C17.0466 48.5431 17.2732 48.8039 17.4399 48.7705C17.4599 48.7638 17.4599 48.7838 17.4466 48.7905C16.5866 49.1116 16.1999 49.2454 16.1999 49.9744C16.1999 50.349 16.3332 50.563 16.5466 50.5095C16.5599 50.5028 16.5666 50.5095 16.5532 50.5229C16.4732 50.6165 16.3799 50.6566 16.3066 50.6566C16.1266 50.6566 16.0932 50.563 15.9999 50.563C15.9066 50.563 15.5799 50.757 15.5799 50.9108C15.5799 50.971 15.6199 51.0579 15.7332 51.1248C15.7399 51.1315 15.7332 51.1382 15.7332 51.1382C15.6399 51.1382 15.3866 51.1583 15.3266 50.9175V50.9041ZM17.5932 43.8678C17.3266 43.8544 17.1466 43.9079 17.1599 44.0016C17.2932 44.142 17.4599 44.1219 17.5932 43.8678ZM16.5999 44.5299C16.7932 44.4831 16.9999 44.5032 17.0266 44.5099C17.0532 44.5166 17.0532 44.5634 17.0199 44.5701C16.6199 44.6169 16.5999 44.8042 16.3466 44.8042C16.1799 44.8042 15.9999 44.6303 16.0666 44.3828C16.0732 44.3494 16.0999 44.3494 16.1066 44.3828C16.1332 44.4898 16.2932 44.6102 16.5999 44.5299ZM11.4466 53.3588C11.7066 53.6932 11.9599 53.3789 12.3066 53.3789C12.4799 53.3789 12.6799 53.4324 12.7199 53.7802C12.7199 53.8002 12.7332 53.8002 12.7532 53.7802C13.1266 53.2652 12.6999 52.9776 12.4532 52.9374C12.5066 52.8906 12.8732 52.6632 13.1132 52.9976C13.1266 53.0177 13.1532 53.011 13.1532 52.9842C13.1532 52.3288 12.6666 52.2819 12.3132 52.5629C12.2466 52.3087 12.4332 52.1415 12.6799 52.1415C12.7066 52.1415 12.7199 52.1214 12.7066 52.108C12.2666 51.6398 11.9466 52.2284 11.8732 52.3221C11.6999 52.5562 11.0799 52.1147 10.8266 51.8539C10.8266 51.8539 11.3732 51.2787 11.3732 50.7503C11.3732 50.7168 11.3666 50.6767 11.3666 50.6566C11.3666 50.6433 11.3732 50.6366 11.3866 50.6433C11.4399 50.6767 11.5199 50.6968 11.5932 50.6968C11.7132 50.6968 11.9532 50.6566 11.9532 50.2085C11.9532 50.1751 11.9399 50.1751 11.9266 50.1951C11.8599 50.2888 11.7866 50.3088 11.7332 50.3088C11.2866 50.3088 10.3666 48.824 9.26657 48.824C8.9799 48.824 8.4399 49.0313 8.17323 49.3256C8.30657 49.3992 8.33323 49.5664 8.3199 49.6801C8.2999 49.8674 8.14657 49.961 7.9999 50.0012C7.97323 50.0078 7.97323 50.0279 7.9999 50.0413C8.55323 50.2553 9.55323 50.6299 9.78657 50.8305C10.0532 51.0646 10.0066 51.5061 9.84657 52.1147C9.69323 52.6966 9.37323 52.6231 9.25323 52.603C9.23323 52.603 9.23323 52.6097 9.2399 52.6231C9.38657 52.8037 9.55323 52.8638 9.70657 52.8638C9.99323 52.8638 10.1066 52.6833 10.2466 52.6833C10.4932 52.6833 11.0199 53.0377 11.0199 53.312C11.0199 53.4658 10.9066 53.6063 10.7466 53.7066C10.7399 53.7133 10.7399 53.7267 10.7532 53.7267C10.8666 53.7467 11.3532 53.7869 11.4532 53.3521L11.4466 53.3588ZM23.5132 53.74C23.5132 53.74 23.5332 53.7267 23.5199 53.72C23.3666 53.6197 23.2466 53.4792 23.2466 53.3254C23.2466 53.0511 23.7666 52.6966 24.0199 52.6966C24.1732 52.6966 24.2732 52.8772 24.5599 52.8772C24.7132 52.8772 24.8799 52.817 25.0266 52.6364C25.0399 52.6231 25.0332 52.6097 25.0132 52.6164C24.8999 52.6364 24.5666 52.71 24.4199 52.1281C24.2599 51.5195 24.2066 51.078 24.4799 50.8439C24.7066 50.6433 25.7132 50.2687 26.2666 50.0547C26.2932 50.0413 26.2932 50.0212 26.2666 50.0145C26.1132 49.9744 25.9666 49.8741 25.9466 49.6935C25.9332 49.5798 25.9599 49.4193 26.0932 49.339C25.8199 49.0447 25.2799 48.8374 24.9932 48.8374C23.8999 48.8374 22.9732 50.3222 22.5266 50.3222C22.4732 50.3222 22.3932 50.3021 22.3332 50.2085C22.3199 50.1884 22.3066 50.1884 22.3066 50.2219C22.3066 50.67 22.5466 50.7101 22.6666 50.7101C22.7332 50.7101 22.8199 50.6901 22.8732 50.6566C22.8866 50.6499 22.8932 50.6566 22.8932 50.67C22.8932 50.6901 22.8866 50.7302 22.8866 50.7637C22.8866 51.292 23.4332 51.8673 23.4332 51.8673C23.1866 52.1281 22.5666 52.5629 22.3866 52.3355C22.3132 52.2418 21.9866 51.6532 21.5532 52.1214C21.5399 52.1415 21.5466 52.1549 21.5799 52.1549C21.8266 52.1549 22.0199 52.3221 21.9466 52.5762C21.5932 52.2953 21.1066 52.3421 21.1066 52.9976C21.1066 53.0244 21.1332 53.0311 21.1466 53.011C21.3799 52.6766 21.7466 52.904 21.7999 52.9508C21.5532 52.9842 21.1266 53.2785 21.4999 53.7936C21.5132 53.8136 21.5266 53.8136 21.5332 53.7936C21.5732 53.4591 21.7799 53.3922 21.9466 53.3922C22.2866 53.3922 22.5399 53.7066 22.8066 53.3722C22.9132 53.8136 23.3999 53.7735 23.5199 53.7467L23.5132 53.74ZM14.6799 45.1787C14.6466 45.2256 14.5266 45.1787 14.4866 45.1587C14.4799 45.152 14.4732 45.1587 14.4799 45.1654C14.5066 45.2256 14.6199 45.4128 14.7799 45.4128C14.8532 45.4128 14.9666 45.3727 14.9932 45.3192C14.9932 45.3192 15.6332 45.5332 15.9532 45.6135C15.8332 45.7807 15.7532 45.9747 15.7332 46.1887C15.4799 46.0282 14.4532 45.4797 14.4532 45.4797L14.1399 45.9212C14.0866 45.988 13.8332 45.8075 13.8866 45.7339L14.1266 45.3995C14.0466 45.3192 13.8532 45.366 13.7999 45.3861C13.7932 45.3861 13.7866 45.3861 13.7932 45.3727C13.8266 45.3058 13.9466 45.1052 14.2466 45.1921C14.2466 45.0048 13.9732 45.0717 13.8999 45.0918C13.8932 45.0918 13.8866 45.0918 13.8932 45.0851C13.9666 45.0048 14.1932 44.8242 14.4399 44.9781L14.5466 44.8242L14.3266 44.5901L14.4666 44.3962L14.6266 44.6035L15.8132 42.9782C15.8399 42.9381 16.0799 42.8712 16.1599 42.8444C16.1666 42.9314 16.1799 43.1789 16.1532 43.219L14.9866 44.8577L15.2332 44.9379L15.0932 45.1319L14.8066 44.9915L14.6866 45.172L14.6799 45.1787ZM18.8332 44.9112C18.8332 45.065 18.9199 45.2791 19.1199 45.2122C19.1266 45.2055 19.1399 45.2122 19.1332 45.2189C19.1066 45.3861 18.8066 45.5332 18.6732 45.3393C18.5532 45.5934 18.5866 45.8342 18.8399 45.968C18.8532 45.9747 18.8532 45.9947 18.8399 46.0081C18.6799 46.1151 18.4399 46.0951 18.3332 45.8743C18.1199 46.0349 18.1466 46.376 18.2799 46.4897C18.2799 46.4897 17.6932 46.8375 17.1599 46.59C16.8066 46.4161 16.5199 46.1954 16.0599 46.2422C16.1199 45.6001 16.4399 45.4329 17.0332 45.3326C17.5066 45.259 17.5599 45.0383 17.4999 44.8711C17.3399 44.8309 17.0466 44.9714 17.0466 44.9714C16.9932 44.8844 17.0666 44.7908 17.0666 44.7908C17.0399 44.7574 17.0266 44.637 17.0266 44.637C17.3532 44.637 17.4199 44.5634 17.4199 44.5634C17.4799 44.2223 17.1332 44.1888 16.8666 44.3694C16.7466 44.2624 16.7666 44.1153 16.7666 44.1153C16.7332 44.0952 16.7066 44.0417 16.7066 44.0149C16.7066 43.9347 17.0999 43.7139 17.1999 43.6872C17.2266 43.5735 17.3666 43.413 17.7799 43.4531C17.8266 43.3461 17.7466 42.9381 17.6999 42.8377C17.6866 42.8043 17.7066 42.7909 17.7399 42.811C17.8866 42.8979 18.0266 43.2457 18.1332 43.2524C18.1332 43.2524 18.5999 43.005 18.6199 43.0183C18.6399 43.0317 18.7066 43.5534 18.7066 43.5534C18.7666 43.627 19.1332 43.5534 19.2866 43.6203C19.3266 43.6404 19.3266 43.6671 19.2866 43.6738C19.1732 43.6939 18.7932 43.8611 18.7332 43.9614C18.9532 44.2825 18.8466 44.7574 18.8466 44.8911L18.8332 44.9112Z" fill="white"/>
<path d="M42.8 43.9146V37.1592H44.7534C45.5867 37.1592 46.2134 37.3264 46.6334 37.6608C47.0534 37.9952 47.2601 38.4568 47.2601 39.0387C47.2601 39.3597 47.2067 39.6473 47.1134 39.9015C47.0201 40.1556 46.8734 40.3697 46.6867 40.5503C46.5001 40.7309 46.2801 40.8713 46.0267 40.985L47.8134 43.9079H46.4001L44.8934 41.3128H44.0134V43.9079H42.8134L42.8 43.9146ZM43.9867 40.363H44.7467C45.1267 40.363 45.4334 40.2693 45.66 40.0821C45.8867 39.8948 46.0001 39.6072 46.0001 39.2192C46.0001 38.8581 45.8934 38.5838 45.6867 38.4032C45.4801 38.2227 45.1467 38.129 44.6934 38.129H43.9867V40.363Z" fill="#154273"/>
<path d="M49.1268 38.002C48.9201 38.002 48.7601 37.9418 48.6334 37.8281C48.5068 37.7144 48.4468 37.5538 48.4468 37.3532C48.4468 37.1525 48.5068 36.9853 48.6334 36.8649C48.7601 36.7445 48.9201 36.6843 49.1268 36.6843C49.3468 36.6843 49.5134 36.7445 49.6268 36.8649C49.7401 36.9853 49.7934 37.1458 49.7934 37.3532C49.7934 37.5605 49.7334 37.7077 49.6268 37.8281C49.5201 37.9485 49.3468 38.002 49.1268 38.002ZM48.5601 43.9146V38.838L49.7001 38.7645V43.9146H48.5601Z" fill="#154273"/>
<path d="M50.4135 45.9212L50.3135 45.0049C50.5868 44.938 50.7868 44.8176 50.9068 44.6504C51.0268 44.4831 51.0935 44.2424 51.0935 43.9414V38.838L52.2335 38.7645V43.928C52.2335 44.3494 52.1535 44.6972 51.9935 44.9848C51.8335 45.2657 51.6135 45.4797 51.3401 45.6269C51.0668 45.774 50.7601 45.8744 50.4135 45.9212ZM51.6535 38.002C51.4468 38.002 51.2868 37.9418 51.1601 37.8281C51.0335 37.7144 50.9735 37.5538 50.9735 37.3532C50.9735 37.1525 51.0335 36.9853 51.1601 36.8649C51.2868 36.7445 51.4468 36.6843 51.6535 36.6843C51.8735 36.6843 52.0401 36.7445 52.1535 36.8649C52.2668 36.9853 52.3201 37.1458 52.3201 37.3532C52.3201 37.5605 52.2601 37.7077 52.1535 37.8281C52.0468 37.9485 51.8735 38.002 51.6535 38.002Z" fill="#154273"/>
<path d="M53.5935 43.9146V36.7579L54.7335 36.6977V40.664H55.1535L56.6335 38.8447H57.9468L56.1602 40.9783L58.0802 43.9213H56.7268L55.2202 41.5736H54.7402V43.9213H53.6002L53.5935 43.9146Z" fill="#154273"/>
<path d="M60.2467 44.0083C59.9467 44.0083 59.6801 43.9949 59.4467 43.9748C59.2134 43.9481 58.9934 43.9146 58.7867 43.8678V42.8579C59.0334 42.9247 59.2801 42.9716 59.5201 43.005C59.7601 43.0318 60.0067 43.0451 60.2467 43.0451C60.5934 43.0451 60.8467 42.9916 60.9934 42.8913C61.1467 42.791 61.2201 42.6572 61.2201 42.4967C61.2201 42.3562 61.1667 42.2425 61.0534 42.1489C60.9401 42.0552 60.7534 41.9683 60.4801 41.8947L59.8867 41.7074C59.5401 41.6004 59.2667 41.4399 59.0801 41.2259C58.8934 41.0051 58.8001 40.7175 58.8001 40.3563C58.8001 40.042 58.8867 39.7678 59.0534 39.527C59.2201 39.2862 59.4601 39.0989 59.7734 38.9584C60.0867 38.818 60.4601 38.7511 60.9001 38.7511C61.1467 38.7511 61.3734 38.7578 61.5734 38.7779C61.7734 38.7979 61.9667 38.818 62.1401 38.8581L62.0601 39.828C61.8534 39.7945 61.6601 39.7678 61.4801 39.7544C61.3001 39.741 61.1001 39.7343 60.8801 39.7343C60.5401 39.7343 60.2934 39.7811 60.1534 39.8748C60.0134 39.9684 59.9401 40.0888 59.9401 40.2426C59.9401 40.3831 59.9867 40.4901 60.0801 40.5771C60.1734 40.664 60.3401 40.7309 60.5801 40.7978L61.1734 40.9516C61.5734 41.0653 61.8667 41.2325 62.0667 41.4533C62.2667 41.674 62.3667 41.9616 62.3667 42.3161C62.3667 42.6706 62.2801 42.9649 62.1134 43.219C61.9401 43.4732 61.7001 43.6738 61.3867 43.8143C61.0734 43.9548 60.7001 44.0217 60.2601 44.0217L60.2467 44.0083Z" fill="#154273"/>
<path d="M65.5467 44.0083C65.0734 44.0083 64.6601 43.9146 64.3067 43.7273C63.9534 43.5401 63.6801 43.2591 63.4801 42.8779C63.2801 42.4966 63.1801 42.0285 63.1801 41.4666C63.1801 40.9048 63.2934 40.4232 63.5267 40.0152C63.7534 39.6072 64.0601 39.2928 64.4467 39.0721C64.8267 38.8514 65.2467 38.7444 65.6867 38.7444C66.1601 38.7444 66.5734 38.838 66.9201 39.0253C67.2734 39.2126 67.5467 39.4935 67.7467 39.8747C67.9467 40.2493 68.0467 40.7242 68.0467 41.286C68.0467 41.8479 67.9334 42.3294 67.7001 42.7374C67.4667 43.1454 67.1667 43.4598 66.7801 43.6805C66.3934 43.9012 65.9801 44.0083 65.5401 44.0083H65.5467ZM65.6134 42.9983C65.8601 42.9983 66.0801 42.9314 66.2667 42.8043C66.4534 42.6772 66.6067 42.4833 66.7201 42.2425C66.8334 42.0017 66.8867 41.694 66.8867 41.3262C66.8867 40.7911 66.7734 40.3965 66.5401 40.1423C66.3067 39.8881 66.0001 39.7544 65.6134 39.7544C65.3734 39.7544 65.1601 39.8212 64.9667 39.9483C64.7734 40.0754 64.6201 40.2694 64.5134 40.5168C64.4001 40.7643 64.3467 41.0653 64.3467 41.4332C64.3467 41.9683 64.4601 42.3629 64.6934 42.617C64.9267 42.8712 65.2334 43.005 65.6201 43.005L65.6134 42.9983Z" fill="#154273"/>
<path d="M70.0601 43.9146L68.4468 38.838H69.7534L70.8601 42.9983H70.9201L72.0468 38.838H73.2268L71.6068 43.9146H70.0534H70.0601Z" fill="#154273"/>
<path d="M76.1134 44.0083C75.34 44.0083 74.7267 43.7942 74.28 43.3662C73.8334 42.9381 73.6067 42.2826 73.6067 41.3997C73.6067 40.8111 73.7067 40.3229 73.9067 39.9349C74.1067 39.547 74.38 39.246 74.72 39.0454C75.06 38.8447 75.4467 38.7444 75.8667 38.7444C76.2867 38.7444 76.6467 38.8246 76.9467 38.9852C77.2467 39.1457 77.48 39.3798 77.64 39.6875C77.8 39.9951 77.88 40.3697 77.88 40.8111C77.88 40.965 77.88 41.1121 77.88 41.2526C77.88 41.393 77.8667 41.5268 77.8534 41.6472H74.7334C74.76 41.9616 74.84 42.2157 74.9667 42.4231C75.0934 42.6237 75.2667 42.7776 75.4867 42.8779C75.7067 42.9782 75.96 43.025 76.2534 43.025C76.5467 43.025 76.8 43.005 77.0334 42.9648C77.2667 42.9247 77.5067 42.8578 77.7534 42.7709V43.7206C77.4934 43.8143 77.24 43.8879 76.9934 43.9347C76.7467 43.9815 76.4534 44.0083 76.12 44.0083H76.1134ZM74.72 40.8178H76.76C76.76 40.4433 76.6734 40.1557 76.5067 39.9483C76.34 39.741 76.1 39.6406 75.8 39.6406C75.5267 39.6406 75.2934 39.7477 75.0934 39.955C74.8934 40.1624 74.7734 40.45 74.7267 40.8178H74.72Z" fill="#154273"/>
<path d="M79.0134 43.9146V38.838L80.1401 38.7845V39.3597C80.3201 39.1323 80.4934 38.9718 80.6668 38.8781C80.8401 38.7845 81.0134 38.7377 81.2001 38.7377C81.3268 38.7377 81.4268 38.7377 81.5134 38.751C81.6001 38.7644 81.6934 38.7778 81.7934 38.8112L81.7134 39.9149C81.6068 39.8814 81.5068 39.8613 81.4134 39.848C81.3201 39.8346 81.2201 39.8346 81.1134 39.8346C80.9468 39.8346 80.7934 39.8613 80.6468 39.9215C80.5001 39.9817 80.3401 40.0754 80.1601 40.2158V43.9146H79.0201H79.0134Z" fill="#154273"/>
<path d="M82.5533 43.9146V36.7579L83.6933 36.6977V39.1256C83.9067 38.9919 84.1133 38.8982 84.32 38.838C84.5267 38.7778 84.7667 38.7444 85.04 38.7444C85.5867 38.7444 86.0133 38.8982 86.32 39.2059C86.6267 39.5136 86.7733 39.9617 86.7733 40.557V43.9146H85.6333V40.7576C85.6333 40.4566 85.5533 40.2159 85.3933 40.0486C85.2333 39.8814 85 39.7945 84.6933 39.7945C84.5 39.7945 84.3333 39.8079 84.1933 39.8346C84.0467 39.8614 83.8867 39.9082 83.7 39.9818V43.9146H82.56H82.5533Z" fill="#154273"/>
<path d="M90.3533 44.0083C89.58 44.0083 88.9667 43.7942 88.52 43.3662C88.0733 42.9381 87.8467 42.2826 87.8467 41.3997C87.8467 40.8111 87.9467 40.3229 88.1467 39.9349C88.3467 39.547 88.62 39.246 88.96 39.0454C89.3 38.8447 89.6867 38.7444 90.1067 38.7444C90.5267 38.7444 90.88 38.8246 91.1867 38.9852C91.4867 39.1457 91.72 39.3798 91.88 39.6875C92.04 39.9951 92.12 40.3697 92.12 40.8111C92.12 40.965 92.12 41.1121 92.12 41.2526C92.12 41.393 92.1067 41.5268 92.0933 41.6472H88.9733C89 41.9616 89.08 42.2157 89.2067 42.4231C89.3333 42.6237 89.5067 42.7776 89.7267 42.8779C89.9467 42.9782 90.2 43.025 90.4933 43.025C90.7867 43.025 91.04 43.005 91.2733 42.9648C91.5067 42.9247 91.7467 42.8578 91.9933 42.7709V43.7206C91.7333 43.8143 91.48 43.8879 91.2333 43.9347C90.9867 43.9815 90.6933 44.0083 90.36 44.0083H90.3533ZM88.9533 40.8178H90.9933C90.9933 40.4433 90.9067 40.1557 90.74 39.9483C90.5733 39.741 90.3333 39.6406 90.0333 39.6406C89.76 39.6406 89.5267 39.7477 89.3267 39.955C89.1267 40.1624 89.0067 40.45 88.96 40.8178H88.9533Z" fill="#154273"/>
<path d="M93.8067 38.002C93.6 38.002 93.44 37.9418 93.3134 37.8281C93.1867 37.7144 93.1267 37.5538 93.1267 37.3532C93.1267 37.1525 93.1867 36.9853 93.3134 36.8649C93.44 36.7445 93.6 36.6843 93.8067 36.6843C94.0267 36.6843 94.1934 36.7445 94.3067 36.8649C94.42 36.9853 94.4734 37.1458 94.4734 37.3532C94.4734 37.5605 94.4134 37.7077 94.3067 37.8281C94.2 37.9485 94.0267 38.002 93.8067 38.002ZM93.24 43.9146V38.838L94.38 38.7645V43.9146H93.24Z" fill="#154273"/>
<path d="M97.6268 44.0082C97.2001 44.0082 96.8268 43.9146 96.5068 43.7273C96.1868 43.5401 95.9334 43.2591 95.7534 42.8913C95.5734 42.5234 95.4801 42.0619 95.4801 41.5134C95.4801 40.9315 95.5934 40.4366 95.8268 40.0219C96.0534 39.6072 96.3734 39.2928 96.7734 39.0721C97.1734 38.8514 97.6268 38.7444 98.1334 38.7444C98.2801 38.7444 98.4068 38.7444 98.5268 38.7578C98.6468 38.7711 98.7601 38.7912 98.8601 38.8246V36.7579L100 36.6977V43.9146H98.9001V43.6069C98.7201 43.734 98.5201 43.8277 98.3001 43.9012C98.0801 43.9748 97.8534 44.0082 97.6268 44.0082ZM97.9268 43.0117C98.1201 43.0117 98.2868 42.9916 98.4268 42.9581C98.5668 42.9247 98.7134 42.8578 98.8734 42.7776V39.7945C98.7468 39.7744 98.6268 39.761 98.5068 39.7477C98.3868 39.7343 98.2601 39.7343 98.1201 39.7343C97.8268 39.7343 97.5668 39.8012 97.3468 39.9349C97.1268 40.0687 96.9534 40.2627 96.8268 40.5168C96.7001 40.771 96.6401 41.0787 96.6401 41.4399C96.6401 41.9816 96.7601 42.3829 96.9934 42.6371C97.2268 42.8913 97.5401 43.0183 97.9201 43.0183L97.9268 43.0117Z" fill="#154273"/>
</g>
<defs>
<clipPath id="clip0_302_210">
<rect width="100" height="68" fill="white"/>
</clipPath>
</defs>
</svg>
