<svg preserveAspectRatio="none" width="100%" height="100%" overflow="visible" style="display: block;" viewBox="0 0 34.22 68.6577" fill="none" xmlns="http://www.w3.org/2000/svg">
<g id="Beeldmerk">
<path id="Vector" d="M34.22 0H0V68.6577H34.22V0Z" fill="var(--fill-0, #154273)"/>
<path id="Vector_2" d="M17.7267 53.1136H17.1333V51.4615H17.7267V53.1136ZM20.4133 45.8097H19.82V44.1576H20.4133V45.8097ZM9.38 42.9537C9.33333 42.9537 9.02667 42.9537 9.02667 43.0139C9.02667 43.0741 9.17333 43.0473 9.38 43.0808C9.86 43.1611 10.0467 43.4018 10.38 43.4018C10.68 43.4018 10.9933 43.1945 10.8733 42.7597C10.8533 42.6862 10.8133 42.7062 10.8 42.753C10.7533 42.9537 10.5133 43.0607 10.26 43.0607C9.94667 43.0607 9.88667 42.9537 9.38667 42.9537H9.38ZM6.10667 44.6058C6.16 44.6793 6.72 45.4084 5.86 45.6893C5.82 45.7027 5.81333 45.7361 5.86667 45.7629C6.5 46.0304 6.81333 45.5355 6.81333 45.5355C7.13333 46.2779 6.64 46.6792 6.64 46.6792C6.70667 46.813 7.01333 47.0337 7.47333 47.1407C7.65333 47.0471 7.9 46.8665 8 46.5923C8 46.5923 8.12 46.9133 8.01333 47.221C9.31333 47.3347 9.77333 46.2913 10.78 46.4852C10.8067 46.4919 10.82 46.4719 10.82 46.4451C10.82 45.803 10.4267 44.6258 9.18667 44.3851C7.94667 44.1443 8.28 43.6359 8.28 43.6359C8.8 43.6159 9.1 43.8433 9.1 43.8433C9.19333 43.6828 9.06 43.5222 9.06 43.5222C9.10667 43.462 9.13333 43.248 9.13333 43.248C8.54667 43.248 8.39333 43.1142 8.39333 43.1142C8.30667 42.7664 8.54667 42.2715 9.42 42.7999C9.64 42.6059 9.62 42.3049 9.62 42.3049C9.68667 42.2715 9.72667 42.1645 9.72667 42.1243C9.72667 41.9772 9.02667 41.5892 8.85333 41.5424C8.81333 41.3284 8.54 41.0274 7.72 41.1344C7.32667 41.1812 7.04667 41.0809 7.18 40.8535C7.2 40.8134 7.13333 40.8067 7.1 40.8468C7.01333 40.9338 6.88667 41.1879 7.22 41.3618C7.59333 41.5558 7.62 41.9304 7.62667 41.9839C7.63333 42.0641 7.54 42.0708 7.52 41.9906C7.34667 41.3551 6.47333 41.2147 5.96 41.5491C5.98667 41.8902 6.36 42.1176 6.55333 42.1176C6.66667 42.1176 6.82667 42.0039 6.82667 41.8434C6.82667 41.7698 6.86667 41.7765 6.88667 41.8367C6.96667 42.0641 6.63333 42.539 6.14 42.2514C5.63333 42.7597 5.84 43.3885 5.88667 43.6159C5.97333 44.0306 5.78 44.4319 5.4 44.2446C5.38 44.2379 5.36 44.2312 5.36 44.2713C5.36667 44.5188 5.7 44.8131 6.10667 44.5857V44.6058ZM8.89333 42.0441C8.65333 42.3116 8.27333 42.2514 8.17333 41.81C8.66667 41.7832 8.87333 41.83 8.89333 42.0441ZM24 43.0607C23.7467 43.0607 23.5067 42.9537 23.46 42.753C23.4467 42.7062 23.4067 42.6862 23.3867 42.7597C23.2667 43.2012 23.58 43.4018 23.88 43.4018C24.2133 43.4018 24.4 43.1611 24.88 43.0808C25.0933 43.0473 25.2333 43.0808 25.2333 43.0139C25.2333 42.9537 24.9267 42.9537 24.88 42.9537C24.3867 42.9537 24.32 43.0607 24.0067 43.0607H24ZM28.9 44.278C28.9 44.2379 28.88 44.2446 28.86 44.2513C28.4867 44.4386 28.2867 44.0372 28.3733 43.6226C28.42 43.3885 28.6267 42.7664 28.12 42.2581C27.62 42.5457 27.2867 42.0708 27.3733 41.8434C27.3933 41.7832 27.4333 41.7765 27.4333 41.8501C27.4333 42.0106 27.5933 42.1243 27.7067 42.1243C27.9067 42.1243 28.2733 41.8969 28.3 41.5558C27.7867 41.2214 26.9133 41.3551 26.74 41.9972C26.72 42.0775 26.6267 42.0708 26.6333 41.9906C26.6333 41.937 26.66 41.5558 27.04 41.3685C27.38 41.1946 27.26 40.9405 27.16 40.8535C27.1267 40.8201 27.0533 40.8268 27.08 40.8602C27.2133 41.0876 26.9267 41.1879 26.5467 41.1411C25.7267 41.0341 25.46 41.3418 25.4133 41.5491C25.2333 41.5959 24.54 41.9906 24.54 42.131C24.54 42.1711 24.58 42.2849 24.6467 42.3116C24.6467 42.3116 24.6333 42.6059 24.8467 42.8066C25.7133 42.2782 25.96 42.7731 25.8733 43.1209C25.8733 43.1209 25.7133 43.2413 25.1267 43.2547C25.1267 43.2547 25.1533 43.4687 25.2 43.5289C25.2 43.5289 25.06 43.7028 25.16 43.85C25.16 43.85 25.46 43.6226 25.98 43.6426C25.98 43.6426 26.3133 44.151 25.0733 44.3917C23.8333 44.6325 23.44 45.803 23.44 46.4518C23.44 46.4852 23.4533 46.4986 23.48 46.4919C24.4867 46.3047 24.9467 47.3481 26.2467 47.2277C26.1333 46.92 26.26 46.599 26.26 46.599C26.36 46.8732 26.6067 47.0605 26.7867 47.1474C27.2533 47.0471 27.5533 46.8264 27.62 46.6859C27.62 46.6859 27.1267 46.2779 27.4467 45.5422C27.4467 45.5422 27.7533 46.0371 28.3933 45.7696C28.4467 45.7428 28.4333 45.7094 28.4 45.696C27.54 45.4151 28.1 44.686 28.1533 44.6125C28.56 44.8532 28.9 44.559 28.9 44.2981V44.278ZM26.08 41.8167C25.9867 42.2581 25.6 42.3183 25.36 42.0508C25.38 41.8367 25.5933 41.7899 26.08 41.8167ZM16.9067 34.4727C16.9067 34.5797 16.9533 34.68 16.9867 34.7335C17.06 34.8405 17.0467 34.9074 17.0133 34.9409C16.98 34.9743 16.92 34.9877 16.8067 34.9141C16.7533 34.874 16.6533 34.8338 16.5467 34.8338C16.36 34.8338 16.2667 34.9542 16.2667 35.0612C16.2667 35.1683 16.36 35.2887 16.5467 35.2887C16.6533 35.2887 16.7533 35.2418 16.8067 35.2084C16.9133 35.1348 16.98 35.1482 17.0133 35.1816C17.0467 35.2151 17 35.5963 16.9533 35.8973C16.6467 35.9642 16.4933 36.2117 16.4933 36.3588C16.4933 36.7334 16.8933 36.9474 17.1267 37.0812C17.36 36.9608 17.76 36.7401 17.76 36.3588C17.76 36.2117 17.6067 35.9575 17.3 35.8973C17.26 35.603 17.2067 35.2151 17.24 35.1816C17.2733 35.1482 17.3333 35.1348 17.4467 35.2084C17.5 35.2485 17.6 35.2887 17.7067 35.2887C17.8933 35.2887 17.9867 35.1683 17.9867 35.0612C17.9867 34.9542 17.8933 34.8338 17.7067 34.8338C17.6 34.8338 17.5 34.8807 17.4467 34.9141C17.34 34.9877 17.2733 34.9743 17.24 34.9409C17.2067 34.9074 17.1933 34.8472 17.2667 34.7335C17.3067 34.68 17.3467 34.5797 17.3467 34.4727C17.3467 34.2854 17.2267 34.1917 17.12 34.1917C17.0133 34.1917 16.8933 34.2854 16.8933 34.4727H16.9067ZM17.1267 37.2618C16.8733 37.2618 16.6667 37.4691 16.6667 37.7233C16.6667 37.9774 16.8733 38.1848 17.1267 38.1848C17.38 38.1848 17.5867 37.9774 17.5867 37.7233C17.5867 37.4691 17.38 37.2618 17.1267 37.2618ZM17.1267 41.6628C18.9533 41.6628 19.98 42.0106 19.98 42.0106C19.9867 41.0809 19.9867 40.5659 20.5133 40.6462C20.2267 39.8703 21.4733 39.5626 21.4733 38.5527C21.4733 37.8838 21 37.8102 20.8667 37.8102C20.4533 37.8102 20.52 38.0778 20.1667 38.0778C20.1267 38.0778 20.08 38.0644 20.08 38.0978C20.08 38.2115 20.1733 38.4122 20.34 38.4122C20.56 38.4122 20.56 38.1915 20.72 38.1915C20.7867 38.1915 20.8933 38.245 20.8933 38.4724C20.8933 38.9071 20.6133 39.382 20.28 39.7499C20.2067 39.6496 20.1 39.576 19.9733 39.576C19.7733 39.576 19.6067 39.7833 19.6067 40.0375C19.6067 40.1311 19.62 40.2047 19.6533 40.2783C19.5467 40.3385 19.44 40.3719 19.3733 40.3719C19.22 40.3719 19 40.3117 19 39.9773C19 39.2416 19.98 38.5995 19.98 37.6631C19.98 37.215 19.6867 36.7802 19.06 36.7802C18.3933 36.7802 18.52 37.3822 17.9467 37.3822C17.92 37.3822 17.9 37.3889 17.9 37.4156C17.9 37.4557 18 37.7902 18.3 37.7902C18.6133 37.7902 18.7067 37.2417 18.9933 37.2417C19.0933 37.2417 19.2533 37.3019 19.2533 37.6765C19.2533 37.9641 19.1067 38.439 18.9067 38.8871C18.8333 38.8135 18.7267 38.7533 18.62 38.7533C18.3733 38.7533 18.1933 38.9941 18.1933 39.275C18.1933 39.4556 18.26 39.6295 18.3867 39.7432C18.24 39.9305 18.0933 40.0776 17.8933 40.0776C17.4933 40.0776 17.3267 39.8502 17.3267 39.6028C17.3267 39.3352 17.8133 39.2416 17.8133 38.8269C17.8133 38.546 17.6267 38.3854 17.46 38.3854C17.2667 38.3854 17.1733 38.5058 17.1533 38.5058C17.1333 38.5058 17.04 38.3854 16.8467 38.3854C16.6667 38.3854 16.4933 38.546 16.4933 38.8269C16.4933 39.2416 16.98 39.3419 16.98 39.6028C16.98 39.8502 16.8 40.0776 16.4133 40.0776C16.2133 40.0776 16.0667 39.9238 15.92 39.7432C16.04 39.6295 16.1133 39.4556 16.1133 39.275C16.1133 38.9874 15.9333 38.7533 15.6867 38.7533C15.5733 38.7533 15.4733 38.8068 15.4 38.8871C15.1933 38.4323 15.0533 37.9641 15.0533 37.6765C15.0533 37.3086 15.2133 37.2417 15.3133 37.2417C15.5933 37.2417 15.68 37.7902 16.0067 37.7902C16.3 37.7902 16.4067 37.4557 16.4067 37.4156C16.4067 37.3955 16.3867 37.3822 16.36 37.3822C15.7867 37.3822 15.9067 36.7802 15.2467 36.7802C14.6333 36.7802 14.3267 37.2216 14.3267 37.6631C14.3267 38.5995 15.3067 39.2416 15.3067 39.9773C15.3067 40.3051 15.08 40.3719 14.9333 40.3719C14.86 40.3719 14.76 40.3385 14.6533 40.2783C14.6867 40.198 14.7 40.1311 14.7 40.0375C14.7 39.7833 14.5267 39.576 14.3333 39.576C14.2133 39.576 14.1067 39.6429 14.0333 39.7499C13.7 39.382 13.42 38.9071 13.42 38.4724C13.42 38.2517 13.52 38.1915 13.5933 38.1915C13.7533 38.1915 13.76 38.4122 13.9733 38.4122C14.14 38.4122 14.2333 38.2115 14.2333 38.0978C14.2333 38.0644 14.1867 38.0778 14.1467 38.0778C13.8 38.0778 13.86 37.8102 13.4467 37.8102C13.3067 37.8102 12.84 37.8838 12.84 38.5527C12.84 39.5693 14.0867 39.8703 13.8 40.6462C14.3267 40.5726 14.32 41.0876 14.3333 42.0106C14.3267 42.0106 15.3533 41.6628 17.18 41.6628H17.1267ZM13.78 43.0273C13.28 43.1343 12.9267 43.2413 12.7667 43.2881C12.7733 43.0674 12.8533 42.8601 13.0533 42.8199C13.08 42.8132 13.0867 42.7798 13.06 42.7664C12.6133 42.4721 12.38 43.034 12.3733 43.054C12.2133 43.0407 11.9733 43.0875 11.9733 43.3015C11.9733 43.9369 10.52 44.2914 10.1867 44.3449C10.78 44.5723 11.0267 45.3281 11.0267 45.3281C11.46 44.8934 11.96 44.5188 12.0733 44.5188C12.1867 44.5188 12.2333 44.666 12.24 44.7462C12.24 44.773 12.2667 44.7797 12.2867 44.7596C12.5133 44.4252 12.4 44.3449 12.38 44.2446C12.3667 44.171 12.3867 43.8767 12.7133 43.9102V48.1574L12.54 48.1908C12.4667 48.2042 11.84 47.6758 11.14 47.1809C10.4267 46.6859 10.0533 46.9802 9.24667 47.4216C8.18667 47.9969 7.12 47.4752 7.12 47.4752C6.20667 48.1306 5.89333 50.0235 5.89333 50.0235C5.70667 50.0971 5.40667 50.184 5.12667 50.184C4.42667 50.184 4.30667 49.7559 4.30667 49.5085C4.30667 48.4316 5.65333 47.9701 5.65333 46.9066C5.65333 46.6458 5.54 45.6024 4.24667 45.6024H3.09333C2.60667 45.6024 2.49333 45.2546 2.42 45.1208C2.39333 45.0673 2.34667 45.1007 2.36667 45.1409C2.4 45.2278 2.31333 45.3683 2.31333 45.6358C2.31333 46.0706 2.56667 46.3314 3.04 46.3314C3.25333 46.3314 3.46 46.2712 3.52 46.2311C3.56 46.2043 3.58667 46.2445 3.56667 46.2712C3.36 46.512 3.34667 46.9668 3.42667 47.0672C3.44667 47.0939 3.47333 47.0872 3.47333 47.0672C3.58667 46.6123 4.01333 46.1843 4.58667 46.1843C5.29333 46.1843 5.28667 46.7795 5.28667 46.9267C5.28667 47.7895 3.77333 48.4249 3.77333 49.6155C3.77333 50.806 5.04667 51.0803 5.78 50.893C5.74 52.1036 4.35333 52.5116 4.31333 51.6488C4.31333 51.6087 4.28 51.602 4.26 51.6555C4.08667 52.0835 4.16 52.4581 4.69333 52.5785C4.72667 52.5852 4.71333 52.6052 4.68 52.632C4.14667 52.9664 4.43333 54.2974 4.46 54.6921C4.5 55.2539 3.94 55.187 3.89333 55.1736C3.87333 55.167 3.84667 55.1736 3.88667 55.2205C4.28667 55.7087 4.77333 55.2606 4.77333 55.2606C5.14 55.3743 4.92 55.6953 4.66667 55.8559C4.62667 55.8826 4.63333 55.9094 4.67333 55.9094C4.72667 55.9161 5.3 55.9629 5.40667 55.5014C5.66 55.8024 6.03333 55.6953 6.11333 55.6552C6.22 55.6017 6.76667 55.4011 6.81333 56.003C6.81333 56.0432 6.84 56.0164 6.86 55.9963C7.26667 55.4813 6.83333 55.167 6.58667 55.1335C6.60667 55.1068 6.92667 54.8325 7.22 55.2071C7.24 55.2338 7.26 55.2405 7.26 55.187C7.29333 54.5315 6.76667 54.478 6.42667 54.759C6.41333 54.6921 6.29333 54.3242 6.80667 54.3376C6.82 54.3376 6.84 54.3175 6.82 54.2974C6.42 53.8694 6.09333 54.2573 6.01333 54.351C5.83333 54.565 5.39333 54.4713 5.34667 54.4713C5.48667 52.2106 7.46667 53.0132 7.74 51.9163C7.75333 51.8628 7.78 51.8829 7.78 51.903C7.85333 52.1705 8.52667 52.2039 8.64667 51.6822C8.65333 51.6488 8.64667 51.6287 8.62667 51.6488C8.05333 52.224 6.76 50.4248 8.52667 48.9667C10.0333 47.7226 11.38 48.4182 11.8933 48.8195C11.92 49.0001 11.8133 49.0603 11.74 49.0804C11.7133 49.0871 11.7067 49.1071 11.7467 49.1272C11.8933 49.1807 12.0867 49.1607 12.1867 49.0336C12.5067 49.261 12.2333 49.5486 12.1067 49.6222C12.0733 49.6422 12.0867 49.6623 12.1133 49.669C12.4067 49.7225 12.6533 49.4215 12.6667 49.2409L12.7133 49.2677V50.5519C12.7133 52.3778 14.8133 52.632 17.12 54.1771C19.4267 52.6253 21.52 52.3778 21.52 50.5519V49.2677L21.5667 49.2409C21.58 49.4148 21.82 49.7225 22.12 49.669C22.1467 49.6623 22.16 49.6422 22.1267 49.6222C21.9933 49.5419 21.7133 49.261 22.0467 49.0336C22.14 49.174 22.34 49.1874 22.4867 49.1272C22.5267 49.1138 22.52 49.0871 22.4933 49.0804C22.4267 49.0603 22.3133 49.0001 22.34 48.8195C22.8533 48.4049 24.2 47.7159 25.7067 48.9667C27.4733 50.4315 26.18 52.224 25.6067 51.6488C25.58 51.622 25.58 51.6488 25.5867 51.6822C25.7067 52.2106 26.38 52.1705 26.4533 51.903C26.46 51.8829 26.4867 51.8628 26.4933 51.9163C26.7667 53.0132 28.7467 52.2106 28.8867 54.4713C28.8467 54.478 28.4 54.5583 28.22 54.351C28.1467 54.264 27.8133 53.8694 27.4133 54.2974C27.3867 54.3242 27.4133 54.3376 27.4267 54.3376C27.94 54.3242 27.8333 54.6854 27.8067 54.759C27.4667 54.478 26.94 54.5315 26.9733 55.187C26.9733 55.2338 26.9933 55.2338 27.0133 55.2071C27.3067 54.8325 27.6267 55.1068 27.6467 55.1335C27.4067 55.167 26.9667 55.4813 27.3733 55.9963C27.3933 56.0164 27.4133 56.0432 27.42 56.003C27.4733 55.4011 28.0067 55.5883 28.12 55.6552C28.1933 55.6953 28.5733 55.8091 28.8267 55.5014C28.9267 55.9629 29.5067 55.9161 29.56 55.9094C29.6 55.9094 29.6 55.8826 29.5667 55.8559C29.32 55.6887 29.0867 55.3743 29.46 55.2606C29.46 55.2606 29.9533 55.7087 30.3467 55.2205C30.38 55.1803 30.36 55.167 30.34 55.1736C30.2933 55.187 29.7333 55.2539 29.7733 54.6921C29.8 54.2974 30.0867 52.9664 29.5533 52.632C29.52 52.6119 29.5067 52.5919 29.54 52.5785C30.0733 52.4648 30.14 52.0835 29.9733 51.6555C29.9533 51.602 29.92 51.6153 29.92 51.6488C29.88 52.5116 28.5067 52.1036 28.4533 50.893C29.1933 51.0869 30.46 50.8261 30.46 49.6155C30.46 48.4049 28.9467 47.7895 28.9467 46.9267C28.9467 46.7795 28.94 46.1843 29.6467 46.1843C30.22 46.1843 30.6467 46.619 30.76 47.0672C30.7667 47.0872 30.7867 47.0939 30.8067 47.0672C30.8867 46.9601 30.8733 46.512 30.6667 46.2712C30.6467 46.2511 30.6667 46.2043 30.7133 46.2311C30.7733 46.2712 30.98 46.3314 31.1933 46.3314C31.6667 46.3314 31.92 46.0706 31.92 45.6358C31.92 45.3683 31.8267 45.2278 31.8667 45.1409C31.8867 45.1007 31.8333 45.074 31.8133 45.1208C31.7467 45.2612 31.62 45.6024 31.14 45.6024H29.9867C28.6933 45.6024 28.58 46.6525 28.58 46.9066C28.58 47.9701 29.9267 48.4316 29.9267 49.5085C29.9267 49.7626 29.7933 50.184 29.1067 50.184C28.82 50.184 28.52 50.1037 28.34 50.0235C28.34 50.0235 28.0333 48.1373 27.1133 47.4752C27.1133 47.4752 26.0467 47.9969 24.9867 47.4216C24.18 46.9802 23.7933 46.6859 23.0867 47.1809C22.38 47.6758 21.76 48.2042 21.6867 48.1908L21.5133 48.1574V43.9102C21.84 43.8767 21.86 44.171 21.8467 44.2446C21.8267 44.3382 21.7267 44.4252 21.94 44.7596C21.96 44.7864 21.98 44.773 21.9867 44.7462C21.9933 44.666 22.04 44.5188 22.1533 44.5188C22.2667 44.5188 22.7667 44.8934 23.2 45.3281C23.2 45.3281 23.4467 44.579 24.04 44.3449C23.7067 44.2914 22.2533 43.9369 22.2533 43.3015C22.2533 43.0875 22.0133 43.0407 21.8533 43.054C21.8467 43.034 21.6067 42.4721 21.1667 42.7664C21.1467 42.7798 21.1467 42.8132 21.1733 42.8199C21.3733 42.8668 21.4533 43.0674 21.46 43.2881C21.0333 43.1544 19.2333 42.6527 17.1 42.6527C16.06 42.6527 15.1067 42.7731 14.3467 42.9136V44.3851H13.7533V43.034M9.84 58.1233C9.68 58.0631 9.58 57.9561 9.58 57.7487V56.8324C9.32 56.7454 8.60667 56.4712 7.18 56.4712C5.99333 56.4712 5.62667 56.7388 5.60667 56.8324L5.29333 58.5714C5.29333 58.5714 5.77333 58.13 7.49333 58.2437C9.56 58.3774 11.7 59.6014 11.7 58.2905V57.5213C10.0867 57.528 9.84667 58.0497 9.84667 58.1233H9.84ZM22.56 57.5213V58.2905C22.56 59.5948 24.7 58.3708 26.7667 58.2437C28.4867 58.1367 28.9667 58.5714 28.9667 58.5714L28.6533 56.8257C28.64 56.7321 28.26 56.4645 27.08 56.4645C25.6533 56.4645 24.9467 56.7388 24.68 56.8257V57.742C24.68 57.9494 24.58 58.0497 24.42 58.1166C24.4267 58.043 24.1867 57.5213 22.5667 57.5213H22.56ZM17.1267 56.7321C20.46 56.7321 23.84 56.906 24.28 57.4143C24.3133 57.4544 24.3267 57.4143 24.3267 57.3809V55.6084C24.3267 55.0934 20.8333 54.7924 17.12 54.7924C13.4067 54.7924 9.91333 55.0934 9.91333 55.6084V57.3809C9.91333 57.3809 9.92667 57.4477 9.96 57.4143C10.42 56.9127 13.8 56.7321 17.1267 56.7321ZM14.16 48.3848L13.8267 48.2978L13.8 48.338L13.4067 48.1641H13.7533C13.7867 48.1641 13.7867 48.144 13.7733 48.1306C13.6133 47.9701 13.4733 47.8363 13.4733 47.8363C13.4733 47.8363 13.6333 47.8965 13.8533 47.9835C13.88 47.9902 13.8867 47.9768 13.8733 47.9567C13.7667 47.7962 13.6133 47.5822 13.6133 47.5822C13.6133 47.5822 13.9267 47.7962 13.9867 47.8363C14.0067 47.8497 14.02 47.8363 14.0133 47.8163C13.9333 47.6089 13.8333 47.3681 13.8333 47.3681L14.1733 47.6959C14.1733 47.6959 14.2067 47.7026 14.2 47.6825C14.1667 47.522 14.1067 47.2344 14.1067 47.2344L14.36 47.6022C14.36 47.6022 14.3933 47.6156 14.3933 47.5955C14.3933 47.522 14.4 47.1875 14.4 47.1875C14.4 47.1875 14.5067 47.435 14.56 47.5554C14.5733 47.5822 14.5867 47.5822 14.6 47.5487C14.6133 47.5086 14.7333 47.2344 14.7333 47.2344L14.7467 47.6624L14.6933 47.6758L14.6267 48.1841C15.1267 48.0704 15.7533 47.2009 16.2333 47.2009C16.8067 47.2009 17.0133 47.8765 18.0667 47.5287C18.3333 47.93 18.4267 48.2711 18.5333 48.746C18.9467 49.1272 19.5133 49.0001 19.5133 48.5921C19.5133 48.0437 18.92 47.9367 18.92 47.3614C18.92 47.1073 19.1 46.7394 19.5867 46.7394C19.8467 46.7394 20.22 46.8464 20.44 46.8464C20.7 46.8464 20.7533 46.6591 20.78 46.5789C20.8 46.5254 20.8733 46.5388 20.8667 46.5856C20.86 46.6391 20.8933 46.7193 20.8933 46.8397C20.8933 47.2009 20.3667 47.2544 20.3067 47.2009C20.28 47.1809 20.26 47.2076 20.28 47.2277C20.36 47.2879 20.34 47.5086 20.2467 47.649C20.2333 47.6624 20.22 47.6624 20.22 47.649C20.1667 47.3882 19.86 47.0672 19.5933 47.0672C19.5 47.0672 19.3 47.1207 19.3 47.3548C19.3 47.6758 19.9533 47.9768 19.9533 48.6523C19.9533 49.3279 19.26 49.5218 18.5667 49.3479C18.5867 50.0168 19.58 50.4047 19.6 49.9298C19.6 49.8964 19.62 49.9165 19.6267 49.9298C19.7733 50.1372 19.7067 50.2843 19.52 50.3713C19.6933 50.4449 19.7267 50.7993 19.7733 51.0067C19.8467 51.3211 20.18 51.1471 20.2 51.1405C20.22 51.1271 20.2267 51.1405 20.2133 51.1605C20.0933 51.4816 19.7533 51.3612 19.7533 51.3612C19.58 51.4816 19.7867 51.5953 19.9467 51.6421C19.9667 51.6488 19.9667 51.6622 19.9533 51.6755C19.84 51.7157 19.5933 51.7959 19.4667 51.5886C19.38 51.8093 19.1933 51.8026 19.1267 51.8026C18.9933 51.8026 18.9133 51.9364 18.94 52.1103C18.94 52.1237 18.9333 52.1304 18.92 52.1237C18.62 51.923 18.7867 51.6822 18.9133 51.622C18.8933 51.6087 18.68 51.5217 18.5933 51.7692C18.5867 51.7892 18.5733 51.7892 18.5667 51.7692C18.4333 51.4147 18.7267 51.3077 18.9267 51.4013C18.9133 51.3545 18.8067 51.1739 18.5267 51.2341C18.5133 51.2408 18.5067 51.2341 18.5133 51.214C18.56 51.107 18.6933 50.9465 18.9467 51.107C19.08 51.1873 19.2933 51.0736 19.3133 51.0602C18.8667 50.1773 18.0133 50.913 17.8133 50.2241C17.8067 50.2108 17.7933 50.1974 17.78 50.2375C17.7333 50.3847 17.3533 50.398 17.2867 50.1037C17.28 50.0837 17.2867 50.077 17.3067 50.0904C17.36 50.1439 17.48 50.1907 17.6333 49.9767C17.7333 49.8228 17.7467 49.6289 17.7467 49.4951C17.7467 48.96 17.2133 48.0504 16.38 48.0504C15.8533 48.0504 15.2867 48.2577 14.86 48.5654L15.2533 48.6523C15.22 49.0536 14.8333 49.281 14.4867 49.1807L14.5467 48.7259C14.4867 48.746 14.3333 48.7995 14.2533 48.9199C14.2467 48.9266 14.2333 48.9266 14.2333 48.9132C14.1667 48.6523 14.38 48.5186 14.44 48.4918C14.44 48.4918 14.44 48.4851 14.4333 48.4851C14.24 48.4784 14.14 48.6189 14.1067 48.6657C14.1 48.6724 14.0933 48.6724 14.0933 48.6657C14.1133 48.6122 14.08 48.4784 14.1667 48.3848H14.16ZM15.3267 51.4615C15.1733 51.6488 15.0467 51.4682 14.8467 51.4682C14.66 51.4682 14.6267 51.6287 14.6267 51.6889C14.6267 51.7023 14.62 51.7023 14.6133 51.6956C14.4 51.408 14.64 51.2475 14.78 51.2274C14.76 51.2073 14.5533 51.0669 14.4267 51.2609C14.42 51.2742 14.4067 51.2675 14.4067 51.2542C14.4 50.8997 14.68 50.8729 14.8733 51.0268C14.9067 50.8863 14.82 50.7993 14.6667 50.7927C14.6467 50.7927 14.6467 50.7793 14.6533 50.7726C14.7133 50.7057 14.7733 50.6789 14.84 50.6789C15.04 50.6789 15.0667 50.9331 15.1933 50.9331C15.3867 50.9331 15.6667 50.6723 15.6867 50.6455C15.68 50.6321 15.4933 50.1238 15.5267 49.8228C15.5267 49.8094 15.52 49.8094 15.5133 49.8161C15.42 49.8696 15.1867 49.863 15.1867 49.5753C15.1867 49.5553 15.1933 49.5486 15.2067 49.5687C15.3067 49.7158 15.48 49.5486 15.56 49.455C15.6467 49.3546 16.14 48.639 16.7933 48.639C16.94 48.639 17.12 48.7192 17.2733 48.8262C17.0467 49.1005 17.2733 49.3613 17.44 49.3279C17.46 49.3212 17.46 49.3412 17.4467 49.3479C16.5867 49.669 16.2 49.8028 16.2 50.5318C16.2 50.9064 16.3333 51.1204 16.5467 51.0669C16.56 51.0602 16.5667 51.0669 16.5533 51.0803C16.4733 51.1739 16.38 51.214 16.3067 51.214C16.1267 51.214 16.0933 51.1204 16 51.1204C15.9067 51.1204 15.58 51.3144 15.58 51.4682C15.58 51.5284 15.62 51.6153 15.7333 51.6822C15.74 51.6889 15.7333 51.6956 15.7333 51.6956C15.64 51.6956 15.3867 51.7157 15.3267 51.4749V51.4615ZM17.5933 44.4252C17.3267 44.4118 17.1467 44.4653 17.16 44.559C17.2933 44.6994 17.46 44.6793 17.5933 44.4252ZM16.6 45.0873C16.7933 45.0405 17 45.0606 17.0267 45.0673C17.0533 45.074 17.0533 45.1208 17.02 45.1275C16.62 45.1743 16.6 45.3616 16.3467 45.3616C16.18 45.3616 16 45.1877 16.0667 44.9402C16.0733 44.9068 16.1 44.9068 16.1067 44.9402C16.1333 45.0472 16.2933 45.1676 16.6 45.0873ZM11.4467 53.9162C11.7067 54.2506 11.96 53.9363 12.3067 53.9363C12.48 53.9363 12.68 53.9898 12.72 54.3376C12.72 54.3576 12.7333 54.3576 12.7533 54.3376C13.1267 53.8226 12.7 53.535 12.4533 53.4948C12.5067 53.448 12.8733 53.2206 13.1133 53.555C13.1267 53.5751 13.1533 53.5684 13.1533 53.5416C13.1533 52.8862 12.6667 52.8393 12.3133 53.1203C12.2467 52.8661 12.4333 52.6989 12.68 52.6989C12.7067 52.6989 12.72 52.6788 12.7067 52.6654C12.2667 52.1972 11.9467 52.7858 11.8733 52.8795C11.7 53.1136 11.08 52.6721 10.8267 52.4113C10.8267 52.4113 11.3733 51.8361 11.3733 51.3077C11.3733 51.2742 11.3667 51.2341 11.3667 51.214C11.3667 51.2007 11.3733 51.194 11.3867 51.2007C11.44 51.2341 11.52 51.2542 11.5933 51.2542C11.7133 51.2542 11.9533 51.214 11.9533 50.7659C11.9533 50.7325 11.94 50.7325 11.9267 50.7525C11.86 50.8462 11.7867 50.8662 11.7333 50.8662C11.2867 50.8662 10.3667 49.3814 9.26667 49.3814C8.98 49.3814 8.44 49.5887 8.17333 49.883C8.30667 49.9566 8.33333 50.1238 8.32 50.2375C8.3 50.4248 8.14667 50.5184 8 50.5586C7.97333 50.5652 7.97333 50.5853 8 50.5987C8.55333 50.8127 9.55333 51.1873 9.78667 51.3879C10.0533 51.622 10.0067 52.0635 9.84667 52.6721C9.69333 53.254 9.37333 53.1805 9.25333 53.1604C9.23333 53.1604 9.23333 53.1671 9.24 53.1805C9.38667 53.3611 9.55333 53.4212 9.70667 53.4212C9.99333 53.4212 10.1067 53.2407 10.2467 53.2407C10.4933 53.2407 11.02 53.5951 11.02 53.8694C11.02 54.0232 10.9067 54.1637 10.7467 54.264C10.74 54.2707 10.74 54.2841 10.7533 54.2841C10.8667 54.3041 11.3533 54.3443 11.4533 53.9095L11.4467 53.9162ZM23.5133 54.2974C23.5133 54.2974 23.5333 54.2841 23.52 54.2774C23.3667 54.1771 23.2467 54.0366 23.2467 53.8828C23.2467 53.6085 23.7667 53.254 24.02 53.254C24.1733 53.254 24.2733 53.4346 24.56 53.4346C24.7133 53.4346 24.88 53.3744 25.0267 53.1938C25.04 53.1805 25.0333 53.1671 25.0133 53.1738C24.9 53.1938 24.5667 53.2674 24.42 52.6855C24.26 52.0769 24.2067 51.6354 24.48 51.4013C24.7067 51.2007 25.7133 50.8261 26.2667 50.6121C26.2933 50.5987 26.2933 50.5786 26.2667 50.5719C26.1133 50.5318 25.9667 50.4315 25.9467 50.2509C25.9333 50.1372 25.96 49.9767 26.0933 49.8964C25.82 49.6021 25.28 49.3948 24.9933 49.3948C23.9 49.3948 22.9733 50.8796 22.5267 50.8796C22.4733 50.8796 22.3933 50.8595 22.3333 50.7659C22.32 50.7458 22.3067 50.7458 22.3067 50.7793C22.3067 51.2274 22.5467 51.2675 22.6667 51.2675C22.7333 51.2675 22.82 51.2475 22.8733 51.214C22.8867 51.2073 22.8933 51.214 22.8933 51.2274C22.8933 51.2475 22.8867 51.2876 22.8867 51.3211C22.8867 51.8494 23.4333 52.4247 23.4333 52.4247C23.1867 52.6855 22.5667 53.1203 22.3867 52.8929C22.3133 52.7992 21.9867 52.2106 21.5533 52.6788C21.54 52.6989 21.5467 52.7123 21.58 52.7123C21.8267 52.7123 22.02 52.8795 21.9467 53.1336C21.5933 52.8527 21.1067 52.8995 21.1067 53.555C21.1067 53.5818 21.1333 53.5885 21.1467 53.5684C21.38 53.234 21.7467 53.4614 21.8 53.5082C21.5533 53.5416 21.1267 53.8359 21.5 54.351C21.5133 54.371 21.5267 54.371 21.5333 54.351C21.5733 54.0165 21.78 53.9496 21.9467 53.9496C22.2867 53.9496 22.54 54.264 22.8067 53.9296C22.9133 54.371 23.4 54.3309 23.52 54.3041L23.5133 54.2974ZM14.68 45.7361C14.6467 45.7829 14.5267 45.7361 14.4867 45.7161C14.48 45.7094 14.4733 45.7161 14.48 45.7228C14.5067 45.783 14.62 45.9702 14.78 45.9702C14.8533 45.9702 14.9667 45.9301 14.9933 45.8766C14.9933 45.8766 15.6333 46.0906 15.9533 46.1709C15.8333 46.3381 15.7533 46.5321 15.7333 46.7461C15.48 46.5856 14.4533 46.0371 14.4533 46.0371L14.14 46.4786C14.0867 46.5454 13.8333 46.3649 13.8867 46.2913L14.1267 45.9569C14.0467 45.8766 13.8533 45.9234 13.8 45.9435C13.7933 45.9435 13.7867 45.9435 13.7933 45.9301C13.8267 45.8632 13.9467 45.6626 14.2467 45.7495C14.2467 45.5622 13.9733 45.6291 13.9 45.6492C13.8933 45.6492 13.8867 45.6492 13.8933 45.6425C13.9667 45.5622 14.1933 45.3816 14.44 45.5355L14.5467 45.3816L14.3267 45.1475L14.4667 44.9536L14.6267 45.1609L15.8133 43.5356C15.84 43.4955 16.08 43.4286 16.16 43.4018C16.1667 43.4888 16.18 43.7363 16.1533 43.7764L14.9867 45.4151L15.2333 45.4953L15.0933 45.6893L14.8067 45.5489L14.6867 45.7294L14.68 45.7361ZM18.8333 45.4686C18.8333 45.6224 18.92 45.8365 19.12 45.7696C19.1267 45.7629 19.14 45.7696 19.1333 45.7763C19.1067 45.9435 18.8067 46.0906 18.6733 45.8967C18.5533 46.1508 18.5867 46.3916 18.84 46.5254C18.8533 46.5321 18.8533 46.5521 18.84 46.5655C18.68 46.6725 18.44 46.6525 18.3333 46.4317C18.12 46.5923 18.1467 46.9334 18.28 47.0471C18.28 47.0471 17.6933 47.3949 17.16 47.1474C16.8067 46.9735 16.52 46.7528 16.06 46.7996C16.12 46.1575 16.44 45.9903 17.0333 45.89C17.5067 45.8164 17.56 45.5957 17.5 45.4285C17.34 45.3883 17.0467 45.5288 17.0467 45.5288C16.9933 45.4418 17.0667 45.3482 17.0667 45.3482C17.04 45.3148 17.0267 45.1944 17.0267 45.1944C17.3533 45.1944 17.42 45.1208 17.42 45.1208C17.48 44.7797 17.1333 44.7462 16.8667 44.9268C16.7467 44.8198 16.7667 44.6727 16.7667 44.6727C16.7333 44.6526 16.7067 44.5991 16.7067 44.5723C16.7067 44.4921 17.1 44.2713 17.2 44.2446C17.2267 44.1309 17.3667 43.9704 17.78 44.0105C17.8267 43.9035 17.7467 43.4955 17.7 43.3951C17.6867 43.3617 17.7067 43.3483 17.74 43.3684C17.8867 43.4553 18.0267 43.8031 18.1333 43.8098C18.1333 43.8098 18.6 43.5624 18.62 43.5757C18.64 43.5891 18.7067 44.1108 18.7067 44.1108C18.7667 44.1844 19.1333 44.1108 19.2867 44.1777C19.3267 44.1978 19.3267 44.2245 19.2867 44.2312C19.1733 44.2513 18.7933 44.4185 18.7333 44.5188C18.9533 44.8399 18.8467 45.3148 18.8467 45.4485L18.8333 45.4686Z" fill="var(--fill-0, white)"/>
</g>
</svg>
