<svg preserveAspectRatio="none" width="100%" height="100%" overflow="visible" style="display: block;" viewBox="0 0 57.2 9.23686" fill="none" xmlns="http://www.w3.org/2000/svg">
<g id="Woordmerk">
<path id="Vector" d="M1.27157e-06 7.23029V0.474885H1.95334C2.78667 0.474885 3.41334 0.642098 3.83334 0.976524C4.25334 1.31095 4.46 1.77246 4.46 2.35436C4.46 2.67541 4.40667 2.96302 4.31334 3.21718C4.22 3.47135 4.07334 3.68538 3.88667 3.86597C3.7 4.04656 3.48 4.18702 3.22667 4.30072L5.01334 7.22361H3.6L2.09333 4.62846H1.21333V7.22361H0.0133375L1.27157e-06 7.23029ZM1.18667 3.67869H1.94667C2.32667 3.67869 2.63334 3.58505 2.86 3.39777C3.08667 3.21049 3.2 2.92289 3.2 2.53495C3.2 2.17377 3.09334 1.89954 2.88667 1.71895C2.68 1.53836 2.34667 1.44472 1.89334 1.44472H1.18667V3.67869Z" fill="var(--fill-0, #154273)"/>
<path id="Vector_2" d="M6.32667 1.31764C6.12 1.31764 5.96 1.25744 5.83333 1.14374C5.70667 1.03003 5.64667 0.869508 5.64667 0.668853C5.64667 0.468197 5.70667 0.300984 5.83333 0.180591C5.96 0.060197 6.12 0 6.32667 0C6.54667 0 6.71334 0.060197 6.82667 0.180591C6.94 0.300984 6.99334 0.461508 6.99334 0.668853C6.99334 0.876197 6.93334 1.02334 6.82667 1.14374C6.72 1.26413 6.54667 1.31764 6.32667 1.31764ZM5.76 7.2303V2.15371L6.9 2.08013V7.2303H5.76Z" fill="var(--fill-0, #154273)"/>
<path id="Vector_3" d="M7.61334 9.23685L7.51334 8.32053C7.78667 8.25364 7.98667 8.13324 8.10667 7.96603C8.22667 7.79882 8.29334 7.55803 8.29334 7.25705V2.15371L9.43334 2.08013V7.24367C9.43334 7.66505 9.35334 8.01285 9.19334 8.30046C9.03334 8.58137 8.81334 8.79541 8.54 8.94256C8.26667 9.08971 7.96 9.19003 7.61334 9.23685ZM8.85334 1.31764C8.64667 1.31764 8.48667 1.25744 8.36 1.14374C8.23333 1.03003 8.17334 0.869508 8.17334 0.668852C8.17334 0.468197 8.23333 0.300984 8.36 0.18059C8.48667 0.060197 8.64667 0 8.85334 0C9.07334 0 9.24001 0.060197 9.35334 0.18059C9.46667 0.300984 9.52001 0.461508 9.52001 0.668852C9.52001 0.876197 9.46001 1.02334 9.35334 1.14374C9.24667 1.26413 9.07334 1.31764 8.85334 1.31764Z" fill="var(--fill-0, #154273)"/>
<path id="Vector_4" d="M10.7933 7.23029V0.0735742L11.9333 0.0133774V3.97967H12.3533L13.8333 2.16039H15.1467L13.36 4.29403L15.28 7.23698H13.9267L12.42 4.88931H11.94V7.23698H10.8L10.7933 7.23029Z" fill="var(--fill-0, #154273)"/>
<path id="Vector_5" d="M17.4467 7.32393C17.1467 7.32393 16.88 7.31056 16.6467 7.29049C16.4133 7.26374 16.1933 7.23029 15.9867 7.18347V6.17351C16.2333 6.24039 16.48 6.28721 16.72 6.32065C16.96 6.34741 17.2067 6.36079 17.4467 6.36079C17.7933 6.36079 18.0467 6.30728 18.1933 6.20695C18.3467 6.10662 18.42 5.97285 18.42 5.81233C18.42 5.67187 18.3667 5.55816 18.2533 5.46452C18.14 5.37088 17.9533 5.28393 17.68 5.21036L17.0867 5.02308C16.74 4.91606 16.4667 4.75554 16.28 4.54151C16.0933 4.32079 16 4.03318 16 3.672C16 3.35764 16.0867 3.08341 16.2533 2.84262C16.42 2.60184 16.66 2.41456 16.9733 2.2741C17.2867 2.13364 17.66 2.06675 18.1 2.06675C18.3467 2.06675 18.5733 2.07344 18.7733 2.09351C18.9733 2.11357 19.1667 2.13364 19.34 2.17377L19.26 3.14361C19.0533 3.11016 18.86 3.08341 18.68 3.07003C18.5 3.05666 18.3 3.04997 18.08 3.04997C17.74 3.04997 17.4933 3.09679 17.3533 3.19043C17.2133 3.28407 17.14 3.40446 17.14 3.55829C17.14 3.69875 17.1867 3.80577 17.28 3.89272C17.3733 3.97967 17.54 4.04656 17.78 4.11344L18.3733 4.26728C18.7733 4.38098 19.0667 4.5482 19.2667 4.76892C19.4667 4.98964 19.5667 5.27724 19.5667 5.63174C19.5667 5.98623 19.48 6.28052 19.3133 6.53469C19.14 6.78885 18.9 6.9895 18.5867 7.12996C18.2733 7.27042 17.9 7.33731 17.46 7.33731L17.4467 7.32393Z" fill="var(--fill-0, #154273)"/>
<path id="Vector_6" d="M22.7467 7.32393C22.2733 7.32393 21.86 7.23029 21.5067 7.04301C21.1533 6.85574 20.88 6.57482 20.68 6.19357C20.48 5.81233 20.38 5.34413 20.38 4.7823C20.38 4.22046 20.4933 3.73888 20.7267 3.33088C20.9533 2.92288 21.26 2.60852 21.6467 2.3878C22.0267 2.16708 22.4467 2.06006 22.8867 2.06006C23.36 2.06006 23.7733 2.1537 24.12 2.34098C24.4733 2.52826 24.7467 2.80918 24.9467 3.19043C25.1467 3.56498 25.2467 4.03987 25.2467 4.60171C25.2467 5.16354 25.1333 5.64512 24.9 6.05312C24.6667 6.46112 24.3667 6.77547 23.98 6.9962C23.5933 7.21692 23.18 7.32393 22.74 7.32393H22.7467ZM22.8133 6.31397C23.06 6.31397 23.28 6.24708 23.4667 6.12C23.6533 5.99292 23.8067 5.79895 23.92 5.55816C24.0333 5.31738 24.0867 5.0097 24.0867 4.64183C24.0867 4.10675 23.9733 3.71213 23.74 3.45797C23.5067 3.2038 23.2 3.07003 22.8133 3.07003C22.5733 3.07003 22.36 3.13692 22.1667 3.264C21.9733 3.39108 21.82 3.58505 21.7133 3.83252C21.6 4.08 21.5467 4.38098 21.5467 4.74885C21.5467 5.28393 21.66 5.67856 21.8933 5.93272C22.1267 6.18689 22.4333 6.32065 22.82 6.32065L22.8133 6.31397Z" fill="var(--fill-0, #154273)"/>
<path id="Vector_7" d="M27.26 7.23029L25.6467 2.15371H26.9533L28.06 6.31397H28.12L29.2467 2.15371H30.4267L28.8067 7.23029H27.2533H27.26Z" fill="var(--fill-0, #154273)"/>
<path id="Vector_8" d="M33.3133 7.32393C32.54 7.32393 31.9267 7.1099 31.48 6.68183C31.0333 6.25377 30.8067 5.59829 30.8067 4.71541C30.8067 4.12682 30.9067 3.63856 31.1067 3.25062C31.3067 2.86269 31.58 2.5617 31.92 2.36105C32.26 2.16039 32.6467 2.06006 33.0667 2.06006C33.4867 2.06006 33.8467 2.14033 34.1467 2.30085C34.4467 2.46138 34.68 2.69547 34.84 3.00315C35 3.31082 35.08 3.68538 35.08 4.12682C35.08 4.28065 35.08 4.4278 35.08 4.56826C35.08 4.70872 35.0667 4.84249 35.0533 4.96288H31.9333C31.96 5.27724 32.04 5.53141 32.1667 5.73875C32.2933 5.93941 32.4667 6.09325 32.6867 6.19357C32.9067 6.2939 33.16 6.34072 33.4533 6.34072C33.7467 6.34072 34 6.32065 34.2333 6.28052C34.4667 6.24039 34.7067 6.17351 34.9533 6.08656V7.03632C34.6933 7.12996 34.44 7.20354 34.1933 7.25036C33.9467 7.29718 33.6533 7.32393 33.32 7.32393H33.3133ZM31.92 4.13351H33.96C33.96 3.75895 33.8733 3.47134 33.7067 3.264C33.54 3.05666 33.3 2.95633 33 2.95633C32.7267 2.95633 32.4933 3.06334 32.2933 3.27069C32.0933 3.47803 31.9733 3.76564 31.9267 4.13351H31.92Z" fill="var(--fill-0, #154273)"/>
<path id="Vector_9" d="M36.2133 7.23029V2.15371L37.34 2.1002V2.67541C37.52 2.448 37.6933 2.28747 37.8667 2.19384C38.04 2.1002 38.2133 2.05338 38.4 2.05338C38.5267 2.05338 38.6267 2.05338 38.7133 2.06675C38.8 2.08013 38.8933 2.09351 38.9933 2.12695L38.9133 3.23056C38.8067 3.19711 38.7067 3.17705 38.6133 3.16367C38.52 3.15029 38.42 3.15029 38.3133 3.15029C38.1467 3.15029 37.9933 3.17705 37.8467 3.23725C37.7 3.29744 37.54 3.39108 37.36 3.53154V7.23029H36.22H36.2133Z" fill="var(--fill-0, #154273)"/>
<path id="Vector_10" d="M39.7533 7.23029V0.0735742L40.8933 0.0133774V2.44131C41.1067 2.30754 41.3133 2.2139 41.52 2.15371C41.7267 2.09351 41.9667 2.06006 42.24 2.06006C42.7867 2.06006 43.2133 2.2139 43.52 2.52157C43.8267 2.82925 43.9733 3.27738 43.9733 3.87266V7.23029H42.8333V4.07331C42.8333 3.77233 42.7533 3.53154 42.5933 3.36433C42.4333 3.19711 42.2 3.11016 41.8933 3.11016C41.7 3.11016 41.5333 3.12354 41.3933 3.15029C41.2467 3.17705 41.0867 3.22387 40.9 3.29744V7.23029H39.76H39.7533Z" fill="var(--fill-0, #154273)"/>
<path id="Vector_11" d="M47.5533 7.32393C46.78 7.32393 46.1667 7.1099 45.72 6.68183C45.2733 6.25377 45.0467 5.59829 45.0467 4.71541C45.0467 4.12682 45.1467 3.63856 45.3467 3.25062C45.5467 2.86269 45.82 2.5617 46.16 2.36105C46.5 2.16039 46.8867 2.06006 47.3067 2.06006C47.7267 2.06006 48.08 2.14033 48.3867 2.30085C48.6867 2.46138 48.92 2.69547 49.08 3.00315C49.24 3.31082 49.32 3.68538 49.32 4.12682C49.32 4.28065 49.32 4.4278 49.32 4.56826C49.32 4.70872 49.3067 4.84249 49.2933 4.96288H46.1733C46.2 5.27724 46.28 5.53141 46.4067 5.73875C46.5333 5.93941 46.7067 6.09325 46.9267 6.19357C47.1467 6.2939 47.4 6.34072 47.6933 6.34072C47.9867 6.34072 48.24 6.32065 48.4733 6.28052C48.7067 6.24039 48.9467 6.17351 49.1933 6.08656V7.03632C48.9333 7.12996 48.68 7.20354 48.4333 7.25036C48.1867 7.29718 47.8933 7.32393 47.56 7.32393H47.5533ZM46.1533 4.13351H48.1933C48.1933 3.75895 48.1067 3.47134 47.94 3.264C47.7733 3.05666 47.5333 2.95633 47.2333 2.95633C46.96 2.95633 46.7267 3.06334 46.5267 3.27069C46.3267 3.47803 46.2067 3.76564 46.16 4.13351H46.1533Z" fill="var(--fill-0, #154273)"/>
<path id="Vector_12" d="M51.0067 1.31764C50.8 1.31764 50.64 1.25744 50.5133 1.14374C50.3867 1.03003 50.3267 0.869508 50.3267 0.668853C50.3267 0.468197 50.3867 0.300984 50.5133 0.180591C50.64 0.060197 50.8 0 51.0067 0C51.2267 0 51.3933 0.060197 51.5067 0.180591C51.62 0.300984 51.6733 0.461508 51.6733 0.668853C51.6733 0.876197 51.6133 1.02334 51.5067 1.14374C51.4 1.26413 51.2267 1.31764 51.0067 1.31764ZM50.44 7.2303V2.15371L51.58 2.08013V7.2303H50.44Z" fill="var(--fill-0, #154273)"/>
<path id="Vector_13" d="M54.8267 7.32393C54.4 7.32393 54.0267 7.23029 53.7067 7.04302C53.3867 6.85574 53.1333 6.57482 52.9533 6.20695C52.7733 5.83908 52.68 5.37757 52.68 4.82912C52.68 4.24721 52.7933 3.75226 53.0267 3.33757C53.2533 2.92288 53.5733 2.60852 53.9733 2.3878C54.3733 2.16708 54.8267 2.06006 55.3333 2.06006C55.48 2.06006 55.6067 2.06006 55.7267 2.07344C55.8467 2.08682 55.96 2.10689 56.06 2.14033V0.0735742L57.2 0.0133774V7.23029H56.1V6.92262C55.92 7.0497 55.72 7.14334 55.5 7.21692C55.28 7.29049 55.0533 7.32393 54.8267 7.32393ZM55.1267 6.32734C55.32 6.32734 55.4867 6.30728 55.6267 6.27383C55.7667 6.24039 55.9133 6.17351 56.0733 6.09325V3.11016C55.9467 3.0901 55.8267 3.07672 55.7067 3.06334C55.5867 3.04997 55.46 3.04997 55.32 3.04997C55.0267 3.04997 54.7667 3.11685 54.5467 3.25062C54.3267 3.38439 54.1533 3.57836 54.0267 3.83252C53.9 4.08669 53.84 4.39436 53.84 4.75554C53.84 5.29731 53.96 5.69862 54.1933 5.95279C54.4267 6.20695 54.74 6.33403 55.12 6.33403L55.1267 6.32734Z" fill="var(--fill-0, #154273)"/>
</g>
</svg>
